<?xml version="1.0" standalone="no"?>
<!DOCTYPE svg PUBLIC "-//W3C//DTD SVG 1.1//EN" "http://www.w3.org/Graphics/SVG/1.1/DTD/svg11.dtd" >
<svg xmlns="http://www.w3.org/2000/svg">
<metadata>
Created by FontPrep 20130207 at Tue Oct 16 12:11:03 2018
 By Stefan Kristian Hansen
Copyright (c) 2018 by TypeType. Designers Ivan Gladkikh, Pavel Emelyanov. Technical designers Marina Khodak, Vika Usmanova, Nadyr Rakhimov. All rights reserved.
</metadata>
<defs>
<font id="a2bd8a77668014c9fe4ee35547f8bdcb" horiz-adv-x='1024' >
  <font-face 
    font-family="TTCommons-Medium"
    font-weight="500"
    font-stretch="normal"
    units-per-em="2048"
    panose-1="2 0 8 6 3 0 0 2 0 4"
    ascent="1434"
    descent="-614"
    x-height="922"
    cap-height="1290"
    bbox="-369 -532 2945 1751"
    underline-thickness="102"
    underline-position="-102"
    unicode-range="U+000D-FB06"
  />
<missing-glyph horiz-adv-x="0" 
 />
    <glyph glyph-name="ff" unicode="ff" horiz-adv-x="1105" 
d="M963 1300q62 0 102 -20v-164q-31 10 -77 10t-86 -41q-42 -41 -42 -102v-61h205v-174h-205v-748h-184v748h-338v-748h-184v748h-113v174h113v20q0 143 80 230q81 87 206 88q58 0 103 -21v-164q-31 10 -77 10t-87 -41t-41 -102v-20h338v61q0 143 81 230t206 87z" />
    <glyph glyph-name="uniFB01" unicode="fi" horiz-adv-x="983" 
d="M768 1065q-47 0 -80 33t-33 80q0 48 33 80t80 32t80 -33t33 -79t-33 -80q-33 -33 -80 -33zM440 1300q60 0 103 -20v-164q-31 10 -77 10t-87 -41t-41 -102v-61h522v-922h-184v748h-338v-748h-184v748h-113v174h113v61q0 143 80 230q81 87 206 87z" />
    <glyph glyph-name="uniFB02" unicode="fl" horiz-adv-x="1003" 
d="M543 922v-174h-205v-748h-184v748h-113v174h113v20q0 162 105 265t273 104q76 0 134 -25l20 -6h184v-1280h-184v1096q-72 51 -156 51t-138 -56t-54 -149v-20h205z" />
    <glyph glyph-name="ffi" unicode="ffi" horiz-adv-x="1505" 
d="M1290 1065q-45 0 -79 33t-33 80q0 48 34 80t78 32q45 0 79 -33t34 -79t-34 -80q-34 -33 -79 -33zM963 1300q62 0 102 -20v-164q-31 10 -77 10t-86 -41q-42 -41 -42 -102v-61h522v-922h-184v748h-338v-748h-184v748h-338v-748h-184v748h-113v174h113v20q0 143 80 230
q81 87 206 88q58 0 103 -21v-164q-31 10 -77 10t-87 -41t-41 -102v-20h338v61q0 143 81 230t206 87z" />
    <glyph glyph-name="ffl" unicode="ffl" horiz-adv-x="1525" 
d="M466 1085q-46 0 -87 -41t-41 -102v-20h338v20q0 162 105 265t274 104q75 0 133 -25l20 -6h185v-1280h-185v1096q-72 51 -156 51t-138 -56t-54 -149v-20h205v-174h-205v-748h-184v748h-338v-748h-184v748h-113v174h113v20q0 143 80 230q81 87 206 88q58 0 103 -21v-164
q-31 10 -77 10z" />
    <glyph glyph-name="f_f_j" unicode="ffj" horiz-adv-x="1505" 
d="M1290 1065q-45 0 -79 33t-33 80q0 48 34 80t78 32q45 0 79 -33t34 -79t-34 -80q-34 -33 -79 -33zM1096 -338q-64 0 -103 21v163q31 -10 77 -10t87 42t41 102v768h-338v-748h-184v748h-338v-748h-184v748h-113v174h113v20q0 143 80 230q81 87 206 88q58 0 103 -21v-164
q-31 10 -77 10t-87 -41t-41 -102v-20h338v61q0 143 81 230t206 87q62 0 102 -20v-164q-31 10 -77 10t-86 -41q-42 -41 -42 -102v-61h522v-942q0 -143 -80 -231q-81 -87 -206 -87z" />
    <glyph glyph-name="f_j" unicode="fj" horiz-adv-x="983" 
d="M768 1065q-47 0 -80 33t-33 80q0 48 33 80t80 32t80 -33t33 -79t-33 -80q-33 -33 -80 -33zM573 -338q-66 0 -102 21v163q31 -10 77 -10t87 41q41 42 41 103v768h-338v-748h-184v748h-113v174h113v61q0 143 80 230q81 87 206 87q60 0 103 -20v-164q-31 10 -77 10t-87 -41
t-41 -102v-61h522v-942q0 -142 -81 -230t-206 -88z" />
    <glyph glyph-name="f_t" unicode="ft" horiz-adv-x="1177" 
d="M440 1300q60 0 103 -20v-164q-31 10 -77 10t-87 -41t-41 -102v-61h266q53 0 88 34t35 88v123h154v-245h204v-174h-204v-441q0 -61 41 -102t102 -41l61 10v-164q-41 -20 -102 -20q-125 0 -206 87t-81 230v441h-358v-748h-184v748h-113v174h113v61q0 143 80 230
q81 87 206 87z" />
    <glyph glyph-name="f_h" unicode="fh" horiz-adv-x="1607" 
d="M1126 932q156 0 262 -113t107 -287v-532h-184v532q0 92 -65 159q-66 67 -154 67t-155 -67t-67 -159v-532h-184v1096q-72 51 -156 51t-138 -56t-54 -149v-20h205v-174h-205v-748h-184v748h-113v174h113v20q0 162 105 265t273 104q76 0 134 -25l20 -6h184v-451
q31 37 107 70q75 33 149 33z" />
    <glyph glyph-name="f_k" unicode="fk" horiz-adv-x="1433" 
d="M870 0h-184v1096q-72 51 -156 51t-138 -56t-54 -149v-20h205v-174h-205v-748h-184v748h-113v174h113v20q0 162 105 265t273 104q76 0 134 -25l20 -6h184v-758l318 400h215l-359 -430l410 -492h-225l-359 440v-440z" />
    <glyph glyph-name="f_b" unicode="fb" horiz-adv-x="1638" 
d="M1116 758q-110 0 -188 -84t-78 -213t78 -213t188 -84t189 84q78 84 77 213q0 129 -77 213q-78 84 -189 84zM1126 -10q-82 0 -148 26t-93 50l-25 26l-41 -92h-133v1096q-72 51 -156 51t-138 -56t-54 -149v-20h205v-174h-205v-748h-184v748h-113v174h113v20q0 162 105 265
t273 104q76 0 134 -25l20 -6h184v-451q24 36 101 69q78 34 155 34q186 0 314 -133t127 -338q1 -205 -127 -338t-314 -133z" />
    <glyph glyph-name="f_f_h" unicode="ffh" horiz-adv-x="2129" 
d="M466 1085q-46 0 -87 -41t-41 -102v-20h338v20q0 162 105 265t274 104q75 0 133 -25l20 -6h185v-451q10 13 29 29t86 45t141 29q156 0 262 -113t106 -287v-532h-184v532q0 92 -65 159q-66 67 -154 67t-155 -67t-66 -159v-532h-185v1096q-72 51 -156 51t-138 -56t-54 -149
v-20h205v-174h-205v-748h-184v748h-338v-748h-184v748h-113v174h113v20q0 143 80 230q81 87 206 88q58 0 103 -21v-164q-31 10 -77 10z" />
    <glyph glyph-name="f_f_k" unicode="ffk" horiz-adv-x="1955" 
d="M466 1085q-46 0 -87 -41t-41 -102v-20h338v20q0 162 105 265t274 104q75 0 133 -25l20 -6h185v-758l317 400h215l-358 -430l409 -492h-225l-358 440v-440h-185v1096q-72 51 -156 51t-138 -56t-54 -149v-20h205v-174h-205v-748h-184v748h-338v-748h-184v748h-113v174h113
v20q0 143 80 230q81 87 206 88q58 0 103 -21v-164q-31 10 -77 10z" />
    <glyph glyph-name="f_f_b" unicode="ffb" horiz-adv-x="2160" 
d="M1638 758q-110 0 -188 -84t-78 -213t78 -213t188 -84t189 84q78 84 78 213t-78 213t-189 84zM466 1085q-46 0 -87 -41t-41 -102v-20h338v20q0 162 105 265t274 104q75 0 133 -25l20 -6h185v-451q8 13 26 29t85 45t145 29q186 0 313 -133t127 -338t-127 -338t-313 -133
q-82 0 -149 26t-91 50l-27 26l-41 -92h-133v1096q-72 51 -156 51t-138 -56t-54 -149v-20h205v-174h-205v-748h-184v748h-338v-748h-184v748h-113v174h113v20q0 143 80 230q81 87 206 88q58 0 103 -21v-164q-31 10 -77 10z" />
    <glyph glyph-name=".notdef" horiz-adv-x="0" 
 />
    <glyph glyph-name=".null" horiz-adv-x="0" 
 />
    <glyph glyph-name=".null" horiz-adv-x="0" 
 />
    <glyph glyph-name="nonmarkingreturn" horiz-adv-x="681" 
 />
    <glyph glyph-name="CR" unicode="&#xd;" horiz-adv-x="0" 
 />
    <glyph glyph-name="space" unicode=" " horiz-adv-x="450" 
 />
    <glyph glyph-name="exclam" unicode="!" horiz-adv-x="512" 
d="M369 102q0 -44 -33 -78t-80 -34t-80 34t-33 78t33 79q33 34 80 34t80 -34t33 -79zM369 1290l-31 -962h-164l-31 962h226z" />
    <glyph glyph-name="quotedbl" unicode="&#x22;" horiz-adv-x="645" 
d="M92 911v379h164v-379h-164zM389 911v379h164v-379h-164z" />
    <glyph glyph-name="numbersign" unicode="#" horiz-adv-x="1239" 
d="M748 512l51 266h-307l-52 -266h308zM1188 778h-246l-51 -266h246l-31 -143h-246l-72 -369h-143l72 369h-297l-72 -369h-143l71 369h-256l31 143h246l51 266h-246l31 144h246l72 368h143l-72 -368h297l72 368h143l-71 -368h256z" />
    <glyph glyph-name="dollar" unicode="$" 
d="M82 945q0 129 101 229t247 116v185h174v-195q144 -25 236 -127t92 -252h-195q0 101 -62 163q-61 62 -163 62t-169 -55t-67 -128t71 -118t171 -73t202 -66q102 -37 172 -122q71 -85 71 -216q-1 -131 -103 -232t-256 -116v-184h-174v184q-156 8 -257 116t-101 273h194
q0 -225 246 -225q124 0 190 52t66 132t-71 128t-171 78t-201 66t-172 116t-71 209z" />
    <glyph glyph-name="percent" unicode="%" horiz-adv-x="1259" 
d="M666 266q0 106 78 187q79 79 188 79q110 0 188 -80t78 -186t-79 -186t-187 -80t-188 80q-78 80 -78 186zM1075 266q0 62 -44 108t-99 46t-99 -46q-45 -46 -45 -108t44 -107q44 -46 100 -46q55 0 99 46t44 107zM594 1024q0 -106 -80 -186t-186 -80t-187 80q-80 80 -80 186
t80 186q81 80 187 80t186 -80t80 -186zM184 1024q0 -62 44 -108t100 -46t99 46q44 46 44 108t-44 108t-99 46t-100 -46q-44 -47 -44 -108zM307 0h-143l788 1290h144z" />
    <glyph glyph-name="ampersand" unicode="&#x26;" horiz-adv-x="1105" 
d="M434 154q70 0 128 30q60 30 87 62l27 30l-256 256q-151 -100 -154 -225q0 -63 49 -108t119 -45zM430 1116q-61 0 -102 -39t-41 -94q-1 -82 71 -154l62 -61l72 61q82 74 81 154q0 55 -41 94t-102 39zM180 82q-98 92 -98 233t138 279q32 31 54 45l23 16l-51 62q-2 4 -20 23
q-17 20 -22 26q-6 6 -20 24t-19 28q-5 8 -17 26t-15 32q-4 14 -12 37q-8 24 -8 70q0 123 94 215t223 92t223 -92t95 -215q0 -61 -23 -115t-49 -84q-26 -31 -72 -67l-72 -62l236 -235l123 194h205l-205 -317l297 -297h-236l-164 164q-41 -62 -131 -118q-89 -56 -234 -56
t-243 92z" />
    <glyph glyph-name="quotesingle" unicode="'" horiz-adv-x="348" 
d="M92 911v379h164v-379h-164z" />
    <glyph glyph-name="parenleft" unicode="(" horiz-adv-x="563" 
d="M276 461q0 -296 159 -623q36 -72 61 -108l26 -37l-133 -92q-37 43 -93 142t-94 193t-69 238q-31 142 -31 286t30 285t95 295t133 242l29 39l133 -92q-31 -43 -79 -133q-48 -92 -81 -176q-34 -84 -60 -210t-26 -249z" />
    <glyph glyph-name="parenright" unicode=")" horiz-adv-x="563" 
d="M287 461q0 308 -159 622q-36 72 -62 109l-25 37l133 92q37 -43 93 -143q56 -99 94 -193t69 -237q31 -142 31 -286t-30 -286t-94 -292q-64 -151 -132 -244l-31 -39l-133 92q157 220 219 519q27 126 27 249z" />
    <glyph glyph-name="asterisk" unicode="*" horiz-adv-x="675" 
d="M113 799l133 164l-205 51l41 133l194 -72l-10 215h144l-11 -215l195 72l41 -133l-205 -51l133 -164l-123 -82l-102 174l-102 -174z" />
    <glyph glyph-name="plus" unicode="+" horiz-adv-x="931" 
d="M379 932h174v-328h317v-164h-317v-327h-174v327h-318v164h318v328z" />
    <glyph glyph-name="comma" unicode="," horiz-adv-x="348" 
d="M174 215q47 0 80 -35q33 -34 33 -106t-41 -144t-82 -98l-41 -27l-31 41q72 51 92 144q-53 0 -88 33t-35 79t33 79q33 34 80 34z" />
    <glyph glyph-name="hyphen" unicode="-" horiz-adv-x="716" 
d="M655 604v-164h-594v164h594z" />
    <glyph glyph-name="period" unicode="." horiz-adv-x="348" 
d="M287 102q0 -44 -33 -78t-80 -34t-80 34t-33 78t33 79q33 34 80 34t80 -34t33 -79z" />
    <glyph glyph-name="slash" unicode="/" horiz-adv-x="706" 
d="M707 1290l-533 -1659h-174l532 1659h175z" />
    <glyph glyph-name="zero" unicode="0" horiz-adv-x="1167" 
d="M1096 645q0 -303 -148 -479t-364 -176q-217 0 -365 176q-147 176 -147 479t147 479t365 176t364 -176q148 -176 148 -479zM901 645q0 223 -96 352t-221 129q-126 0 -222 -129t-96 -352t96 -352t222 -129t221 129q96 129 96 352z" />
    <glyph glyph-name="one" unicode="1" horiz-adv-x="655" 
d="M502 1290v-1290h-195v1024l-174 -113l-92 154l328 225h133z" />
    <glyph glyph-name="two" unicode="2" horiz-adv-x="993" 
d="M911 184v-184h-829v143l512 553q47 47 85 116q38 70 38 120q-1 86 -61 140t-162 54t-164 -62t-64 -163h-194q0 178 114 289q114 110 304 110t306 -108t115 -270q0 -74 -46 -158t-91 -133l-47 -47l-367 -400h551z" />
    <glyph glyph-name="three" unicode="3" horiz-adv-x="1013" 
d="M488 1300q176 0 294 -108t119 -250q0 -108 -59 -176t-105 -90q9 -4 23 -10t49 -34t61 -61t50 -90q23 -57 22 -123q0 -152 -123 -260t-317 -108t-313 103q-120 103 -128 255h195q8 -74 76 -129t176 -55t174 58t66 146t-67 147q-67 58 -179 58h-92v175h82q98 0 156 52
t58 135t-58 137t-155 54t-158 -52t-69 -132h-194q8 150 124 254t292 104z" />
    <glyph glyph-name="four" unicode="4" horiz-adv-x="993" 
d="M614 440v564l-348 -564h348zM952 440v-184h-143v-256h-195v256h-573v164l543 870h225v-850h143z" />
    <glyph glyph-name="five" unicode="5" horiz-adv-x="1034" 
d="M532 870q178 0 304 -128t127 -312q0 -184 -130 -312q-131 -128 -319 -128t-306 103t-126 255h194q8 -74 74 -129t168 -55t176 76t74 190t-74 191q-74 76 -182 75q-74 0 -132 -39t-81 -75l-23 -39h-163l82 747h686v-184h-521l-32 -307q81 71 204 71z" />
    <glyph glyph-name="six" unicode="6" 
d="M256 430q0 -114 74 -190t182 -76t182 76t74 190t-74 191q-74 75 -182 75t-182 -76t-74 -190zM512 -10q-190 0 -321 128q-130 128 -130 312q0 68 31 148t62 124l389 588h215l-287 -430q41 10 82 10q164 0 287 -129t123 -312q-1 -183 -131 -311t-320 -128z" />
    <glyph glyph-name="seven" unicode="7" horiz-adv-x="931" 
d="M72 1290h809v-133l-533 -1157h-205l512 1106h-583v184z" />
    <glyph glyph-name="eight" unicode="8" horiz-adv-x="1003" 
d="M502 768q82 0 138 52t56 126t-55 127t-139 53t-140 -53t-55 -127t57 -126t138 -52zM502 594q-114 0 -180 -60t-66 -154t67 -156q67 -60 179 -60t180 60q66 60 66 154t-66 156q-66 60 -180 60zM113 946q0 148 111 251q112 103 278 103t278 -103t111 -237q0 -134 -99 -224
q-28 -26 -55 -40q9 -4 23 -10t49 -34t61 -62t50 -92q23 -59 22 -129q0 -159 -122 -269t-318 -110q-195 0 -318 110t-123 278q0 167 133 273q30 25 52 35l20 10q-153 102 -153 250z" />
    <glyph glyph-name="nine" unicode="9" 
d="M768 860q0 115 -74 191q-74 75 -182 75t-182 -76t-74 -190t74 -190t182 -76t182 76t74 190zM512 1300q190 0 320 -128t131 -312q0 -68 -31 -148t-62 -124l-389 -588h-215l287 430q-31 -10 -82 -10q-164 0 -287 129t-123 312t130 311q131 128 321 128z" />
    <glyph glyph-name="colon" unicode=":" horiz-adv-x="348" 
d="M287 102q0 -44 -33 -78t-80 -34t-80 34t-33 78t33 79q33 34 80 34t80 -34t33 -79zM287 809q0 -47 -33 -80t-80 -33t-80 33t-33 80t33 80t80 33t80 -33t33 -80z" />
    <glyph glyph-name="semicolon" unicode=";" horiz-adv-x="348" 
d="M174 215q47 0 80 -35q33 -34 33 -106t-41 -144t-82 -98l-41 -27l-31 41q72 51 92 144q-53 0 -88 33t-35 79t33 79q33 34 80 34zM287 809q0 -47 -33 -80t-80 -33t-80 33t-33 80t33 80t80 33t80 -33t33 -80z" />
    <glyph glyph-name="less" unicode="&#x3c;" horiz-adv-x="911" 
d="M307 451l522 -267v-184l-747 389v123l747 389v-184z" />
    <glyph glyph-name="equal" unicode="=" horiz-adv-x="921" 
d="M61 246v174h799v-174h-799zM61 799h799v-174h-799v174z" />
    <glyph glyph-name="greater" unicode="&#x3e;" horiz-adv-x="911" 
d="M82 184l522 267l-522 266v184l747 -389v-123l-747 -389v184z" />
    <glyph glyph-name="question" unicode="?" horiz-adv-x="880" 
d="M543 102q0 -44 -34 -78t-79 -34t-79 34t-34 78t34 79q34 34 79 34t79 -34t34 -79zM522 348v-20h-184v20q0 109 31 189t73 125q43 44 87 82q106 90 106 178t-55 141q-56 53 -142 53t-139 -61t-53 -174v-21h-185v21q0 188 108 304q107 115 269 115t272 -107t109 -255
q0 -148 -104 -253q-43 -42 -87 -83q-106 -99 -106 -254z" />
    <glyph glyph-name="at" unicode="@" horiz-adv-x="1536" 
d="M762 246q82 0 136 58t54 156t-54 157t-136 59t-140 -62t-58 -153t58 -153t140 -62zM1173 113q-136 0 -210 112q-5 -10 -39 -43t-89 -51t-98 -18q-133 0 -225 98t-92 250t92 250t225 98q59 0 111 -24t74 -46l20 -22l31 82h112v-400q0 -154 103 -153q133 0 133 225
t-161 384t-383 159t-382 -162q-159 -162 -159 -391t160 -391t382 -162q78 0 151 22t107 45l35 25l78 -117q-63 -42 -169 -75q-107 -34 -202 -33q-292 1 -494 201t-202 485t202 485t493 201q290 0 494 -198t204 -468q0 -170 -83 -269t-219 -99z" />
    <glyph glyph-name="A" unicode="A" horiz-adv-x="1146" 
d="M389 481h369l-185 512zM317 297l-112 -297h-205l492 1290h163l492 -1290h-205l-113 297h-512z" />
    <glyph glyph-name="B" unicode="B" horiz-adv-x="1157" 
d="M676 184q92 0 153 60t62 145t-61 145t-154 60h-328v-410h328zM348 1106v-348h318q76 0 130 52t54 122t-54 122t-130 52h-318zM676 0h-522v1290h512q154 0 262 -105t106 -253q0 -74 -34 -135t-66 -86l-33 -25q64 -32 124 -112t60 -217q1 -137 -117 -247t-292 -110z" />
    <glyph glyph-name="C" unicode="C" horiz-adv-x="1310" 
d="M266 645q0 -203 127 -342t279 -139t247 77q93 77 125 199h205q-49 -194 -199 -322t-364 -128q-250 0 -432 191t-182 463t182 464t432 192q207 0 355 -129t198 -321h-205q-33 121 -124 199t-224 77q-166 0 -293 -139t-127 -342z" />
    <glyph glyph-name="D" unicode="D" horiz-adv-x="1228" 
d="M543 0h-389v1290h389q248 0 431 -189t183 -455t-183 -456t-431 -190zM348 184h195q166 0 293 133t127 328t-127 328t-293 133h-195v-922z" />
    <glyph glyph-name="E" unicode="E" horiz-adv-x="1126" 
d="M348 184h676v-184h-870v1290h850v-184h-656v-348h604v-185h-604v-389z" />
    <glyph glyph-name="F" unicode="F" horiz-adv-x="1034" 
d="M973 1106h-625v-369h512v-184h-512v-553h-194v1290h819v-184z" />
    <glyph glyph-name="G" unicode="G" horiz-adv-x="1372" 
d="M686 -10q-250 0 -432 191t-182 463t182 464t432 192q204 0 354 -124t199 -306h-205q-33 109 -125 183t-223 73q-166 0 -293 -139t-127 -342t127 -342t285 -139t260 91t127 226h-389v185h573v-666h-143l-51 123q-14 -14 -43 -37q-30 -24 -126 -60t-200 -36z" />
    <glyph glyph-name="H" unicode="H" horiz-adv-x="1290" 
d="M942 1290h195v-1290h-195v563h-594v-563h-194v1290h194v-542h594v542z" />
    <glyph glyph-name="I" unicode="I" horiz-adv-x="501" 
d="M348 1290v-1290h-194v1290h194z" />
    <glyph glyph-name="J" unicode="J" horiz-adv-x="952" 
d="M625 1290h194v-921q-1 -162 -113 -271q-112 -108 -286 -108t-287 108t-113 271h195q0 -93 56 -149q57 -56 149 -56t148 56t57 149v921z" />
    <glyph glyph-name="K" unicode="K" horiz-adv-x="1075" 
d="M348 0h-194v1290h194v-594l471 594h236l-523 -635l564 -655h-236l-512 604v-604z" />
    <glyph glyph-name="L" unicode="L" horiz-adv-x="983" 
d="M348 184h615v-184h-809v1290h194v-1106z" />
    <glyph glyph-name="M" unicode="M" horiz-adv-x="1556" 
d="M1403 1290v-1290h-195v799l-368 -799h-123l-369 799v-799h-194v1290h163l461 -993l461 993h164z" />
    <glyph glyph-name="N" unicode="N" horiz-adv-x="1290" 
d="M942 1290h195v-1290h-164l-625 922v-922h-194v1290h163l625 -921v921z" />
    <glyph glyph-name="O" unicode="O" horiz-adv-x="1372" 
d="M1300 645q0 -271 -182 -463t-432 -192t-432 191t-182 463t182 464t432 192t432 -192t182 -463zM1106 645q0 203 -127 342t-293 139t-293 -139t-127 -342t127 -342t293 -139t293 139t127 342z" />
    <glyph glyph-name="P" unicode="P" horiz-adv-x="1105" 
d="M348 655h277q87 0 151 67t64 159q0 93 -65 159t-150 66h-277v-451zM154 1290h471q169 0 289 -121t120 -289t-120 -288q-120 -121 -289 -121h-277v-471h-194v1290z" />
    <glyph glyph-name="Q" unicode="Q" horiz-adv-x="1372" 
d="M1106 645q0 203 -127 342t-293 139t-293 -139t-127 -342t127 -342t293 -139q56 0 104 15t70 30l21 16l-123 123l112 123l134 -133q34 34 68 127q34 94 34 180zM686 -10q-250 0 -432 191t-182 463t182 464t432 192t432 -191t182 -464q0 -119 -40 -229t-82 -160l-41 -51
l143 -144l-113 -122l-153 153q-44 -37 -141 -70q-97 -32 -187 -32z" />
    <glyph glyph-name="R" unicode="R" horiz-adv-x="1146" 
d="M348 1106v-410h318q78 0 136 60t58 145t-58 145t-136 60h-318zM348 512v-512h-194v1290h512q162 0 276 -114t113 -275q0 -85 -30 -153t-72 -106q-84 -76 -154 -101l-31 -9l317 -532h-215l-297 512h-225z" />
    <glyph glyph-name="S" unicode="S" 
d="M82 942q0 143 122 251q122 107 306 107t303 -114t119 -285h-195q0 101 -62 163q-61 62 -163 62t-169 -55t-67 -128t71 -118t171 -73t202 -67q102 -38 172 -122q71 -84 71 -222q0 -139 -125 -245t-328 -106t-321 110t-117 289h194q0 -225 246 -225q124 0 190 51t66 121
t-38 110q-60 65 -237 117t-275 114q-60 37 -98 105t-38 160z" />
    <glyph glyph-name="T" unicode="T" horiz-adv-x="1034" 
d="M31 1106v184h973v-184h-390v-1106h-194v1106h-389z" />
    <glyph glyph-name="U" unicode="U" horiz-adv-x="1228" 
d="M614 164q125 0 206 85t81 222v819h195v-819q0 -207 -138 -344t-344 -137q-207 0 -344 137t-137 344v819h195v-819q0 -137 80 -222t206 -85z" />
    <glyph glyph-name="V" unicode="V" horiz-adv-x="1167" 
d="M492 0l-472 1290h205l359 -993l358 993h205l-471 -1290h-184z" />
    <glyph glyph-name="W" unicode="W" horiz-adv-x="1638" 
d="M819 860l-266 -860h-133l-400 1290h195l277 -891l266 891h123l266 -891l276 891h195l-399 -1290h-134z" />
    <glyph glyph-name="X" unicode="X" horiz-adv-x="1085" 
d="M543 819l286 471h215l-389 -635l410 -655h-215l-307 492l-307 -492h-216l410 655l-389 635h215z" />
    <glyph glyph-name="Y" unicode="Y" horiz-adv-x="1054" 
d="M625 0h-195v502l-410 788h205l297 -583h10l297 583h205l-409 -788v-502z" />
    <glyph glyph-name="Z" unicode="Z" 
d="M963 184v-184h-902v133l625 973h-604v184h850v-133l-625 -973h656z" />
    <glyph glyph-name="bracketleft" unicode="[" horiz-adv-x="604" 
d="M328 1126v-1331h235v-164h-409v1659h409v-164h-235z" />
    <glyph glyph-name="backslash" unicode="\" horiz-adv-x="706" 
d="M532 -369l-532 1659h174l533 -1659h-175z" />
    <glyph glyph-name="bracketright" unicode="]" horiz-adv-x="604" 
d="M276 -205v1331h-235v164h410v-1659h-410v164h235z" />
    <glyph glyph-name="asciicircum" unicode="^" horiz-adv-x="778" 
d="M225 696h-164l287 594h82l287 -594h-164l-164 359z" />
    <glyph glyph-name="underscore" unicode="_" horiz-adv-x="563" 
d="M604 -195v-163h-645v163h645z" />
    <glyph glyph-name="grave" unicode="`" horiz-adv-x="419" 
d="M236 1290l122 -246h-122l-175 246h175z" />
    <glyph glyph-name="a" unicode="a" horiz-adv-x="952" 
d="M410 154q114 0 180 59t65 147v50q-229 0 -309 -38t-80 -116q0 -42 39 -72t105 -30zM479 932q162 0 261 -93t100 -235v-604h-133l-41 92q-23 -35 -104 -69t-163 -33q-153 0 -235 76t-82 213t127 216t446 78v31q0 70 -45 112t-129 42q-166 0 -184 -113h-184q8 127 106 207
t260 80z" />
    <glyph glyph-name="b" unicode="b" horiz-adv-x="1085" 
d="M563 758q-111 0 -189 -84t-77 -213q0 -129 78 -213q79 -84 189 -84t188 84t77 213q0 129 -77 213q-78 84 -189 84zM573 -10q-83 0 -149 26t-92 50l-25 26l-41 -92h-133v1290h184v-461q24 36 101 69q78 34 155 34q185 0 313 -133t128 -338t-128 -338t-313 -133z" />
    <glyph glyph-name="c" unicode="c" horiz-adv-x="983" 
d="M727 584q-54 174 -225 174q-92 0 -169 -85t-77 -212t77 -212t169 -85q171 0 225 174h195q-33 -152 -144 -250q-112 -98 -282 -98t-297 133t-127 338t127 338t298 133t281 -98t144 -250h-195z" />
    <glyph glyph-name="d" unicode="d" horiz-adv-x="1085" 
d="M522 758q-110 0 -188 -84t-78 -213t78 -213t188 -84t189 84q78 84 77 213q0 129 -77 213q-78 84 -189 84zM512 -10q-186 0 -313 133t-127 338t127 338t313 133q78 0 141 -26t88 -50l27 -27v461h184v-1290h-133l-41 92q-24 -36 -104 -69t-162 -33z" />
    <glyph glyph-name="e" unicode="e" horiz-adv-x="1013" 
d="M518 758q-98 0 -162 -62t-80 -164h492q-16 102 -84 164t-166 62zM522 -10q-186 0 -313 133t-127 338t125 338t305 133t305 -133t125 -338l-10 -82h-656q8 -86 78 -151t168 -64q129 0 205 102h195q-111 -276 -400 -276z" />
    <glyph glyph-name="f" unicode="f" horiz-adv-x="583" 
d="M440 1300q60 0 103 -20v-164q-31 10 -77 10t-87 -41t-41 -102v-61h205v-174h-205v-748h-184v748h-113v174h113v61q0 143 80 230q81 87 206 87z" />
    <glyph glyph-name="g" unicode="g" horiz-adv-x="1054" 
d="M256 480q0 -114 78 -194t179 -81q101 0 178 82q77 83 77 195t-77 194t-179 82t-179 -82t-77 -196zM932 922v-881q0 -172 -115 -281q-115 -108 -290 -108t-278 81t-136 206h184q61 -123 215 -123q106 0 171 62t65 163v92q-24 -36 -101 -69q-78 -34 -155 -33
q-172 0 -296 130t-124 320q0 191 124 321t296 130q82 0 148 -26t93 -50l25 -27l41 93h133z" />
    <glyph glyph-name="h" unicode="h" horiz-adv-x="1054" 
d="M573 932q157 0 263 -113t106 -287v-532h-184v532q0 92 -65 159t-153 67t-156 -67q-67 -67 -67 -159v-532h-184v1290h184v-461q31 37 107 70q75 33 149 33z" />
    <glyph glyph-name="i" unicode="i" horiz-adv-x="430" 
d="M215 1065q-47 0 -80 33t-33 80q0 48 33 80t80 32t80 -33t33 -79t-33 -80q-33 -33 -80 -33zM307 922v-922h-184v922h184z" />
    <glyph glyph-name="j" unicode="j" horiz-adv-x="430" 
d="M215 1065q-47 0 -80 33t-33 80q0 48 33 80t80 32t80 -33t33 -79t-33 -80q-33 -33 -80 -33zM20 -338q-66 0 -102 21v163q31 -10 77 -10t87 42t41 102v942h184v-942q0 -142 -81 -230t-206 -88z" />
    <glyph glyph-name="k" unicode="k" horiz-adv-x="880" 
d="M317 0h-184v1290h184v-768l318 400h215l-358 -430l409 -492h-225l-359 440v-440z" />
    <glyph glyph-name="l" unicode="l" horiz-adv-x="450" 
d="M317 1290v-1290h-184v1290h184z" />
    <glyph glyph-name="m" unicode="m" horiz-adv-x="1495" 
d="M1055 932q135 0 226 -104t91 -275v-553h-184v553q0 90 -51 147q-51 58 -123 58t-123 -58t-51 -147v-553h-185v553q0 90 -51 147q-51 58 -123 58t-123 -58t-51 -147v-553h-184v922h133l41 -93q22 34 92 68q69 35 140 35t135 -36t90 -73l24 -35q61 91 177 128q49 16 100 16
z" />
    <glyph glyph-name="n" unicode="n" horiz-adv-x="1044" 
d="M563 932q156 0 262 -113t107 -287v-532h-184v532q0 92 -65 159t-154 67t-155 -67t-67 -159v-532h-184v922h133l41 -93q23 35 104 69q80 34 162 34z" />
    <glyph glyph-name="o" unicode="o" 
d="M952 461q0 -205 -127 -338t-313 -133t-313 133t-127 338t127 338t313 133t313 -133t127 -338zM768 461q0 127 -77 212t-179 85t-179 -85t-77 -212t77 -212t179 -85t179 85t77 212z" />
    <glyph glyph-name="p" unicode="p" horiz-adv-x="1075" 
d="M553 164q111 0 189 84t77 213q0 129 -78 213q-79 84 -189 84t-188 -84t-77 -213q-1 -129 77 -213t189 -84zM563 932q185 0 313 -133t128 -338t-127 -338t-314 -133q-78 0 -141 26t-90 50l-25 26v-420h-184v1250h133l41 -93q23 35 104 69q80 34 162 34z" />
    <glyph glyph-name="q" unicode="q" horiz-adv-x="1075" 
d="M522 164q111 0 189 84t77 213q0 129 -77 213q-78 84 -189 84q-110 0 -188 -84t-78 -213t78 -213t188 -84zM512 932q82 0 148 -26t94 -50l24 -27l41 93h133v-1250h-184v420q-24 -36 -101 -69q-78 -34 -155 -33q-186 0 -313 133t-127 338t127 338t313 133z" />
    <glyph glyph-name="r" unicode="r" horiz-adv-x="634" 
d="M307 522v-522h-184v922h133l41 -93q23 35 95 69t140 34l62 -10v-185q-31 10 -62 11q-92 0 -158 -67t-67 -159z" />
    <glyph glyph-name="s" unicode="s" horiz-adv-x="829" 
d="M420 164q80 0 122 32t42 78t-50 72q-50 25 -123 41t-146 40t-123 81q-50 58 -50 162t87 183t238 79t237 -77t94 -210h-185q-8 49 -48 81q-39 32 -105 32t-105 -31t-39 -74t50 -67t123 -41q73 -16 146 -40t123 -81t50 -148q0 -126 -90 -206t-248 -80q-332 0 -348 307h184
q16 -133 164 -133z" />
    <glyph glyph-name="t" unicode="t" horiz-adv-x="686" 
d="M389 748v-441q0 -61 41 -102t102 -41l62 10v-164q-41 -20 -102 -20q-125 0 -206 87t-81 230v441h-164v174h72q53 0 88 34t35 88v123h153v-245h205v-174h-205z" />
    <glyph glyph-name="u" unicode="u" horiz-adv-x="1054" 
d="M492 -10q-156 0 -263 112q-106 113 -106 287v533h184v-533q0 -92 65 -159q66 -66 154 -66t155 66t67 159v533h184v-922h-133l-41 92q-23 -35 -104 -69q-80 -33 -162 -33z" />
    <glyph glyph-name="v" unicode="v" horiz-adv-x="942" 
d="M727 922h195l-369 -922h-164l-369 922h195l256 -666z" />
    <glyph glyph-name="w" unicode="w" horiz-adv-x="1351" 
d="M870 0l-194 604l-195 -604h-153l-308 922h185l205 -635l204 635h123l205 -635l205 635h184l-307 -922h-154z" />
    <glyph glyph-name="x" unicode="x" horiz-adv-x="860" 
d="M430 338l-225 -338h-205l317 471l-297 451h205l205 -308l205 308h205l-297 -451l317 -471h-205z" />
    <glyph glyph-name="y" unicode="y" horiz-adv-x="942" 
d="M174 -174q137 0 174 113l31 92l-359 891h195l256 -666l256 666h195l-390 -983q-61 -156 -125 -217q-65 -60 -171 -60l-62 10v154z" />
    <glyph glyph-name="z" unicode="z" horiz-adv-x="808" 
d="M61 748v174h666v-164l-440 -584h461v-174h-687v164l441 584h-441z" />
    <glyph glyph-name="braceleft" unicode="{" horiz-adv-x="634" 
d="M92 389v143q47 0 75 29t28 74v389q0 266 282 266h117v-164h-123q-45 0 -74 -28t-28 -74v-389q0 -63 -29 -107t-57 -57l-27 -10q4 -2 22 -6t42 -33q47 -55 49 -135v-389q1 -45 29 -74t73 -29h123v-164h-117q-283 0 -282 267v389q0 45 -28 73t-75 29z" />
    <glyph glyph-name="bar" unicode="|" horiz-adv-x="665" 
d="M420 1290v-1618h-174v1618h174z" />
    <glyph glyph-name="braceright" unicode="}" horiz-adv-x="634" 
d="M543 532v-143q-47 0 -75 -29t-28 -73v-389q0 -266 -282 -267h-117v164h123q45 0 74 29t28 74v389q0 63 29 107t57 57l27 10q-4 2 -12 4q-58 15 -88 96q-12 33 -13 74v389q0 45 -28 74q-29 29 -74 28h-123v164h117q283 0 282 -266v-389q0 -45 28 -74t75 -29z" />
    <glyph glyph-name="asciitilde" unicode="~" horiz-adv-x="921" 
d="M666 399q-72 -1 -220 61t-193 62q-44 0 -72 -30t-27 -82h-154q0 135 70 211t186 75q72 0 220 -61t192 -61t72 29q28 30 28 83h154q0 -135 -70 -211t-186 -76z" />
    <glyph glyph-name="nbspace" unicode="&#xa0;" horiz-adv-x="450" 
 />
    <glyph glyph-name="exclamdown" unicode="&#xa1;" horiz-adv-x="512" 
d="M369 819q0 -45 -33 -79t-80 -34t-80 34t-33 79t33 79t80 34t80 -34t33 -79zM338 594l31 -922h-226l31 922h164z" />
    <glyph glyph-name="cent" unicode="&#xa2;" horiz-adv-x="983" 
d="M727 584q-54 174 -225 174q-92 0 -169 -85t-77 -212t77 -212t169 -85q171 0 225 174h195q-31 -137 -121 -229t-207 -109v-184h-174v184q-139 25 -244 152q-104 127 -104 309t104 309t244 152v184h174v-184q117 -16 207 -108t121 -230h-195z" />
    <glyph glyph-name="sterling" unicode="&#xa3;" horiz-adv-x="1073" 
d="M410 492v-185q0 -65 -37 -108l-15 -15h656v-184h-922v184q53 0 88 35t35 88v185h-113v184h113v237q0 162 118 275q118 112 288 112q169 0 287 -110t124 -258h-192q-8 86 -66 140t-150 54q-90 0 -152 -61t-62 -152v-237h348v-184h-348z" />
    <glyph glyph-name="currency" unicode="&#xa4;" horiz-adv-x="1146" 
d="M1075 901q0 -157 -118 -273t-291 -116h-267v-133h389v-174h-389v-205h-194v205h-154v174h154v133h-154v174h154v604h461q174 0 292 -116t117 -273zM399 686h267q90 0 152 65t62 151t-62 150q-62 65 -152 64h-267v-430z" />
    <glyph glyph-name="yen" unicode="&#xa5;" horiz-adv-x="1075" 
d="M911 645v-164h-276v-112h274v-164h-274v-205h-195v205h-276v164h276v112h-276v164h209l-342 645h205l301 -583l303 583h204l-342 -645h209z" />
    <glyph glyph-name="brokenbar" unicode="&#xa6;" horiz-adv-x="665" 
d="M246 -328v635h174v-635h-174zM246 1290h174v-635h-174v635z" />
    <glyph glyph-name="section" unicode="&#xa7;" horiz-adv-x="972" 
d="M707 502q-1 72 -57 121t-199 94q-9 -2 -21 -5q-100 -24 -144 -101q-19 -32 -20 -68q0 -72 56 -121t200 -94q8 2 41 10t69 35q75 57 75 129zM829 31q0 -113 -94 -195q-93 -82 -243 -82t-245 87t-104 220h174q9 -63 55 -103t123 -40t119 32t41 81q0 49 -59 86t-143 67
t-168 67q-84 38 -144 113q-59 75 -59 168q0 94 48 162t97 97l49 28q-12 5 -30 19t-50 66t-32 118q0 113 91 196q91 82 230 82t228 -80q88 -81 96 -206h-174q-18 123 -154 123q-67 0 -105 -33t-38 -83t57 -88t139 -69q82 -32 162 -70t138 -113t57 -191q0 -116 -119 -207
q-27 -20 -65 -37q69 -35 109 -137q13 -37 13 -78z" />
    <glyph glyph-name="dieresis" unicode="&#xa8;" horiz-adv-x="696" 
d="M635 1178q0 -47 -33 -80t-80 -33t-80 33t-32 80q0 48 32 80t80 32q47 0 80 -32t33 -80zM287 1178q0 -47 -33 -80t-80 -33t-80 33t-33 80q0 48 33 80t80 32t80 -32t33 -80z" />
    <glyph glyph-name="copyright" unicode="&#xa9;" horiz-adv-x="1433" 
d="M532 645q0 -96 56 -161t129 -64q129 0 164 123h143q-16 -104 -97 -175t-207 -71t-223 102q-97 101 -97 245t96 246q98 102 224 103q126 -1 207 -71t97 -174h-143q-35 123 -164 122q-73 0 -129 -64t-56 -161zM1352 645q0 -275 -186 -465t-449 -190q-262 0 -449 190
q-186 190 -186 464t186 466q186 190 448 190t450 -190q186 -190 186 -465zM1208 645q0 221 -144 372t-347 151t-347 -152q-144 -150 -144 -371t144 -372t347 -151t347 152q144 150 144 371z" />
    <glyph glyph-name="ordfeminine" unicode="&#xaa;" horiz-adv-x="583" 
d="M389 973v20q-215 0 -215 -80q0 -27 26 -45t74 -18t81 35q34 35 34 88zM295 1300q93 0 155 -59t62 -145v-338h-92l-21 51q-51 -61 -143 -61t-143 45t-51 121q-1 170 327 171v11q0 40 -29 66t-73 26q-72 0 -92 -62h-113q0 72 59 123q60 51 154 51z" />
    <glyph glyph-name="guillemotleft" unicode="&#xab;" horiz-adv-x="911" 
d="M625 461l225 -328h-184l-226 328l226 327h184zM246 461l225 -328h-184l-226 328l226 327h184z" />
    <glyph glyph-name="logicalnot" unicode="&#xac;" horiz-adv-x="952" 
d="M41 788h870v-430h-174v267h-696v163z" />
    <glyph glyph-name="uni00AD" unicode="&#xad;" horiz-adv-x="716" 
d="M655 604v-164h-594v164h594z" />
    <glyph glyph-name="registered" unicode="&#xae;" horiz-adv-x="1433" 
d="M1352 645q0 -275 -186 -465t-449 -190q-262 0 -449 190q-186 190 -186 464t186 466q186 190 448 190t450 -190q186 -190 186 -465zM1208 645q0 221 -144 372t-347 151t-347 -152q-144 -150 -144 -371t144 -372t347 -151t347 152q144 150 144 371zM625 676h123q40 0 66 26
t26 66q0 39 -27 66t-65 26h-123v-184zM625 553v-246h-133v676h256q92 -1 158 -65t67 -150q0 -86 -53 -134q-53 -47 -101 -61l185 -266h-154l-164 246h-61z" />
    <glyph glyph-name="macron" unicode="&#xaf;" horiz-adv-x="634" 
d="M573 1229v-133h-512v133h512z" />
    <glyph glyph-name="degree" unicode="&#xb0;" horiz-adv-x="634" 
d="M573 1044q1 -106 -73 -181t-183 -75t-183 75t-73 181q0 106 74 182q75 76 183 74q108 0 182 -74q73 -76 73 -182zM195 1044q-1 -53 37 -93t85 -40t85 40t38 93q0 54 -38 94t-85 40t-85 -40q-37 -41 -37 -94z" />
    <glyph glyph-name="plusminus" unicode="&#xb1;" horiz-adv-x="931" 
d="M379 696v328h174v-328h317v-164h-317v-317h317v-174h-809v174h318v317h-318v164h318z" />
    <glyph glyph-name="twosuperior" unicode="&#xb2;" horiz-adv-x="532" 
d="M471 983v-113h-410v93l226 235q61 61 61 97t-22 57q-23 20 -60 20q-92 0 -92 -92h-113q1 92 57 148t147 56t149 -52t57 -128q0 -76 -61 -137l-174 -184h235z" />
    <glyph glyph-name="threesuperior" unicode="&#xb3;" horiz-adv-x="552" 
d="M492 1044q0 -80 -58 -132t-158 -52q-98 0 -156 56t-59 149h113q0 -41 26 -67t72 -26t72 26q25 24 25 57t-25 57t-68 25h-61v102h51q37 0 60 18q22 18 22 46t-22 49q-23 20 -60 20q-82 0 -82 -82h-112q0 86 56 140t143 55q87 0 143 -52t57 -122q0 -41 -15 -72t-30 -41
l-16 -10q31 -15 56 -57q26 -42 26 -87z" />
    <glyph glyph-name="acute" unicode="&#xb4;" horiz-adv-x="419" 
d="M61 1044l123 246h174l-174 -246h-123z" />
    <glyph glyph-name="mu" unicode="&#xb5;" horiz-adv-x="1054" 
d="M748 922h184v-922h-133l-41 92q-23 -34 -92 -69q-129 -64 -253 -8q-56 26 -81 51l-25 26v-420h-184v1250h184v-533q0 -92 65 -159q66 -66 154 -66t155 66t67 159v533z" />
    <glyph glyph-name="paragraph" unicode="&#xb6;" horiz-adv-x="1044" 
d="M389 1290h512v-1474h-164v1310h-184v-1310h-164v860q-123 0 -215 92t-92 215t92 215t215 92z" />
    <glyph glyph-name="periodcentered" unicode="&#xb7;" horiz-adv-x="450" 
d="M338 645q0 -47 -34 -80t-79 -33t-79 33t-33 80q0 47 33 80q34 33 79 33t79 -33t34 -80z" />
    <glyph glyph-name="cedilla" unicode="&#xb8;" horiz-adv-x="409" 
d="M348 -220q0 -58 -49 -98t-145 -40l-93 10v92q41 -10 83 -10t67 18t25 43t-25 43t-68 19l-51 -11l64 154h110l-41 -82q55 -8 89 -44t34 -94z" />
    <glyph glyph-name="onesuperior" unicode="&#xb9;" horiz-adv-x="430" 
d="M297 1475v-605h-123v451l-72 -41l-61 92l164 103h92z" />
    <glyph glyph-name="ordmasculine" unicode="&#xba;" horiz-adv-x="655" 
d="M61 1024q0 115 79 196q79 80 188 80q110 0 188 -80t78 -196q0 -115 -79 -196q-79 -80 -187 -80t-188 80q-79 80 -79 196zM471 1024q0 62 -44 108t-99 46q-56 0 -100 -46t-44 -108t44 -108t100 -46t99 46q44 46 44 108z" />
    <glyph glyph-name="guillemotright" unicode="&#xbb;" horiz-adv-x="911" 
d="M61 133l226 328l-226 327h185l225 -327l-225 -328h-185zM440 133l226 328l-226 327h185l225 -327l-225 -328h-185z" />
    <glyph glyph-name="onequarter" unicode="&#xbc;" horiz-adv-x="1146" 
d="M891 225v195l-123 -195h123zM1014 604v-379h71v-112h-71v-113h-123v113h-256v92l246 399h133zM236 0h-144l789 1290h143zM297 1290v-604h-123v451l-72 -41l-61 92l164 102h92z" />
    <glyph glyph-name="onehalf" unicode="&#xbd;" horiz-adv-x="1187" 
d="M236 0h-144l789 1290h143zM1126 113v-113h-409v92l225 236q100 100 39 153q-23 20 -59 21q-92 0 -93 -92h-112q0 92 56 148q55 56 147 56t149 -53t57 -128t-61 -136l-174 -184h235zM297 1290v-604h-123v451l-72 -41l-61 92l164 102h92z" />
    <glyph glyph-name="threequarters" unicode="&#xbe;" horiz-adv-x="1269" 
d="M492 860q0 -80 -58 -132t-158 -52q-98 0 -156 56t-59 149h113q0 -41 26 -67t72 -26t72 25q25 25 25 57t-25 58q-25 25 -68 24h-61v103h51q37 0 60 18q22 18 22 46t-22 48q-23 20 -60 21q-82 0 -82 -82h-112q0 86 56 140t143 54t143 -52t57 -122q0 -42 -15 -72t-30 -40
l-16 -10q30 -15 56 -57t26 -87zM1014 225v195l-123 -195h123zM1137 604v-379h71v-112h-71v-113h-123v113h-256v92l246 399h133zM358 0h-143l789 1290h143z" />
    <glyph glyph-name="questiondown" unicode="&#xbf;" horiz-adv-x="870" 
d="M348 819q0 45 33 79t80 34t80 -34t33 -79t-34 -79q-32 -34 -79 -34t-80 34t-33 79zM369 573v21h184v-21q0 -102 -31 -178q-32 -76 -74 -119t-87 -77q-105 -84 -105 -179q0 -70 56 -122t142 -52t138 62q53 62 53 174v20h184v-20q1 -188 -107 -304t-270 -116t-270 106
q-110 106 -110 250q0 145 104 240q43 39 87 78q106 94 106 237z" />
    <glyph glyph-name="Agrave" unicode="&#xc0;" horiz-adv-x="1146" 
d="M492 1690l122 -246h-122l-175 246h175zM389 481h369l-185 512zM317 297l-112 -297h-205l492 1290h163l492 -1290h-205l-113 297h-512z" />
    <glyph glyph-name="Aacute" unicode="&#xc1;" horiz-adv-x="1146" 
d="M522 1444l123 246h174l-174 -246h-123zM389 481h369l-185 512zM317 297l-112 -297h-205l492 1290h163l492 -1290h-205l-113 297h-512z" />
    <glyph glyph-name="Acircumflex" unicode="&#xc2;" horiz-adv-x="1146" 
d="M655 1679l185 -245h-164l-103 143l-102 -143h-164l185 245h163zM389 481h369l-185 512zM317 297l-112 -297h-205l492 1290h163l492 -1290h-205l-113 297h-512z" />
    <glyph glyph-name="Atilde" unicode="&#xc3;" horiz-adv-x="1146" 
d="M872 1649q0 -119 -52 -183t-120 -63q-68 0 -108 31q-41 32 -72 62q-32 30 -62 30t-55 -31t-24 -82h-103q0 119 52 182t120 63t108 -30q40 -32 72 -62t62 -30t56 31q24 31 24 82h102zM389 481h369l-185 512zM317 297l-112 -297h-205l492 1290h163l492 -1290h-205l-113 297
h-512z" />
    <glyph glyph-name="Adieresis" unicode="&#xc4;" horiz-adv-x="1146" 
d="M860 1546q0 -47 -33 -80q-33 -32 -79 -32t-80 32q-33 32 -33 80q0 47 33 80t80 33q48 0 80 -33t32 -80zM512 1546q0 -47 -33 -80q-33 -32 -80 -32t-80 32t-32 80q0 47 32 80q33 33 80 33t80 -33t33 -80zM389 481h369l-185 512zM317 297l-112 -297h-205l492 1290h163
l492 -1290h-205l-113 297h-512z" />
    <glyph glyph-name="Aring" unicode="&#xc5;" horiz-adv-x="1146" 
d="M748 1567q0 -72 -50 -123t-125 -51q-77 0 -125 51t-49 123t49 123t126 51t124 -51q50 -51 50 -123zM645 1567q0 31 -20 57q-19 26 -51 25q-32 0 -52 -26q-20 -27 -20 -57t20 -56t51 -26t52 26q20 26 20 57zM389 481h369l-185 512zM317 297l-112 -297h-205l492 1290h163
l492 -1290h-205l-113 297h-512z" />
    <glyph glyph-name="AE" unicode="&#xc6;" horiz-adv-x="1710" 
d="M799 492v614h-11l-348 -614h359zM1587 1290v-184h-592v-348h541v-185h-541v-389h613v-184h-809v307h-461l-174 -307h-225l747 1290h901z" />
    <glyph glyph-name="Ccedilla" unicode="&#xc7;" horiz-adv-x="1310" 
d="M266 645q0 -203 127 -342t279 -139t247 77q93 77 125 199h205q-47 -182 -191 -312t-331 -138l-31 -72q55 -8 89 -44t34 -94t-49 -98t-145 -40l-93 10v92q41 -10 83 -10t67 18t25 43t-25 43t-68 19l-51 -11l62 144q-223 25 -388 210t-165 451q0 265 182 457t432 192
q207 0 355 -129t198 -321h-205q-33 121 -124 199t-224 77q-166 0 -293 -139t-127 -342z" />
    <glyph glyph-name="Egrave" unicode="&#xc8;" horiz-adv-x="1126" 
d="M553 1690l123 -246h-123l-174 246h174zM348 184h676v-184h-870v1290h850v-184h-656v-348h604v-185h-604v-389z" />
    <glyph glyph-name="Eacute" unicode="&#xc9;" horiz-adv-x="1126" 
d="M512 1444l123 246h174l-174 -246h-123zM348 184h676v-184h-870v1290h850v-184h-656v-348h604v-185h-604v-389z" />
    <glyph glyph-name="Ecircumflex" unicode="&#xca;" horiz-adv-x="1126" 
d="M666 1679l184 -245h-164l-102 143l-103 -143h-164l185 245h164zM348 184h676v-184h-870v1290h850v-184h-656v-348h604v-185h-604v-389z" />
    <glyph glyph-name="Edieresis" unicode="&#xcb;" horiz-adv-x="1126" 
d="M870 1546q0 -47 -34 -80q-34 -32 -78 -32q-45 0 -79 32t-34 80q0 47 34 80t79 33q44 0 78 -33t34 -80zM522 1546q0 -47 -34 -80q-34 -32 -78 -32t-79 32q-34 32 -34 80q0 47 34 80t79 33q44 0 78 -33t34 -80zM348 184h676v-184h-870v1290h850v-184h-656v-348h604v-185
h-604v-389z" />
    <glyph glyph-name="Igrave" unicode="&#xcc;" horiz-adv-x="501" 
d="M184 1690l123 -246h-123l-174 246h174zM348 1290v-1290h-194v1290h194z" />
    <glyph glyph-name="Iacute" unicode="&#xcd;" horiz-adv-x="501" 
d="M195 1444l122 246h175l-175 -246h-122zM348 1290v-1290h-194v1290h194z" />
    <glyph glyph-name="Icircumflex" unicode="&#xce;" horiz-adv-x="501" 
d="M328 1679l184 -245h-164l-102 143l-103 -143h-163l184 245h164zM348 1290v-1290h-194v1290h194z" />
    <glyph glyph-name="Idieresis" unicode="&#xcf;" horiz-adv-x="501" 
d="M543 1546q0 -47 -34 -80q-34 -32 -79 -32t-79 32t-34 80q0 47 34 80t79 33t79 -33t34 -80zM195 1546q0 -47 -34 -80q-34 -32 -79 -32t-79 32t-34 80q0 47 34 80t79 33t79 -33t34 -80zM348 1290v-1290h-194v1290h194z" />
    <glyph glyph-name="Eth" unicode="&#xd0;" horiz-adv-x="1300" 
d="M410 184h194q166 0 293 133t127 328t-127 328t-293 133h-194v-379h245v-184h-245v-359zM604 0h-389v543h-174v184h174v563h389q248 0 431 -189t183 -455t-182 -456q-184 -190 -432 -190z" />
    <glyph glyph-name="Ntilde" unicode="&#xd1;" horiz-adv-x="1290" 
d="M954 1669q0 -119 -52 -183t-120 -63q-68 0 -108 31q-41 31 -72 62q-64 64 -117 0q-25 -31 -24 -82h-103q0 119 52 182t120 63q68 -1 108 -31t72 -61t62 -31t56 31q24 31 24 82h102zM942 1290h195v-1290h-164l-625 922v-922h-194v1290h163l625 -921v921z" />
    <glyph glyph-name="Ograve" unicode="&#xd2;" horiz-adv-x="1372" 
d="M625 1690l123 -246h-123l-174 246h174zM1300 645q0 -271 -182 -463t-432 -192t-432 191t-182 463t182 464t432 192t432 -192t182 -463zM1106 645q0 203 -127 342t-293 139t-293 -139t-127 -342t127 -342t293 -139t293 139t127 342z" />
    <glyph glyph-name="Oacute" unicode="&#xd3;" horiz-adv-x="1372" 
d="M625 1444l123 246h174l-174 -246h-123zM1300 645q0 -271 -182 -463t-432 -192t-432 191t-182 463t182 464t432 192t432 -192t182 -463zM1106 645q0 203 -127 342t-293 139t-293 -139t-127 -342t127 -342t293 -139t293 139t127 342z" />
    <glyph glyph-name="Ocircumflex" unicode="&#xd4;" horiz-adv-x="1372" 
d="M768 1679l184 -245h-164l-102 143l-102 -143h-164l184 245h164zM1300 645q0 -271 -182 -463t-432 -192t-432 191t-182 463t182 464t432 192t432 -192t182 -463zM1106 645q0 203 -127 342t-293 139t-293 -139t-127 -342t127 -342t293 -139t293 139t127 342z" />
    <glyph glyph-name="Otilde" unicode="&#xd5;" horiz-adv-x="1372" 
d="M995 1669q0 -119 -52 -183q-51 -64 -119 -63q-68 0 -109 31t-72 62q-64 64 -117 0q-25 -31 -24 -82h-103q1 119 53 182t120 63q68 -1 107 -31q40 -30 72 -61q33 -31 63 -31t54 31t25 82h102zM1300 645q0 -271 -182 -463t-432 -192t-432 191t-182 463t182 464t432 192
t432 -192t182 -463zM1106 645q0 203 -127 342t-293 139t-293 -139t-127 -342t127 -342t293 -139t293 139t127 342z" />
    <glyph glyph-name="Odieresis" unicode="&#xd6;" horiz-adv-x="1372" 
d="M973 1546q0 -47 -34 -80q-34 -32 -79 -32t-79 32t-33 80q0 47 33 80q34 33 79 33t79 -33t34 -80zM625 1546q0 -47 -34 -80q-34 -32 -79 -32t-79 32t-34 80q0 47 34 80t79 33t79 -33t34 -80zM1300 645q0 -271 -182 -463t-432 -192t-432 191t-182 463t182 464t432 192
t432 -192t182 -463zM1106 645q0 203 -127 342t-293 139t-293 -139t-127 -342t127 -342t293 -139t293 139t127 342z" />
    <glyph glyph-name="multiply" unicode="&#xd7;" horiz-adv-x="921" 
d="M573 522l236 -246l-113 -102l-235 246l-236 -246l-112 102l235 246l-235 246l112 102l236 -245l235 245l113 -102z" />
    <glyph glyph-name="Oslash" unicode="&#xd8;" horiz-adv-x="1392" 
d="M696 164q166 0 293 139t127 342q0 59 -15 117t-32 90l-14 29l-625 -605q41 -41 116 -76q76 -36 150 -36zM276 645q0 -59 16 -117t32 -90l14 -28l625 604q-40 40 -117 77q-76 36 -150 35q-166 0 -293 -139t-127 -342zM696 1300q141 0 238 -49t143 -88l19 -16l133 123
l123 -123l-144 -133q37 -49 70 -159q33 -109 33 -210q-1 -271 -183 -463t-432 -192q-215 0 -381 137l-18 16l-133 -123l-123 123l143 133q-35 46 -68 158q-34 111 -34 211q0 271 182 463t432 192z" />
    <glyph glyph-name="Ugrave" unicode="&#xd9;" horiz-adv-x="1228" 
d="M584 1690l123 -246h-123l-174 246h174zM614 164q125 0 206 85t81 222v819h195v-819q0 -207 -138 -344t-344 -137q-207 0 -344 137t-137 344v819h195v-819q0 -137 80 -222t206 -85z" />
    <glyph glyph-name="Uacute" unicode="&#xda;" horiz-adv-x="1228" 
d="M543 1444l123 246h174l-174 -246h-123zM614 164q125 0 206 85t81 222v819h195v-819q0 -207 -138 -344t-344 -137q-207 0 -344 137t-137 344v819h195v-819q0 -137 80 -222t206 -85z" />
    <glyph glyph-name="Ucircumflex" unicode="&#xdb;" horiz-adv-x="1228" 
d="M696 1679l185 -245h-164l-103 143l-102 -143h-164l184 245h164zM614 164q125 0 206 85t81 222v819h195v-819q0 -207 -138 -344t-344 -137q-207 0 -344 137t-137 344v819h195v-819q0 -137 80 -222t206 -85z" />
    <glyph glyph-name="Udieresis" unicode="&#xdc;" horiz-adv-x="1228" 
d="M901 1546q0 -47 -33 -80q-33 -32 -80 -32q-48 0 -80 32t-32 80q0 47 33 80t79 33t80 -33q33 -33 33 -80zM553 1546q0 -47 -33 -80q-33 -32 -80 -32t-80 32t-32 80q0 47 32 80q33 33 80 33t80 -33t33 -80zM614 164q125 0 206 85t81 222v819h195v-819q0 -207 -138 -344
t-344 -137q-207 0 -344 137t-137 344v819h195v-819q0 -137 80 -222t206 -85z" />
    <glyph glyph-name="Yacute" unicode="&#xdd;" horiz-adv-x="1054" 
d="M471 1444l123 246h174l-174 -246h-123zM625 0h-195v502l-410 788h205l297 -583h10l297 583h205l-409 -788v-502z" />
    <glyph glyph-name="Thorn" unicode="&#xde;" horiz-adv-x="1218" 
d="M348 461h379q84 -1 150 65t65 150q0 84 -66 150t-149 65h-379v-430zM348 1290v-215h379q168 0 289 -119q121 -118 121 -280t-121 -281t-289 -119h-379v-276h-194v1290h194z" />
    <glyph glyph-name="germandbls" unicode="&#xdf;" horiz-adv-x="1054" 
d="M614 0h-102v174h102q78 0 131 55t53 139t-52 140q-54 55 -132 55h-102v185q84 0 139 53t55 134t-54 136q-56 55 -137 55t-139 -59t-59 -135v-932h-184v932q0 147 113 258q114 110 270 110t266 -105t109 -253q0 -68 -28 -129t-56 -88l-29 -29l22 -11t50 -36t62 -63t49 -93
q23 -58 22 -124q1 -153 -107 -261t-262 -108z" />
    <glyph glyph-name="agrave" unicode="&#xe0;" horiz-adv-x="952" 
d="M440 1319l123 -246h-123l-174 246h174zM410 154q114 0 180 59t65 147v50q-229 0 -309 -38t-80 -116q0 -42 39 -72t105 -30zM479 932q162 0 261 -93t100 -235v-604h-133l-41 92q-23 -35 -104 -69t-163 -33q-153 0 -235 76t-82 213t127 216t446 78v31q0 70 -45 112t-129 42
q-166 0 -184 -113h-184q8 127 106 207t260 80z" />
    <glyph glyph-name="aacute" unicode="&#xe1;" horiz-adv-x="952" 
d="M420 1073l123 246h174l-174 -246h-123zM410 154q114 0 180 59t65 147v50q-229 0 -309 -38t-80 -116q0 -42 39 -72t105 -30zM479 932q162 0 261 -93t100 -235v-604h-133l-41 92q-23 -35 -104 -69t-163 -33q-153 0 -235 76t-82 213t127 216t446 78v31q0 70 -45 112t-129 42
q-166 0 -184 -113h-184q8 127 106 207t260 80z" />
    <glyph glyph-name="acircumflex" unicode="&#xe2;" horiz-adv-x="952" 
d="M563 1311l185 -246h-164l-103 143l-102 -143h-164l184 246h164zM410 154q114 0 180 59t65 147v50q-229 0 -309 -38t-80 -116q0 -42 39 -72t105 -30zM479 932q162 0 261 -93t100 -235v-604h-133l-41 92q-23 -35 -104 -69t-163 -33q-153 0 -235 76t-82 213t127 216t446 78
v31q0 70 -45 112t-129 42q-166 0 -184 -113h-184q8 127 106 207t260 80z" />
    <glyph glyph-name="atilde" unicode="&#xe3;" horiz-adv-x="952" 
d="M780 1280q0 -118 -52 -182t-120 -64t-108 31q-41 31 -72 61q-32 30 -62 31q-30 0 -55 -31t-24 -82h-103q0 118 52 182t120 64t108 -30t72 -62q32 -31 62 -31t56 31q24 31 24 82h102zM410 154q114 0 180 59t65 147v50q-229 0 -309 -38t-80 -116q0 -42 39 -72t105 -30z
M479 932q162 0 261 -93t100 -235v-604h-133l-41 92q-23 -35 -104 -69t-163 -33q-153 0 -235 76t-82 213t127 216t446 78v31q0 70 -45 112t-129 42q-166 0 -184 -113h-184q8 127 106 207t260 80z" />
    <glyph glyph-name="adieresis" unicode="&#xe4;" horiz-adv-x="952" 
d="M768 1178q0 -47 -34 -80t-79 -33t-79 33t-33 80q0 48 34 80q35 32 79 32t78 -32t34 -80zM420 1178q0 -47 -34 -80t-79 -33t-79 33t-33 80q-1 48 33 80t79 32t79 -32t34 -80zM410 154q114 0 180 59t65 147v50q-229 0 -309 -38t-80 -116q0 -42 39 -72t105 -30zM479 932
q162 0 261 -93t100 -235v-604h-133l-41 92q-23 -35 -104 -69t-163 -33q-153 0 -235 76t-82 213t127 216t446 78v31q0 70 -45 112t-129 42q-166 0 -184 -113h-184q8 127 106 207t260 80z" />
    <glyph glyph-name="aring" unicode="&#xe5;" horiz-adv-x="952" 
d="M666 1206q0 -72 -50 -123t-124 -51q-76 0 -125 51t-50 123t49 123t126 51t125 -51t49 -123zM563 1206q0 31 -20 57q-20 25 -51 25t-52 -25q-20 -26 -20 -57q0 -30 20 -56t52 -26t51 26q20 26 20 56zM410 154q114 0 180 59t65 147v50q-229 0 -309 -38t-80 -116
q0 -42 39 -72t105 -30zM479 932q162 0 261 -93t100 -235v-604h-133l-41 92q-23 -35 -104 -69t-163 -33q-153 0 -235 76t-82 213t127 216t446 78v31q0 70 -45 112t-129 42q-166 0 -184 -113h-184q8 127 106 207t260 80z" />
    <glyph glyph-name="ae" unicode="&#xe6;" horiz-adv-x="1536" 
d="M410 154q114 0 180 59t65 147v29q-297 0 -362 -65q-27 -27 -27 -68q0 -42 39 -72t105 -30zM1058 758q-87 0 -154 -65t-75 -150h461q-16 95 -80 155t-152 60zM1065 -10q-112 0 -191 52t-116 101q-10 -15 -49 -48q-125 -105 -289 -105t-251 75t-87 205t128 207
q128 76 445 76v51q0 70 -45 112t-129 42q-166 0 -184 -113h-184q8 127 106 207t251 80t247 -99q30 -31 41 -55q12 16 36 42t102 69t159 43q165 0 287 -134t122 -337l-10 -72h-627q10 -94 78 -160t160 -65q119 0 195 102h194q-111 -276 -389 -276z" />
    <glyph glyph-name="ccedilla" unicode="&#xe7;" horiz-adv-x="983" 
d="M727 584q-54 174 -225 174q-92 0 -169 -85t-77 -212t77 -212t169 -85q171 0 225 174h195q-31 -138 -126 -232t-233 -116l-31 -72q56 -8 90 -44t34 -94t-50 -98q-49 -40 -145 -40l-92 10v92q41 -10 83 -10t66 18t25 43q0 25 -25 43t-67 19l-52 -11l62 144
q-160 16 -275 147q-114 131 -114 330t127 332t298 133t281 -98t144 -250h-195z" />
    <glyph glyph-name="egrave" unicode="&#xe8;" horiz-adv-x="1013" 
d="M451 1319l122 -246h-122l-175 246h175zM518 758q-98 0 -162 -62t-80 -164h492q-16 102 -84 164t-166 62zM522 -10q-186 0 -313 133t-127 338t125 338t305 133t305 -133t125 -338l-10 -82h-656q8 -86 78 -151t168 -64q129 0 205 102h195q-111 -276 -400 -276z" />
    <glyph glyph-name="eacute" unicode="&#xe9;" horiz-adv-x="1013" 
d="M451 1073l122 246h175l-175 -246h-122zM518 758q-98 0 -162 -62t-80 -164h492q-16 102 -84 164t-166 62zM522 -10q-186 0 -313 133t-127 338t125 338t305 133t305 -133t125 -338l-10 -82h-656q8 -86 78 -151t168 -64q129 0 205 102h195q-111 -276 -400 -276z" />
    <glyph glyph-name="ecircumflex" unicode="&#xea;" horiz-adv-x="1013" 
d="M594 1311l184 -246h-164l-102 143l-102 -143h-164l184 246h164zM518 758q-98 0 -162 -62t-80 -164h492q-16 102 -84 164t-166 62zM522 -10q-186 0 -313 133t-127 338t125 338t305 133t305 -133t125 -338l-10 -82h-656q8 -86 78 -151t168 -64q129 0 205 102h195
q-111 -276 -400 -276z" />
    <glyph glyph-name="edieresis" unicode="&#xeb;" horiz-adv-x="1013" 
d="M799 1178q0 -47 -33 -80t-80 -33t-80 33t-33 80q0 48 33 80t80 32t80 -32t33 -80zM451 1178q0 -47 -33 -80t-80 -33t-80 33t-33 80q0 48 33 80t80 32t80 -32t33 -80zM518 758q-98 0 -162 -62t-80 -164h492q-16 102 -84 164t-166 62zM522 -10q-186 0 -313 133t-127 338
t125 338t305 133t305 -133t125 -338l-10 -82h-656q8 -86 78 -151t168 -64q129 0 205 102h195q-111 -276 -400 -276z" />
    <glyph glyph-name="igrave" unicode="&#xec;" horiz-adv-x="430" 
d="M164 1311l123 -246h-123l-174 246h174zM307 922v-922h-184v922h184z" />
    <glyph glyph-name="iacute" unicode="&#xed;" horiz-adv-x="430" 
d="M154 1065l122 246h175l-175 -246h-122zM307 922v-922h-184v922h184z" />
    <glyph glyph-name="icircumflex" unicode="&#xee;" horiz-adv-x="430" 
d="M297 1311l184 -246h-164l-102 143l-102 -143h-164l184 246h164zM307 922v-922h-184v922h184z" />
    <glyph glyph-name="idieresis" unicode="&#xef;" horiz-adv-x="430" 
d="M502 1178q0 -47 -34 -80t-79 -33t-79 33t-34 80q0 48 34 80t79 32t79 -32t34 -80zM154 1178q0 -47 -34 -80t-79 -33t-79 33t-34 80q0 48 34 80t79 32t79 -32t34 -80zM307 922v-922h-184v922h184z" />
    <glyph glyph-name="eth" unicode="&#xf0;" horiz-adv-x="1064" 
d="M522 164q109 0 188 81q78 81 78 195t-78 196q-79 81 -188 81q-110 0 -188 -81t-78 -196q0 -116 78 -196t188 -80zM983 512q0 -242 -128 -382t-327 -140q-200 0 -328 129t-128 320t126 321t304 131q90 0 162 -36t98 -73l26 -34q-14 90 -60 177t-85 128l-39 43l-184 -123
l-82 123l143 92q-80 53 -174 74l-31 8l52 143q174 -51 286 -133l174 123l82 -123l-143 -92q165 -165 228 -436q28 -117 28 -240z" />
    <glyph glyph-name="ntilde" unicode="&#xf1;" horiz-adv-x="1044" 
d="M842 1300q0 -119 -52 -182t-120 -63q-68 1 -109 31t-72 61t-61 31t-56 -31q-24 -31 -24 -82h-102q0 119 52 182t120 63t107 -30q40 -32 72 -62q33 -30 63 -30t55 31t24 81h103zM563 932q156 0 262 -113t107 -287v-532h-184v532q0 92 -65 159t-154 67t-155 -67t-67 -159
v-532h-184v922h133l41 -93q23 35 104 69q80 34 162 34z" />
    <glyph glyph-name="ograve" unicode="&#xf2;" 
d="M461 1311l123 -246h-123l-174 246h174zM952 461q0 -205 -127 -338t-313 -133t-313 133t-127 338t127 338t313 133t313 -133t127 -338zM768 461q0 127 -77 212t-179 85t-179 -85t-77 -212t77 -212t179 -85t179 85t77 212z" />
    <glyph glyph-name="oacute" unicode="&#xf3;" 
d="M461 1065l123 246h174l-174 -246h-123zM952 461q0 -205 -127 -338t-313 -133t-313 133t-127 338t127 338t313 133t313 -133t127 -338zM768 461q0 127 -77 212t-179 85t-179 -85t-77 -212t77 -212t179 -85t179 85t77 212z" />
    <glyph glyph-name="ocircumflex" unicode="&#xf4;" 
d="M594 1311l184 -246h-164l-102 143l-102 -143h-164l184 246h164zM952 461q0 -205 -127 -338t-313 -133t-313 133t-127 338t127 338t313 133t313 -133t127 -338zM768 461q0 127 -77 212t-179 85t-179 -85t-77 -212t77 -212t179 -85t179 85t77 212z" />
    <glyph glyph-name="otilde" unicode="&#xf5;" 
d="M811 1290q0 -118 -52 -182q-51 -64 -119 -64t-110 31t-72 62t-61 31t-55 -32q-24 -30 -25 -81h-102q0 119 52 182q51 63 119 63t108 -30t72 -62q66 -65 118 0q25 31 25 82h102zM952 461q0 -205 -127 -338t-313 -133t-313 133t-127 338t127 338t313 133t313 -133t127 -338
zM768 461q0 127 -77 212t-179 85t-179 -85t-77 -212t77 -212t179 -85t179 85t77 212z" />
    <glyph glyph-name="odieresis" unicode="&#xf6;" 
d="M799 1178q0 -47 -33 -80t-80 -33t-80 33t-33 80q0 48 33 80t80 32t80 -32t33 -80zM451 1178q0 -47 -33 -80t-80 -33t-80 33t-33 80q0 48 33 80t80 32t80 -32t33 -80zM952 461q0 -205 -127 -338t-313 -133t-313 133t-127 338t127 338t313 133t313 -133t127 -338zM768 461
q0 127 -77 212t-179 85t-179 -85t-77 -212t77 -212t179 -85t179 85t77 212z" />
    <glyph glyph-name="divide" unicode="&#xf7;" horiz-adv-x="921" 
d="M573 184q-1 -45 -33 -79q-32 -33 -79 -33t-80 34t-33 78q0 45 33 79t80 34t79 -34t33 -79zM573 860q-1 -45 -33 -79q-32 -33 -79 -33t-80 34t-33 78q0 45 33 79t80 34t79 -34t33 -79zM850 604v-164h-778v164h778z" />
    <glyph glyph-name="oslash" unicode="&#xf8;" horiz-adv-x="1064" 
d="M532 164q104 0 181 85q76 85 75 214q0 64 -20 121l-389 -369q16 -16 65 -34q48 -17 88 -17zM276 461q0 -60 21 -123l389 369q-17 17 -65 33q-48 17 -89 18q-104 0 -180 -85t-76 -212zM532 932q78 0 150 -26t104 -50l33 -27l103 93l102 -113l-113 -102q61 -102 62 -244
q0 -207 -127 -340t-314 -133q-78 0 -150 26t-103 50l-33 26l-103 -92l-102 113l113 102q-61 102 -62 246q0 205 127 338t313 133z" />
    <glyph glyph-name="ugrave" unicode="&#xf9;" horiz-adv-x="1054" 
d="M502 1319l123 -246h-123l-174 246h174zM492 -10q-156 0 -263 112q-106 113 -106 287v533h184v-533q0 -92 65 -159q66 -66 154 -66t155 66t67 159v533h184v-922h-133l-41 92q-23 -35 -104 -69q-80 -33 -162 -33z" />
    <glyph glyph-name="uacute" unicode="&#xfa;" horiz-adv-x="1054" 
d="M461 1075l123 246h174l-174 -246h-123zM492 -10q-156 0 -263 112q-106 113 -106 287v533h184v-533q0 -92 65 -159q66 -66 154 -66t155 66t67 159v533h184v-922h-133l-41 92q-23 -35 -104 -69q-80 -33 -162 -33z" />
    <glyph glyph-name="ucircumflex" unicode="&#xfb;" horiz-adv-x="1054" 
d="M604 1311l184 -246h-163l-103 143l-102 -143h-164l184 246h164zM492 -10q-156 0 -263 112q-106 113 -106 287v533h184v-533q0 -92 65 -159q66 -66 154 -66t155 66t67 159v533h184v-922h-133l-41 92q-23 -35 -104 -69q-80 -33 -162 -33z" />
    <glyph glyph-name="udieresis" unicode="&#xfc;" horiz-adv-x="1054" 
d="M819 1178q0 -47 -33 -80q-34 -33 -80 -33t-79 33t-33 80q0 48 33 80t80 32t79 -32t33 -80zM471 1178q0 -47 -33 -80t-80 -33q-48 0 -80 33t-32 80q0 48 33 80t79 32t80 -32q33 -32 33 -80zM492 -10q-156 0 -263 112q-106 113 -106 287v533h184v-533q0 -92 65 -159
q66 -66 154 -66t155 66t67 159v533h184v-922h-133l-41 92q-23 -35 -104 -69q-80 -33 -162 -33z" />
    <glyph glyph-name="yacute" unicode="&#xfd;" horiz-adv-x="942" 
d="M410 1073l122 246h175l-175 -246h-122zM174 -174q137 0 174 113l31 92l-359 891h195l256 -666l256 666h195l-390 -983q-61 -156 -125 -217q-65 -60 -171 -60l-62 10v154z" />
    <glyph glyph-name="thorn" unicode="&#xfe;" horiz-adv-x="1085" 
d="M563 164q111 0 189 84t77 213q0 129 -77 213q-78 84 -189 84t-189 -84t-77 -213q-1 -129 77 -213t189 -84zM573 932q185 0 313 -133t128 -338t-127 -338t-314 -133q-78 0 -141 26t-88 50l-27 26v-420h-184v1618h184v-471q9 13 29 31t86 50t141 32z" />
    <glyph glyph-name="ydieresis" unicode="&#xff;" horiz-adv-x="942" 
d="M758 1178q0 -47 -33 -80t-80 -33t-80 33t-33 80q0 48 33 80t80 32t80 -32t33 -80zM410 1178q0 -47 -33 -80t-80 -33t-80 33t-33 80q0 48 33 80t80 32t80 -32t33 -80zM174 -174q137 0 174 113l31 92l-359 891h195l256 -666l256 666h195l-390 -983q-61 -156 -125 -217
q-65 -60 -171 -60l-62 10v154z" />
    <glyph glyph-name="Amacron" unicode="&#x100;" horiz-adv-x="1146" 
d="M829 1587v-133h-512v133h512zM389 481h369l-185 512zM317 297l-112 -297h-205l492 1290h163l492 -1290h-205l-113 297h-512z" />
    <glyph glyph-name="amacron" unicode="&#x101;" horiz-adv-x="952" 
d="M748 1239v-133h-512v133h512zM410 154q114 0 180 59t65 147v50q-229 0 -309 -38t-80 -116q0 -42 39 -72t105 -30zM479 932q162 0 261 -93t100 -235v-604h-133l-41 92q-23 -35 -104 -69t-163 -33q-153 0 -235 76t-82 213t127 216t446 78v31q0 70 -45 112t-129 42
q-166 0 -184 -113h-184q8 127 106 207t260 80z" />
    <glyph glyph-name="Abreve" unicode="&#x102;" horiz-adv-x="1146" 
d="M573 1556q45 0 80 31t43 72h144q-16 -102 -89 -169t-177 -67t-178 67q-73 67 -89 169h144q9 -41 43 -72t79 -31zM389 481h369l-185 512zM317 297l-112 -297h-205l492 1290h163l492 -1290h-205l-113 297h-512z" />
    <glyph glyph-name="abreve" unicode="&#x103;" horiz-adv-x="952" 
d="M483 1188q45 0 80 31t43 71h144q-16 -102 -90 -169t-177 -67q-104 0 -177 68q-73 66 -89 168h143q8 -42 43 -72t80 -30zM410 154q114 0 180 59t65 147v50q-229 0 -309 -38t-80 -116q0 -42 39 -72t105 -30zM479 932q162 0 261 -93t100 -235v-604h-133l-41 92
q-23 -35 -104 -69t-163 -33q-153 0 -235 76t-82 213t127 216t446 78v31q0 70 -45 112t-129 42q-166 0 -184 -113h-184q8 127 106 207t260 80z" />
    <glyph glyph-name="Aogonek" unicode="&#x104;" horiz-adv-x="1146" 
d="M389 481h369l-185 512zM993 -164q0 -40 27 -66t65 -26l82 10v-102q-51 -10 -121 -10t-123 48t-53 110t18 107q17 46 36 68l18 25l-113 297h-512l-112 -297h-205l492 1290h163l492 -1290h-82q-72 -82 -72 -164z" />
    <glyph glyph-name="aogonek" unicode="&#x105;" horiz-adv-x="952" 
d="M410 154q114 0 180 59t65 147v50q-229 0 -309 -38t-80 -116q0 -42 39 -72t105 -30zM82 279q0 137 127 216t446 78v31q0 70 -45 112t-129 42q-166 0 -184 -113h-184q8 127 106 207t260 80t261 -93t100 -235v-604h-11q-72 -82 -71 -164q0 -40 26 -66t66 -26l82 10v-102
q-51 -10 -122 -10t-123 48t-52 110q0 107 53 175l19 25l-41 92q-23 -35 -104 -69t-163 -33q-153 0 -235 76t-82 213z" />
    <glyph glyph-name="Cacute" unicode="&#x106;" horiz-adv-x="1310" 
d="M625 1444l123 246h174l-174 -246h-123zM266 645q0 -203 127 -342t279 -139t247 77q93 77 125 199h205q-49 -194 -199 -322t-364 -128q-250 0 -432 191t-182 463t182 464t432 192q207 0 355 -129t198 -321h-205q-33 121 -124 199t-224 77q-166 0 -293 -139t-127 -342z" />
    <glyph glyph-name="cacute" unicode="&#x107;" horiz-adv-x="983" 
d="M451 1073l122 246h175l-175 -246h-122zM727 584q-54 174 -225 174q-92 0 -169 -85t-77 -212t77 -212t169 -85q171 0 225 174h195q-33 -152 -144 -250q-112 -98 -282 -98t-297 133t-127 338t127 338t298 133t281 -98t144 -250h-195z" />
    <glyph glyph-name="Ccircumflex" unicode="&#x108;" horiz-adv-x="1310" 
d="M768 1679l184 -245h-164l-102 143l-102 -143h-164l184 245h164zM266 645q0 -203 127 -342t279 -139t247 77q93 77 125 199h205q-49 -194 -199 -322t-364 -128q-250 0 -432 191t-182 463t182 464t432 192q207 0 355 -129t198 -321h-205q-33 121 -124 199t-224 77
q-166 0 -293 -139t-127 -342z" />
    <glyph glyph-name="ccircumflex" unicode="&#x109;" horiz-adv-x="983" 
d="M594 1311l184 -246h-164l-102 143l-102 -143h-164l184 246h164zM727 584q-54 174 -225 174q-92 0 -169 -85t-77 -212t77 -212t169 -85q171 0 225 174h195q-33 -152 -144 -250q-112 -98 -282 -98t-297 133t-127 338t127 338t298 133t281 -98t144 -250h-195z" />
    <glyph glyph-name="Ccaron" unicode="&#x10c;" horiz-adv-x="1310" 
d="M942 1679l-184 -245h-164l-184 245h163l103 -143l102 143h164zM266 645q0 -203 127 -342t279 -139t247 77q93 77 125 199h205q-49 -194 -199 -322t-364 -128q-250 0 -432 191t-182 463t182 464t432 192q207 0 355 -129t198 -321h-205q-33 121 -124 199t-224 77
q-166 0 -293 -139t-127 -342z" />
    <glyph glyph-name="ccaron" unicode="&#x10d;" horiz-adv-x="983" 
d="M778 1311l-184 -246h-164l-184 246h164l102 -144l102 144h164zM727 584q-54 174 -225 174q-92 0 -169 -85t-77 -212t77 -212t169 -85q171 0 225 174h195q-33 -152 -144 -250q-112 -98 -282 -98t-297 133t-127 338t127 338t298 133t281 -98t144 -250h-195z" />
    <glyph glyph-name="Dcaron" unicode="&#x10e;" horiz-adv-x="1239" 
d="M881 1679l-185 -245h-164l-184 245h164l102 -143l103 143h164zM543 0h-389v1290h389q248 0 431 -189t183 -455t-183 -456t-431 -190zM348 184h195q166 0 293 133t127 328t-127 328t-293 133h-195v-922z" />
    <glyph glyph-name="dcaron" unicode="&#x10f;" horiz-adv-x="1198" 
d="M522 758q-110 0 -188 -84t-78 -213t78 -213t188 -84t189 84q78 84 77 213q0 129 -77 213q-78 84 -189 84zM512 -10q-186 0 -313 133t-127 338t127 338t313 133q78 0 141 -26t88 -50l27 -27v461h184v-1290h-133l-41 92q-24 -36 -104 -69t-162 -33zM1065 1044l72 246h163
l-122 -246h-113z" />
    <glyph glyph-name="Dcroat" unicode="&#x110;" horiz-adv-x="1300" 
d="M410 184h194q166 0 293 133t127 328t-127 328t-293 133h-194v-379h245v-184h-245v-359zM604 0h-389v543h-174v184h174v563h389q248 0 431 -189t183 -455t-182 -456q-184 -190 -432 -190z" />
    <glyph glyph-name="dcroat" unicode="&#x111;" horiz-adv-x="1075" 
d="M502 164q100 0 173 75t73 181t-73 181t-173 75t-173 -75t-73 -181t73 -181t173 -75zM1075 1137v-164h-153v-973h-134l-40 92q-23 -35 -104 -69t-163 -33q-170 0 -290 124t-119 306q0 182 119 306q120 124 290 124q77 0 141 -26t91 -50l24 -26v225h-256v164h256v153h187
v-153h151z" />
    <glyph glyph-name="Emacron" unicode="&#x112;" horiz-adv-x="1126" 
d="M840 1608v-133h-512v133h512zM348 184h676v-184h-870v1290h850v-184h-656v-348h604v-185h-604v-389z" />
    <glyph glyph-name="emacron" unicode="&#x113;" horiz-adv-x="1013" 
d="M768 1239v-133h-512v133h512zM518 758q-98 0 -162 -62t-80 -164h492q-16 102 -84 164t-166 62zM522 -10q-186 0 -313 133t-127 338t125 338t305 133t305 -133t125 -338l-10 -82h-656q8 -86 78 -151t168 -64q129 0 205 102h195q-111 -276 -400 -276z" />
    <glyph glyph-name="Edotaccent" unicode="&#x116;" horiz-adv-x="1126" 
d="M707 1546q0 -47 -34 -80q-34 -32 -79 -32t-79 32t-34 80q0 47 34 80t79 33t79 -33t34 -80zM348 184h676v-184h-870v1290h850v-184h-656v-348h604v-185h-604v-389z" />
    <glyph glyph-name="edotaccent" unicode="&#x117;" horiz-adv-x="1013" 
d="M625 1178q0 -47 -34 -80t-79 -33t-79 33t-34 80q0 48 34 80t79 32t79 -32t34 -80zM518 758q-98 0 -162 -62t-80 -164h492q-16 102 -84 164t-166 62zM522 -10q-186 0 -313 133t-127 338t125 338t305 133t305 -133t125 -338l-10 -82h-656q8 -86 78 -151t168 -64
q129 0 205 102h195q-111 -276 -400 -276z" />
    <glyph glyph-name="Eogonek" unicode="&#x118;" horiz-adv-x="1126" 
d="M154 0v1290h850v-184h-656v-348h604v-185h-604v-389h676v-184q-72 -82 -72 -164q0 -40 27 -66t65 -26l82 10v-102q-52 -10 -122 -10t-122 48t-52 110t17 107q17 46 36 68l18 25h-747z" />
    <glyph glyph-name="eogonek" unicode="&#x119;" horiz-adv-x="1013" 
d="M518 758q-98 0 -162 -62t-80 -164h492q-16 102 -84 164t-166 62zM532 -164q0 -40 27 -66t66 -26l82 10v-102q-51 -10 -122 -10t-123 48t-52 126t45 151l16 23q-161 16 -275 147t-114 330t125 332t305 133t305 -133t125 -338l-10 -82h-656q8 -86 78 -151t168 -64
q129 0 205 102h195q-102 -238 -318 -266q-72 -82 -72 -164z" />
    <glyph glyph-name="Ecaron" unicode="&#x11a;" horiz-adv-x="1126" 
d="M860 1679l-184 -245h-164l-184 245h164l102 -143l102 143h164zM348 184h676v-184h-870v1290h850v-184h-656v-348h604v-185h-604v-389z" />
    <glyph glyph-name="ecaron" unicode="&#x11b;" horiz-adv-x="1013" 
d="M778 1311l-184 -246h-164l-184 246h164l102 -144l102 144h164zM518 758q-98 0 -162 -62t-80 -164h492q-16 102 -84 164t-166 62zM522 -10q-186 0 -313 133t-127 338t125 338t305 133t305 -133t125 -338l-10 -82h-656q8 -86 78 -151t168 -64q129 0 205 102h195
q-111 -276 -400 -276z" />
    <glyph glyph-name="Gbreve" unicode="&#x11e;" horiz-adv-x="1372" 
d="M686 1556q45 0 80 31t43 72h143q-16 -102 -89 -169t-177 -67t-177 67t-89 169h143q8 -41 43 -72t80 -31zM686 -10q-250 0 -432 191t-182 463t182 464t432 192q204 0 354 -124t199 -306h-205q-33 109 -125 183t-223 73q-166 0 -293 -139t-127 -342t127 -342t285 -139
t260 91t127 226h-389v185h573v-666h-143l-51 123q-14 -14 -43 -37q-30 -24 -126 -60t-200 -36z" />
    <glyph glyph-name="gbreve" unicode="&#x11f;" horiz-adv-x="1054" 
d="M512 1188q45 0 80 31t43 71h143q-16 -102 -89 -169t-177 -67t-177 68q-73 66 -89 168h143q8 -42 43 -72t80 -30zM256 480q0 -114 78 -194t179 -81q101 0 178 82q77 83 77 195t-77 194t-179 82t-179 -82t-77 -196zM932 922v-881q0 -172 -115 -281q-115 -108 -290 -108
t-278 81t-136 206h184q61 -123 215 -123q106 0 171 62t65 163v92q-24 -36 -101 -69q-78 -34 -155 -33q-172 0 -296 130t-124 320q0 191 124 321t296 130q82 0 148 -26t93 -50l25 -27l41 93h133z" />
    <glyph glyph-name="Gcommaaccent" unicode="&#x122;" horiz-adv-x="1372" 
d="M686 -133q47 0 80 -35t33 -89t-20 -113t-67 -103q-47 -45 -77 -59l-31 40q72 51 92 134q-53 0 -88 32t-35 79q0 46 33 80t80 34zM686 -10q-250 0 -432 191t-182 463t182 464t432 192q204 0 354 -124t199 -306h-205q-33 109 -125 183t-223 73q-166 0 -293 -139t-127 -342
t127 -342t285 -139t260 91t127 226h-389v185h573v-666h-143l-51 123q-14 -14 -43 -37q-30 -24 -126 -60t-200 -36z" />
    <glyph glyph-name="gcommaaccent" unicode="&#x123;" horiz-adv-x="1054" 
d="M256 480q0 -114 78 -194t179 -81q101 0 178 82q77 83 77 195t-77 194t-179 82t-179 -82t-77 -196zM932 922v-881q0 -172 -115 -281q-115 -108 -290 -108t-278 81t-136 206h184q61 -123 215 -123q106 0 171 62t65 163v92q-24 -36 -101 -69q-78 -34 -155 -33
q-172 0 -296 130t-124 320q0 191 124 321t296 130q82 0 148 -26t93 -50l25 -27l41 93h133zM522 1055q-47 0 -80 35q-59 62 -16 191q24 71 90 132q30 27 57 41l31 -41q-72 -51 -92 -133q53 0 88 -33t35 -79t-33 -80t-80 -33z" />
    <glyph glyph-name="Imacron" unicode="&#x12a;" horiz-adv-x="501" 
d="M512 1597v-133h-512v133h512zM348 1290v-1290h-194v1290h194z" />
    <glyph glyph-name="imacron" unicode="&#x12b;" horiz-adv-x="430" 
d="M471 1239v-133h-512v133h512zM307 922v-922h-184v922h184z" />
    <glyph glyph-name="Iogonek" unicode="&#x12e;" horiz-adv-x="501" 
d="M154 1290h194v-1290h-72q-72 -82 -71 -164q1 -40 27 -66t65 -26l82 10v-102q-51 -10 -122 -10t-123 48t-52 110q0 107 53 175l19 25v1290z" />
    <glyph glyph-name="iogonek" unicode="&#x12f;" horiz-adv-x="430" 
d="M215 1065q-47 0 -80 33t-33 80q0 48 33 80t80 32t80 -33t33 -79t-33 -80q-33 -33 -80 -33zM123 922h184v-922h-61q-72 -82 -72 -164q0 -40 27 -66t65 -26l82 10v-102q-52 -10 -122 -10t-123 48q-52 48 -52 110t18 107q17 46 35 68l19 25v922z" />
    <glyph glyph-name="Idotaccent" unicode="&#x130;" horiz-adv-x="501" 
d="M369 1546q0 -47 -33 -80q-33 -32 -80 -32t-80 32t-33 80q0 47 33 80t80 33t80 -33t33 -80zM348 1290v-1290h-194v1290h194z" />
    <glyph glyph-name="dotlessi" unicode="&#x131;" horiz-adv-x="430" 
d="M307 922v-922h-184v922h184z" />
    <glyph glyph-name="ij" unicode="&#x133;" horiz-adv-x="901" 
d="M686 1065q-47 0 -80 33t-33 80q0 48 33 80t80 32t80 -33t33 -79t-33 -80q-33 -33 -80 -33zM215 1065q-47 0 -80 33t-33 80q0 48 33 80t80 32t80 -33t33 -79t-33 -80q-33 -33 -80 -33zM492 -338q-67 0 -103 21v163q31 -10 77 -10t87 41t41 103v51q-61 -41 -185 -41
t-205 87t-81 230v615h184v-615q0 -61 41 -102q40 -41 88 -41q86 0 137 31l21 10v717h184v-942q0 -142 -81 -230t-205 -88z" />
    <glyph glyph-name="Kcommaaccent" unicode="&#x136;" horiz-adv-x="1075" 
d="M461 -247q-1 46 33 80t80 34t79 -35t33 -89t-19 -112t-68 -104q-48 -45 -77 -59l-30 40q72 51 92 134q-53 0 -88 32t-35 79zM348 0h-194v1290h194v-594l471 594h236l-523 -635l564 -655h-236l-512 604v-604z" />
    <glyph glyph-name="kcommaaccent" unicode="&#x137;" horiz-adv-x="880" 
d="M481 -133q47 0 80 -35t33 -89q0 -110 -56 -180q-56 -69 -108 -95l-31 40q72 51 93 134q-53 0 -89 32q-35 33 -35 79t33 80t80 34zM317 0h-184v1290h184v-768l318 400h215l-358 -430l409 -492h-225l-359 440v-440z" />
    <glyph glyph-name="Lacute" unicode="&#x139;" horiz-adv-x="983" 
d="M184 1444l123 246h174l-174 -246h-123zM348 184h615v-184h-809v1290h194v-1106z" />
    <glyph glyph-name="lacute" unicode="&#x13a;" horiz-adv-x="460" 
d="M164 1444l123 246h174l-174 -246h-123zM317 1290v-1290h-184v1290h184z" />
    <glyph glyph-name="Lcommaaccent" unicode="&#x13b;" horiz-adv-x="983" 
d="M461 -247q-1 46 33 80t80 34t79 -35t33 -89t-19 -112t-68 -104q-48 -45 -77 -59l-30 40q72 51 92 134q-53 0 -88 32t-35 79zM348 184h615v-184h-809v1290h194v-1106z" />
    <glyph glyph-name="lcommaaccent" unicode="&#x13c;" horiz-adv-x="450" 
d="M226 -133q46 0 79 -35t33 -89q0 -110 -56 -180q-56 -69 -108 -95l-31 40q72 51 93 134q-53 0 -89 32q-35 33 -35 79t34 80t80 34zM317 1290v-1290h-184v1290h184z" />
    <glyph glyph-name="Lcaron" unicode="&#x13d;" horiz-adv-x="983" 
d="M348 184h615v-184h-809v1290h194v-1106zM481 1044l72 246h164l-123 -246h-113z" />
    <glyph glyph-name="lcaron" unicode="&#x13e;" horiz-adv-x="563" 
d="M317 1290v-1290h-184v1290h184zM430 1044l72 246h164l-123 -246h-113z" />
    <glyph glyph-name="Lslash" unicode="&#x141;" horiz-adv-x="1013" 
d="M379 184h614v-184h-809v389l-143 -92v184l143 92v717h195v-594l307 205v-184l-307 -205v-328z" />
    <glyph glyph-name="lslash" unicode="&#x142;" horiz-adv-x="532" 
d="M348 0h-184v512l-144 -92v174l144 92v598h184v-475l164 102v-174l-164 -102v-635z" />
    <glyph glyph-name="Nacute" unicode="&#x143;" horiz-adv-x="1290" 
d="M584 1444l123 246h174l-174 -246h-123zM942 1290h195v-1290h-164l-625 922v-922h-194v1290h163l625 -921v921z" />
    <glyph glyph-name="nacute" unicode="&#x144;" horiz-adv-x="1044" 
d="M471 1075l123 246h174l-174 -246h-123zM563 932q156 0 262 -113t107 -287v-532h-184v532q0 92 -65 159t-154 67t-155 -67t-67 -159v-532h-184v922h133l41 -93q23 35 104 69q80 34 162 34z" />
    <glyph glyph-name="Ncommaaccent" unicode="&#x145;" horiz-adv-x="1290" 
d="M645 -133q47 0 80 -35t33 -89t-20 -113t-67 -103q-47 -45 -77 -59l-31 40q72 51 92 134q-53 0 -88 32t-35 79q0 46 33 80t80 34zM942 1290h195v-1290h-164l-625 922v-922h-194v1290h163l625 -921v921z" />
    <glyph glyph-name="ncommaaccent" unicode="&#x146;" horiz-adv-x="1044" 
d="M420 -247q0 46 34 80t79 34q46 0 79 -35t33 -89t-19 -112t-68 -104q-48 -45 -77 -59l-30 40q72 51 92 134q-53 0 -88 32t-35 79zM563 932q156 0 262 -113t107 -287v-532h-184v532q0 92 -65 159t-154 67t-155 -67t-67 -159v-532h-184v922h133l41 -93q23 35 104 69
q80 34 162 34z" />
    <glyph glyph-name="Ncaron" unicode="&#x147;" horiz-adv-x="1290" 
d="M911 1679l-184 -245h-164l-184 245h164l102 -143l103 143h163zM942 1290h195v-1290h-164l-625 922v-922h-194v1290h163l625 -921v921z" />
    <glyph glyph-name="ncaron" unicode="&#x148;" horiz-adv-x="1044" 
d="M788 1311l-184 -246h-164l-184 246h164l102 -144l103 144h163zM563 932q156 0 262 -113t107 -287v-532h-184v532q0 92 -65 159t-154 67t-155 -67t-67 -159v-532h-184v922h133l41 -93q23 35 104 69q80 34 162 34z" />
    <glyph glyph-name="Omacron" unicode="&#x14c;" horiz-adv-x="1372" 
d="M942 1597v-133h-512v133h512zM1300 645q0 -271 -182 -463t-432 -192t-432 191t-182 463t182 464t432 192t432 -192t182 -463zM1106 645q0 203 -127 342t-293 139t-293 -139t-127 -342t127 -342t293 -139t293 139t127 342z" />
    <glyph glyph-name="omacron" unicode="&#x14d;" 
d="M768 1239v-133h-512v133h512zM952 461q0 -205 -127 -338t-313 -133t-313 133t-127 338t127 338t313 133t313 -133t127 -338zM768 461q0 127 -77 212t-179 85t-179 -85t-77 -212t77 -212t179 -85t179 85t77 212z" />
    <glyph glyph-name="Ohungarumlaut" unicode="&#x150;" horiz-adv-x="1372" 
d="M788 1444l134 246h174l-185 -246h-123zM502 1444l133 246h174l-184 -246h-123zM1300 645q0 -271 -182 -463t-432 -192t-432 191t-182 463t182 464t432 192t432 -192t182 -463zM1106 645q0 203 -127 342t-293 139t-293 -139t-127 -342t127 -342t293 -139t293 139t127 342z
" />
    <glyph glyph-name="ohungarumlaut" unicode="&#x151;" 
d="M604 1065l133 246h174l-184 -246h-123zM317 1065l134 246h174l-185 -246h-123zM952 461q0 -205 -127 -338t-313 -133t-313 133t-127 338t127 338t313 133t313 -133t127 -338zM768 461q0 127 -77 212t-179 85t-179 -85t-77 -212t77 -212t179 -85t179 85t77 212z" />
    <glyph glyph-name="OE" unicode="&#x152;" horiz-adv-x="1730" 
d="M686 184h143v922h-143q-166 0 -293 -133t-127 -328t127 -328t293 -133zM1628 0h-942q-248 0 -431 189t-183 455t183 456t431 190h922v-184h-584v-348h532v-185h-532v-389h604v-184z" />
    <glyph glyph-name="oe" unicode="&#x153;" horiz-adv-x="1648" 
d="M1161 758q-87 0 -155 -67t-84 -159h471q-16 100 -80 163t-152 63zM748 461q0 133 -75 220t-171 87t-171 -87t-75 -220t75 -220t171 -87t171 87t75 220zM1167 -10q-90 0 -170 44t-112 87l-35 43q-74 -112 -222 -156q-60 -18 -126 -18q-180 0 -305 133t-125 338t125 338
t305 133q104 0 191 -44t122 -87l35 -43q41 61 119 117q78 55 188 57q166 0 288 -134t122 -337l-11 -82h-634q16 -87 86 -151t159 -64q119 0 195 102h194q-111 -276 -389 -276z" />
    <glyph glyph-name="Racute" unicode="&#x154;" horiz-adv-x="1146" 
d="M512 1444l123 246h174l-174 -246h-123zM348 1106v-410h318q78 0 136 60t58 145t-58 145t-136 60h-318zM348 512v-512h-194v1290h512q162 0 276 -114t113 -275q0 -85 -30 -153t-72 -106q-84 -76 -154 -101l-31 -9l317 -532h-215l-297 512h-225z" />
    <glyph glyph-name="racute" unicode="&#x155;" horiz-adv-x="634" 
d="M297 1065l123 246h174l-174 -246h-123zM307 522v-522h-184v922h133l41 -93q23 35 95 69t140 34l62 -10v-185q-31 10 -62 11q-92 0 -158 -67t-67 -159z" />
    <glyph glyph-name="Rcommaaccent" unicode="&#x156;" horiz-adv-x="1146" 
d="M481 -227q0 47 34 79t80 33q46 0 79 -35t33 -89q0 -173 -164 -275l-31 41q72 51 92 133q-53 0 -88 33t-35 80zM348 1106v-410h318q78 0 136 60t58 145t-58 145t-136 60h-318zM348 512v-512h-194v1290h512q162 0 276 -114t113 -275q0 -85 -30 -153t-72 -106
q-84 -76 -154 -101l-31 -9l317 -532h-215l-297 512h-225z" />
    <glyph glyph-name="rcommaaccent" unicode="&#x157;" horiz-adv-x="634" 
d="M215 -133q47 0 80 -35t33 -89t-20 -113t-67 -103q-47 -45 -77 -59l-31 40q72 51 92 134q-53 0 -88 32t-35 79q0 46 33 80t80 34zM307 522v-522h-184v922h133l41 -93q23 35 95 69t140 34l62 -10v-185q-31 10 -62 11q-92 0 -158 -67t-67 -159z" />
    <glyph glyph-name="Rcaron" unicode="&#x158;" horiz-adv-x="1146" 
d="M850 1679l-184 -245h-164l-185 245h164l103 -143l102 143h164zM348 1106v-410h318q78 0 136 60t58 145t-58 145t-136 60h-318zM348 512v-512h-194v1290h512q162 0 276 -114t113 -275q0 -85 -30 -153t-72 -106q-84 -76 -154 -101l-31 -9l317 -532h-215l-297 512h-225z" />
    <glyph glyph-name="rcaron" unicode="&#x159;" horiz-adv-x="634" 
d="M645 1311l-184 -246h-164l-184 246h163l103 -144l102 144h164zM307 522v-522h-184v922h133l41 -93q23 35 95 69t140 34l62 -10v-185q-31 10 -62 11q-92 0 -158 -67t-67 -159z" />
    <glyph glyph-name="Sacute" unicode="&#x15a;" 
d="M461 1444l123 246h174l-174 -246h-123zM82 942q0 143 122 251q122 107 306 107t303 -114t119 -285h-195q0 101 -62 163q-61 62 -163 62t-169 -55t-67 -128t71 -118t171 -73t202 -67q102 -38 172 -122q71 -84 71 -222q0 -139 -125 -245t-328 -106t-321 110t-117 289h194
q0 -225 246 -225q124 0 190 51t66 121t-38 110q-60 65 -237 117t-275 114q-60 37 -98 105t-38 160z" />
    <glyph glyph-name="sacute" unicode="&#x15b;" horiz-adv-x="829" 
d="M348 1065l123 246h174l-174 -246h-123zM420 164q80 0 122 32t42 78t-50 72q-50 25 -123 41t-146 40t-123 81q-50 58 -50 162t87 183t238 79t237 -77t94 -210h-185q-8 49 -48 81q-39 32 -105 32t-105 -31t-39 -74t50 -67t123 -41q73 -16 146 -40t123 -81t50 -148
q0 -126 -90 -206t-248 -80q-332 0 -348 307h184q16 -133 164 -133z" />
    <glyph glyph-name="Scedilla" unicode="&#x15e;" 
d="M82 942q0 143 122 251q122 107 306 107t303 -114t119 -285h-195q0 101 -62 163q-61 62 -163 62t-169 -55t-67 -128t71 -118t171 -73t202 -67q102 -38 172 -122q71 -84 71 -216t-116 -241t-274 -116l-30 -72q55 -8 89 -44t34 -94t-50 -98t-145 -40l-92 10v92
q41 -10 83 -10t66 18t25 43q0 25 -25 43t-67 19l-51 -11l61 144q-176 8 -288 120t-111 279h194q0 -225 246 -225q124 0 190 51t66 121t-38 110q-60 65 -237 117t-275 114q-60 37 -98 105t-38 160z" />
    <glyph glyph-name="scedilla" unicode="&#x15f;" horiz-adv-x="829" 
d="M420 164q80 0 122 32t42 78t-50 72q-50 25 -123 41t-146 40t-123 81q-50 58 -50 162t87 183t238 79t237 -77t94 -210h-185q-8 49 -48 81q-39 32 -105 32t-105 -31t-39 -74t50 -67t123 -41q73 -16 146 -40t123 -81t50 -160q0 -102 -77 -180t-200 -94l-30 -72q55 -8 89 -44
t34 -94t-50 -98q-49 -40 -145 -40l-92 10v92q41 -10 83 -10t66 18t25 43q0 25 -25 43t-67 19l-52 -11l62 144q-139 8 -219 86t-88 221h184q16 -133 164 -133z" />
    <glyph glyph-name="Scaron" unicode="&#x160;" 
d="M788 1679l-184 -245h-164l-184 245h164l102 -143l103 143h163zM82 942q0 143 122 251q122 107 306 107t303 -114t119 -285h-195q0 101 -62 163q-61 62 -163 62t-169 -55t-67 -128t71 -118t171 -73t202 -67q102 -38 172 -122q71 -84 71 -222q0 -139 -125 -245t-328 -106
t-321 110t-117 289h194q0 -225 246 -225q124 0 190 51t66 121t-38 110q-60 65 -237 117t-275 114q-60 37 -98 105t-38 160z" />
    <glyph glyph-name="scaron" unicode="&#x161;" horiz-adv-x="829" 
d="M676 1311l-184 -246h-164l-185 246h164l103 -144l102 144h164zM420 164q80 0 122 32t42 78t-50 72q-50 25 -123 41t-146 40t-123 81q-50 58 -50 162t87 183t238 79t237 -77t94 -210h-185q-8 49 -48 81q-39 32 -105 32t-105 -31t-39 -74t50 -67t123 -41q73 -16 146 -40
t123 -81t50 -148q0 -126 -90 -206t-248 -80q-332 0 -348 307h184q16 -133 164 -133z" />
    <glyph glyph-name="Tcommaaccent" unicode="&#x162;" horiz-adv-x="1034" 
d="M522 -133q47 0 80 -35t33 -89q0 -107 -56 -178t-108 -97l-31 40q72 51 92 134q-53 0 -88 32q-34 32 -34 79q0 46 32 80q33 34 80 34zM31 1106v184h973v-184h-390v-1106h-194v1106h-389z" />
    <glyph glyph-name="tcommaaccent" unicode="&#x163;" horiz-adv-x="686" 
d="M420 -133q47 0 80 -35q59 -62 16 -191q-23 -69 -90 -133q-27 -25 -57 -40l-31 40q72 51 92 134q-53 0 -88 32t-35 79q0 46 33 80t80 34zM389 748v-441q0 -61 41 -102t102 -41l62 10v-164q-41 -20 -102 -20q-125 0 -206 87t-81 230v441h-164v174h72q53 0 88 34t35 88v123
h153v-245h205v-174h-205z" />
    <glyph glyph-name="Tcaron" unicode="&#x164;" horiz-adv-x="1034" 
d="M778 1679l-184 -245h-164l-184 245h164l102 -143l102 143h164zM31 1106v184h973v-184h-390v-1106h-194v1106h-389z" />
    <glyph glyph-name="tcaron" unicode="&#x165;" horiz-adv-x="727" 
d="M389 748v-441q0 -61 41 -102t102 -41l62 10v-164q-41 -20 -102 -20q-125 0 -206 87t-81 230v441h-164v174h72q53 0 88 34t35 88v123h153v-245h205v-174h-205zM594 1044l72 246h163l-122 -246h-113z" />
    <glyph glyph-name="Umacron" unicode="&#x16a;" horiz-adv-x="1228" 
d="M860 1597v-133h-512v133h512zM614 164q125 0 206 85t81 222v819h195v-819q0 -207 -138 -344t-344 -137q-207 0 -344 137t-137 344v819h195v-819q0 -137 80 -222t206 -85z" />
    <glyph glyph-name="umacron" unicode="&#x16b;" horiz-adv-x="1054" 
d="M788 1229v-133h-512v133h512zM492 -10q-156 0 -263 112q-106 113 -106 287v533h184v-533q0 -92 65 -159q66 -66 154 -66t155 66t67 159v533h184v-922h-133l-41 92q-23 -35 -104 -69q-80 -33 -162 -33z" />
    <glyph glyph-name="Uring" unicode="&#x16e;" horiz-adv-x="1228" 
d="M788 1577q0 -72 -49 -123t-125 -51t-125 51t-49 123t49 123t125 51t125 -51t49 -123zM686 1577q0 33 -20 57t-52 25q-32 0 -51 -25q-20 -26 -20 -58t20 -56t51 -25q32 1 52 25t20 57zM614 164q125 0 206 85t81 222v819h195v-819q0 -207 -138 -344t-344 -137
q-207 0 -344 137t-137 344v819h195v-819q0 -137 80 -222t206 -85z" />
    <glyph glyph-name="uring" unicode="&#x16f;" horiz-adv-x="1054" 
d="M707 1206q1 -72 -49 -123t-126 -51t-124 51t-50 123q0 72 50 123t124 51q76 0 126 -51t49 -123zM604 1206q0 31 -20 57q-20 25 -52 25t-51 -26q-20 -26 -20 -56t20 -56t51 -26q32 0 52 26t20 56zM492 -10q-156 0 -263 112q-106 113 -106 287v533h184v-533q0 -92 65 -159
q66 -66 154 -66t155 66t67 159v533h184v-922h-133l-41 92q-23 -35 -104 -69q-80 -33 -162 -33z" />
    <glyph glyph-name="Uhungarumlaut" unicode="&#x170;" horiz-adv-x="1228" 
d="M696 1444l133 246h175l-185 -246h-123zM410 1444l133 246h174l-185 -246h-122zM614 164q125 0 206 85t81 222v819h195v-819q0 -207 -138 -344t-344 -137q-207 0 -344 137t-137 344v819h195v-819q0 -137 80 -222t206 -85z" />
    <glyph glyph-name="uhungarumlaut" unicode="&#x171;" horiz-adv-x="1054" 
d="M614 1075l134 246h174l-185 -246h-123zM328 1075l133 246h174l-184 -246h-123zM492 -10q-156 0 -263 112q-106 113 -106 287v533h184v-533q0 -92 65 -159q66 -66 154 -66t155 66t67 159v533h184v-922h-133l-41 92q-23 -35 -104 -69q-80 -33 -162 -33z" />
    <glyph glyph-name="Uogonek" unicode="&#x172;" horiz-adv-x="1228" 
d="M614 164q125 0 206 85t81 222v819h195v-819q0 -195 -120 -329t-280 -142q-61 -82 -61 -164q0 -40 27 -66t65 -26l82 10v-102q-51 -10 -121 -10t-124 48q-52 48 -52 126t45 151l16 23q-188 16 -314 150t-126 331v819h195v-819q0 -137 80 -222t206 -85z" />
    <glyph glyph-name="uogonek" unicode="&#x173;" horiz-adv-x="1054" 
d="M123 389v533h184v-533q0 -92 65 -159q66 -66 154 -66t155 66t67 159v533h184v-922h-10q-72 -82 -72 -164q0 -40 27 -66t65 -26l82 10v-102q-52 -10 -122 -10t-123 48q-52 48 -52 110q0 114 53 175l19 25l-41 92q-23 -35 -104 -69t-162 -33q-156 0 -263 112
q-106 113 -106 287z" />
    <glyph glyph-name="Ydieresis" unicode="&#x178;" horiz-adv-x="1054" 
d="M809 1546q0 -47 -34 -80q-34 -32 -79 -32t-79 32t-33 80q0 47 33 80q34 33 79 33t79 -33t34 -80zM461 1546q0 -47 -34 -80q-34 -32 -79 -32t-79 32t-33 80q0 47 33 80q34 33 79 33t79 -33t34 -80zM625 0h-195v502l-410 788h205l297 -583h10l297 583h205l-409 -788v-502z
" />
    <glyph glyph-name="Zacute" unicode="&#x179;" 
d="M451 1444l122 246h175l-175 -246h-122zM963 184v-184h-902v133l625 973h-604v184h850v-133l-625 -973h656z" />
    <glyph glyph-name="zacute" unicode="&#x17a;" horiz-adv-x="808" 
d="M338 1075l123 246h174l-174 -246h-123zM61 748v174h666v-164l-440 -584h461v-174h-687v164l441 584h-441z" />
    <glyph glyph-name="Zdotaccent" unicode="&#x17b;" 
d="M625 1546q0 -47 -34 -80q-34 -32 -79 -32t-79 32t-34 80q0 47 34 80t79 33t79 -33t34 -80zM963 184v-184h-902v133l625 973h-604v184h850v-133l-625 -973h656z" />
    <glyph glyph-name="zdotaccent" unicode="&#x17c;" horiz-adv-x="808" 
d="M522 1178q0 -47 -34 -80t-78 -33t-79 33q-34 33 -34 80q0 48 34 80t79 32q44 0 78 -32t34 -80zM61 748v174h666v-164l-440 -584h461v-174h-687v164l441 584h-441z" />
    <glyph glyph-name="Zcaron" unicode="&#x17d;" 
d="M778 1679l-184 -245h-164l-184 245h164l102 -143l102 143h164zM963 184v-184h-902v133l625 973h-604v184h850v-133l-625 -973h656z" />
    <glyph glyph-name="zcaron" unicode="&#x17e;" horiz-adv-x="808" 
d="M666 1311l-185 -246h-164l-184 246h164l102 -144l103 144h164zM61 748v174h666v-164l-440 -584h461v-174h-687v164l441 584h-441z" />
    <glyph glyph-name="florin" unicode="&#x192;" horiz-adv-x="737" 
d="M-10 -164q125 0 153 144l123 645h-153l30 163h154l41 195q68 317 348 317l92 -10l-41 -176q-31 12 -71 12q-125 0 -154 -143l-41 -195h205l-31 -163h-205l-123 -645q-59 -317 -348 -318l-92 10l41 176q31 -12 72 -12z" />
    <glyph glyph-name="Scommaaccent" unicode="&#x218;" 
d="M399 -227q0 47 34 79t80 33q46 0 79 -35t33 -89q0 -173 -164 -275l-31 41q72 51 92 133q-53 0 -88 33t-35 80zM82 942q0 143 122 251q122 107 306 107t303 -114t119 -285h-195q0 101 -62 163q-61 62 -163 62t-169 -55t-67 -128t71 -118t171 -73t202 -67q102 -38 172 -122
q71 -84 71 -222q0 -139 -125 -245t-328 -106t-321 110t-117 289h194q0 -225 246 -225q124 0 190 51t66 121t-38 110q-60 65 -237 117t-275 114q-60 37 -98 105t-38 160z" />
    <glyph glyph-name="scommaaccent" unicode="&#x219;" horiz-adv-x="829" 
d="M420 -133q47 0 80 -35q59 -62 16 -191q-23 -69 -90 -133q-27 -25 -57 -40l-31 40q72 51 92 134q-53 0 -88 32t-35 79q0 46 33 80t80 34zM420 164q80 0 122 32t42 78t-50 72q-50 25 -123 41t-146 40t-123 81q-50 58 -50 162t87 183t238 79t237 -77t94 -210h-185
q-8 49 -48 81q-39 32 -105 32t-105 -31t-39 -74t50 -67t123 -41q73 -16 146 -40t123 -81t50 -148q0 -126 -90 -206t-248 -80q-332 0 -348 307h184q16 -133 164 -133z" />
    <glyph glyph-name="uni021A" unicode="&#x21a;" horiz-adv-x="1034" 
d="M522 -133q47 0 80 -35t33 -89q0 -107 -56 -178t-108 -97l-31 40q72 51 92 134q-53 0 -88 32q-34 32 -34 79q0 46 32 80q33 34 80 34zM31 1106v184h973v-184h-390v-1106h-194v1106h-389z" />
    <glyph glyph-name="uni021B" unicode="&#x21b;" horiz-adv-x="686" 
d="M420 -133q47 0 80 -35q59 -62 16 -191q-23 -69 -90 -133q-27 -25 -57 -40l-31 40q72 51 92 134q-53 0 -88 32t-35 79q0 46 33 80t80 34zM389 748v-441q0 -61 41 -102t102 -41l62 10v-164q-41 -20 -102 -20q-125 0 -206 87t-81 230v441h-164v174h72q53 0 88 34t35 88v123
h153v-245h205v-174h-205z" />
    <glyph glyph-name="afii57929" unicode="&#x2bc;" horiz-adv-x="348" 
d="M174 1290q47 0 80 -35t33 -89q0 -172 -164 -275l-31 41q72 51 92 133q-53 0 -88 33t-35 80q0 48 33 80t80 32z" />
    <glyph glyph-name="circumflex" unicode="&#x2c6;" horiz-adv-x="655" 
d="M410 1280l184 -246h-164l-102 144l-103 -144h-164l185 246h164z" />
    <glyph glyph-name="caron" unicode="&#x2c7;" horiz-adv-x="655" 
d="M594 1280l-184 -246h-164l-185 246h164l103 -143l102 143h164z" />
    <glyph glyph-name="breve" unicode="&#x2d8;" horiz-adv-x="655" 
d="M328 1178q45 0 80 30t43 72h143q-16 -102 -89 -169t-177 -67t-177 67t-90 169h144q8 -42 43 -72t80 -30z" />
    <glyph glyph-name="dotaccent" unicode="&#x2d9;" horiz-adv-x="348" 
d="M287 1178q0 -47 -33 -80t-80 -33t-80 33t-33 80q0 48 33 80t80 32t80 -32t33 -80z" />
    <glyph glyph-name="ring" unicode="&#x2da;" horiz-adv-x="471" 
d="M410 1188q0 -72 -50 -123t-124 -51q-76 0 -125 51t-50 123t49 123t126 51t125 -51t49 -123zM307 1188q0 34 -20 58t-51 24q-32 0 -52 -25t-20 -57t20 -58q20 -24 52 -24t51 24q20 24 20 58z" />
    <glyph glyph-name="ogonek" unicode="&#x2db;" horiz-adv-x="419" 
d="M184 -164q0 -40 27 -66t65 -26l82 10v-102q-52 -10 -122 -10t-122 48t-52 110t18 107q18 46 35 68l18 25h123q-72 -82 -72 -164z" />
    <glyph glyph-name="tilde" unicode="&#x2dc;" horiz-adv-x="718" 
d="M657 1280q0 -118 -52 -182q-51 -64 -119 -64t-109 31t-72 61t-61 31q-30 0 -56 -31q-25 -31 -24 -82h-103q1 118 53 182t120 64t107 -30q40 -30 72 -62q33 -31 63 -31t54 31t25 82h102z" />
    <glyph glyph-name="hungarumlaut" unicode="&#x2dd;" horiz-adv-x="716" 
d="M348 1044l133 246h174l-184 -246h-123zM61 1044l134 246h174l-185 -246h-123z" />
    <glyph glyph-name="afii10023" unicode="&#x401;" horiz-adv-x="1126" 
d="M870 1546q0 -47 -34 -80q-34 -32 -78 -32q-45 0 -79 32t-34 80q0 47 34 80t79 33q44 0 78 -33t34 -80zM522 1546q0 -47 -34 -80q-34 -32 -78 -32t-79 32q-34 32 -34 80q0 47 34 80t79 33q44 0 78 -33t34 -80zM348 184h676v-184h-870v1290h850v-184h-656v-348h604v-185
h-604v-389z" />
    <glyph glyph-name="afii10051" unicode="&#x402;" horiz-adv-x="1269" 
d="M778 840q186 0 308 -129t122 -343t-130 -342t-351 -128v184q123 0 205 82t82 204t-79 204t-187 83t-183 -73q-74 -74 -73 -183v-399h-195v1106h-297v184h799v-184h-307v-389q12 14 33 35q23 20 97 54t156 34z" />
    <glyph glyph-name="afii10052" unicode="&#x403;" horiz-adv-x="942" 
d="M471 1444l123 246h174l-174 -246h-123zM922 1106h-574v-1106h-194v1290h768v-184z" />
    <glyph glyph-name="afii10053" unicode="&#x404;" horiz-adv-x="1300" 
d="M686 1300q207 0 354 -126t189 -304h-205q-25 106 -116 182q-90 76 -232 74q-142 0 -264 -118t-146 -281h502v-174h-502q23 -157 146 -273t267 -116t233 68t122 178h205q-49 -180 -195 -300t-358 -120q-250 0 -432 190t-182 464t182 464q182 192 432 192z" />
    <glyph glyph-name="afii10054" unicode="&#x405;" 
d="M82 942q0 143 122 251q122 107 306 107t303 -114t119 -285h-195q0 101 -62 163q-61 62 -163 62t-169 -55t-67 -128t71 -118t171 -73t202 -67q102 -38 172 -122q71 -84 71 -222q0 -139 -125 -245t-328 -106t-321 110t-117 289h194q0 -225 246 -225q124 0 190 51t66 121
t-38 110q-60 65 -237 117t-275 114q-60 37 -98 105t-38 160z" />
    <glyph glyph-name="afii10055" unicode="&#x406;" horiz-adv-x="501" 
d="M348 1290v-1290h-194v1290h194z" />
    <glyph glyph-name="afii10056" unicode="&#x407;" horiz-adv-x="573" 
d="M573 1546q-1 -47 -33 -80q-32 -32 -79 -32t-80 32t-33 80q0 47 33 80t80 33t79 -33t33 -80zM225 1546q-1 -47 -33 -80q-32 -32 -79 -32t-80 32t-33 80q0 47 33 80t80 33t79 -33t33 -80zM389 1290v-1290h-194v1290h194z" />
    <glyph glyph-name="afii10057" unicode="&#x408;" horiz-adv-x="952" 
d="M625 1290h194v-921q-1 -162 -113 -271q-112 -108 -286 -108t-287 108t-113 271h195q0 -93 56 -149q57 -56 149 -56t148 56t57 149v921z" />
    <glyph glyph-name="afii10058" unicode="&#x409;" horiz-adv-x="1853" 
d="M1393 635h-287v-451h287q87 0 151 67t64 159t-64 158t-151 67zM1393 0h-482v1106h-419l-52 -717q-14 -187 -111 -293t-247 -106l-82 10v164h20q92 0 155 62q62 62 71 163l71 901h789v-471h287q169 0 289 -121q120 -120 120 -288t-120 -289t-289 -121z" />
    <glyph glyph-name="afii10059" unicode="&#x40a;" horiz-adv-x="1843" 
d="M1382 635h-286v-451h286q86 0 151 67t64 159t-65 158t-150 67zM1382 0h-481v635h-553v-635h-194v1290h194v-471h553v471h195v-471h286q170 0 290 -121q120 -120 120 -288t-120 -289t-290 -121z" />
    <glyph glyph-name="afii10060" unicode="&#x40b;" horiz-adv-x="1300" 
d="M768 840q178 0 294 -122t116 -319v-399h-195v399q0 105 -73 181t-173 76t-173 -76q-73 -74 -72 -181v-399h-195v1106h-297v184h799v-184h-307v-389q12 14 33 35q21 20 93 54t150 34z" />
    <glyph glyph-name="afii10061" unicode="&#x40c;" horiz-adv-x="1075" 
d="M512 1444l123 246h174l-174 -246h-123zM348 0h-194v1290h194v-594l471 594h236l-523 -635l564 -655h-236l-512 604v-604z" />
    <glyph glyph-name="afii10062" unicode="&#x40e;" horiz-adv-x="1044" 
d="M532 1567q45 1 80 31t43 71h144q-16 -102 -89 -169q-74 -66 -178 -66t-177 66t-89 169h144q8 -41 42 -71t80 -31zM236 154q115 0 163 112l41 92l-420 932h205l307 -696l308 696h204l-450 -1024q-68 -156 -140 -222t-178 -64q-32 0 -122 20v164q41 -10 82 -10z" />
    <glyph glyph-name="afii10145" unicode="&#x40f;" horiz-adv-x="1259" 
d="M154 1290h194v-1106h563v1106h195v-1290h-379v-256h-195v256h-378v1290z" />
    <glyph glyph-name="afii10017" unicode="&#x410;" horiz-adv-x="1146" 
d="M389 481h369l-185 512zM317 297l-112 -297h-205l492 1290h163l492 -1290h-205l-113 297h-512z" />
    <glyph glyph-name="afii10018" unicode="&#x411;" horiz-adv-x="1146" 
d="M686 594h-338v-410h338q86 0 140 56t55 149q-1 93 -55 149t-140 56zM348 778h338q170 0 280 -110t110 -279t-110 -279t-280 -110h-532v1290h829v-184h-635v-328z" />
    <glyph glyph-name="afii10019" unicode="&#x412;" horiz-adv-x="1157" 
d="M676 184q92 0 153 60t62 145t-61 145t-154 60h-328v-410h328zM348 1106v-348h318q76 0 130 52t54 122t-54 122t-130 52h-318zM676 0h-522v1290h512q154 0 262 -105t106 -253q0 -74 -34 -135t-66 -86l-33 -25q64 -32 124 -112t60 -217q1 -137 -117 -247t-292 -110z" />
    <glyph glyph-name="afii10020" unicode="&#x413;" horiz-adv-x="942" 
d="M922 1106h-574v-1106h-194v1290h768v-184z" />
    <glyph glyph-name="afii10021" unicode="&#x414;" horiz-adv-x="1269" 
d="M891 184v922h-399l-82 -696q-8 -68 -34 -124t-48 -79l-21 -23h584zM1085 184h144v-440h-185v256h-860v-256h-184v440h74q14 8 34 24t60 76q39 58 47 126l102 880h768v-1106z" />
    <glyph glyph-name="afii10022" unicode="&#x415;" horiz-adv-x="1126" 
d="M348 184h676v-184h-870v1290h850v-184h-656v-348h604v-185h-604v-389z" />
    <glyph glyph-name="afii10024" unicode="&#x416;" horiz-adv-x="1546" 
d="M676 1290h194v-594l420 594h236l-471 -635l512 -655h-236l-461 604v-604h-194v604l-461 -604h-235l512 655l-472 635h236l420 -594v594z" />
    <glyph glyph-name="afii10025" unicode="&#x417;" horiz-adv-x="1034" 
d="M922 942q0 -107 -59 -175t-105 -91q8 -4 22 -10t49 -34q134 -107 134 -267q0 -159 -125 -267t-323 -108q-197 0 -317 106t-137 273h195q16 -89 84 -147t180 -58t180 58t68 146t-69 147q-69 58 -187 58h-102v175h92q104 0 165 52q60 52 60 135t-60 137q-59 54 -161 54
t-162 -55t-68 -149h-194q8 164 124 272t296 106q180 0 300 -108t120 -250z" />
    <glyph glyph-name="afii10026" unicode="&#x418;" horiz-adv-x="1290" 
d="M1137 0h-195v922l-625 -922h-163v1290h194v-921l625 921h164v-1290z" />
    <glyph glyph-name="afii10027" unicode="&#x419;" horiz-adv-x="1290" 
d="M645 1423q-104 0 -177 67t-89 169h143q8 -47 43 -80t80 -33t80 33t43 80h143q-16 -102 -89 -169t-177 -67zM1137 0h-195v922l-625 -922h-163v1290h194v-921l625 921h164v-1290z" />
    <glyph glyph-name="afii10028" unicode="&#x41a;" horiz-adv-x="1075" 
d="M348 0h-194v1290h194v-594l471 594h236l-523 -635l564 -655h-236l-512 604v-604z" />
    <glyph glyph-name="afii10029" unicode="&#x41b;" horiz-adv-x="1290" 
d="M1137 1290v-1290h-195v1106h-450l-52 -717q-14 -187 -111 -293t-247 -106l-82 10v164h20q92 0 155 62q62 62 71 163l71 901h820z" />
    <glyph glyph-name="afii10030" unicode="&#x41c;" horiz-adv-x="1556" 
d="M1403 1290v-1290h-195v799l-368 -799h-123l-369 799v-799h-194v1290h163l461 -993l461 993h164z" />
    <glyph glyph-name="afii10031" unicode="&#x41d;" horiz-adv-x="1290" 
d="M942 1290h195v-1290h-195v563h-594v-563h-194v1290h194v-542h594v542z" />
    <glyph glyph-name="afii10032" unicode="&#x41e;" horiz-adv-x="1372" 
d="M1300 645q0 -271 -182 -463t-432 -192t-432 191t-182 463t182 464t432 192t432 -192t182 -463zM1106 645q0 203 -127 342t-293 139t-293 -139t-127 -342t127 -342t293 -139t293 139t127 342z" />
    <glyph glyph-name="afii10033" unicode="&#x41f;" horiz-adv-x="1300" 
d="M154 1290h993v-1290h-195v1106h-604v-1106h-194v1290z" />
    <glyph glyph-name="afii10034" unicode="&#x420;" horiz-adv-x="1105" 
d="M348 655h277q87 0 151 67t64 159q0 93 -65 159t-150 66h-277v-451zM154 1290h471q169 0 289 -121t120 -289t-120 -288q-120 -121 -289 -121h-277v-471h-194v1290z" />
    <glyph glyph-name="afii10035" unicode="&#x421;" horiz-adv-x="1310" 
d="M266 645q0 -203 127 -342t279 -139t247 77q93 77 125 199h205q-49 -194 -199 -322t-364 -128q-250 0 -432 191t-182 463t182 464t432 192q207 0 355 -129t198 -321h-205q-33 121 -124 199t-224 77q-166 0 -293 -139t-127 -342z" />
    <glyph glyph-name="afii10036" unicode="&#x422;" horiz-adv-x="1034" 
d="M31 1106v184h973v-184h-390v-1106h-194v1106h-389z" />
    <glyph glyph-name="afii10037" unicode="&#x423;" horiz-adv-x="1044" 
d="M236 154q115 0 163 112l41 92l-420 932h205l307 -696l308 696h204l-450 -1024q-68 -156 -140 -222t-178 -64q-32 0 -122 20v164q41 -10 82 -10z" />
    <glyph glyph-name="afii10038" unicode="&#x424;" horiz-adv-x="1505" 
d="M850 993v-655q172 8 275 101t103 227t-102 226q-104 93 -276 101zM850 1290v-123q270 -14 422 -151t152 -350t-152 -351q-152 -137 -422 -151v-174h-195v174q-270 14 -422 151q-151 137 -151 351t151 350q152 137 422 151v123h195zM655 338v655q-172 -8 -275 -101
q-104 -93 -104 -226q0 -132 104 -226t275 -102z" />
    <glyph glyph-name="afii10039" unicode="&#x425;" horiz-adv-x="1085" 
d="M543 819l286 471h215l-389 -635l410 -655h-215l-307 492l-307 -492h-216l410 655l-389 635h215z" />
    <glyph glyph-name="afii10040" unicode="&#x426;" horiz-adv-x="1290" 
d="M1106 184h143v-440h-184v256h-911v1290h194v-1106h563v1106h195v-1106z" />
    <glyph glyph-name="afii10041" unicode="&#x427;" horiz-adv-x="1218" 
d="M870 1290h195v-1290h-195v461q-132 -82 -316 -82t-302 121t-119 319v471h195v-471q0 -123 70 -195t186 -71q68 0 140 20t107 41l39 21v655z" />
    <glyph glyph-name="afii10042" unicode="&#x428;" horiz-adv-x="1730" 
d="M1382 1290h195v-1290h-1423v1290h194v-1106h420v1106h195v-1106h419v1106z" />
    <glyph glyph-name="afii10043" unicode="&#x429;" horiz-adv-x="1761" 
d="M1577 184h143v-440h-184v256h-1382v1290h194v-1106h420v1106h195v-1106h419v1106h195v-1106z" />
    <glyph glyph-name="afii10044" unicode="&#x42a;" horiz-adv-x="1249" 
d="M788 635h-286v-451h286q86 0 151 67t65 159t-65 158t-151 67zM788 0h-481v1106h-307v184h502v-471h286q170 0 290 -121q120 -120 120 -288t-120 -289t-290 -121z" />
    <glyph glyph-name="afii10045" unicode="&#x42b;" horiz-adv-x="1515" 
d="M1362 1290v-1290h-195v1290h195zM614 635h-266v-451h266q86 0 151 67t64 159t-65 158t-150 67zM614 0h-460v1290h194v-471h266q168 0 289 -121q121 -120 121 -288t-121 -289t-289 -121z" />
    <glyph glyph-name="afii10046" unicode="&#x42c;" horiz-adv-x="1095" 
d="M635 635h-287v-451h287q87 0 151 67t64 159t-64 158t-151 67zM635 0h-481v1290h194v-471h287q168 0 289 -121q120 -120 120 -288t-120 -289t-289 -121z" />
    <glyph glyph-name="afii10047" unicode="&#x42d;" horiz-adv-x="1300" 
d="M614 1300q250 0 432 -191t183 -465q0 -274 -182 -464t-433 -190q-213 0 -358 120t-195 300h205q33 -109 122 -178q90 -68 234 -68t267 117t145 272h-502v174h502q-23 164 -145 282q-123 117 -265 117t-232 -74q-91 -74 -116 -182h-204q41 178 188 304t354 126z" />
    <glyph glyph-name="afii10048" unicode="&#x42e;" horiz-adv-x="1761" 
d="M1096 1126q-152 0 -271 -137t-119 -344t120 -344q118 -137 270 -137t270 137t119 344q-1 207 -119 344t-270 137zM1106 1300q226 0 400 -188t173 -467q0 -279 -174 -467t-398 -188t-393 164t-192 389h-174v-543h-194v1290h194v-563h174q23 237 191 405q167 168 393 168z
" />
    <glyph glyph-name="afii10049" unicode="&#x42f;" horiz-adv-x="1146" 
d="M799 696v410h-307q-78 0 -136 -60t-59 -144q0 -84 58 -145q58 -60 137 -61h307zM102 901q0 162 114 276t276 113h501v-1290h-194v512h-226l-297 -512h-215l318 532l-30 12q-19 7 -66 37q-47 31 -84 67t-67 105t-30 148z" />
    <glyph glyph-name="afii10065" unicode="&#x430;" horiz-adv-x="952" 
d="M410 154q114 0 180 59t65 147v50q-229 0 -309 -38t-80 -116q0 -42 39 -72t105 -30zM479 932q162 0 261 -93t100 -235v-604h-133l-41 92q-23 -35 -104 -69t-163 -33q-153 0 -235 76t-82 213t127 216t446 78v31q0 70 -45 112t-129 42q-166 0 -184 -113h-184q8 127 106 207
t260 80z" />
    <glyph glyph-name="afii10066" unicode="&#x431;" horiz-adv-x="1044" 
d="M532 164q102 0 180 82q76 82 76 194t-76 195q-78 82 -180 82t-179 -82t-77 -195q0 -112 77 -194t179 -82zM553 891q172 0 296 -130q124 -131 124 -321t-128 -320t-321 -130q-194 0 -318 150t-124 423q0 401 171 567t607 181v-185q-410 -8 -516 -167q-51 -77 -68 -211
q60 90 174 128q48 15 103 15z" />
    <glyph glyph-name="afii10067" unicode="&#x432;" horiz-adv-x="931" 
d="M563 154q47 0 80 34t33 85q0 50 -33 83t-80 33h-256v-235h256zM532 768h-225v-225h225q45 0 79 34q34 35 34 79t-34 78t-79 34zM584 0h-461v922h430q121 0 199 -74t77 -182q1 -60 -25 -106t-50 -62l-27 -17q12 -4 41 -27q92 -73 92 -189q0 -117 -77 -191t-199 -74z" />
    <glyph glyph-name="afii10068" unicode="&#x433;" horiz-adv-x="768" 
d="M748 922v-174h-441v-748h-184v922h625z" />
    <glyph glyph-name="afii10069" unicode="&#x434;" 
d="M676 174v574h-277l-41 -400q-6 -49 -23 -93t-32 -62l-16 -19h389zM860 174h123v-389h-174v215h-635v-215h-174v389h61q38 23 73 74q34 51 40 100l62 574h624v-748z" />
    <glyph glyph-name="afii10070" unicode="&#x435;" horiz-adv-x="1013" 
d="M518 758q-98 0 -162 -62t-80 -164h492q-16 102 -84 164t-166 62zM522 -10q-186 0 -313 133t-127 338t125 338t305 133t305 -133t125 -338l-10 -82h-656q8 -86 78 -151t168 -64q129 0 205 102h195q-111 -276 -400 -276z" />
    <glyph glyph-name="afii10072" unicode="&#x436;" horiz-adv-x="1249" 
d="M532 0v440l-327 -440h-225l378 492l-338 430h216l296 -400v400h185v-400l297 400h215l-338 -430l379 -492h-226l-327 440v-440h-185z" />
    <glyph glyph-name="afii10073" unicode="&#x437;" horiz-adv-x="819" 
d="M727 657q0 -117 -104 -186q14 -6 34 -20q19 -15 55 -65t36 -110q0 -126 -90 -206t-248 -80q-332 0 -349 307h185q16 -133 164 -133q80 0 122 32t41 80q0 48 -42 81q-42 32 -121 32h-82v164h82q72 0 108 30q36 31 35 73q0 42 -36 72q-37 30 -105 30t-108 -32t-48 -81h-184
q8 133 94 210t236 77t238 -79q87 -79 87 -196z" />
    <glyph glyph-name="afii10074" unicode="&#x438;" horiz-adv-x="1054" 
d="M932 922v-922h-184v645l-441 -645h-184v922h184v-646l441 646h184z" />
    <glyph glyph-name="afii10075" unicode="&#x439;" horiz-adv-x="1054" 
d="M522 1055q-104 1 -177 67t-89 168h143q8 -47 43 -80q35 -32 80 -32t80 32t43 80h143q-16 -102 -89 -168t-177 -67zM932 922v-922h-184v645l-441 -645h-184v922h184v-646l441 646h184z" />
    <glyph glyph-name="afii10076" unicode="&#x43a;" horiz-adv-x="880" 
d="M317 0h-184v922h184v-400l318 400h215l-358 -430l409 -492h-225l-359 440v-440z" />
    <glyph glyph-name="afii10077" unicode="&#x43b;" horiz-adv-x="1003" 
d="M881 922v-922h-185v748h-307l-31 -441q-10 -153 -88 -235t-209 -82l-61 10v154h20q141 0 154 153l51 615h656z" />
    <glyph glyph-name="afii10078" unicode="&#x43c;" horiz-adv-x="1228" 
d="M307 0h-184v922h164l327 -676l328 676h164v-922h-184v512l-246 -512h-123l-246 512v-512z" />
    <glyph glyph-name="afii10079" unicode="&#x43d;" horiz-adv-x="1054" 
d="M748 922h184v-922h-184v379h-441v-379h-184v922h184v-369h441v369z" />
    <glyph glyph-name="afii10080" unicode="&#x43e;" 
d="M952 461q0 -205 -127 -338t-313 -133t-313 133t-127 338t127 338t313 133t313 -133t127 -338zM768 461q0 127 -77 212t-179 85t-179 -85t-77 -212t77 -212t179 -85t179 85t77 212z" />
    <glyph glyph-name="afii10081" unicode="&#x43f;" horiz-adv-x="1054" 
d="M123 922h809v-922h-184v748h-441v-748h-184v922z" />
    <glyph glyph-name="afii10082" unicode="&#x440;" horiz-adv-x="1075" 
d="M553 164q111 0 189 84t77 213q0 129 -78 213q-79 84 -189 84t-188 -84t-77 -213q-1 -129 77 -213t189 -84zM563 932q185 0 313 -133t128 -338t-127 -338t-314 -133q-78 0 -141 26t-90 50l-25 26v-420h-184v1250h133l41 -93q23 35 104 69q80 34 162 34z" />
    <glyph glyph-name="afii10083" unicode="&#x441;" horiz-adv-x="983" 
d="M727 584q-54 174 -225 174q-92 0 -169 -85t-77 -212t77 -212t169 -85q171 0 225 174h195q-33 -152 -144 -250q-112 -98 -282 -98t-297 133t-127 338t127 338t298 133t281 -98t144 -250h-195z" />
    <glyph glyph-name="afii10084" unicode="&#x442;" horiz-adv-x="819" 
d="M31 748v174h757v-174h-286v-748h-185v748h-286z" />
    <glyph glyph-name="afii10085" unicode="&#x443;" horiz-adv-x="942" 
d="M174 -174q137 0 174 113l31 92l-359 891h195l256 -666l256 666h195l-390 -983q-61 -156 -125 -217q-65 -60 -171 -60l-62 10v154z" />
    <glyph glyph-name="afii10086" unicode="&#x444;" horiz-adv-x="1536" 
d="M1034 164q102 0 174 81t72 216t-72 216t-174 81q-45 0 -89 -20t-64 -42l-21 -20v-430q72 -82 174 -82zM502 758q-102 0 -174 -81t-72 -216t72 -216t174 -81q45 0 89 20t64 41l21 21v430q-72 82 -174 82zM676 1290h184v-420q82 61 195 62q165 0 287 -134t122 -337
t-122 -337t-287 -134q-49 0 -99 15t-71 32l-25 14v-379h-184v379q-82 -61 -195 -61q-165 0 -287 134t-122 337t122 337t287 134q49 0 99 -16t71 -31l25 -15v420z" />
    <glyph glyph-name="afii10087" unicode="&#x445;" horiz-adv-x="860" 
d="M430 338l-225 -338h-205l317 471l-297 451h205l205 -308l205 308h205l-297 -451l317 -471h-205z" />
    <glyph glyph-name="afii10088" unicode="&#x446;" horiz-adv-x="1075" 
d="M911 174h123v-389h-174v215h-737v922h184v-748h420v748h184v-748z" />
    <glyph glyph-name="afii10089" unicode="&#x447;" horiz-adv-x="993" 
d="M686 922h184v-922h-184v328q-113 -62 -258 -62t-235 92t-91 246v318h185v-318q0 -78 50 -126q49 -48 119 -48q124 0 203 45l27 17v430z" />
    <glyph glyph-name="afii10090" unicode="&#x448;" horiz-adv-x="1413" 
d="M1106 922h184v-922h-1167v922h184v-748h307v748h185v-748h307v748z" />
    <glyph glyph-name="afii10091" unicode="&#x449;" horiz-adv-x="1454" 
d="M1413 -215h-174v215h-1116v922h184v-748h307v748h185v-748h307v748h184v-748h123v-389z" />
    <glyph glyph-name="afii10092" unicode="&#x44a;" horiz-adv-x="1003" 
d="M410 174h225q53 0 93 40t40 93t-40 93t-93 40h-225v-266zM635 614q137 0 227 -88t90 -219t-90 -219t-227 -88h-410v748h-225v174h410v-308h225z" />
    <glyph glyph-name="afii10093" unicode="&#x44b;" horiz-adv-x="1259" 
d="M307 174h205q53 0 93 40t40 93t-40 93t-93 40h-205v-266zM512 614q137 0 227 -88t90 -219t-90 -219t-227 -88h-389v922h184v-308h205zM952 922h185v-922h-185v922z" />
    <glyph glyph-name="afii10094" unicode="&#x44c;" horiz-adv-x="901" 
d="M307 174h225q53 0 94 40q40 40 40 93t-40 93t-94 40h-225v-266zM532 614q138 0 228 -88t90 -219t-90 -219t-228 -88h-409v922h184v-308h225z" />
    <glyph glyph-name="afii10095" unicode="&#x44d;" horiz-adv-x="972" 
d="M476 932q171 0 298 -133t127 -338t-127 -338t-298 -133q-170 0 -280 95t-135 232h195q16 -65 70 -109t140 -44q85 0 155 63t86 152h-308v153h308q-16 94 -86 160t-155 66t-139 -44t-71 -110h-195q25 136 135 232t280 96z" />
    <glyph glyph-name="afii10096" unicode="&#x44e;" horiz-adv-x="1372" 
d="M870 164q88 0 162 86t74 211t-74 211t-162 86t-162 -86t-73 -211q-1 -125 73 -211t162 -86zM876 932q166 0 290 -134t124 -337t-124 -337t-290 -134t-280 108t-135 271h-154v-369h-184v922h184v-379h154q23 169 136 279t279 110z" />
    <glyph glyph-name="afii10097" unicode="&#x44f;" horiz-adv-x="952" 
d="M645 748h-235q-54 0 -94 -40t-40 -94t40 -93q40 -40 94 -40h235v267zM410 922h419v-922h-184v307h-184l-195 -307h-205l215 338q-18 5 -57 31q-39 27 -63 55q-62 72 -63 197q-1 124 89 213q91 88 228 88z" />
    <glyph glyph-name="afii10071" unicode="&#x451;" horiz-adv-x="1013" 
d="M518 758q-98 0 -162 -62t-80 -164h492q-16 102 -84 164t-166 62zM522 -10q-186 0 -313 133t-127 338t125 338t305 133t305 -133t125 -338l-10 -82h-656q8 -86 78 -151t168 -64q129 0 205 102h195q-111 -276 -400 -276zM799 1178q0 -47 -33 -80t-80 -33t-80 33t-33 80
q0 48 33 80t80 32t80 -32t33 -80zM451 1178q0 -47 -33 -80t-80 -33t-80 33t-33 80q0 48 33 80t80 32t80 -32t33 -80z" />
    <glyph glyph-name="afii10099" unicode="&#x452;" horiz-adv-x="1044" 
d="M561 676q-90 0 -157 -67t-66 -158v-451h-184v973h-154v164h154v153h184v-153h256v-164h-256v-225q30 36 106 69q77 33 150 33q160 0 270 -126t109 -347q0 -221 -117 -350t-313 -129v174q104 0 175 85q70 85 70 221t-68 217q-69 81 -159 81z" />
    <glyph glyph-name="afii10100" unicode="&#x453;" horiz-adv-x="768" 
d="M373 1065l123 246h174l-174 -246h-123zM748 922v-174h-441v-748h-184v922h625z" />
    <glyph glyph-name="afii10101" unicode="&#x454;" horiz-adv-x="972" 
d="M497 932q171 0 281 -95t133 -233h-194q-17 66 -71 110t-139 44t-155 -66t-86 -160h307v-153h-307q16 -87 86 -151t155 -64t139 44t71 109h194q-25 -137 -135 -232t-280 -95t-297 133t-127 338t127 338t298 133z" />
    <glyph glyph-name="afii10102" unicode="&#x455;" horiz-adv-x="829" 
d="M420 164q80 0 122 32t42 78t-50 72q-50 25 -123 41t-146 40t-123 81q-50 58 -50 162t87 183t238 79t237 -77t94 -210h-185q-8 49 -48 81q-39 32 -105 32t-105 -31t-39 -74t50 -67t123 -41q73 -16 146 -40t123 -81t50 -148q0 -126 -90 -206t-248 -80q-332 0 -348 307h184
q16 -133 164 -133z" />
    <glyph glyph-name="afii10103" unicode="&#x456;" horiz-adv-x="430" 
d="M215 1065q-47 0 -80 33t-33 80q0 48 33 80t80 32t80 -33t33 -79t-33 -80q-33 -33 -80 -33zM307 922v-922h-184v922h184z" />
    <glyph glyph-name="afii10104" unicode="&#x457;" horiz-adv-x="450" 
d="M512 1178q0 -47 -33 -80t-80 -33t-80 33t-32 80q1 48 33 80t79 32t80 -32t33 -80zM164 1178q0 -47 -33 -80t-80 -33t-80 33t-32 80q1 48 33 80t79 32t80 -32t33 -80zM317 922v-922h-184v922h184z" />
    <glyph glyph-name="afii10105" unicode="&#x458;" horiz-adv-x="430" 
d="M215 1065q-47 0 -80 33t-33 80q0 48 33 80t80 32t80 -33t33 -79t-33 -80q-33 -33 -80 -33zM20 -338q-66 0 -102 21v163q31 -10 77 -10t87 42t41 102v942h184v-942q0 -142 -81 -230t-206 -88z" />
    <glyph glyph-name="afii10106" unicode="&#x459;" horiz-adv-x="1423" 
d="M840 174h225q53 0 88 35t35 88t-35 88t-88 35h-225v-246zM1065 594q129 0 218 -87t89 -210t-89 -210t-218 -87h-410v748h-266l-31 -441q-10 -153 -88 -235t-209 -82l-61 10v154h20q141 0 154 153l51 615h615v-328h225z" />
    <glyph glyph-name="afii10107" unicode="&#x45a;" horiz-adv-x="1474" 
d="M891 174h225q53 0 88 35t35 88t-35 88t-88 35h-225v-246zM707 922h184v-328h225q129 0 218 -87t89 -210t-89 -210t-218 -87h-409v420h-400v-420h-184v922h184v-328h400v328z" />
    <glyph glyph-name="afii10108" unicode="&#x45b;" horiz-adv-x="1075" 
d="M594 850q156 0 262 -113t107 -286v-451h-185v451q0 93 -64 159t-154 66q-89 0 -156 -67t-66 -158v-451h-184v973h-154v164h154v153h184v-153h256v-164h-256v-225q30 36 106 69t150 33z" />
    <glyph glyph-name="afii10109" unicode="&#x45c;" horiz-adv-x="870" 
d="M399 1065l123 246h174l-174 -246h-123zM307 0h-184v922h184v-400l318 400h215l-359 -430l410 -492h-225l-359 440v-440z" />
    <glyph glyph-name="afii10110" unicode="&#x45e;" horiz-adv-x="942" 
d="M471 1188q45 0 80 31t43 71h143q-16 -102 -89 -169t-177 -67t-177 68q-73 66 -89 168h143q8 -42 43 -72t80 -30zM174 -174q137 0 174 113l31 92l-359 891h195l256 -666l256 666h195l-390 -983q-61 -156 -125 -217q-65 -60 -171 -60l-62 10v154z" />
    <glyph glyph-name="afii10193" unicode="&#x45f;" horiz-adv-x="1034" 
d="M911 922v-922h-307v-215h-174v215h-307v922h184v-748h420v748h184z" />
    <glyph glyph-name="afii10050" unicode="&#x490;" horiz-adv-x="942" 
d="M748 1536h174v-430h-574v-1106h-194v1290h594v246z" />
    <glyph glyph-name="afii10098" unicode="&#x491;" horiz-adv-x="768" 
d="M573 1126h175v-378h-441v-748h-184v922h450v204z" />
    <glyph glyph-name="uni1E9E" unicode="&#x1e9e;" horiz-adv-x="1239" 
d="M1157 389q0 -161 -116 -275t-283 -114h-113v184h113q84 0 144 60t61 145t-59 145t-142 60h-117v164l225 338h-327q-83 0 -139 -54t-56 -131v-911h-194v911q0 154 114 267q115 113 275 112h542v-174l-235 -358q44 -7 101 -37q57 -29 99 -65t74 -108t33 -159z" />
    <glyph glyph-name="endash" unicode="&#x2013;" horiz-adv-x="962" 
d="M901 604v-164h-840v164h840z" />
    <glyph glyph-name="emdash" unicode="&#x2014;" horiz-adv-x="1464" 
d="M1403 604v-164h-1342v164h1342z" />
    <glyph glyph-name="quoteleft" unicode="&#x2018;" horiz-adv-x="348" 
d="M174 891q-47 0 -80 35q-33 34 -33 106t41 144t82 98l41 26l31 -40q-72 -51 -92 -144q53 0 88 -33t35 -79t-33 -79q-33 -34 -80 -34z" />
    <glyph glyph-name="quoteright" unicode="&#x2019;" horiz-adv-x="348" 
d="M174 1300q47 0 80 -34t33 -106t-41 -144t-82 -98l-41 -27l-31 41q72 51 92 143q-53 0 -88 33t-35 79q0 45 33 79t80 34z" />
    <glyph glyph-name="quotesinglbase" unicode="&#x201a;" horiz-adv-x="348" 
d="M174 215q47 0 80 -35q33 -34 33 -106t-41 -144t-82 -98l-41 -27l-31 41q72 51 92 144q-53 0 -88 33t-35 79t33 79q33 34 80 34z" />
    <glyph glyph-name="quotedblleft" unicode="&#x201c;" horiz-adv-x="645" 
d="M174 891q-47 0 -80 35q-33 34 -33 106t41 144t82 98l41 26l31 -40q-72 -51 -92 -144q53 0 88 -33t35 -79t-33 -79q-33 -34 -80 -34zM470 891q-46 0 -79 35q-33 34 -33 106t41 144t82 98l41 26l31 -40q-72 -51 -92 -144q53 0 88 -33t35 -79t-34 -79q-34 -34 -80 -34z" />
    <glyph glyph-name="quotedblright" unicode="&#x201d;" horiz-adv-x="645" 
d="M358 1187q0 45 34 79t80 34t79 -34t33 -106t-41 -144t-82 -98l-41 -27l-31 41q72 51 92 143q-53 0 -88 33t-35 79zM174 1300q47 0 80 -34t33 -106t-41 -144t-82 -98l-41 -27l-31 41q72 51 92 143q-53 0 -88 33t-35 79q0 45 33 79t80 34z" />
    <glyph glyph-name="quotedblbase" unicode="&#x201e;" horiz-adv-x="645" 
d="M472 215q46 0 79 -35q33 -34 33 -106t-41 -144t-82 -98l-41 -27l-31 41q72 51 92 144q-53 0 -88 33t-35 79t34 79q34 34 80 34zM174 215q47 0 80 -35q33 -34 33 -106t-41 -144t-82 -98l-41 -27l-31 41q72 51 92 144q-53 0 -88 33t-35 79t33 79q33 34 80 34z" />
    <glyph glyph-name="dagger" unicode="&#x2020;" horiz-adv-x="716" 
d="M645 1044v-143h-215v-532h-143v532h-215v143h215v246h143v-246h215z" />
    <glyph glyph-name="daggerdbl" unicode="&#x2021;" horiz-adv-x="716" 
d="M72 922v133h215v235h143v-235h215v-133h-215v-185h215v-133h-215v-235h-143v235h-215v133h215v185h-215z" />
    <glyph glyph-name="bullet" unicode="&#x2022;" horiz-adv-x="798" 
d="M604 553q0 -84 -60 -144q-60 -61 -144 -61t-145 60q-60 60 -60 145q0 84 60 144q60 61 144 61q85 0 145 -60t60 -145z" />
    <glyph glyph-name="ellipsis" unicode="&#x2026;" horiz-adv-x="1167" 
d="M1106 102q0 -44 -33 -78t-80 -34t-80 34t-33 78t33 79q33 34 80 34t80 -34t33 -79zM696 102q0 -44 -32 -78t-80 -34q-47 0 -80 34t-33 78t33 79q33 34 80 34q48 0 80 -34t32 -79zM287 102q0 -44 -33 -78t-80 -34t-80 34t-33 78t33 79q33 34 80 34t80 -34t33 -79z" />
    <glyph glyph-name="perthousand" unicode="&#x2030;" horiz-adv-x="1873" 
d="M1280 266q0 106 79 186t187 80t188 -80q78 -80 78 -186t-78 -186t-188 -80t-188 80t-78 186zM1690 266q0 62 -44 108t-100 46t-99 -46q-44 -46 -44 -108t44 -107q44 -46 99 -46t100 46q44 46 44 107zM655 266q0 106 80 186q81 80 187 80t186 -80t80 -186t-80 -186
t-186 -80t-187 80q-80 80 -80 186zM1065 266q0 62 -44 108t-99 46q-56 0 -100 -46t-44 -108t44 -107q44 -46 100 -46t99 46q44 46 44 107zM594 1024q0 -106 -80 -186t-186 -80t-187 80q-80 80 -80 186t80 186q81 80 187 80t186 -80t80 -186zM184 1024q0 -62 44 -108t100 -46
t99 46q44 46 44 108t-44 108t-99 46t-100 -46q-44 -47 -44 -108zM307 0h-143l788 1290h144z" />
    <glyph glyph-name="guilsinglleft" unicode="&#x2039;" horiz-adv-x="532" 
d="M246 461l225 -328h-184l-226 328l226 327h184z" />
    <glyph glyph-name="guilsinglright" unicode="&#x203a;" horiz-adv-x="532" 
d="M61 133l226 328l-226 327h185l225 -327l-225 -328h-185z" />
    <glyph glyph-name="fraction" unicode="&#x2044;" horiz-adv-x="194" 
d="M-225 0h-144l789 1290h143z" />
    <glyph glyph-name="zerosuperior" unicode="&#x2070;" horiz-adv-x="614" 
d="M553 1171q0 -143 -71 -227t-175 -84t-175 84t-71 227t71 227t175 85q104 -1 175 -85t71 -227zM430 1171q0 95 -36 147t-87 52t-87 -51t-36 -147t36 -148q36 -51 87 -51t87 51t36 147z" />
    <glyph glyph-name="foursuperior" unicode="&#x2074;" horiz-adv-x="512" 
d="M266 1096v194l-123 -194h123zM389 1475v-379h72v-113h-72v-113h-123v113h-256v92l246 400h133z" />
    <glyph glyph-name="fivesuperior" unicode="&#x2075;" horiz-adv-x="563" 
d="M320 1280q74 0 127 -56q55 -56 55 -148t-62 -154t-151 -62q-90 0 -151 52q-60 52 -77 132h123q18 -72 103 -71q39 1 65 29t27 73q0 45 -27 74t-65 29q-82 0 -103 -62h-102l41 359h338v-113h-236l-10 -102q31 20 105 20z" />
    <glyph glyph-name="sixsuperior" unicode="&#x2076;" horiz-adv-x="542" 
d="M276 1178q-40 0 -66 -29t-26 -74t27 -74t65 -29t66 30q27 28 27 73t-27 74t-66 29zM410 1475l-134 -195q92 0 154 -59t62 -149t-62 -150q-62 -62 -154 -62t-153 62t-62 153q0 45 23 99t47 86l23 30l122 185h134z" />
    <glyph glyph-name="sevensuperior" unicode="&#x2077;" horiz-adv-x="481" 
d="M72 1362v113h399v-72l-246 -533h-123l226 492h-256z" />
    <glyph glyph-name="eightsuperior" unicode="&#x2078;" horiz-adv-x="532" 
d="M266 1137q-38 0 -60 -25q-22 -26 -22 -58t23 -57t59 -25t60 26q23 24 22 57q0 33 -22 57t-60 25zM266 1372q-31 0 -51 -20t-20 -47t20 -47t51 -19q31 0 51 19q21 18 21 46t-20 48t-52 20zM266 860q-90 0 -147 53t-57 115t20 97q20 36 41 51l20 12q-61 41 -61 117t54 128
t130 52t130 -52t55 -122q1 -37 -15 -68t-30 -43l-17 -12q32 -16 58 -58q25 -41 24 -86q1 -78 -57 -131t-148 -53z" />
    <glyph glyph-name="ninesuperior" unicode="&#x2079;" horiz-adv-x="542" 
d="M266 1167q39 0 66 29t26 74q0 46 -26 74t-66 28t-66 -29t-26 -73t26 -74q26 -29 66 -29zM481 1270q-1 -46 -23 -100t-44 -85l-25 -30l-123 -185h-133l133 195q-92 0 -153 59q-61 58 -61 148t60 151q62 61 154 61t154 -60q62 -62 61 -154z" />
    <glyph glyph-name="zeroinferior" unicode="&#x2080;" horiz-adv-x="614" 
d="M553 106q0 -143 -71 -227t-175 -84t-175 84t-71 227q0 144 71 228t175 84t175 -84t71 -228zM430 106q0 96 -36 148t-87 51q-51 0 -87 -51q-36 -52 -36 -148t36 -147t87 -51t87 51t36 147z" />
    <glyph glyph-name="oneinferior" unicode="&#x2081;" horiz-adv-x="430" 
d="M297 410v-605h-123v451l-72 -41l-61 92l164 103h92z" />
    <glyph glyph-name="twoinferior" unicode="&#x2082;" horiz-adv-x="532" 
d="M471 -82v-113h-410v93l226 235q61 61 61 97t-22 57q-23 20 -60 20q-92 0 -92 -92h-113q1 93 57 149t147 56t149 -53t57 -129q0 -76 -61 -136l-174 -184h235z" />
    <glyph glyph-name="threeinferior" unicode="&#x2083;" horiz-adv-x="552" 
d="M492 -20q0 -80 -58 -132t-158 -53q-98 1 -156 57t-59 148h113q0 -41 26 -67q26 -25 72 -25t72 24q25 24 25 58t-25 58t-68 24h-61v102h51q37 0 60 18q22 18 22 47q0 28 -22 48q-23 20 -60 20q-82 0 -82 -82h-112q0 87 56 141t143 54t143 -52t57 -122q0 -41 -15 -72
t-30 -41l-16 -10q31 -15 56 -57q26 -42 26 -86z" />
    <glyph glyph-name="fourinferior" unicode="&#x2084;" horiz-adv-x="512" 
d="M266 31v194l-123 -194h123zM389 410v-379h72v-113h-72v-113h-123v113h-256v92l246 400h133z" />
    <glyph glyph-name="fiveinferior" unicode="&#x2085;" horiz-adv-x="563" 
d="M320 215q74 0 127 -56q55 -57 55 -149t-62 -153t-151 -61q-90 0 -151 51q-60 52 -77 133h123q18 -72 103 -72q39 0 65 29t27 73q0 44 -27 74q-27 29 -65 29q-82 0 -103 -62h-102l41 359h338v-113h-236l-10 -102q31 20 105 20z" />
    <glyph glyph-name="sixinferior" unicode="&#x2086;" horiz-adv-x="542" 
d="M276 113q-40 0 -66 -29t-26 -74q0 -46 27 -74t65 -28t66 29q27 29 27 73t-27 74q-27 29 -66 29zM410 410l-134 -195q92 0 154 -59q62 -58 62 -148t-62 -151t-154 -61t-153 60q-61 62 -62 154q0 46 23 100t47 85l23 30l122 185h134z" />
    <glyph glyph-name="seveninferior" unicode="&#x2087;" horiz-adv-x="481" 
d="M72 297v113h399v-72l-246 -533h-123l226 492h-256z" />
    <glyph glyph-name="eightinferior" unicode="&#x2088;" horiz-adv-x="532" 
d="M266 72q-38 0 -60 -25t-22 -57t23 -58q23 -24 59 -24t60 24q23 24 22 58q0 34 -22 58t-60 24zM266 307q-31 0 -51 -20t-20 -47t20 -46q20 -20 51 -20t51 20q21 20 21 46q0 27 -20 47t-52 20zM266 -205q-90 0 -147 53t-58 132q1 44 21 80t41 51l20 12q-61 41 -61 117
t54 128t130 52t130 -52t55 -122q1 -37 -15 -68t-30 -43l-17 -12q32 -16 58 -58q25 -41 24 -85q0 -78 -57 -132q-58 -53 -148 -53z" />
    <glyph glyph-name="nineinferior" unicode="&#x2089;" horiz-adv-x="542" 
d="M266 102q39 0 66 29t26 74q0 45 -26 74q-27 29 -66 29q-40 0 -66 -30q-26 -28 -26 -73t26 -74t66 -29zM481 205q-1 -45 -23 -99t-44 -86l-25 -30l-123 -185h-133l133 195q-92 0 -153 59t-61 149t60 150q62 62 154 62t154 -62t61 -153z" />
    <glyph glyph-name="Euro" unicode="&#x20ac;" horiz-adv-x="1392" 
d="M61 696v154h172q12 55 65 144q52 90 108 149t159 108q102 49 223 49q200 0 348 -129t195 -321h-205q-33 121 -122 199q-90 78 -216 77q-72 0 -134 -28t-100 -70q-84 -91 -103 -149l-13 -29h350v-154h-389q-6 -31 -6 -61l6 -72h389v-153h-348q61 -154 214 -220
q62 -27 134 -26q125 0 216 78q90 78 122 198h205q-47 -194 -194 -322t-335 -128t-312 84q-177 121 -246 311l-8 25h-175v153h144q-4 41 -4 72l4 61h-144z" />
    <glyph glyph-name="uni20B4" unicode="&#x20b4;" horiz-adv-x="1105" 
d="M174 297q0 65 51 133h-153v154h962v-154h-563q-37 -12 -70 -52t-33 -85t51 -87q50 -42 131 -42t134 43t53 100h195q0 -127 -108 -222t-272 -95t-270 93q-108 93 -108 214zM1034 860v-153h-962v153h563q37 12 70 53t33 85t-51 86q-50 42 -131 42t-134 -43t-53 -100h-195
q0 127 108 222t272 95t270 -93q108 -93 108 -214q0 -37 -13 -69t-26 -47l-12 -17h153z" />
    <glyph glyph-name="uni20BD" unicode="&#x20bd;" horiz-adv-x="1146" 
d="M1075 901q0 -157 -118 -273t-291 -116h-267v-133h389v-174h-389v-205h-194v205h-154v174h154v133h-154v174h154v604h461q174 0 292 -116t117 -273zM399 686h267q90 0 152 65t62 151t-62 150q-62 65 -152 64h-267v-430z" />
    <glyph glyph-name="afii61352" unicode="&#x2116;" horiz-adv-x="1955" 
d="M1884 594q0 -115 -86 -201t-201 -86t-201 86t-85 201q0 115 86 201q87 86 201 86t200 -86t86 -201zM1731 594q0 61 -39 102q-38 41 -94 41t-95 -41t-39 -102t39 -102t94 -41t95 41q39 41 39 102zM942 1290h195v-1290h-164l-625 922v-922h-194v1290h163l625 -921v921z
M1331 0v174h533v-174h-533z" />
    <glyph glyph-name="trademark" unicode="&#x2122;" horiz-adv-x="1105" 
d="M625 768h-113v522h92l164 -235l164 235h92v-522h-113v328l-112 -164h-62l-112 164v-328zM440 1290v-102h-153v-420h-113v420h-154v102h420z" />
    <glyph glyph-name="arrowleft" unicode="&#x2190;" horiz-adv-x="2048" 
d="M1833 727v-184h-1280l266 -267v-245l-604 604l604 604v-246l-266 -266h1280z" />
    <glyph glyph-name="arrowup" unicode="&#x2191;" horiz-adv-x="2048" 
d="M1116 -154h-184v1280l-266 -266h-246l604 604l604 -604h-246l-266 266v-1280z" />
    <glyph glyph-name="arrowright" unicode="&#x2192;" horiz-adv-x="2048" 
d="M215 543v184h1280l-266 266v246l604 -604l-604 -604v245l266 267h-1280z" />
    <glyph glyph-name="arrowdown" unicode="&#x2193;" horiz-adv-x="2048" 
d="M932 1464h184v-1280l266 267h246l-604 -605l-604 605h246l266 -267v1280z" />
    <glyph glyph-name="arrowboth" unicode="&#x2194;" horiz-adv-x="2048" 
d="M1229 1239l604 -604l-604 -604v245l266 267h-942l266 -267v-245l-604 604l604 604v-246l-266 -266h942l-266 266v246z" />
    <glyph glyph-name="arrowupdn" unicode="&#x2195;" horiz-adv-x="2048" 
d="M1628 451l-604 -605l-604 605h246l266 -267v942l-266 -266h-246l604 604l604 -604h-246l-266 266v-942l266 267h246z" />
    <glyph glyph-name="uni2196" unicode="&#x2196;" horiz-adv-x="2048" 
d="M420 1239h850l-174 -174h-379l911 -911l-123 -123l-911 911v-379l-174 -174v850z" />
    <glyph glyph-name="uni2197" unicode="&#x2197;" horiz-adv-x="2048" 
d="M1628 1239v-850l-174 174v379l-911 -911l-123 123l911 911h-379l-174 174h850z" />
    <glyph glyph-name="uni2198" unicode="&#x2198;" horiz-adv-x="2048" 
d="M1628 31h-850l174 174h379l-911 911l123 123l911 -911v379l174 174v-850z" />
    <glyph glyph-name="uni2199" unicode="&#x2199;" horiz-adv-x="2048" 
d="M420 31v850l174 -174v-379l911 911l123 -123l-911 -911h379l174 -174h-850z" />
    <glyph glyph-name="minus" unicode="&#x2212;" horiz-adv-x="911" 
d="M850 604v-164h-789v164h789z" />
    <glyph glyph-name="approxequal" unicode="&#x2248;" horiz-adv-x="921" 
d="M666 594q-72 0 -220 61t-193 61q-44 0 -72 -29q-28 -30 -27 -83h-154q0 135 70 211t186 76q72 1 220 -61t192 -62t72 30t28 83h154q0 -135 -70 -211t-186 -76zM666 195q-72 0 -220 61t-193 61q-44 1 -72 -29t-27 -83h-154q0 135 70 211t186 76q72 0 220 -62t192 -61
q44 -1 72 29t28 83h154q0 -135 -70 -211t-186 -75z" />
    <glyph glyph-name="notequal" unicode="&#x2260;" horiz-adv-x="921" 
d="M881 614h-297l-72 -184h369v-174h-441l-102 -246h-174l102 246h-225v174h297l72 184h-369v174h440l103 246h174l-103 -246h226v-174z" />
    <glyph glyph-name="lessequal" unicode="&#x2264;" horiz-adv-x="931" 
d="M92 707l758 337v-184l-502 -205l502 -204v-185l-758 338v103zM82 0v174h768v-174h-768z" />
    <glyph glyph-name="greaterequal" unicode="&#x2265;" horiz-adv-x="931" 
d="M82 1044l758 -337v-103l-758 -338v185l502 204l-502 205v184zM850 174v-174h-768v174h768z" />
    <glyph glyph-name="uni2460" unicode="&#x2460;" horiz-adv-x="2048" 
d="M1157 1065v-819h-184v614l-113 -72l-82 123l226 154h153zM348 655q0 -276 200 -476q200 -199 476 -199t476 200t200 476q0 278 -200 477t-476 199t-476 -201q-200 -200 -200 -476zM164 653q0 355 254 609t606 254t606 -254t254 -606t-254 -607q-254 -254 -607 -254
t-606 252t-253 606z" />
    <glyph glyph-name="uni2461" unicode="&#x2461;" horiz-adv-x="2048" 
d="M348 655q0 -276 200 -476q200 -199 476 -199t476 200t200 476q0 278 -200 477t-476 199t-476 -201q-200 -200 -200 -476zM164 653q0 355 254 609t606 254t606 -254t254 -606t-254 -607q-254 -254 -607 -254t-606 252t-253 606zM1311 410v-164h-563v123l296 307
q34 33 58 61t24 74q0 47 -28 74t-74 27q-45 0 -75 -26t-38 -67h-174q8 111 87 183t203 73t204 -71t80 -178t-47 -168q-18 -24 -56 -64l-174 -184h277z" />
    <glyph glyph-name="uni2462" unicode="&#x2462;" horiz-adv-x="2048" 
d="M348 655q0 -276 200 -476q200 -199 476 -199t476 200t200 476q0 278 -200 477t-476 199t-476 -201q-200 -200 -200 -476zM164 653q0 355 254 609t606 254t606 -254t254 -606t-254 -607q-254 -254 -607 -254t-606 252t-253 606zM1331 492q0 -111 -83 -184
q-83 -72 -221 -72t-216 68t-94 188h184q18 -92 132 -92t114 102q0 40 -32 66t-91 26h-82v143h76q49 0 79 26q29 25 29 61t-28 62q-29 26 -74 25q-96 0 -113 -82h-174q8 100 88 173t204 73q124 -1 203 -65t79 -160q0 -59 -31 -102t-61 -58l-31 -14q143 -48 143 -184z" />
    <glyph glyph-name="uni2463" unicode="&#x2463;" horiz-adv-x="2048" 
d="M348 655q0 -276 200 -476q200 -199 476 -199t476 200t200 476q0 278 -200 477t-476 199t-476 -201q-200 -200 -200 -476zM164 653q0 355 254 609t606 254t606 -254t254 -606t-254 -607q-254 -254 -607 -254t-606 252t-253 606zM1024 573v246l-164 -246h164zM1290 573
v-163h-82v-164h-184v164h-358v143l338 512h204v-492h82z" />
    <glyph glyph-name="uni2464" unicode="&#x2464;" horiz-adv-x="2048" 
d="M348 655q0 -276 200 -476q200 -199 476 -199t476 200t200 476q0 278 -200 477t-476 199t-476 -201q-200 -200 -200 -476zM164 653q0 355 254 609t606 254t606 -254t254 -606t-254 -607q-254 -254 -607 -254t-606 252t-253 606zM1014 635q-63 0 -92 -51h-174l61 481h461
v-164h-318l-20 -133q51 20 112 20q123 0 205 -80t82 -196q0 -117 -86 -197q-86 -79 -213 -79t-208 70t-97 175h184q8 -33 39 -57t79 -25q48 0 83 35t35 85t-35 83t-98 33z" />
    <glyph glyph-name="uni2465" unicode="&#x2465;" horiz-adv-x="2048" 
d="M348 655q0 -276 200 -476q200 -199 476 -199t476 200t200 476q0 278 -200 477t-476 199t-476 -201q-200 -200 -200 -476zM164 653q0 355 254 609t606 254t606 -254t254 -606t-254 -607q-254 -254 -607 -254t-606 252t-253 606zM901 522q0 -53 35 -88t88 -35t88 35t35 88
t-35 88t-88 35t-88 -35t-35 -88zM1024 236q-129 0 -218 85t-89 201q0 48 15 98t30 72l252 373h184l-184 -256h10q129 0 218 -85t89 -202q0 -118 -89 -202t-218 -84z" />
    <glyph glyph-name="uni2466" unicode="&#x2466;" horiz-adv-x="2048" 
d="M348 655q0 -276 200 -476q200 -199 476 -199t476 200t200 476q0 278 -200 477t-476 199t-476 -201q-200 -200 -200 -476zM164 653q0 355 254 609t606 254t606 -254t254 -606t-254 -607q-254 -254 -607 -254t-606 252t-253 606zM768 1065h543v-133l-328 -686h-184l317 655
h-348v164z" />
    <glyph glyph-name="uni2467" unicode="&#x2467;" horiz-adv-x="2048" 
d="M1024 236q-141 0 -224 70t-83 175q0 63 36 113t70 65l37 17q-12 6 -31 17q-18 11 -50 57t-31 100q0 96 74 161q75 65 202 65t202 -66q75 -64 74 -160q0 -55 -28 -98t-55 -60l-29 -16q87 -29 128 -119q15 -35 15 -76q0 -105 -83 -175t-224 -70zM348 655q0 -276 200 -476
q200 -199 476 -199t476 200t200 476q0 278 -200 477t-476 199t-476 -201q-200 -200 -200 -476zM164 653q0 355 254 609t606 254t606 -254t254 -606t-254 -607q-254 -254 -607 -254t-606 252t-253 606zM1024 758q39 0 66 22t26 60q0 38 -26 60t-66 22q-39 0 -66 -23
q-26 -23 -26 -59t26 -60q27 -22 66 -22zM1024 389q53 0 88 29t35 74q0 46 -35 74t-88 28t-88 -29t-35 -73t35 -74q35 -29 88 -29z" />
    <glyph glyph-name="uni2468" unicode="&#x2468;" horiz-adv-x="2048" 
d="M1700 655q0 277 -200 477t-476 200t-476 -200t-200 -478t200 -476t476 -198t476 200t200 475zM164 655q0 353 254 607t607 254t606 -252t253 -607q0 -354 -254 -608t-606 -254t-606 254t-254 606zM1147 788q0 52 -35 88t-88 36t-88 -36q-35 -34 -35 -88t35 -88t88 -34
t88 34t35 88zM1024 1075q129 0 218 -85t89 -202q0 -49 -15 -98t-30 -72l-252 -372h-184l184 256h-10q-129 0 -218 85t-89 201t89 202q89 85 218 85z" />
    <glyph glyph-name="uni24EA" unicode="&#x24ea;" horiz-adv-x="2048" 
d="M348 655q0 -276 200 -476q200 -199 476 -199t476 200t200 476q0 278 -200 477t-476 199t-476 -201q-200 -200 -200 -476zM164 653q0 355 254 609t606 254t606 -254t254 -606t-254 -607q-254 -254 -607 -254t-606 252t-253 606zM1372 655q0 -195 -98 -307t-250 -112
t-250 112t-98 308q0 194 98 307t250 113t250 -114q98 -112 98 -307zM860 655q0 -131 45 -193t119 -62t119 62t45 193t-45 193t-119 63q-74 -1 -119 -63t-45 -193z" />
    <glyph glyph-name="uni24FF" unicode="&#x24ff;" horiz-adv-x="2048" 
d="M164 653q0 355 254 609t606 254t606 -254t254 -606t-254 -607q-254 -254 -607 -254t-606 252t-253 606zM1372 655q0 195 -98 308t-250 113t-250 -114q-98 -112 -98 -307t98 -307t250 -112t250 112t98 307zM860 655q0 131 45 193t119 63q74 0 119 -62q45 -61 45 -193
t-45 -194t-119 -62t-119 62t-45 193z" />
    <glyph glyph-name="uni2776" unicode="&#x2776;" horiz-adv-x="2048" 
d="M1157 1065h-153l-226 -154l82 -123l113 72v-614h184v819zM164 653q0 355 254 609t606 254t606 -254t254 -606t-254 -607q-254 -254 -607 -254t-606 252t-253 606z" />
    <glyph glyph-name="uni2777" unicode="&#x2777;" horiz-adv-x="2048" 
d="M1311 410h-277l174 184q38 40 56 64q46 58 46 166q1 108 -79 180t-204 72t-203 -74q-79 -73 -87 -183h174q8 41 38 67t75 26t74 -28q28 -26 28 -66t-18 -68t-64 -74l-296 -307v-123h563v164zM164 653q0 355 254 609t606 254t606 -254t254 -606t-254 -607
q-254 -254 -607 -254t-606 252t-253 606z" />
    <glyph glyph-name="uni2778" unicode="&#x2778;" horiz-adv-x="2048" 
d="M1024 911q45 1 74 -25q28 -26 28 -62t-30 -62t-78 -25h-76v-143h82q59 0 91 -26t32 -66q1 -102 -113 -102t-133 92h-184q16 -119 94 -188q78 -68 216 -68t221 72t83 184q0 68 -36 114t-70 58l-37 12q4 2 13 5q64 21 96 100q13 32 14 69q0 96 -79 161t-203 65t-204 -74
q-80 -73 -88 -173h174q16 82 113 82zM164 653q0 355 254 609t606 254t606 -254t254 -606t-254 -607q-254 -254 -607 -254t-606 252t-253 606z" />
    <glyph glyph-name="uni2779" unicode="&#x2779;" horiz-adv-x="2048" 
d="M164 653q0 355 254 609t606 254t606 -254t254 -606t-254 -607q-254 -254 -607 -254t-606 252t-253 606zM1024 573h-164l164 246v-246zM1290 410v163h-82v492h-204l-338 -512v-143h358v-164h184v164h82z" />
    <glyph glyph-name="uni277A" unicode="&#x277a;" horiz-adv-x="2048" 
d="M1044 788q-65 0 -112 -20l20 133h318v164h-461l-61 -481h174q29 51 92 51t98 -33t35 -83t-35 -85t-83 -35t-79 25t-39 57h-184q16 -104 97 -175q81 -70 208 -70t213 80t86 196t-82 196t-205 80zM164 653q0 355 254 609t606 254t606 -254t254 -606t-254 -607
q-254 -254 -607 -254t-606 252t-253 606z" />
    <glyph glyph-name="uni277B" unicode="&#x277b;" horiz-adv-x="2048" 
d="M164 653q0 355 254 609t606 254t606 -254t254 -606t-254 -607q-254 -254 -607 -254t-606 252t-253 606zM901 522q0 53 35 88t88 35t88 -35t35 -88t-35 -88t-88 -35t-88 35t-35 88zM1024 236q129 0 218 85t89 201t-89 202q-89 85 -218 85h-10l184 256h-184l-236 -348
q-61 -82 -61 -197q0 -116 89 -200t218 -84z" />
    <glyph glyph-name="uni277C" unicode="&#x277c;" horiz-adv-x="2048" 
d="M164 653q0 355 254 609t606 254t606 -254t254 -606t-254 -607q-254 -254 -607 -254t-606 252t-253 606zM1311 1065h-543v-164h348l-317 -655h184l328 686v133z" />
    <glyph glyph-name="uni277D" unicode="&#x277d;" horiz-adv-x="2048" 
d="M1024 236q141 0 224 70t83 175q0 63 -36 113t-70 65l-37 17q12 6 31 17q18 11 50 57t31 100q0 96 -74 161q-75 65 -202 65t-202 -66q-75 -64 -74 -160q0 -55 28 -98t55 -60l29 -16q-87 -29 -128 -119q-15 -35 -15 -76q0 -105 83 -175t224 -70zM164 653q0 355 254 609
t606 254t606 -254t254 -606t-254 -607q-254 -254 -607 -254t-606 252t-253 606zM1024 758q-39 0 -66 22t-26 60q0 38 26 60t66 22q39 0 66 -23q26 -23 26 -59t-26 -60q-27 -22 -66 -22zM1024 389q-53 0 -88 29t-35 74q0 46 35 74t88 28t88 -29t35 -73t-35 -74
q-35 -29 -88 -29z" />
    <glyph glyph-name="uni277E" unicode="&#x277e;" horiz-adv-x="2048" 
d="M164 655q0 353 254 607t607 254t606 -252t253 -607q0 -354 -254 -608t-606 -254t-606 254t-254 606zM1147 788q0 -53 -35 -88q-35 -34 -88 -34t-88 34t-35 88q0 52 35 88t88 36t88 -36q35 -35 35 -88zM1024 1075q-129 0 -218 -85t-89 -202q0 -118 89 -202t218 -84h10
l-184 -256h184l236 348q61 82 61 196t-89 200q-89 85 -218 85z" />
    <glyph glyph-name="commaaccent" unicode="&#xf6c3;" horiz-adv-x="348" 
d="M174 -133q47 0 80 -35t33 -89t-20 -113t-67 -103q-47 -45 -77 -59l-31 40q72 51 92 134q-53 0 -88 32t-35 79q0 46 33 80t80 34z" />
    <glyph glyph-name="cyrBreve" unicode="&#xf6d1;" horiz-adv-x="655" 
d="M328 1423q-104 0 -177 67t-90 169h144q8 -47 43 -80t80 -33t80 33t43 80h143q-16 -102 -89 -169t-177 -67z" />
    <glyph glyph-name="cyrbreve" unicode="&#xf6d4;" horiz-adv-x="655" 
d="M328 1055q-104 1 -177 67t-90 168h144q8 -47 43 -80q35 -32 80 -32t80 32t43 80h143q-16 -102 -89 -168t-177 -67z" />
    <glyph glyph-name="s_t" unicode="&#xfb06;" horiz-adv-x="1484" 
d="M420 1004q0 162 108 270t277 108q167 0 275 -99t108 -249v-112h205v-174h-205v-441q0 -61 41 -102t102 -41l62 10v-164q-41 -20 -103 -20q-125 0 -206 87t-80 230v441h-166v174h73q53 0 88 32t35 92t-62 116t-158 56t-158 -62t-62 -163q0 -63 34 -105t72 -97t48 -146
h-185q-8 49 -48 81q-39 32 -105 32t-105 -31t-39 -74t50 -67t123 -41q73 -16 146 -40t123 -81t50 -148q0 -126 -90 -206t-248 -80q-332 0 -348 307h184q16 -133 164 -133q78 0 121 30t43 78t-50 74q-50 25 -123 41t-146 40t-123 81q-50 58 -50 162t91 183t247 79
q-10 20 -10 72z" />
    <glyph glyph-name="lslash.alt" horiz-adv-x="614" 
d="M369 1290v-481l163 102v-174l-163 -102v-328q0 -61 41 -102t102 -41l61 10v-164q-41 -20 -102 -20q-125 0 -206 87t-81 230v205l-143 -92v174l143 92v604h185z" />
    <glyph glyph-name="Germandbls" horiz-adv-x="1239" 
d="M1157 389q0 -161 -116 -275t-283 -114h-113v184h113q84 0 144 60t61 145t-59 145t-142 60h-117v164l225 338h-327q-83 0 -139 -54t-56 -131v-911h-194v911q0 154 114 267q115 113 275 112h542v-174l-235 -358q44 -7 101 -37q57 -29 99 -65t74 -108t33 -159z" />
    <glyph glyph-name="a.alt" horiz-adv-x="1075" 
d="M256 461q0 -129 78 -213t188 -84t189 84q78 84 77 213q0 129 -77 213q-78 84 -189 84q-110 0 -188 -84t-78 -213zM952 0h-133l-41 92q-24 -36 -104 -69q-80 -34 -162 -33q-186 0 -313 133t-127 338t127 338t313 133q82 0 148 -26t94 -50l24 -27l41 93h133v-922z" />
    <glyph glyph-name="afii10085.alt" horiz-adv-x="942" 
d="M236 -328l143 359l-359 891h195l256 -666l256 666h195l-502 -1250h-184z" />
    <glyph glyph-name="l.alt" horiz-adv-x="542" 
d="M317 1290v-983q0 -61 41 -102t103 -41l61 10v-164q-41 -20 -102 -20q-125 0 -206 87t-81 230v983h184z" />
    <glyph glyph-name="y.alt" horiz-adv-x="1054" 
d="M748 41v102q-4 -4 -12 -13q-55 -65 -155 -96q-44 -13 -89 -14q-156 0 -263 113q-106 113 -106 287v502h184v-502q0 -92 65 -159q66 -67 154 -67t155 68q67 66 67 158v502h184v-881q0 -170 -114 -280q-114 -109 -282 -109t-269 83t-134 214h184q61 -123 205 -123
q98 0 162 62t64 153z" />
    <glyph glyph-name="I.alt" horiz-adv-x="727" 
d="M266 184v922h-205v184h605v-184h-205v-922h205v-184h-605v184h205z" />
    <glyph glyph-name="c_t" horiz-adv-x="1638" 
d="M727 584q-54 174 -225 174q-92 0 -169 -85t-77 -212t77 -212t169 -85q171 0 225 174h195q-33 -152 -144 -250q-112 -98 -282 -98t-297 133t-127 338t127 338t313 133l72 -10q-10 31 -11 82q0 162 109 270q108 108 276 108t276 -99t107 -249v-112h205v-174h-205v-441
q0 -61 41 -102t103 -41l61 10v-164q-41 -20 -102 -20q-125 0 -206 87t-81 230v441h-166v174h74q53 0 88 32t35 92t-62 116t-158 56t-158 -62t-62 -156t78 -208q78 -116 96 -208h-195z" />
    <glyph glyph-name="r_f" horiz-adv-x="1085" 
d="M942 1300q62 0 102 -20v-164q-30 10 -76 10t-87 -41t-41 -102v-61h204v-174h-204v-748h-185v748h-123q-92 0 -158 -67t-67 -159v-522h-184v922h133l41 -93l25 25t76 42t134 26h123v61q0 143 81 230t206 87z" />
    <glyph glyph-name="r_t" horiz-adv-x="1136" 
d="M840 748v-441q0 -61 41 -102t102 -41l61 10v-164q-41 -20 -102 -20q-125 0 -206 87t-81 230v441h-123q-92 0 -158 -67t-67 -159v-522h-184v922h133l41 -93l25 25t76 42t134 26h31q53 0 88 34t35 88v123h154v-245h204v-174h-204z" />
    <glyph glyph-name="afii10065.alt" horiz-adv-x="1075" 
d="M256 461q0 -129 78 -213t188 -84t189 84q78 84 77 213q0 129 -77 213q-78 84 -189 84q-110 0 -188 -84t-78 -213zM952 0h-133l-41 92q-24 -36 -104 -69q-80 -34 -162 -33q-186 0 -313 133t-127 338t127 338t313 133q82 0 148 -26t94 -50l24 -27l41 93h133v-922z" />
    <glyph glyph-name="afii10110.alt" horiz-adv-x="942" 
d="M471 1188q45 0 80 31t43 71h143q-16 -102 -89 -169t-177 -67t-177 68q-73 66 -89 168h143q8 -42 43 -72t80 -30zM236 -328l143 359l-359 891h195l256 -666l256 666h195l-502 -1250h-184z" />
    <glyph glyph-name="agrave.alt" horiz-adv-x="1075" 
d="M492 1321l122 -246h-122l-175 246h175zM256 461q0 -129 78 -213t188 -84t189 84q78 84 77 213q0 129 -77 213q-78 84 -189 84q-110 0 -188 -84t-78 -213zM952 0h-133l-41 92q-24 -36 -104 -69q-80 -34 -162 -33q-186 0 -313 133t-127 338t127 338t313 133q82 0 148 -26
t94 -50l24 -27l41 93h133v-922z" />
    <glyph glyph-name="aacute.alt" horiz-adv-x="1075" 
d="M471 1075l123 246h174l-174 -246h-123zM256 461q0 -129 78 -213t188 -84t189 84q78 84 77 213q0 129 -77 213q-78 84 -189 84q-110 0 -188 -84t-78 -213zM952 0h-133l-41 92q-24 -36 -104 -69q-80 -34 -162 -33q-186 0 -313 133t-127 338t127 338t313 133q82 0 148 -26
t94 -50l24 -27l41 93h133v-922z" />
    <glyph glyph-name="abreve.alt" horiz-adv-x="1075" 
d="M543 1188q45 0 80 31t43 71h143q-16 -102 -89 -169t-177 -67t-177 68q-73 66 -90 168h144q8 -42 43 -72t80 -30zM256 461q0 -129 78 -213t188 -84t189 84q78 84 77 213q0 129 -77 213q-78 84 -189 84q-110 0 -188 -84t-78 -213zM952 0h-133l-41 92q-24 -36 -104 -69
q-80 -34 -162 -33q-186 0 -313 133t-127 338t127 338t313 133q82 0 148 -26t94 -50l24 -27l41 93h133v-922z" />
    <glyph glyph-name="acircumflex.alt" horiz-adv-x="1075" 
d="M625 1311l184 -246h-164l-102 143l-103 -143h-164l185 246h164zM256 461q0 -129 78 -213t188 -84t189 84q78 84 77 213q0 129 -77 213q-78 84 -189 84q-110 0 -188 -84t-78 -213zM952 0h-133l-41 92q-24 -36 -104 -69q-80 -34 -162 -33q-186 0 -313 133t-127 338t127 338
t313 133q82 0 148 -26t94 -50l24 -27l41 93h133v-922z" />
    <glyph glyph-name="adieresis.alt" horiz-adv-x="1075" 
d="M829 1178q1 -47 -33 -80t-79 -33t-79 33t-34 80q0 48 34 80t79 32t79 -32t33 -80zM481 1178q0 -47 -34 -80q-35 -33 -79 -33t-78 33t-34 80q0 48 34 80t79 32t79 -32t33 -80zM256 461q0 -129 78 -213t188 -84t189 84q78 84 77 213q0 129 -77 213q-78 84 -189 84
q-110 0 -188 -84t-78 -213zM952 0h-133l-41 92q-24 -36 -104 -69q-80 -34 -162 -33q-186 0 -313 133t-127 338t127 338t313 133q82 0 148 -26t94 -50l24 -27l41 93h133v-922z" />
    <glyph glyph-name="amacron.alt" horiz-adv-x="1075" 
d="M799 1239v-133h-512v133h512zM256 461q0 -129 78 -213t188 -84t189 84q78 84 77 213q0 129 -77 213q-78 84 -189 84q-110 0 -188 -84t-78 -213zM952 0h-133l-41 92q-24 -36 -104 -69q-80 -34 -162 -33q-186 0 -313 133t-127 338t127 338t313 133q82 0 148 -26t94 -50
l24 -27l41 93h133v-922z" />
    <glyph glyph-name="aogonek.alt" horiz-adv-x="1075" 
d="M256 461q0 -129 78 -213t188 -84t189 84q78 84 77 213q0 129 -77 213q-78 84 -189 84q-110 0 -188 -84t-78 -213zM72 461q0 205 127 338t313 133q82 0 148 -26t94 -50l24 -27l41 93h133v-922h-10q-72 -82 -72 -164q0 -40 27 -66t66 -26l81 10v-102q-52 -10 -122 -10
t-122 48t-52 110q0 114 53 175l18 25l-41 92q-24 -36 -104 -69q-80 -34 -162 -33q-186 0 -313 133t-127 338z" />
    <glyph glyph-name="aring.alt" horiz-adv-x="1075" 
d="M707 1208q1 -72 -49 -123t-126 -51t-124 51t-50 123q0 72 50 123t124 51q76 0 126 -51t49 -123zM604 1208q0 33 -20 58q-20 24 -52 24t-51 -24q-20 -24 -20 -58t20 -58t51 -24q32 0 52 24t20 58zM256 461q0 -129 78 -213t188 -84t189 84q78 84 77 213q0 129 -77 213
q-78 84 -189 84q-110 0 -188 -84t-78 -213zM952 0h-133l-41 92q-24 -36 -104 -69q-80 -34 -162 -33q-186 0 -313 133t-127 338t127 338t313 133q82 0 148 -26t94 -50l24 -27l41 93h133v-922z" />
    <glyph glyph-name="atilde.alt" horiz-adv-x="1075" 
d="M852 1290q0 -118 -52 -182t-120 -64t-108 31q-42 31 -72 62t-62 31t-56 -32q-24 -30 -24 -81h-102q0 119 52 182t120 63t108 -30t72 -62q66 -65 117 0q25 31 25 82h102zM256 461q0 -129 78 -213t188 -84t189 84q78 84 77 213q0 129 -77 213q-78 84 -189 84
q-110 0 -188 -84t-78 -213zM952 0h-133l-41 92q-24 -36 -104 -69q-80 -34 -162 -33q-186 0 -313 133t-127 338t127 338t313 133q82 0 148 -26t94 -50l24 -27l41 93h133v-922z" />
    <glyph glyph-name="lacute.alt" horiz-adv-x="542" 
d="M164 1444l123 246h174l-174 -246h-123zM317 1290v-983q0 -61 41 -102t103 -41l61 10v-164q-41 -20 -102 -20q-125 0 -206 87t-81 230v983h184z" />
    <glyph glyph-name="lcaron.alt" horiz-adv-x="563" 
d="M430 1044l72 246h164l-123 -246h-113zM317 1290v-983q0 -61 41 -102t103 -41l61 10v-164q-41 -20 -102 -20q-125 0 -206 87t-81 230v983h184z" />
    <glyph glyph-name="lcommaaccent.alt" horiz-adv-x="542" 
d="M329 -133q46 0 79 -35q59 -62 16 -191q-23 -69 -90 -133q-28 -26 -58 -40l-30 40q72 51 92 134q-53 0 -88 32t-35 79q0 46 34 80t80 34zM317 1290v-983q0 -61 41 -102t103 -41l61 10v-164q-41 -20 -102 -20q-125 0 -206 87t-81 230v983h184z" />
    <glyph glyph-name="Igrave.alt" horiz-adv-x="727" 
d="M307 1690l123 -246h-123l-174 246h174zM266 184v922h-205v184h605v-184h-205v-922h205v-184h-605v184h205z" />
    <glyph glyph-name="Iacute.alt" horiz-adv-x="727" 
d="M307 1444l123 246h174l-174 -246h-123zM266 184v922h-205v184h605v-184h-205v-922h205v-184h-605v184h205z" />
    <glyph glyph-name="Icircumflex.alt" horiz-adv-x="727" 
d="M442 1679l185 -245h-164l-103 143l-102 -143h-164l185 245h163zM266 184v922h-205v184h605v-184h-205v-922h205v-184h-605v184h205z" />
    <glyph glyph-name="Idieresis.alt" horiz-adv-x="727" 
d="M645 1546q0 -47 -34 -80q-34 -32 -79 -32q-44 0 -78 32t-34 80q0 47 34 80t78 33t79 -33q34 -33 34 -80zM297 1546q0 -47 -34 -80q-34 -32 -79 -32t-79 32t-33 80q0 47 33 80q34 33 79 33t79 -33t34 -80zM266 184v922h-205v184h605v-184h-205v-922h205v-184h-605v184h205
z" />
    <glyph glyph-name="Idotaccent.alt" horiz-adv-x="727" 
d="M471 1546q0 -47 -33 -80q-33 -32 -80 -32q-48 0 -80 32t-32 80q0 47 33 80t79 33t80 -33q33 -33 33 -80zM266 184v922h-205v184h605v-184h-205v-922h205v-184h-605v184h205z" />
    <glyph glyph-name="Imacron.alt" horiz-adv-x="727" 
d="M614 1597v-133h-512v133h512zM266 184v922h-205v184h605v-184h-205v-922h205v-184h-605v184h205z" />
    <glyph glyph-name="Iogonek.alt" horiz-adv-x="727" 
d="M61 0v184h205v922h-205v184h605v-184h-205v-922h205v-184q-72 -82 -72 -164q0 -40 27 -66t65 -26l82 10v-102q-52 -10 -122 -10t-123 48q-52 48 -52 110q0 107 53 175l19 25h-482z" />
    <glyph glyph-name="yacute.alt" horiz-adv-x="1054" 
d="M461 1075l123 246h174l-174 -246h-123zM748 41v102q-4 -4 -12 -13q-55 -65 -155 -96q-44 -13 -89 -14q-156 0 -263 113q-106 113 -106 287v502h184v-502q0 -92 65 -159q66 -67 154 -67t155 68q67 66 67 158v502h184v-881q0 -170 -114 -280q-114 -109 -282 -109t-269 83
t-134 214h184q61 -123 205 -123q98 0 162 62t64 153z" />
    <glyph glyph-name="ydieresis.alt" horiz-adv-x="1054" 
d="M819 1178q0 -47 -33 -80q-34 -33 -80 -33t-79 33t-33 80q0 48 33 80t80 32t79 -32t33 -80zM471 1178q0 -47 -33 -80t-80 -33q-48 0 -80 33t-32 80q0 48 33 80t79 32t80 -32q33 -32 33 -80zM748 41v102q-4 -4 -12 -13q-55 -65 -155 -96q-44 -13 -89 -14q-156 0 -263 113
q-106 113 -106 287v502h184v-502q0 -92 65 -159q66 -67 154 -67t155 68q67 66 67 158v502h184v-881q0 -170 -114 -280q-114 -109 -282 -109t-269 83t-134 214h184q61 -123 205 -123q98 0 162 62t64 153z" />
    <glyph glyph-name="zero.numr" horiz-adv-x="614" 
d="M553 987q0 -143 -71 -227t-175 -84t-175 84t-71 227t71 227t175 84t175 -84t71 -227zM430 987q0 95 -36 147t-87 52t-87 -51t-36 -147t36 -148t87 -52t87 52t36 147z" />
    <glyph glyph-name="one.numr" horiz-adv-x="430" 
d="M297 1290v-604h-123v451l-72 -41l-61 92l164 102h92z" />
    <glyph glyph-name="two.numr" horiz-adv-x="532" 
d="M471 799v-113h-410v92l226 236q61 61 61 97t-22 56q-23 20 -60 21q-92 0 -92 -92h-113q1 92 57 148t147 56t149 -53t57 -128q0 -75 -61 -136l-174 -184h235z" />
    <glyph glyph-name="three.numr" horiz-adv-x="552" 
d="M492 860q0 -80 -58 -132t-158 -52q-98 0 -156 56t-59 149h113q0 -41 26 -67t72 -26t72 25q25 25 25 57t-25 58q-25 25 -68 24h-61v103h51q37 0 60 18q22 18 22 46t-22 48q-23 20 -60 21q-82 0 -82 -82h-112q0 86 56 140t143 54t143 -52t57 -122q0 -42 -15 -72t-30 -40
l-16 -10q30 -15 56 -57t26 -87z" />
    <glyph glyph-name="four.numr" horiz-adv-x="512" 
d="M266 911v195l-123 -195h123zM389 1290v-379h72v-112h-72v-113h-123v113h-256v92l246 399h133z" />
    <glyph glyph-name="five.numr" horiz-adv-x="563" 
d="M320 1096q74 0 127 -56q55 -56 55 -149q0 -91 -62 -153t-151 -62q-90 0 -151 52q-60 52 -77 132h123q18 -72 103 -72q39 0 65 29t27 74q0 45 -27 74t-65 28q-82 0 -103 -61h-102l41 358h338v-112h-236l-10 -103q31 21 105 21z" />
    <glyph glyph-name="six.numr" horiz-adv-x="542" 
d="M276 993q-40 -1 -66 -29t-26 -73t27 -74t65 -29t66 29q27 29 27 74t-27 73t-66 29zM276 676q-92 0 -153 61t-62 154q0 45 23 99t47 85l23 31l122 184h134l-134 -194q92 0 154 -60t62 -148t-62 -150t-154 -62z" />
    <glyph glyph-name="seven.numr" horiz-adv-x="481" 
d="M72 1178v112h399v-71l-246 -533h-123l226 492h-256z" />
    <glyph glyph-name="eight.numr" horiz-adv-x="532" 
d="M266 952q-38 0 -60 -24t-22 -58t23 -58t59 -24t60 25q22 25 22 57t-22 58q-23 24 -60 24zM266 1188q-31 0 -51 -20t-20 -48q0 -27 20 -46t51 -19t51 19q21 19 21 46q0 28 -20 48t-52 20zM266 676q-90 0 -147 53t-57 115t20 97q20 36 41 50l20 13q-61 40 -61 116t54 128
t130 52t130 -52t55 -122q1 -38 -15 -68t-30 -42l-17 -12q31 -16 57 -57q26 -42 25 -87q1 -78 -57 -131t-148 -53z" />
    <glyph glyph-name="nine.numr" horiz-adv-x="542" 
d="M266 983q39 0 66 29q26 30 26 74t-26 73q-27 29 -66 29q-40 0 -66 -29t-26 -74t26 -73t66 -29zM266 1300q92 0 154 -61t61 -154q-1 -45 -23 -99t-44 -85l-25 -31l-123 -184h-133l133 195q-92 0 -153 59t-61 148q0 88 60 150q62 62 154 62z" />
    <glyph glyph-name="zero.dnom" horiz-adv-x="614" 
d="M553 301q0 -143 -71 -227t-175 -84t-175 84t-71 227t71 227t175 84t175 -84t71 -227zM430 301q0 95 -36 147t-87 52t-87 -51t-36 -147t36 -148t87 -52t87 52t36 147z" />
    <glyph glyph-name="one.dnom" horiz-adv-x="430" 
d="M297 604v-604h-123v451l-72 -41l-61 92l164 102h92z" />
    <glyph glyph-name="two.dnom" horiz-adv-x="532" 
d="M471 113v-113h-410v92l226 236q61 61 61 97t-22 56q-23 20 -60 21q-92 0 -92 -92h-113q1 92 57 148t147 56t149 -53t57 -128q0 -75 -61 -136l-174 -184h235z" />
    <glyph glyph-name="three.dnom" horiz-adv-x="552" 
d="M492 174q0 -80 -58 -132t-158 -52q-98 0 -156 56t-59 149h113q0 -41 26 -67t72 -26t72 25q25 25 25 57t-25 58q-25 25 -68 24h-61v103h51q37 0 60 18q22 18 22 46t-22 48q-23 20 -60 21q-82 0 -82 -82h-112q0 86 56 140t143 54t143 -52t57 -122q0 -42 -15 -72t-30 -40
l-16 -11q31 -15 56 -57q26 -41 26 -86z" />
    <glyph glyph-name="four.dnom" horiz-adv-x="512" 
d="M266 225v195l-123 -195h123zM389 604v-379h72v-112h-72v-113h-123v113h-256v92l246 399h133z" />
    <glyph glyph-name="five.dnom" horiz-adv-x="563" 
d="M320 410q74 0 127 -56q55 -56 55 -149q0 -91 -62 -153t-151 -62q-90 0 -151 52q-60 52 -77 132h123q18 -72 103 -72q39 0 65 29t27 74q0 45 -27 74t-65 28q-82 0 -103 -61h-102l41 358h338v-112h-236l-10 -103q31 21 105 21z" />
    <glyph glyph-name="six.dnom" horiz-adv-x="542" 
d="M276 307q-40 -1 -66 -29t-26 -73t27 -74t65 -29t66 29q27 29 27 74t-27 73t-66 29zM276 -10q-92 0 -153 61t-62 154q0 45 23 99t47 85l23 31l122 184h134l-134 -194q92 0 154 -60t62 -148t-62 -150t-154 -62z" />
    <glyph glyph-name="seven.dnom" horiz-adv-x="481" 
d="M72 492v112h399v-72l-246 -532h-123l226 492h-256z" />
    <glyph glyph-name="eight.dnom" horiz-adv-x="532" 
d="M266 266q-38 0 -60 -24t-22 -58t23 -58t59 -24t60 25q22 25 22 57t-22 58q-23 24 -60 24zM266 502q-31 0 -51 -20t-20 -48q0 -27 20 -46t51 -19t51 19q21 19 21 46q0 28 -20 48t-52 20zM266 -10q-90 0 -147 53t-57 115t20 97q20 36 41 48l20 14q-61 41 -61 117t54 128
t130 52t130 -52t55 -122q1 -38 -15 -68t-30 -42l-17 -13q32 -16 58 -57q25 -41 24 -86q1 -78 -57 -131t-148 -53z" />
    <glyph glyph-name="nine.dnom" horiz-adv-x="542" 
d="M266 297q39 0 66 29q26 30 26 74t-26 73q-27 29 -66 29q-40 0 -66 -29t-26 -74t26 -73t66 -29zM266 614q92 0 154 -61t61 -154q-1 -45 -23 -99t-44 -85l-25 -31l-123 -184h-133l133 195q-92 0 -153 59t-61 148q0 88 60 150q62 62 154 62z" />
    <glyph glyph-name="zero.tab" 
d="M1024 645q0 -303 -147 -479t-365 -176t-365 176t-147 479t147 479t365 176t364 -176q148 -176 148 -479zM829 645q0 223 -96 352t-221 129t-221 -129t-96 -352t96 -352t221 -129t221 129t96 352z" />
    <glyph glyph-name="one.tab" 
d="M174 184h266v840l-174 -113l-92 154l328 225h133v-1106h266v-184h-727v184z" />
    <glyph glyph-name="two.tab" 
d="M932 184v-184h-830v143l512 553q47 47 85 116q38 70 38 120q0 86 -60 140q-61 54 -163 54t-164 -62t-63 -163h-195q0 170 119 285q119 114 300 114t301 -112t120 -266q0 -74 -46 -158t-91 -133l-47 -47l-367 -400h551z" />
    <glyph glyph-name="three.tab" 
d="M498 1300q176 0 295 -108t118 -250q0 -108 -58 -175t-105 -91q8 -4 22 -10t49 -34q136 -108 134 -267q-1 -159 -126 -267t-318 -108t-311 103t-126 255h194q8 -74 74 -129t174 -55t176 58t68 146t-69 147q-69 58 -187 58h-82v175h82q98 0 156 52t58 135t-58 137t-155 54
t-158 -52t-69 -132h-194q8 150 124 254t292 104z" />
    <glyph glyph-name="four.tab" 
d="M625 440v564l-349 -564h349zM963 440v-184h-144v-256h-194v256h-574v164l543 870h225v-850h144z" />
    <glyph glyph-name="five.tab" 
d="M532 870q178 0 304 -128t127 -312q0 -184 -130 -312q-131 -128 -319 -128t-306 103t-126 255h194q8 -74 74 -129t168 -55t176 76t74 190t-74 191q-74 76 -182 75q-74 0 -132 -39t-81 -75l-23 -39h-163l82 747h686v-184h-521l-32 -307q81 71 204 71z" />
    <glyph glyph-name="six.tab" 
d="M256 430q0 -114 74 -190t182 -76t182 76t74 190t-74 191q-74 75 -182 75t-182 -76t-74 -190zM512 -10q-190 0 -321 128q-130 128 -130 312q0 68 31 148t62 124l389 588h215l-287 -430q41 10 82 10q164 0 287 -129t123 -312q-1 -183 -131 -311t-320 -128z" />
    <glyph glyph-name="seven.tab" 
d="M143 1290h809v-133l-532 -1157h-205l512 1106h-584v184z" />
    <glyph glyph-name="eight.tab" 
d="M512 768q82 0 138 52t56 126t-54 127q-56 53 -140 53t-139 -53t-55 -127t56 -126t138 -52zM512 594q-114 0 -180 -60t-66 -154t67 -156q67 -60 179 -60t180 60q66 60 66 154t-66 156q-66 60 -180 60zM123 946q0 148 111 251q112 103 278 103t278 -103t111 -245
q0 -78 -39 -141t-76 -90l-38 -25q8 -4 22 -10t49 -34q135 -108 134 -275t-123 -277t-318 -110t-318 110t-122 278q0 167 132 273q30 25 50 35l22 10q-153 102 -153 250z" />
    <glyph glyph-name="nine.tab" 
d="M768 860q0 115 -74 191q-74 75 -182 75t-182 -76t-74 -190t74 -190t182 -76t182 76t74 190zM512 1300q190 0 320 -128t131 -312q0 -68 -31 -148t-62 -124l-389 -588h-215l287 430q-31 -10 -82 -10q-164 0 -287 129t-123 312t130 311q131 128 321 128z" />
    <glyph glyph-name="at.case" horiz-adv-x="1536" 
d="M762 399q82 1 136 59t54 156t-54 156t-136 59q-82 0 -140 -62q-58 -63 -58 -153t58 -152t140 -63zM778 -72q-292 0 -494 201t-202 485t202 486q202 200 493 200q290 0 494 -198t204 -467q0 -170 -83 -269t-204 -100q-74 0 -130 29t-75 57l-20 27q-5 -11 -30 -35
q-77 -76 -203 -77t-218 97t-92 250t92 250t225 99q59 0 111 -23t74 -47l20 -23l31 82h112v-399q0 -154 103 -154q133 -1 133 225t-161 385t-383 159t-382 -162q-159 -162 -159 -392t160 -391q160 -162 382 -162q78 0 151 23t107 47l35 23l78 -117q-18 -13 -50 -31t-129 -48
t-192 -30z" />
    <glyph glyph-name="parenleft.case" horiz-adv-x="563" 
d="M435 -8q36 -72 61 -109l26 -37l-133 -92q-37 43 -93 143q-56 99 -94 193t-69 238t-31 286t30 284t95 296t133 242l29 39l133 -93q-30 -42 -79 -133q-167 -313 -167 -621q0 -309 159 -636z" />
    <glyph glyph-name="parenright.case" horiz-adv-x="563" 
d="M287 614q0 241 -81 445t-140 287l-25 36l133 93q37 -43 93 -143q56 -99 94 -193q38 -93 69 -237t31 -288t-30 -284q-30 -141 -93 -290t-133 -247l-31 -39l-133 92q157 220 219 520q27 125 27 248z" />
    <glyph glyph-name="bracketleft.case" horiz-adv-x="604" 
d="M328 1280v-1331h235v-164h-409v1659h409v-164h-235z" />
    <glyph glyph-name="bracketright.case" horiz-adv-x="604" 
d="M276 -51v1331h-235v164h410v-1659h-410v164h235z" />
    <glyph glyph-name="braceleft.case" horiz-adv-x="634" 
d="M92 543v143q47 0 75 28t28 74v390q0 266 282 266h117v-164h-123q-45 0 -74 -28t-28 -74v-390q0 -63 -29 -107t-57 -54l-27 -13q4 -2 12 -4q58 -15 88 -96q12 -33 13 -74v-389q1 -47 29 -75t73 -27h123v-164h-117q-283 0 -282 266v389q0 47 -28 75t-75 28z" />
    <glyph glyph-name="braceright.case" horiz-adv-x="634" 
d="M543 686v-143q-47 0 -75 -28t-28 -75v-389q0 -266 -282 -266h-117v164h123q45 -1 74 27t28 75v389q0 64 29 108t57 54l27 12q-4 2 -22 7t-42 33q-47 56 -49 134v390q0 46 -28 74t-74 28h-123v164h117q283 0 282 -266v-390q0 -46 28 -74t75 -28z" />
    <glyph glyph-name="exclamdown.case" horiz-adv-x="512" 
d="M369 1188q0 -45 -33 -79t-80 -34t-80 34t-33 79t33 79q33 33 80 33t80 -34t33 -78zM338 963l31 -963h-226l31 963h164z" />
    <glyph glyph-name="questiondown.case" horiz-adv-x="880" 
d="M338 1188q0 45 34 79q34 33 79 33t79 -34t33 -78q0 -45 -34 -79q-35 -34 -79 -34t-78 34t-34 79zM358 963h185v-21q0 -108 -31 -188t-74 -125t-87 -83q-107 -92 -106 -179t56 -140t141 -53t140 62t53 174v20h184v-20q0 -188 -107 -305q-108 -115 -270 -115t-272 107
t-109 256q0 149 105 252q43 42 87 83q107 100 105 254v21z" />
    <glyph glyph-name="guillemotleft.case" horiz-adv-x="911" 
d="M625 614l225 -327h-184l-226 327l226 328h184zM246 614l225 -327h-184l-226 327l226 328h184z" />
    <glyph glyph-name="guillemotright.case" horiz-adv-x="911" 
d="M61 287l226 327l-226 328h185l225 -328l-225 -327h-185zM440 287l226 327l-226 328h185l225 -328l-225 -327h-185z" />
    <glyph glyph-name="guilsinglleft.case" horiz-adv-x="532" 
d="M246 614l225 -327h-184l-226 327l226 328h184z" />
    <glyph glyph-name="guilsinglright.case" horiz-adv-x="532" 
d="M61 287l226 327l-226 328h185l225 -328l-225 -327h-185z" />
    <glyph glyph-name="hyphen.case" horiz-adv-x="716" 
d="M655 758v-164h-594v164h594z" />
    <glyph glyph-name="endash.case" horiz-adv-x="962" 
d="M901 758v-164h-840v164h840z" />
    <glyph glyph-name="emdash.case" horiz-adv-x="1464" 
d="M1403 758v-164h-1342v164h1342z" />
    <glyph glyph-name="foundryicon" horiz-adv-x="3149" 
d="M2789 748q-33 0 -59 -22t-31 -60h180q-1 34 -29 58t-61 24zM2789 811q66 0 111 -50t45 -120l-2 -31h-244q4 -36 30 -60q27 -24 71 -24t65 35h72q-39 -99 -157 -97q-58 0 -104 51q-46 50 -46 123t46 123t113 50zM1944 346q-14 0 -21 2v58q47 0 64 40l12 33l-129 326h76
l90 -238l90 238h76l-158 -389q-33 -70 -100 -70zM2314 638q0 -44 28 -77t67 -33q40 0 69 33t29 77t-29 76t-68 32q-40 0 -68 -32t-28 -76zM2420 811q62 0 108 -51t46 -123t-46 -122t-108 -50t-100 43v-162h-69v459h49l18 -39q40 45 102 45zM1923 942v-63h-147v-408h-72v408
h-145v63h364zM1436 748q-32 0 -60 -22q-26 -22 -30 -60h180q-2 34 -30 58t-60 24zM1436 811q66 0 110 -50t45 -120l-2 -31h-243q4 -36 30 -60t70 -24q45 0 65 35h72q-39 -99 -155 -97q-58 0 -105 51q-47 50 -47 123t47 123t113 50zM590 346q-14 0 -21 2v58q47 0 64 40l12 33
l-129 326h76l90 -238l90 238h76l-158 -389q-33 -70 -100 -70zM1056 528q40 0 68 33t29 77q0 44 -29 76q-30 32 -68 32t-67 -32t-29 -76t28 -77t68 -33zM1066 811q62 0 109 -51q46 -51 46 -123t-46 -122q-47 -50 -109 -50t-99 43v-162h-70v459h49l19 -39q39 45 101 45z
M569 942v-63h-147v-408h-72v408h-145v63h364z" />
    <glyph glyph-name="bullet.case" horiz-adv-x="798" 
d="M604 686q0 -84 -60 -144t-144 -60t-145 60q-60 60 -60 144t60 144t144 60q85 0 145 -60t60 -144z" />
    <glyph glyph-name="periodcentered.case" horiz-adv-x="450" 
d="M338 686q0 -47 -34 -80t-79 -33t-79 33t-33 80q0 47 33 80q34 33 79 33t79 -33t34 -80z" />
    <glyph glyph-name="zero.osf" horiz-adv-x="1167" 
d="M1055 461q0 -199 -136 -335t-335 -136t-335 136t-136 335t136 335t335 136t335 -136t136 -335zM307 461q0 -129 80 -213t197 -84q116 0 196 84t80 213t-80 213t-196 84t-197 -84q-80 -84 -80 -213z" />
    <glyph glyph-name="one.osf" horiz-adv-x="645" 
d="M512 922v-922h-195v655l-174 -112l-92 153l328 226h133z" />
    <glyph glyph-name="two.osf" horiz-adv-x="942" 
d="M850 184v-184h-758v123l410 287q143 96 143 194q0 62 -49 108t-125 46q-162 0 -195 -164h-194q16 150 120 244t265 94q162 0 267 -95q106 -95 106 -212t-52 -187t-163 -151l-144 -103h369z" />
    <glyph glyph-name="three.osf" horiz-adv-x="1003" 
d="M123 737v185h747v-123l-297 -369q150 -26 249 -134q100 -108 100 -272t-125 -284q-125 -119 -317 -119q-192 -1 -312 103t-127 256h195q8 -74 75 -130q68 -55 172 -55t174 68t70 168t-70 168t-176 67q-52 0 -112 -20l-93 92l318 399h-471z" />
    <glyph glyph-name="four.osf" horiz-adv-x="1015" 
d="M614 184v492l-348 -492h348zM952 184v-184h-143v-369h-195v369h-573v164l543 758h225v-738h143z" />
    <glyph glyph-name="five.osf" horiz-adv-x="1034" 
d="M532 502q178 0 304 -128t127 -312q0 -184 -130 -313q-131 -128 -319 -128q-188 -1 -306 103t-126 256h194q8 -74 74 -130t168 -55q102 0 176 76q74 77 74 191t-74 190t-182 76q-74 0 -132 -39t-81 -76l-23 -39h-163l82 748h686v-185h-521l-32 -307q81 72 204 72z" />
    <glyph glyph-name="six.osf" 
d="M256 430q0 -114 74 -190t182 -76t182 76t74 190t-74 191q-74 75 -182 75t-182 -76t-74 -190zM512 -10q-190 0 -321 128q-130 128 -130 312q0 68 31 148t62 124l389 588h215l-287 -430q41 10 82 10q164 0 287 -129t123 -312q-1 -183 -131 -311t-320 -128z" />
    <glyph glyph-name="seven.osf" horiz-adv-x="911" 
d="M61 922h809v-134l-532 -1157h-205l512 1106h-584v185z" />
    <glyph glyph-name="eight.osf" horiz-adv-x="1003" 
d="M502 768q82 0 138 52t56 126t-55 127t-139 53t-140 -53t-55 -127t57 -126t138 -52zM502 594q-114 0 -180 -60t-66 -154t67 -156q67 -60 179 -60t180 60q66 60 66 154t-66 156q-66 60 -180 60zM113 946q0 148 111 251q112 103 278 103t278 -103t111 -237q0 -134 -99 -224
q-28 -26 -55 -40q9 -4 23 -10t49 -34t61 -62t50 -92q23 -59 22 -129q0 -159 -122 -269t-318 -110q-195 0 -318 110t-123 278q0 167 133 273q30 25 52 35l20 10q-153 102 -153 250z" />
    <glyph glyph-name="nine.osf" 
d="M768 492q0 114 -74 190t-182 76t-182 -76t-74 -190t74 -191q74 -76 182 -76t182 76t74 191zM512 932q190 0 320 -128t131 -312q0 -68 -31 -148t-62 -125l-389 -588h-215l287 430q-31 -10 -82 -10q-164 0 -287 129q-123 128 -123 312t130 312q131 128 321 128z" />
    <glyph glyph-name="zero.osftab" 
d="M983 461q0 -199 -135 -335t-336 -136t-336 136t-135 335t135 335t336 136t336 -136t135 -335zM236 461q0 -129 80 -213t196 -84q117 0 197 84t79 213q0 129 -79 213q-80 84 -197 84q-116 0 -196 -84t-80 -213z" />
    <glyph glyph-name="one.osftab" 
d="M655 922v-738h267v-184h-727v184h266v471l-174 -112l-92 153l327 226h133z" />
    <glyph glyph-name="two.osftab" 
d="M891 184v-184h-758v123l410 287q143 96 143 194q0 62 -49 108t-125 46q-162 0 -195 -164h-194q15 150 119 244t266 94t267 -95t105 -212t-50 -187q-52 -70 -164 -151l-144 -103h369z" />
    <glyph glyph-name="three.osftab" 
d="M133 737v185h748v-123l-297 -369q150 -26 249 -134t99 -272t-125 -284q-125 -119 -317 -119q-192 -1 -311 103q-120 104 -128 256h195q8 -74 76 -130t172 -55q104 0 174 68q69 68 69 168t-69 168q-70 68 -176 67q-53 0 -113 -20l-92 92l317 399h-471z" />
    <glyph glyph-name="four.osftab" 
d="M625 184v492l-349 -492h349zM963 184v-184h-144v-369h-194v369h-574v164l543 758h225v-738h144z" />
    <glyph glyph-name="five.osftab" 
d="M522 498q178 0 304 -128t126 -312t-130 -313q-130 -128 -318 -128t-306 103t-126 255h194q8 -74 74 -129t168 -55t176 76q74 77 74 191t-74 190t-182 76q-74 0 -132 -39t-81 -76l-23 -39h-164l82 748h686v-185h-520l-33 -307q82 72 205 72z" />
    <glyph glyph-name="six.osftab" 
d="M256 430q0 -114 74 -190t182 -76t182 76t74 190t-74 191q-74 75 -182 75t-182 -76t-74 -190zM512 -10q-190 0 -321 128q-130 128 -130 312q0 68 31 148t62 124l389 588h215l-287 -430q41 10 82 10q164 0 287 -129t123 -312q-1 -183 -131 -311t-320 -128z" />
    <glyph glyph-name="seven.osftab" 
d="M123 918h809v-134l-533 -1157h-204l512 1106h-584v185z" />
    <glyph glyph-name="eight.osftab" 
d="M512 768q82 0 138 52t56 126t-54 127q-56 53 -140 53t-139 -53t-55 -127t56 -126t138 -52zM512 594q-114 0 -180 -60t-66 -154t67 -156q67 -60 179 -60t180 60q66 60 66 154t-66 156q-66 60 -180 60zM123 946q0 148 111 251q112 103 278 103t278 -103t111 -245
q0 -78 -39 -141t-76 -90l-38 -25q8 -4 22 -10t49 -34q135 -108 134 -275t-123 -277t-318 -110t-318 110t-122 278q0 167 132 273q30 25 50 35l22 10q-153 102 -153 250z" />
    <glyph glyph-name="nine.osftab" 
d="M768 492q0 114 -74 190t-182 76t-182 -76t-74 -190t74 -191q74 -76 182 -76t182 76t74 191zM512 932q190 0 320 -128t131 -312q0 -68 -31 -148t-62 -125l-389 -588h-215l287 430q-31 -10 -82 -10q-164 0 -287 129q-123 128 -123 312t130 312q131 128 321 128z" />
    <glyph glyph-name="plus.lf" horiz-adv-x="931" 
d="M379 1034h174v-327h317v-164h-317v-328h-174v328h-318v164h318v327z" />
    <glyph glyph-name="less.lf" horiz-adv-x="911" 
d="M307 553l522 -266v-185l-747 390v122l747 390v-185z" />
    <glyph glyph-name="equal.lf" horiz-adv-x="921" 
d="M61 348v174h799v-174h-799zM61 901h799v-174h-799v174z" />
    <glyph glyph-name="greater.lf" horiz-adv-x="911" 
d="M82 287l522 266l-522 266v185l747 -390v-122l-747 -390v185z" />
    <glyph glyph-name="asciitilde.lf" horiz-adv-x="921" 
d="M666 502q-72 0 -220 61t-193 61q-44 0 -72 -29q-28 -30 -27 -83h-154q0 135 70 211t186 76q72 1 220 -61t192 -62t72 30t28 82h154q0 -134 -70 -210t-186 -76z" />
    <glyph glyph-name="logicalnot.lf" horiz-adv-x="952" 
d="M41 891h870v-430h-174v266h-696v164z" />
    <glyph glyph-name="plusminus.lf" horiz-adv-x="931" 
d="M379 799v327h174v-327h317v-164h-317v-318h317v-174h-809v174h318v318h-318v164h318z" />
    <glyph glyph-name="minus.lf" horiz-adv-x="911" 
d="M850 707v-164h-789v164h789z" />
    <glyph glyph-name="multiply.lf" horiz-adv-x="921" 
d="M573 625l236 -246l-113 -103l-235 246l-236 -246l-112 103l235 246l-235 245l112 103l236 -246l235 246l113 -103z" />
    <glyph glyph-name="divide.lf" horiz-adv-x="921" 
d="M573 287q-1 -45 -33 -79t-79 -34t-80 34t-33 79t33 79t80 34t80 -34q32 -34 32 -79zM573 963q-1 -45 -33 -79t-79 -34t-80 34t-33 79t33 79t80 33q47 1 79 -33t33 -79zM850 707v-164h-778v164h778z" />
    <glyph glyph-name="notequal.lf" horiz-adv-x="921" 
d="M881 717h-297l-72 -185h369v-174h-441l-102 -245h-174l102 245h-225v174h297l72 185h-369v174h440l103 246h174l-103 -246h226v-174z" />
    <glyph glyph-name="approxequal.lf" horiz-adv-x="921" 
d="M666 696q-72 0 -220 62t-193 61q-44 1 -72 -29t-27 -83h-154q0 135 70 211t186 75q72 0 220 -61q148 -62 192 -62t72 30t28 83h154q0 -135 -70 -211t-186 -76zM666 297q-72 0 -220 61q-148 62 -193 62q-44 0 -72 -30t-27 -83h-154q0 135 70 211t186 76q72 0 220 -62
t192 -61q44 0 72 30t28 83h154q0 -135 -70 -211t-186 -76z" />
    <glyph glyph-name="lessequal.lf" horiz-adv-x="931" 
d="M92 809l758 338v-184l-502 -205l502 -205v-184l-758 338v102zM82 102v174h768v-174h-768z" />
    <glyph glyph-name="greaterequal.lf" horiz-adv-x="931" 
d="M82 1147l758 -338v-102l-758 -338v184l502 205l-502 205v184zM850 276v-174h-768v174h768z" />
    <glyph glyph-name="colon.lf" horiz-adv-x="348" 
d="M287 358q0 -48 -33 -80t-80 -32t-80 33t-33 79t33 80q33 33 80 33t80 -33t33 -80zM287 891q0 -47 -33 -80t-80 -33t-80 33t-33 80t33 80t80 33t80 -33t33 -80z" />
    <glyph glyph-name="a.smcp" horiz-adv-x="1064" 
d="M717 410l-185 512l-184 -512h369zM645 1126l420 -1126h-205l-82 246h-491l-82 -246h-205l420 1126h225z" />
    <glyph glyph-name="agrave.smcp" horiz-adv-x="1064" 
d="M717 410l-185 512l-184 -512h369zM645 1126l420 -1126h-205l-82 246h-491l-82 -246h-205l420 1126h225zM471 1516l123 -246h-123l-174 246h174z" />
    <glyph glyph-name="aacute.smcp" horiz-adv-x="1064" 
d="M717 410l-185 512l-184 -512h369zM645 1126l420 -1126h-205l-82 246h-491l-82 -246h-205l420 1126h225zM471 1270l123 246h174l-174 -246h-123z" />
    <glyph glyph-name="abreve.smcp" horiz-adv-x="1064" 
d="M717 410l-185 512l-184 -512h369zM645 1126l420 -1126h-205l-82 246h-491l-82 -246h-205l420 1126h225zM532 1403q45 0 80 31t43 71h144q-16 -102 -89 -169q-74 -66 -178 -66t-177 66t-89 169h144q8 -41 42 -71t80 -31z" />
    <glyph glyph-name="acircumflex.smcp" horiz-adv-x="1064" 
d="M614 1505l185 -245h-164l-103 143l-102 -143h-164l185 245h163zM717 410l-185 512l-184 -512h369zM645 1126l420 -1126h-205l-82 246h-491l-82 -246h-205l420 1126h225z" />
    <glyph glyph-name="adieresis.smcp" horiz-adv-x="1064" 
d="M819 1403q0 -47 -33 -80q-34 -33 -80 -33t-79 33t-33 80t33 80t80 33t79 -33t33 -80zM471 1403q0 -47 -33 -80t-80 -33q-48 0 -80 33t-32 80t33 80t79 33t80 -33q33 -33 33 -80zM717 410l-185 512l-184 -512h369zM645 1126l420 -1126h-205l-82 246h-491l-82 -246h-205
l420 1126h225z" />
    <glyph glyph-name="amacron.smcp" horiz-adv-x="1064" 
d="M788 1444v-133h-512v133h512zM717 410l-185 512l-184 -512h369zM645 1126l420 -1126h-205l-82 246h-491l-82 -246h-205l420 1126h225z" />
    <glyph glyph-name="aogonek.smcp" horiz-adv-x="1064" 
d="M717 410l-185 512l-184 -512h369zM911 -164q0 -40 27 -66t66 -26l81 10v-102q-51 -10 -121 -10t-123 48t-53 110t18 107q17 46 36 68l18 25l-82 246h-491l-82 -246h-205l420 1126h225l420 -1126h-82q-72 -82 -72 -164z" />
    <glyph glyph-name="aring.smcp" horiz-adv-x="1064" 
d="M717 410l-185 512l-184 -512h369zM645 1126l420 -1126h-205l-82 246h-491l-82 -246h-205l420 1126h225zM707 1413q1 -72 -49 -123t-126 -51t-124 51t-50 123q0 72 50 123t124 51q76 0 126 -51t49 -123zM604 1413q0 33 -20 57t-52 25q-32 0 -51 -25q-20 -26 -20 -58
t20 -56t51 -25q32 1 52 25t20 57z" />
    <glyph glyph-name="atilde.smcp" horiz-adv-x="1064" 
d="M717 410l-185 512l-184 -512h369zM645 1126l420 -1126h-205l-82 246h-491l-82 -246h-205l420 1126h225zM660 1260q-68 0 -109 30t-72 62q-64 64 -117 0q-25 -31 -24 -82h-102q0 119 52 182q52 64 120 64t107 -31q40 -31 72 -62q65 -63 118 0q25 31 24 82h102
q0 -119 -52 -182q-51 -63 -119 -63z" />
    <glyph glyph-name="ae.smcp" horiz-adv-x="1536" 
d="M717 942h-21l-276 -512h297v512zM1434 1126v-184h-523v-266h482v-184h-482v-308h543v-184h-737v246h-389l-133 -246h-215l612 1126h842z" />
    <glyph glyph-name="b.smcp" horiz-adv-x="1064" 
d="M328 942v-266h286q53 0 94 40q40 40 40 93t-40 93t-94 40h-286zM635 492h-307v-308h307q68 0 116 46t48 108t-48 108t-116 46zM952 840q0 -170 -153 -246q23 -6 64 -32q42 -26 69 -54q28 -28 50 -80q22 -51 22 -111q0 -133 -102 -225t-267 -92h-502v1126h481
q158 0 248 -80t90 -206z" />
    <glyph glyph-name="c.smcp" horiz-adv-x="1198" 
d="M635 963q-147 0 -258 -117t-111 -283q0 -167 111 -283t258 -116q227 0 317 235h195q-33 -169 -173 -289t-355 -120t-381 168t-166 406t166 405q166 168 381 168t355 -120t173 -290h-195q-90 236 -317 236z" />
    <glyph glyph-name="cacute.smcp" horiz-adv-x="1198" 
d="M541 1270l123 246h174l-174 -246h-123zM635 963q-147 0 -258 -117t-111 -283q0 -167 111 -283t258 -116q227 0 317 235h195q-33 -169 -173 -289t-355 -120t-381 168t-166 406t166 405q166 168 381 168t355 -120t173 -290h-195q-90 236 -317 236z" />
    <glyph glyph-name="ccaron.smcp" horiz-adv-x="1198" 
d="M874 1505l-184 -245h-164l-184 245h164l102 -143l103 143h163zM635 963q-147 0 -258 -117t-111 -283q0 -167 111 -283t258 -116q227 0 317 235h195q-33 -169 -173 -289t-355 -120t-381 168t-166 406t166 405q166 168 381 168t355 -120t173 -290h-195q-90 236 -317 236z
" />
    <glyph glyph-name="ccedilla.smcp" horiz-adv-x="1198" 
d="M635 963q-147 0 -258 -117t-111 -283q0 -167 111 -283t258 -116q227 0 317 235h195q-31 -165 -150 -275t-295 -130l-36 -76q55 -8 89 -44q33 -36 33 -94t-49 -98t-145 -40l-92 10v92q41 -10 83 -10q43 0 67 18t24 43t-25 43t-67 19l-52 -11l60 146q-217 16 -369 181
q-151 165 -151 397t166 399q166 168 381 168t355 -120t173 -290h-195q-90 236 -317 236z" />
    <glyph glyph-name="ccircumflex.smcp" horiz-adv-x="1198" 
d="M690 1505l184 -245h-163l-103 143l-102 -143h-164l184 245h164zM635 963q-147 0 -258 -117t-111 -283q0 -167 111 -283t258 -116q227 0 317 235h195q-33 -169 -173 -289t-355 -120t-381 168t-166 406t166 405q166 168 381 168t355 -120t173 -290h-195q-90 236 -317 236z
" />
    <glyph glyph-name="d.smcp" horiz-adv-x="1116" 
d="M1055 563q0 -233 -167 -398t-417 -165h-338v1126h338q250 0 417 -165t167 -398zM328 184h143q168 0 279 109q110 109 110 271t-110 270q-111 109 -279 108h-143v-758z" />
    <glyph glyph-name="dcaron.smcp" horiz-adv-x="1116" 
d="M1055 563q0 -233 -167 -398t-417 -165h-338v1126h338q250 0 417 -165t167 -398zM328 184h143q168 0 279 109q110 109 110 271t-110 270q-111 109 -279 108h-143v-758zM823 1505l-184 -245h-164l-184 245h164l102 -143l102 143h164z" />
    <glyph glyph-name="dcroat.smcp" horiz-adv-x="1157" 
d="M369 184h143q168 0 279 109t111 271t-111 270q-111 109 -279 108h-143v-307h215v-164h-215v-287zM1096 563q0 -233 -167 -398t-417 -165h-338v471h-143v164h143v491h338q250 0 417 -165t167 -398z" />
    <glyph glyph-name="eth.smcp" horiz-adv-x="1157" 
d="M369 184h143q168 0 279 109t111 271t-111 270q-111 109 -279 108h-143v-307h215v-164h-215v-287zM1096 563q0 -233 -167 -398t-417 -165h-338v471h-143v164h143v491h338q250 0 417 -165t167 -398z" />
    <glyph glyph-name="e.smcp" horiz-adv-x="1003" 
d="M328 184h594v-184h-789v1126h768v-184h-573v-266h532v-184h-532v-308z" />
    <glyph glyph-name="eacute.smcp" horiz-adv-x="1003" 
d="M451 1270l122 246h175l-175 -246h-122zM328 184h594v-184h-789v1126h768v-184h-573v-266h532v-184h-532v-308z" />
    <glyph glyph-name="ecaron.smcp" horiz-adv-x="1003" 
d="M778 1505l-184 -245h-164l-184 245h164l102 -143l102 143h164zM328 184h594v-184h-789v1126h768v-184h-573v-266h532v-184h-532v-308z" />
    <glyph glyph-name="ecircumflex.smcp" horiz-adv-x="1003" 
d="M594 1505l184 -245h-164l-102 143l-102 -143h-164l184 245h164zM328 184h594v-184h-789v1126h768v-184h-573v-266h532v-184h-532v-308z" />
    <glyph glyph-name="edieresis.smcp" horiz-adv-x="1003" 
d="M799 1403q0 -47 -33 -80t-80 -33t-80 33t-33 80t33 80t80 33t80 -33t33 -80zM451 1403q0 -47 -33 -80t-80 -33t-80 33t-33 80t33 80t80 33t80 -33t33 -80zM328 184h594v-184h-789v1126h768v-184h-573v-266h532v-184h-532v-308z" />
    <glyph glyph-name="edotaccent.smcp" horiz-adv-x="1003" 
d="M625 1403q0 -47 -34 -80t-79 -33t-79 33t-34 80t34 80t79 33t79 -33t34 -80zM328 184h594v-184h-789v1126h768v-184h-573v-266h532v-184h-532v-308z" />
    <glyph glyph-name="egrave.smcp" horiz-adv-x="1003" 
d="M492 1516l122 -246h-122l-175 246h175zM328 184h594v-184h-789v1126h768v-184h-573v-266h532v-184h-532v-308z" />
    <glyph glyph-name="emacron.smcp" horiz-adv-x="1003" 
d="M768 1444v-133h-512v133h512zM328 184h594v-184h-789v1126h768v-184h-573v-266h532v-184h-532v-308z" />
    <glyph glyph-name="eogonek.smcp" horiz-adv-x="1003" 
d="M133 0v1126h768v-184h-573v-266h532v-184h-532v-308h594v-184q-72 -82 -72 -164q0 -40 27 -66t65 -26l82 10v-102q-52 -10 -122 -10t-123 48q-52 48 -52 110q0 114 53 175l19 25h-666z" />
    <glyph glyph-name="f.smcp" horiz-adv-x="931" 
d="M328 0h-195v1126h758v-184h-563v-307h460v-184h-460v-451z" />
    <glyph glyph-name="g.smcp" horiz-adv-x="1269" 
d="M645 410v184h512v-594h-133l-31 143q-12 -18 -69 -64q-57 -45 -143 -67q-85 -22 -156 -22q-225 0 -389 169t-164 405t166 405q166 168 397 168q197 0 333 -110t169 -259h-195q-35 80 -115 137t-192 58q-147 0 -258 -117t-111 -283q0 -167 111 -283t247 -116t224 74
t104 172h-307z" />
    <glyph glyph-name="gbreve.smcp" horiz-adv-x="1269" 
d="M614 1403q45 0 80 31t43 71h144q-16 -102 -89 -169q-74 -66 -178 -66t-177 66t-89 169h144q8 -41 42 -71t80 -31zM645 410v184h512v-594h-133l-31 143q-12 -18 -69 -64q-57 -45 -143 -67q-85 -22 -156 -22q-225 0 -389 169t-164 405t166 405q166 168 397 168
q197 0 333 -110t169 -259h-195q-35 80 -115 137t-192 58q-147 0 -258 -117t-111 -283q0 -167 111 -283t247 -116t224 74t104 172h-307z" />
    <glyph glyph-name="gcommaaccent.smcp" horiz-adv-x="1269" 
d="M645 -133q47 0 80 -35t33 -89t-20 -113t-67 -103q-47 -45 -77 -59l-31 40q72 51 92 134q-53 0 -88 32t-35 79q0 46 33 80t80 34zM645 410v184h512v-594h-133l-31 143q-12 -18 -69 -64q-57 -45 -143 -67q-85 -22 -156 -22q-225 0 -389 169t-164 405t166 405
q166 168 397 168q197 0 333 -110t169 -259h-195q-35 80 -115 137t-192 58q-147 0 -258 -117t-111 -283q0 -167 111 -283t247 -116t224 74t104 172h-307z" />
    <glyph glyph-name="h.smcp" horiz-adv-x="1167" 
d="M133 1126h195v-450h512v450h194v-1126h-194v492h-512v-492h-195v1126z" />
    <glyph glyph-name="i.smcp" horiz-adv-x="460" 
d="M328 1126v-1126h-195v1126h195z" />
    <glyph glyph-name="iacute.smcp" horiz-adv-x="460" 
d="M164 1270l123 246h174l-174 -246h-123zM328 1126v-1126h-195v1126h195z" />
    <glyph glyph-name="icircumflex.smcp" horiz-adv-x="460" 
d="M307 1505l185 -245h-164l-103 143l-102 -143h-164l184 245h164zM328 1126v-1126h-195v1126h195z" />
    <glyph glyph-name="idieresis.smcp" horiz-adv-x="460" 
d="M512 1403q0 -47 -33 -80t-80 -33t-80 33t-32 80q0 47 32 80q33 33 80 33t80 -33t33 -80zM164 1403q0 -47 -33 -80t-80 -33t-80 33t-32 80q0 47 32 80q33 33 80 33t80 -33t33 -80zM328 1126v-1126h-195v1126h195z" />
    <glyph glyph-name="igrave.smcp" horiz-adv-x="460" 
d="M164 1516l123 -246h-123l-174 246h174zM328 1126v-1126h-195v1126h195z" />
    <glyph glyph-name="dotlessi.smcp" horiz-adv-x="460" 
d="M348 1403q0 -47 -33 -80t-79 -33t-80 33q-33 33 -33 80t33 80t80 33q48 0 80 -33t32 -80zM328 1126v-1126h-195v1126h195z" />
    <glyph glyph-name="imacron.smcp" horiz-adv-x="460" 
d="M481 1444v-133h-512v133h512zM328 1126v-1126h-195v1126h195z" />
    <glyph glyph-name="iogonek.smcp" horiz-adv-x="460" 
d="M133 1126h195v-1126h-72q-72 -82 -72 -164q0 -40 27 -66t65 -26l82 10v-102q-52 -10 -122 -10t-122 48t-52 110t18 107q18 46 35 68l18 25v1126z" />
    <glyph glyph-name="j.smcp" horiz-adv-x="921" 
d="M604 1126h195v-737q0 -176 -110 -288q-111 -111 -281 -111t-279 102t-109 246h195q0 -72 52 -118t143 -46q195 0 194 215v737z" />
    <glyph glyph-name="k.smcp" horiz-adv-x="983" 
d="M328 0h-195v1126h195v-512l420 512h225l-461 -553l492 -573h-236l-440 522v-522z" />
    <glyph glyph-name="kcommaaccent.smcp" horiz-adv-x="983" 
d="M513 -133q46 0 79 -35t33 -89t-20 -113t-67 -103q-47 -45 -77 -59l-31 40q72 51 92 134q-53 0 -88 32t-35 79q0 46 34 80t80 34zM328 0h-195v1126h195v-512l420 512h225l-461 -553l492 -573h-236l-440 522v-522z" />
    <glyph glyph-name="l.smcp" horiz-adv-x="911" 
d="M328 184h553v-184h-748v1126h195v-942z" />
    <glyph glyph-name="lacute.smcp" horiz-adv-x="911" 
d="M328 184h553v-184h-748v1126h195v-942zM164 1270l123 246h174l-174 -246h-123z" />
    <glyph glyph-name="lcaron.smcp" horiz-adv-x="911" 
d="M328 184h553v-184h-748v1126h195v-942zM430 860l102 266h185l-164 -266h-123z" />
    <glyph glyph-name="lcommaaccent.smcp" horiz-adv-x="911" 
d="M513 -133q46 0 79 -35t33 -89t-20 -113t-67 -103q-47 -45 -77 -59l-31 40q72 51 92 134q-53 0 -88 32t-35 79q0 46 34 80t80 34zM328 184h553v-184h-748v1126h195v-942z" />
    <glyph glyph-name="lslash.smcp" horiz-adv-x="942" 
d="M164 1126h194v-501l256 153v-184l-256 -154v-256h553v-184h-747v328l-133 -82v184l133 82v614z" />
    <glyph glyph-name="m.smcp" horiz-adv-x="1433" 
d="M328 0h-195v1126h215l369 -798l368 798h215v-1126h-194v737l-338 -737h-102l-338 737v-737z" />
    <glyph glyph-name="n.smcp" horiz-adv-x="1187" 
d="M860 1126h195v-1126h-185l-542 778v-778h-195v1126h184l543 -778v778z" />
    <glyph glyph-name="nacute.smcp" horiz-adv-x="1187" 
d="M492 1270l122 246h174l-174 -246h-122zM860 1126h195v-1126h-185l-542 778v-778h-195v1126h184l543 -778v778z" />
    <glyph glyph-name="ncaron.smcp" horiz-adv-x="1187" 
d="M860 1505l-184 -245h-164l-184 245h164l102 -143l102 143h164zM860 1126h195v-1126h-185l-542 778v-778h-195v1126h184l543 -778v778z" />
    <glyph glyph-name="ncommaaccent.smcp" horiz-adv-x="1187" 
d="M604 -133q47 0 80 -35t33 -89t-20 -113t-67 -103q-47 -45 -77 -59l-31 40q72 51 92 134q-53 0 -88 32q-34 32 -34 79q0 46 32 80q33 34 80 34zM860 1126h195v-1126h-185l-542 778v-778h-195v1126h184l543 -778v778z" />
    <glyph glyph-name="ntilde.smcp" horiz-adv-x="1187" 
d="M722 1260q-68 0 -110 30t-72 62q-30 30 -61 30t-55 -30t-25 -82h-102q0 119 52 182q51 64 119 64t108 -31t72 -62q66 -65 118 0q25 31 25 82h102q0 -119 -52 -182q-51 -63 -119 -63zM860 1126h195v-1126h-185l-542 778v-778h-195v1126h184l543 -778v778z" />
    <glyph glyph-name="o.smcp" horiz-adv-x="1269" 
d="M1198 563q0 -237 -166 -405t-397 -168t-397 168t-166 406t166 405q166 168 397 168t397 -168t166 -406zM1004 563q0 166 -111 283t-258 117t-258 -117t-111 -283q0 -167 111 -283t258 -116t258 116t111 283z" />
    <glyph glyph-name="oacute.smcp" horiz-adv-x="1269" 
d="M582 1270l123 246h174l-174 -246h-123zM1198 563q0 -237 -166 -405t-397 -168t-397 168t-166 406t166 405q166 168 397 168t397 -168t166 -406zM1004 563q0 166 -111 283t-258 117t-258 -117t-111 -283q0 -167 111 -283t258 -116t258 116t111 283z" />
    <glyph glyph-name="ocircumflex.smcp" horiz-adv-x="1269" 
d="M717 1505l184 -245h-164l-102 143l-103 -143h-163l184 245h164zM1198 563q0 -237 -166 -405t-397 -168t-397 168t-166 406t166 405q166 168 397 168t397 -168t166 -406zM1004 563q0 166 -111 283t-258 117t-258 -117t-111 -283q0 -167 111 -283t258 -116t258 116t111 283
z" />
    <glyph glyph-name="odieresis.smcp" horiz-adv-x="1269" 
d="M922 1403q0 -47 -33 -80t-80 -33t-80 33t-33 80t33 80t80 33t80 -33t33 -80zM573 1403q-1 -47 -33 -80t-79 -33t-80 33t-33 80t33 80t80 33t79 -33t33 -80zM1198 563q0 -237 -166 -405t-397 -168t-397 168t-166 406t166 405q166 168 397 168t397 -168t166 -406zM1004 563
q0 166 -111 283t-258 117t-258 -117t-111 -283q0 -167 111 -283t258 -116t258 116t111 283z" />
    <glyph glyph-name="ograve.smcp" horiz-adv-x="1269" 
d="M565 1516l123 -246h-123l-174 246h174zM1198 563q0 -237 -166 -405t-397 -168t-397 168t-166 406t166 405q166 168 397 168t397 -168t166 -406zM1004 563q0 166 -111 283t-258 117t-258 -117t-111 -283q0 -167 111 -283t258 -116t258 116t111 283z" />
    <glyph glyph-name="ohungarumlaut.smcp" horiz-adv-x="1269" 
d="M696 1270l133 246h175l-185 -246h-123zM410 1270l133 246h174l-185 -246h-122zM1198 563q0 -237 -166 -405t-397 -168t-397 168t-166 406t166 405q166 168 397 168t397 -168t166 -406zM1004 563q0 166 -111 283t-258 117t-258 -117t-111 -283q0 -167 111 -283t258 -116
t258 116t111 283z" />
    <glyph glyph-name="omacron.smcp" horiz-adv-x="1269" 
d="M891 1444v-133h-512v133h512zM1198 563q0 -237 -166 -405t-397 -168t-397 168t-166 406t166 405q166 168 397 168t397 -168t166 -406zM1004 563q0 166 -111 283t-258 117t-258 -117t-111 -283q0 -167 111 -283t258 -116t258 116t111 283z" />
    <glyph glyph-name="oslash.smcp" horiz-adv-x="1269" 
d="M637 164q145 0 256 117t111 282q0 108 -25 158l-6 16l-553 -501q72 -72 217 -72zM633 963q-145 0 -256 -117t-111 -283q0 -113 25 -157l6 -17l553 502q-72 72 -217 72zM635 1137q96 0 183 -31t126 -62l39 -30l102 92l134 -133l-113 -103q34 -47 63 -138t29 -169
q0 -237 -166 -405t-397 -168q-96 0 -183 30t-126 62l-39 31l-103 -93l-133 134l113 102q-33 47 -63 138q-30 92 -29 169q0 238 166 406t397 168z" />
    <glyph glyph-name="otilde.smcp" horiz-adv-x="1269" 
d="M762 1260q-68 0 -108 30q-42 30 -72 62q-30 30 -62 30t-56 -30t-24 -82h-102q0 119 52 182q52 64 120 64t107 -31q40 -31 72 -62q66 -64 118 0q25 31 24 82h103q0 -119 -52 -182t-120 -63zM1198 563q0 -237 -166 -405t-397 -168t-397 168t-166 406t166 405
q166 168 397 168t397 -168t166 -406zM1004 563q0 166 -111 283t-258 117t-258 -117t-111 -283q0 -167 111 -283t258 -116t258 116t111 283z" />
    <glyph glyph-name="oe.smcp" horiz-adv-x="1587" 
d="M266 563q0 -169 112 -279t288 -110h92v778h-92q-176 0 -288 -110t-112 -279zM952 184h553v-184h-839q-258 0 -426 162t-168 402t168 401q168 162 426 161h819v-184h-533v-266h492v-184h-492v-308z" />
    <glyph glyph-name="p.smcp" horiz-adv-x="1013" 
d="M328 573h225q90 -1 147 53t58 132q0 78 -58 131t-147 53h-225v-369zM133 1126h420q166 0 283 -110q116 -110 116 -258q0 -147 -116 -258t-283 -111h-225v-389h-195v1126z" />
    <glyph glyph-name="q.smcp" horiz-adv-x="1269" 
d="M1004 574q0 154 -111 272q-111 117 -258 117t-258 -117t-111 -283q0 -167 111 -283t258 -116q99 0 164 37l20 14l-133 133l113 113l133 -133q72 92 72 246zM1198 563q0 -100 -34 -192t-66 -133l-33 -43l143 -144l-112 -112l-144 143q-47 -34 -141 -63q-94 -30 -176 -29
q-231 0 -397 168t-166 406t166 405q166 168 397 168t397 -168t166 -406z" />
    <glyph glyph-name="r.smcp" horiz-adv-x="1064" 
d="M328 410v-410h-195v1126h451q166 0 278 -105t111 -253q0 -166 -146 -272q-33 -25 -57 -35l-22 -10l276 -451h-215l-246 410h-235zM328 942v-348h256q90 0 142 48t52 126t-52 126t-142 48h-256z" />
    <glyph glyph-name="racute.smcp" horiz-adv-x="1064" 
d="M451 1270l122 246h175l-175 -246h-122zM328 410v-410h-195v1126h451q166 0 278 -105t111 -253q0 -166 -146 -272q-33 -25 -57 -35l-22 -10l276 -451h-215l-246 410h-235zM328 942v-348h256q90 0 142 48t52 126t-52 126t-142 48h-256z" />
    <glyph glyph-name="rcaron.smcp" horiz-adv-x="1064" 
d="M778 1505l-184 -245h-164l-184 245h164l102 -143l102 143h164zM328 410v-410h-195v1126h451q166 0 278 -105t111 -253q0 -166 -146 -272q-33 -25 -57 -35l-22 -10l276 -451h-215l-246 410h-235zM328 942v-348h256q90 0 142 48t52 126t-52 126t-142 48h-256z" />
    <glyph glyph-name="rcommaaccent.smcp" horiz-adv-x="1064" 
d="M543 -133q47 0 80 -35q59 -62 16 -191q-23 -69 -90 -133q-27 -25 -57 -40l-31 40q72 51 92 134q-53 0 -88 32t-35 79q0 46 33 80t80 34zM328 410v-410h-195v1126h451q166 0 278 -105t111 -253q0 -166 -146 -272q-33 -25 -57 -35l-22 -10l276 -451h-215l-246 410h-235z
M328 942v-348h256q90 0 142 48t52 126t-52 126t-142 48h-256z" />
    <glyph glyph-name="s.smcp" horiz-adv-x="942" 
d="M92 837q0 119 104 209t280 91q174 -1 280 -95t114 -243h-194q-8 71 -62 117t-140 46q-85 0 -131 -37t-46 -91q0 -99 155 -139t285 -106q66 -34 110 -104t44 -168q-1 -143 -107 -235t-296 -92t-301 96q-110 96 -126 262h195q33 -184 236 -184q96 0 145 41t49 108t-61 107
t-149 66q-88 24 -174 57t-148 104t-62 190z" />
    <glyph glyph-name="sacute.smcp" horiz-adv-x="942" 
d="M410 1270l122 246h175l-175 -246h-122zM92 837q0 119 104 209t280 91q174 -1 280 -95t114 -243h-194q-8 71 -62 117t-140 46q-85 0 -131 -37t-46 -91q0 -99 155 -139t285 -106q66 -34 110 -104t44 -168q-1 -143 -107 -235t-296 -92t-301 96q-110 96 -126 262h195
q33 -184 236 -184q96 0 145 41t49 108t-61 107t-149 66q-88 24 -174 57t-148 104t-62 190z" />
    <glyph glyph-name="scaron.smcp" horiz-adv-x="942" 
d="M748 1505l-185 -245h-164l-184 245h164l102 -143l103 143h164zM92 837q0 119 104 209t280 91q174 -1 280 -95t114 -243h-194q-8 71 -62 117t-140 46q-85 0 -131 -37t-46 -91q0 -99 155 -139t285 -106q66 -34 110 -104t44 -168q-1 -143 -107 -235t-296 -92t-301 96
q-110 96 -126 262h195q33 -184 236 -184q96 0 145 41t49 108t-61 107t-149 66q-88 24 -174 57t-148 104t-62 190z" />
    <glyph glyph-name="scedilla.smcp" horiz-adv-x="942" 
d="M92 837q0 119 104 209t280 91q174 -1 280 -95t114 -243h-194q-8 71 -62 117t-140 46q-85 0 -131 -37t-46 -91q0 -99 155 -139t285 -106q66 -34 110 -104t44 -168q0 -133 -90 -222t-252 -103l-37 -74q55 -8 89 -44t34 -94t-49 -98t-146 -40l-92 10v92q41 -10 83 -10t67 18
t24 43q0 25 -24 43q-25 18 -68 19l-51 -11l59 146q-170 14 -266 108t-111 248h195q33 -184 236 -184q96 0 145 41t49 108t-61 107t-149 66q-88 24 -174 57t-148 104t-62 190z" />
    <glyph glyph-name="scommaaccent.smcp" horiz-adv-x="942" 
d="M493 -133q47 0 79 -35t32 -89t-19 -112t-68 -104q-48 -45 -77 -59l-30 40q72 51 92 134q-53 0 -88 32t-35 79q0 46 34 80t80 34zM92 837q0 119 104 209t280 91q174 -1 280 -95t114 -243h-194q-8 71 -62 117t-140 46q-85 0 -131 -37t-46 -91q0 -99 155 -139t285 -106
q66 -34 110 -104t44 -168q-1 -143 -107 -235t-296 -92t-301 96q-110 96 -126 262h195q33 -184 236 -184q96 0 145 41t49 108t-61 107t-149 66q-88 24 -174 57t-148 104t-62 190z" />
    <glyph glyph-name="t.smcp" horiz-adv-x="952" 
d="M31 942v184h891v-184h-349v-942h-194v942h-348z" />
    <glyph glyph-name="tcaron.smcp" horiz-adv-x="952" 
d="M737 1505l-184 -245h-164l-184 245h164l102 -143l102 143h164zM31 942v184h891v-184h-349v-942h-194v942h-348z" />
    <glyph glyph-name="tcommaaccent.smcp" horiz-adv-x="952" 
d="M481 -133q47 0 80 -35t33 -89q0 -110 -56 -180q-56 -69 -108 -95l-31 40q72 51 93 134q-53 0 -89 32q-35 33 -35 79t33 80t80 34zM31 942v184h891v-184h-349v-942h-194v942h-348z" />
    <glyph glyph-name="uni021B.smcp" horiz-adv-x="952" 
d="M481 -133q47 0 80 -35t33 -89q0 -110 -56 -180q-56 -69 -108 -95l-31 40q72 51 93 134q-53 0 -89 32q-35 33 -35 79t33 80t80 34zM31 942v184h891v-184h-349v-942h-194v942h-348z" />
    <glyph glyph-name="u.smcp" horiz-adv-x="1167" 
d="M584 -10q-199 0 -330 130t-131 331v675h194v-675q0 -129 72 -203t195 -74q122 0 194 74t72 203v675h194v-675q0 -201 -130 -331t-330 -130z" />
    <glyph glyph-name="uacute.smcp" horiz-adv-x="1167" 
d="M492 1270l122 246h174l-174 -246h-122zM584 -10q-199 0 -330 130t-131 331v675h194v-675q0 -129 72 -203t195 -74q122 0 194 74t72 203v675h194v-675q0 -201 -130 -331t-330 -130z" />
    <glyph glyph-name="ucircumflex.smcp" horiz-adv-x="1167" 
d="M666 1505l184 -245h-164l-102 143l-103 -143h-164l185 245h164zM584 -10q-199 0 -330 130t-131 331v675h194v-675q0 -129 72 -203t195 -74q122 0 194 74t72 203v675h194v-675q0 -201 -130 -331t-330 -130z" />
    <glyph glyph-name="udieresis.smcp" horiz-adv-x="1167" 
d="M870 1403q0 -47 -34 -80t-78 -33q-45 0 -79 33t-34 80t34 80t79 33q44 0 78 -33t34 -80zM522 1403q0 -47 -34 -80t-78 -33t-79 33q-34 33 -34 80t34 80t79 33q44 0 78 -33t34 -80zM584 -10q-199 0 -330 130t-131 331v675h194v-675q0 -129 72 -203t195 -74q122 0 194 74
t72 203v675h194v-675q0 -201 -130 -331t-330 -130z" />
    <glyph glyph-name="ugrave.smcp" horiz-adv-x="1167" 
d="M532 1516l123 -246h-123l-174 246h174zM584 -10q-199 0 -330 130t-131 331v675h194v-675q0 -129 72 -203t195 -74q122 0 194 74t72 203v675h194v-675q0 -201 -130 -331t-330 -130z" />
    <glyph glyph-name="uhungarumlaut.smcp" horiz-adv-x="1167" 
d="M655 1270l133 246h175l-185 -246h-123zM369 1270l133 246h174l-184 -246h-123zM584 -10q-199 0 -330 130t-131 331v675h194v-675q0 -129 72 -203t195 -74q122 0 194 74t72 203v675h194v-675q0 -201 -130 -331t-330 -130z" />
    <glyph glyph-name="umacron.smcp" horiz-adv-x="1167" 
d="M840 1454v-133h-512v133h512zM584 -10q-199 0 -330 130t-131 331v675h194v-675q0 -129 72 -203t195 -74q122 0 194 74t72 203v675h194v-675q0 -201 -130 -331t-330 -130z" />
    <glyph glyph-name="uogonek.smcp" horiz-adv-x="1167" 
d="M1044 451q0 -179 -106 -305t-276 -150q-68 -80 -68 -160q0 -40 27 -66t65 -26l82 10v-102q-52 -10 -122 -10t-123 48q-52 48 -52 131t64 171q-180 16 -296 144t-116 315v675h194v-675q0 -129 72 -203t195 -74q122 0 194 74t72 203v675h194v-675z" />
    <glyph glyph-name="uring.smcp" horiz-adv-x="1167" 
d="M758 1413q0 -72 -49 -123t-125 -51t-125 51t-49 123t49 123t125 51t125 -51t49 -123zM655 1413q0 33 -20 57t-51 25q-32 0 -52 -25q-20 -26 -20 -58t20 -56t52 -25q32 1 51 25q20 24 20 57zM584 -10q-199 0 -330 130t-131 331v675h194v-675q0 -129 72 -203t195 -74
q122 0 194 74t72 203v675h194v-675q0 -201 -130 -331t-330 -130z" />
    <glyph glyph-name="v.smcp" horiz-adv-x="1064" 
d="M1044 1126l-399 -1126h-225l-400 1126h205l307 -880l308 880h204z" />
    <glyph glyph-name="w.smcp" horiz-adv-x="1536" 
d="M686 1126h164l235 -819l226 819h205l-328 -1126h-184l-236 819l-236 -819h-184l-328 1126h205l226 -819z" />
    <glyph glyph-name="x.smcp" horiz-adv-x="1003" 
d="M502 430l-266 -430h-226l369 573l-348 553h225l246 -409l246 409h225l-348 -553l368 -573h-225z" />
    <glyph glyph-name="y.smcp" horiz-adv-x="1034" 
d="M614 0h-194v430l-400 696h226l266 -501h10l266 501h226l-400 -696v-430z" />
    <glyph glyph-name="yacute.smcp" horiz-adv-x="1034" 
d="M451 1270l122 246h175l-175 -246h-122zM614 0h-194v430l-400 696h226l266 -501h10l266 501h226l-400 -696v-430z" />
    <glyph glyph-name="ydieresis.smcp" horiz-adv-x="1034" 
d="M799 1403q0 -47 -33 -80t-80 -33t-80 33t-33 80t33 80t80 33t80 -33t33 -80zM451 1403q0 -47 -33 -80t-80 -33t-80 33t-33 80t33 80t80 33t80 -33t33 -80zM614 0h-194v430l-400 696h226l266 -501h10l266 501h226l-400 -696v-430z" />
    <glyph glyph-name="z.smcp" horiz-adv-x="942" 
d="M82 942v184h788v-153l-563 -789h584v-184h-840v154l563 788h-532z" />
    <glyph glyph-name="zacute.smcp" horiz-adv-x="942" 
d="M410 1270l122 246h175l-175 -246h-122zM82 942v184h788v-153l-563 -789h584v-184h-840v154l563 788h-532z" />
    <glyph glyph-name="zcaron.smcp" horiz-adv-x="942" 
d="M748 1505l-185 -245h-164l-184 245h164l102 -143l103 143h164zM82 942v184h788v-153l-563 -789h584v-184h-840v154l563 788h-532z" />
    <glyph glyph-name="zdotaccent.smcp" horiz-adv-x="942" 
d="M604 1403q0 -47 -34 -80t-78 -33t-79 33q-34 33 -34 80t34 80t79 33q44 0 78 -33t34 -80zM82 942v184h788v-153l-563 -789h584v-184h-840v154l563 788h-532z" />
    <glyph glyph-name="thorn.smcp" horiz-adv-x="1136" 
d="M328 389h338q84 0 144 58q60 59 60 141t-56 136t-148 54h-338v-389zM133 1126h195v-163h338q168 0 284 -112q116 -111 115 -267q0 -156 -116 -268t-283 -111h-338v-205h-195v1126z" />
    <glyph glyph-name="germandbls.smcp" horiz-adv-x="1126" 
d="M1055 330q1 -130 -103 -230t-256 -100h-153v184h153q76 0 120 42t44 112t-44 112t-120 42h-133v163l195 287h-246q-184 0 -184 -174v-768h-195v768q-1 156 105 257t274 101h481v-153l-205 -307q106 -25 186 -115t81 -221z" />
    <glyph glyph-name="uni1E9E.smcp" horiz-adv-x="1126" 
d="M1055 330q1 -130 -103 -230t-256 -100h-153v184h153q76 0 120 42t44 112t-44 112t-120 42h-133v163l195 287h-246q-184 0 -184 -174v-768h-195v768q-1 156 105 257t274 101h481v-153l-205 -307q106 -25 186 -115t81 -221z" />
    <glyph glyph-name="afii10065.smcp" horiz-adv-x="1064" 
d="M717 410l-185 512l-184 -512h369zM645 1126l420 -1126h-205l-82 246h-491l-82 -246h-205l420 1126h225z" />
    <glyph glyph-name="afii10066.smcp" horiz-adv-x="1044" 
d="M614 512h-286v-328h286q70 0 117 47t47 117t-47 117t-117 47zM133 0v1126h768v-184h-573v-246h286q152 0 260 -104t109 -244q0 -140 -109 -244t-260 -104h-481z" />
    <glyph glyph-name="afii10067.smcp" horiz-adv-x="1064" 
d="M328 942v-266h286q53 0 94 40q40 40 40 93t-40 93t-94 40h-286zM635 492h-307v-308h307q68 0 116 46t48 108t-48 108t-116 46zM952 840q0 -170 -153 -246q23 -6 64 -32q42 -26 69 -54q28 -28 50 -80q22 -51 22 -111q0 -133 -102 -225t-267 -92h-502v1126h481
q158 0 248 -80t90 -206z" />
    <glyph glyph-name="afii10068.smcp" horiz-adv-x="870" 
d="M850 942h-522v-942h-195v1126h717v-184z" />
    <glyph glyph-name="afii10069.smcp" horiz-adv-x="1157" 
d="M788 184v758h-348l-71 -563q-8 -63 -31 -113t-41 -65l-18 -17h509zM-10 -236v420h71q11 6 27 18t47 63q31 50 39 114l92 747h717v-942h133v-420h-194v236h-738v-236h-194z" />
    <glyph glyph-name="afii10070.smcp" horiz-adv-x="1003" 
d="M328 184h594v-184h-789v1126h768v-184h-573v-266h532v-184h-532v-308z" />
    <glyph glyph-name="afii10071.smcp" horiz-adv-x="1003" 
d="M799 1403q0 -47 -33 -80t-80 -33t-80 33t-33 80t33 80t80 33t80 -33t33 -80zM451 1403q0 -47 -33 -80t-80 -33t-80 33t-33 80t33 80t80 33t80 -33t33 -80zM328 184h594v-184h-789v1126h768v-184h-573v-266h532v-184h-532v-308z" />
    <glyph glyph-name="afii10072.smcp" horiz-adv-x="1423" 
d="M809 0h-195v502l-399 -502h-235l471 573l-441 553h226l378 -481v481h195v-481l379 481h225l-440 -553l471 -573h-236l-399 502v-502z" />
    <glyph glyph-name="afii10073.smcp" horiz-adv-x="972" 
d="M870 829q0 -86 -44 -147t-87 -80l-43 -18q29 -7 68 -30q40 -23 66 -51t49 -80t22 -116q0 -129 -115 -223t-303 -94t-302 98t-130 250h195q16 -74 78 -124t158 -50q95 0 155 49q59 49 59 115t-59 114t-156 50h-112v163h112q82 0 133 44t52 110q0 66 -52 110t-136 44
t-140 -44t-72 -110h-194q25 137 136 232q112 95 282 95t274 -88q106 -89 106 -219z" />
    <glyph glyph-name="afii10074.smcp" horiz-adv-x="1187" 
d="M1055 0h-195v799l-553 -799h-174v1126h195v-798l553 798h174v-1126z" />
    <glyph glyph-name="afii10075.smcp" horiz-adv-x="1187" 
d="M1055 0h-195v799l-553 -799h-174v1126h195v-798l553 798h174v-1126zM594 1260q-104 0 -177 66t-89 169h143q8 -47 43 -80t80 -33t80 33t43 80h143q-16 -103 -89 -169t-177 -66z" />
    <glyph glyph-name="afii10076.smcp" horiz-adv-x="983" 
d="M328 0h-195v1126h195v-512l420 512h225l-461 -553l492 -573h-236l-440 522v-522z" />
    <glyph glyph-name="afii10077.smcp" horiz-adv-x="1146" 
d="M1014 1126v-1126h-195v942h-368l-52 -573q-16 -179 -102 -279t-205 -100l-102 10v174h51q150 0 164 195l61 757h748z" />
    <glyph glyph-name="afii10078.smcp" horiz-adv-x="1433" 
d="M328 0h-195v1126h215l369 -798l368 798h215v-1126h-194v737l-338 -737h-102l-338 737v-737z" />
    <glyph glyph-name="afii10079.smcp" horiz-adv-x="1167" 
d="M133 1126h195v-450h512v450h194v-1126h-194v492h-512v-492h-195v1126z" />
    <glyph glyph-name="afii10080.smcp" horiz-adv-x="1269" 
d="M1198 563q0 -237 -166 -405t-397 -168t-397 168t-166 406t166 405q166 168 397 168t397 -168t166 -406zM1004 563q0 166 -111 283t-258 117t-258 -117t-111 -283q0 -167 111 -283t258 -116t258 116t111 283z" />
    <glyph glyph-name="afii10081.smcp" horiz-adv-x="1167" 
d="M133 1126h901v-1126h-194v942h-512v-942h-195v1126z" />
    <glyph glyph-name="afii10082.smcp" horiz-adv-x="1013" 
d="M328 573h225q90 -1 147 53t58 132q0 78 -58 131t-147 53h-225v-369zM133 1126h420q166 0 283 -110q116 -110 116 -258q0 -147 -116 -258t-283 -111h-225v-389h-195v1126z" />
    <glyph glyph-name="afii10083.smcp" horiz-adv-x="1198" 
d="M635 963q-147 0 -258 -117t-111 -283q0 -167 111 -283t258 -116q227 0 317 235h195q-33 -169 -173 -289t-355 -120t-381 168t-166 406t166 405q166 168 381 168t355 -120t173 -290h-195q-90 236 -317 236z" />
    <glyph glyph-name="afii10084.smcp" horiz-adv-x="952" 
d="M31 942v184h891v-184h-349v-942h-194v942h-348z" />
    <glyph glyph-name="afii10085.smcp" horiz-adv-x="993" 
d="M254 164q90 0 135 102l41 92l-410 768h216l296 -553h11l235 553h215l-389 -860q-66 -145 -150 -216t-208 -70q-43 0 -113 20v178q31 -14 121 -14z" />
    <glyph glyph-name="afii10086.smcp" horiz-adv-x="1382" 
d="M788 -10h-194v133q-248 8 -390 134t-143 316q1 191 143 317t390 134v123h194v-123q248 -8 390 -134t143 -316q-1 -190 -143 -317q-142 -126 -390 -134v-133zM1116 574q0 262 -328 276v-553q328 15 328 277zM266 574q0 -262 328 -277v553q-328 -14 -328 -276z" />
    <glyph glyph-name="afii10087.smcp" horiz-adv-x="1003" 
d="M502 430l-266 -430h-226l369 573l-348 553h225l246 -409l246 409h225l-348 -553l368 -573h-225z" />
    <glyph glyph-name="afii10088.smcp" horiz-adv-x="1177" 
d="M809 1126h195v-942h133v-420h-195v236h-809v1126h195v-942h481v942z" />
    <glyph glyph-name="afii10089.smcp" horiz-adv-x="1105" 
d="M778 410q-126 -84 -266 -82q-184 0 -292 108t-107 291v399h194v-399q0 -225 205 -225q82 0 148 24t94 45l24 23v532h195v-1126h-195v410z" />
    <glyph glyph-name="afii10090.smcp" horiz-adv-x="1587" 
d="M133 1126h195v-942h368v942h195v-942h369v942h194v-1126h-1321v1126z" />
    <glyph glyph-name="afii10091.smcp" horiz-adv-x="1628" 
d="M133 1126h195v-942h368v942h195v-942h369v942h194v-942h133v-417h-194v233h-1260v1126z" />
    <glyph glyph-name="afii10092.smcp" horiz-adv-x="1105" 
d="M666 553h-215v-369h215q90 0 147 54t57 131q0 78 -57 131t-147 53zM666 0h-410v942h-256v184h451v-389h215q166 -1 282 -111t117 -257q-1 -147 -117 -258t-282 -111z" />
    <glyph glyph-name="afii10093.smcp" horiz-adv-x="1423" 
d="M543 553h-215v-369h215q90 0 147 54t58 131q0 78 -58 131t-147 53zM543 0h-410v1126h195v-389h215q167 -1 283 -111t116 -257t-116 -258t-283 -111zM1096 0v1126h194v-1126h-194z" />
    <glyph glyph-name="afii10094.smcp" horiz-adv-x="993" 
d="M553 553h-225v-369h225q90 0 147 54t58 131q0 78 -58 131t-147 53zM553 0h-420v1126h195v-389h225q166 -1 283 -111q116 -110 116 -257t-116 -258t-283 -111z" />
    <glyph glyph-name="afii10095.smcp" horiz-adv-x="1198" 
d="M481 471v184h441q-25 127 -124 217t-235 91q-227 0 -317 -236h-195q33 170 173 290t355 120t381 -168t166 -406q0 -237 -166 -405t-380 -168q-216 0 -356 120t-173 289h195q90 -236 317 -235q135 0 235 90q99 90 124 217h-441z" />
    <glyph glyph-name="afii10096.smcp" horiz-adv-x="1617" 
d="M676 563q0 -173 98 -281t240 -108t240 106t98 281q0 174 -98 283q-98 108 -240 108q-141 0 -240 -108q-98 -109 -98 -281zM1546 563q0 -241 -156 -407t-368 -166q-210 0 -360 138t-181 343h-153v-471h-195v1126h195v-481h153q31 211 179 351t360 140t370 -165
q156 -166 156 -408z" />
    <glyph glyph-name="afii10097.smcp" horiz-adv-x="1064" 
d="M92 768q0 146 112 252t277 106h451v-1126h-195v410h-235l-246 -410h-215l276 451q-8 4 -23 10t-54 34q-39 29 -69 61t-54 89q-25 57 -25 123zM737 594v348h-256q-90 0 -142 -48t-52 -126t52 -126t142 -48h256z" />
    <glyph glyph-name="afii10098.smcp" horiz-adv-x="870" 
d="M850 942h-522v-942h-195v1126h522v195h195v-379z" />
    <glyph glyph-name="afii10099.smcp" horiz-adv-x="1200" 
d="M0 942v184h758v-184h-287v-328h10q17 35 67 65q94 58 200 58q156 -1 262 -115t106 -297t-121 -300t-319 -117v184q246 0 246 236q0 98 -62 161t-160 63q-99 0 -164 -62t-65 -162v-328h-195v942h-276z" />
    <glyph glyph-name="afii10100.smcp" horiz-adv-x="870" 
d="M410 1270l122 246h175l-175 -246h-122zM850 942h-522v-942h-195v1126h717v-184z" />
    <glyph glyph-name="afii10101.smcp" horiz-adv-x="1198" 
d="M717 655v-184h-441q25 -127 124 -217t235 -90q227 0 317 235h195q-33 -169 -173 -289t-355 -120t-381 168t-166 406t166 405q166 168 381 168t355 -120t173 -290h-195q-90 236 -317 236q-135 -1 -235 -91t-124 -217h441z" />
    <glyph glyph-name="afii10102.smcp" horiz-adv-x="942" 
d="M92 837q0 119 104 209t280 91q174 -1 280 -95t114 -243h-194q-8 71 -62 117t-140 46q-85 0 -131 -37t-46 -91q0 -99 155 -139t285 -106q66 -34 110 -104t44 -168q-1 -143 -107 -235t-296 -92t-301 96q-110 96 -126 262h195q33 -184 236 -184q96 0 145 41t49 108t-61 107
t-149 66q-88 24 -174 57t-148 104t-62 190z" />
    <glyph glyph-name="afii10103.smcp" horiz-adv-x="460" 
d="M328 1126v-1126h-195v1126h195z" />
    <glyph glyph-name="afii10104.smcp" horiz-adv-x="460" 
d="M512 1403q0 -47 -33 -80t-80 -33t-80 33t-32 80q0 47 32 80q33 33 80 33t80 -33t33 -80zM164 1403q0 -47 -33 -80t-80 -33t-80 33t-32 80q0 47 32 80q33 33 80 33t80 -33t33 -80zM328 1126v-1126h-195v1126h195z" />
    <glyph glyph-name="afii10105.smcp" horiz-adv-x="921" 
d="M604 1126h195v-737q0 -176 -110 -288q-111 -111 -281 -111t-279 102t-109 246h195q0 -72 52 -118t143 -46q195 0 194 215v737z" />
    <glyph glyph-name="afii10106.smcp" horiz-adv-x="1648" 
d="M1208 553h-215v-369h215q90 0 148 54t57 131q0 78 -57 131q-58 53 -148 53zM1208 0h-409v942h-348l-52 -573q-16 -179 -102 -279t-205 -100l-102 10v174h51q150 0 164 195l61 757h727v-389h215q166 -1 283 -111t117 -257t-117 -258t-283 -111z" />
    <glyph glyph-name="afii10107.smcp" horiz-adv-x="1658" 
d="M1219 553h-205v-369h205q90 0 147 54t57 131q0 78 -57 131t-147 53zM1219 0h-400v553h-491v-553h-195v1126h195v-389h491v389h195v-389h205q167 -1 283 -111t116 -257t-116 -258t-283 -111z" />
    <glyph glyph-name="afii10108.smcp" horiz-adv-x="1218" 
d="M0 942v184h758v-184h-287v-328h10q17 35 67 65q94 58 200 58q156 -1 262 -111t106 -278v-348h-194v348q0 86 -62 146t-160 59q-99 -1 -164 -63t-65 -162v-328h-195v942h-276z" />
    <glyph glyph-name="afii10109.smcp" horiz-adv-x="983" 
d="M461 1270l123 246h174l-174 -246h-123zM328 0h-195v1126h195v-512l420 512h225l-461 -553l492 -573h-236l-440 522v-522z" />
    <glyph glyph-name="afii10110.smcp" horiz-adv-x="993" 
d="M254 164q90 0 135 102l41 92l-410 768h216l296 -553h11l235 553h215l-389 -860q-66 -145 -150 -216t-208 -70q-43 0 -113 20v178q31 -14 121 -14zM522 1393q45 1 80 31t43 71h143q-16 -102 -89 -169q-73 -66 -177 -66t-177 66t-89 169h143q8 -41 43 -71t80 -31z" />
    <glyph glyph-name="afii10193.smcp" horiz-adv-x="1167" 
d="M840 1126h194v-1126h-348v-236h-205v236h-348v1126h195v-942h512v942z" />
    <glyph glyph-name="dollar.smcp" horiz-adv-x="942" 
d="M92 828q0 110 77 193t210 107v162h194v-164q281 -63 297 -327h-194q-8 78 -60 121t-140 43q-87 0 -133 -38q-46 -37 -46 -91q0 -99 155 -139t285 -106q66 -34 110 -104q44 -71 44 -183t-84 -199t-234 -107v-170h-194v174q-141 25 -223 119t-95 229h195q33 -184 236 -184
q96 0 145 41t49 108t-61 107t-149 66q-88 24 -174 57t-148 104t-62 181z" />
    <glyph glyph-name="Euro.smcp" horiz-adv-x="1280" 
d="M717 614h-369v-102h369v-133h-328q47 -99 136 -157t192 -58q227 0 317 235h195q-33 -169 -173 -289t-330 -120t-339 108q-147 109 -205 281h-141v133h113v102h-113v134h141q56 172 204 280t339 109q191 0 331 -120t173 -290h-195q-90 236 -317 236q-101 -1 -191 -59
t-137 -156h328v-134z" />
    <glyph glyph-name="currency.smcp" horiz-adv-x="1034" 
d="M379 594h194q90 0 148 51q57 51 57 123t-57 123t-148 51h-194v-348zM41 430v164h143v532h389q180 0 290 -99t110 -249t-110 -249t-290 -99h-194v-82h348v-164h-348v-184h-195v184h-143v164h143v82h-143z" />
    <glyph glyph-name="uni20BD.smcp" horiz-adv-x="1034" 
d="M379 594h194q90 0 148 51q57 51 57 123t-57 123t-148 51h-194v-348zM41 430v164h143v532h389q180 0 290 -99t110 -249t-110 -249t-290 -99h-194v-82h348v-164h-348v-184h-195v184h-143v164h143v82h-143z" />
    <glyph glyph-name="sterling.smcp" horiz-adv-x="942" 
d="M379 297q0 -58 -51 -113h563v-184h-819v184q47 0 80 33t32 80v133h-102v184h102v164q0 158 102 258t255 100q154 0 253 -92q99 -94 107 -235h-194q-33 133 -164 133q-76 0 -120 -43t-44 -121v-164h276v-184h-276v-133z" />
    <glyph glyph-name="uni20B4.smcp" horiz-adv-x="972" 
d="M61 389v123h850v-123h-512q-61 -41 -61 -101q0 -124 154 -124q80 0 128 38t56 95h184q-12 -131 -106 -219t-262 -88t-269 80q-100 80 -100 186q0 41 12 75t25 46l14 12h-113zM850 870q0 -78 -51 -133h112v-123h-850v123h512q61 41 61 101t-39 93q-40 32 -117 32t-125 -38
t-56 -96h-184q12 131 106 219t262 89q169 0 269 -80t100 -187z" />
    <glyph glyph-name="yen.smcp" horiz-adv-x="1034" 
d="M870 594v-164h-256v-102h256v-164h-256v-164h-194v164h-256v164h256v102h-256v164h164l-308 532h226l266 -501h10l266 501h226l-307 -532h163z" />
    <glyph glyph-name="ampersand.smcp" horiz-adv-x="1064" 
d="M266 281q0 -41 38 -74t104 -33t119 24q54 24 75 46l23 22l-205 205q-19 -6 -53 -30q-101 -64 -101 -160zM451 983q-53 0 -89 -35t-34 -84q0 -49 30 -95t62 -69l31 -24q42 18 83 74q40 55 40 109t-35 89t-88 35zM154 859q0 122 84 200t216 78t213 -75t81 -193t-58 -193
q-58 -76 -98 -103l-19 -10l164 -164l92 133h236l-195 -276l277 -256h-277l-122 123q-14 -14 -41 -37q-27 -24 -115 -60t-182 -36q-154 0 -246 78t-92 200q0 121 74 204t128 110l23 12l-41 41q-102 102 -102 224z" />
    <glyph glyph-name="afii61352.smcp" horiz-adv-x="1740" 
d="M1178 41v143h491v-143h-491zM1679 532q1 -106 -73 -181t-183 -75t-183 75t-73 181q0 106 74 182q75 76 183 74q108 0 182 -74q73 -76 73 -182zM1311 532q1 -44 33 -78t79 -34t80 34t33 78t-33 79q-33 34 -80 34t-79 -34t-33 -79zM850 1126h194v-1126h-184l-532 778v-778
h-195v1126h184l533 -778v778z" />
    <glyph glyph-name="I.sc_alt" horiz-adv-x="686" 
d="M625 942h-185v-758h185v-184h-564v184h185v758h-185v184h564v-184z" />
    <glyph glyph-name="Iacute.sc_alt" horiz-adv-x="686" 
d="M287 1270l123 246h174l-174 -246h-123zM625 942h-185v-758h185v-184h-564v184h185v758h-185v184h564v-184z" />
    <glyph glyph-name="Icircumflex.sc_alt" horiz-adv-x="686" 
d="M420 1505l184 -245h-164l-102 143l-102 -143h-164l184 245h164zM625 942h-185v-758h185v-184h-564v184h185v758h-185v184h564v-184z" />
    <glyph glyph-name="Idieresis.sc_alt" horiz-adv-x="686" 
d="M635 1403q0 -47 -33 -80t-80 -33t-80 33t-32 80q0 47 32 80q33 33 80 33t80 -33t33 -80zM287 1403q0 -47 -33 -80t-80 -33t-80 33t-33 80t33 80t80 33t80 -33t33 -80zM625 942h-185v-758h185v-184h-564v184h185v758h-185v184h564v-184z" />
    <glyph glyph-name="Idotaccent.sc_alt" horiz-adv-x="686" 
d="M451 1403q0 -47 -33 -80t-80 -33t-80 33t-33 80t33 80t80 33t80 -33t33 -80zM625 942h-185v-758h185v-184h-564v184h185v758h-185v184h564v-184z" />
    <glyph glyph-name="Igrave.sc_alt" horiz-adv-x="686" 
d="M276 1516l123 -246h-123l-174 246h174zM625 942h-185v-758h185v-184h-564v184h185v758h-185v184h564v-184z" />
    <glyph glyph-name="Imacron.sc_alt" horiz-adv-x="686" 
d="M594 1444v-133h-512v133h512zM625 942h-185v-758h185v-184h-564v184h185v758h-185v184h564v-184z" />
    <glyph glyph-name="Iogonek.sc_alt" horiz-adv-x="686" 
d="M61 0v184h185v758h-185v184h564v-184h-185v-758h185v-184q-72 -82 -72 -164q0 -40 27 -66t65 -26l82 10v-102q-51 -10 -121 -10t-124 48q-52 48 -52 110q0 103 53 175l19 25h-441z" />
    <glyph glyph-name="afii10055.alt" horiz-adv-x="727" 
d="M266 184v922h-205v184h605v-184h-205v-922h205v-184h-605v184h205z" />
    <glyph glyph-name="afii10056.alt" horiz-adv-x="727" 
d="M266 184v922h-205v184h605v-184h-205v-922h205v-184h-605v184h205zM645 1546q0 -47 -34 -80q-34 -32 -79 -32q-44 0 -78 32t-34 80q0 47 34 80t78 33t79 -33q34 -33 34 -80zM297 1546q0 -47 -34 -80q-34 -32 -79 -32t-79 32t-33 80q0 47 33 80q34 33 79 33t79 -33t34 -80
z" />
    <glyph glyph-name="afii10103.sc_alt" horiz-adv-x="686" 
d="M625 942h-185v-758h185v-184h-564v184h185v758h-185v184h564v-184z" />
    <glyph glyph-name="afii10104.sc_alt" horiz-adv-x="686" 
d="M625 942h-185v-758h185v-184h-564v184h185v758h-185v184h564v-184zM625 1403q0 -47 -34 -80t-79 -33t-79 33t-34 80t34 80t79 33t79 -33t34 -80zM276 1403q0 -47 -34 -80t-78 -33q-45 0 -79 33t-34 80t34 80t79 33q44 0 78 -33t34 -80z" />
    </font>
</defs>
</svg>
