<?xml version="1.0" standalone="no"?>
<!DOCTYPE svg PUBLIC "-//W3C//DTD SVG 1.1//EN" "http://www.w3.org/Graphics/SVG/1.1/DTD/svg11.dtd" >
<svg xmlns="http://www.w3.org/2000/svg">
<metadata>
Created by FontPrep 20130207 at Tue Oct 16 12:11:05 2018
 By Stefan Kristian Hansen
Copyright (c) 2018 by TypeType. Designers Ivan Gladkikh, Pavel Emelyanov. Technical designers Marina Khodak, Vika Usmanova, Nadyr Rakhimov. All rights reserved.
</metadata>
<defs>
<font id="8d6851945927a5c34ce0c96e1fb96076" horiz-adv-x='1024' >
  <font-face 
    font-family="TTCommons-Regular"
    font-weight="400"
    font-stretch="normal"
    units-per-em="2048"
    panose-1="2 0 5 6 3 0 0 2 0 4"
    ascent="1434"
    descent="-614"
    x-height="922"
    cap-height="1290"
    bbox="-348 -522 2945 1741"
    underline-thickness="102"
    underline-position="-102"
    unicode-range="U+000D-FB06"
  />
<missing-glyph horiz-adv-x="0" 
 />
    <glyph glyph-name="ff" unicode="ff" horiz-adv-x="1085" 
d="M952 1300q65 0 92 -20v-133q-20 10 -51 10q-69 0 -111 -44t-42 -120v-71h204v-144h-204v-778h-154v778h-369v-778h-153v778h-113v144h113v30q0 136 78 222t188 86q57 0 92 -21v-133q-20 10 -51 10q-70 0 -112 -44t-42 -120v-30h369v71q0 135 78 221t188 86z" />
    <glyph glyph-name="uniFB01" unicode="fi" horiz-adv-x="972" 
d="M666 1183q0 41 28 69t69 28q42 0 70 -28q27 -28 27 -70t-28 -69q-28 -28 -69 -28q-42 0 -70 28q-27 28 -27 70zM430 1300q59 0 92 -20v-133q-20 10 -51 10q-70 0 -112 -44t-42 -120v-71h523v-922h-154v778h-369v-778h-153v778h-113v144h113v71q0 135 78 221t188 86z" />
    <glyph glyph-name="uniFB02" unicode="fl" horiz-adv-x="993" 
d="M850 1280v-1280h-154v1126q-62 41 -162 41t-158 -56t-59 -148v-41h205v-144h-205v-778h-153v778h-113v144h113v41q0 151 104 249t264 99q71 0 164 -31h154z" />
    <glyph glyph-name="ffi" unicode="ffi" horiz-adv-x="1495" 
d="M1188 1183q0 41 28 69t69 28q42 0 70 -28q27 -28 27 -70t-28 -69q-28 -28 -69 -28q-42 0 -70 28q-27 28 -27 70zM952 1300q65 0 92 -20v-133q-20 10 -51 10q-69 0 -111 -44t-42 -120v-71h522v-922h-154v778h-368v-778h-154v778h-369v-778h-153v778h-113v144h113v30
q0 136 78 222t188 86q57 0 92 -21v-133q-20 10 -51 10q-70 0 -112 -44t-42 -120v-30h369v71q0 135 78 221t188 86z" />
    <glyph glyph-name="ffl" unicode="ffl" horiz-adv-x="1515" 
d="M430 1260q57 0 92 -21v-133q-20 10 -51 10q-70 0 -112 -44t-42 -120v-30h369v41q0 151 104 249t265 99q95 0 145 -25l19 -6h153v-1280h-153v1126q-61 41 -161 41t-160 -56q-58 -56 -58 -148v-41h204v-144h-204v-778h-154v778h-369v-778h-153v778h-113v144h113v30
q0 136 78 222t188 86z" />
    <glyph glyph-name="f_f_j" unicode="ffj" horiz-adv-x="1495" 
d="M1188 1183q0 41 28 69t69 28q42 0 70 -28q27 -28 27 -70t-28 -69q-28 -28 -69 -28q-42 0 -70 28q-27 28 -27 70zM1096 -338q-68 0 -92 21v133q20 -10 51 -11q69 0 111 44t42 120v809h-368v-778h-154v778h-369v-778h-153v778h-113v144h113v30q0 136 78 222t188 86
q57 0 92 -21v-133q-20 10 -51 10q-70 0 -112 -44t-42 -120v-30h369v71q0 135 78 221t188 86q65 0 92 -20v-133q-20 10 -51 10q-69 0 -111 -44t-42 -120v-71h522v-953q0 -135 -78 -221t-188 -86z" />
    <glyph glyph-name="f_j" unicode="fj" horiz-adv-x="972" 
d="M666 1183q0 41 28 69t69 28q42 0 70 -28q27 -28 27 -70t-28 -69q-28 -28 -69 -28q-42 0 -70 28q-27 28 -27 70zM573 -338q-59 0 -92 21v133q20 -10 51 -11q70 0 112 44t42 120v809h-369v-778h-153v778h-113v144h113v30q0 136 78 222t188 86q57 0 92 -21v-133
q-20 10 -51 10q-70 0 -112 -44t-42 -120v-30h523v-953q0 -135 -78 -221t-189 -86z" />
    <glyph glyph-name="f_t" unicode="ft" horiz-adv-x="1157" 
d="M430 1300q59 0 92 -20v-133q-20 10 -51 10q-70 0 -112 -44t-42 -120v-71h297q113 -1 113 112v133h133v-245h205v-144h-205v-481q0 -76 42 -120t112 -44l51 10v-133q-31 -20 -92 -20q-111 0 -189 86t-77 221v481h-390v-778h-153v778h-113v144h113v71q0 135 78 221t188 86z
" />
    <glyph glyph-name="f_h" unicode="fh" horiz-adv-x="1597" 
d="M850 1280v-471q12 15 34 35t90 54t142 34q150 0 254 -113t105 -287v-532h-154v532q0 113 -66 185q-66 71 -167 71q-102 0 -170 -70t-68 -186v-532h-154v1126q-62 41 -162 41t-158 -56t-59 -148v-41h205v-144h-205v-778h-153v778h-113v144h113v41q0 151 104 249t264 99
q71 0 164 -31h154z" />
    <glyph glyph-name="f_k" unicode="fk" horiz-adv-x="1413" 
d="M850 1280v-799l348 441h174l-348 -430l399 -492h-184l-389 481v-481h-154v1126q-62 41 -162 41t-158 -56t-59 -148v-41h205v-144h-205v-778h-153v778h-113v144h113v41q0 151 104 249t264 99q71 0 164 -31h154z" />
    <glyph glyph-name="f_b" unicode="fb" horiz-adv-x="1628" 
d="M829 461q0 -143 84 -235t203 -93q119 0 203 92q84 91 84 235t-84 236t-203 92t-203 -92t-84 -235zM850 1280v-471q4 4 19 23t62 46q95 54 195 54q180 0 306 -133t124 -338q0 -205 -124 -338t-306 -133q-135 0 -232 72q-26 18 -44 40l-41 -102h-113v1126q-62 41 -162 41
t-158 -56t-59 -148v-41h205v-144h-205v-778h-153v778h-113v144h113v41q0 151 104 249t264 99q71 0 164 -31h154z" />
    <glyph glyph-name="f_f_h" unicode="ffh" horiz-adv-x="2119" 
d="M430 1260q57 0 92 -21v-133q-20 10 -51 10q-70 0 -112 -44t-42 -120v-30h369v41q0 151 104 249t265 99q95 0 145 -25l19 -6h153v-471q10 15 30 35t90 54q68 34 146 34q150 0 254 -113t105 -287v-532h-154v532q0 113 -65 185q-66 71 -168 71t-170 -70t-68 -186v-532h-153
v1126q-61 41 -161 41t-160 -56q-58 -56 -58 -148v-41h204v-144h-204v-778h-154v778h-369v-778h-153v778h-113v144h113v30q0 136 78 222t188 86z" />
    <glyph glyph-name="f_f_k" unicode="ffk" horiz-adv-x="1935" 
d="M430 1260q57 0 92 -21v-133q-20 10 -51 10q-70 0 -112 -44t-42 -120v-30h369v41q0 151 104 249t265 99q95 0 145 -25l19 -6h153v-799l348 441h174l-348 -430l400 -492h-185l-389 481v-481h-153v1126q-61 41 -161 41t-160 -56q-58 -56 -58 -148v-41h204v-144h-204v-778
h-154v778h-369v-778h-153v778h-113v144h113v30q0 136 78 222t188 86z" />
    <glyph glyph-name="f_f_b" unicode="ffb" horiz-adv-x="2150" 
d="M1352 461q0 -143 84 -235t202 -93q118 0 203 92q84 91 84 235t-84 236t-203 92q-118 0 -202 -92t-84 -235zM430 1260q57 0 92 -21v-133q-20 10 -51 10q-70 0 -112 -44t-42 -120v-30h369v41q0 151 104 249t265 99q95 0 145 -25l19 -6h153v-471q4 4 19 23t62 46
q95 54 196 54q180 0 305 -133t125 -338t-125 -338t-305 -133q-82 0 -151 28t-97 56l-29 28l-41 -102h-112v1126q-61 41 -161 41t-160 -56q-58 -56 -58 -148v-41h204v-144h-204v-778h-154v778h-369v-778h-153v778h-113v144h113v30q0 136 78 222t188 86z" />
    <glyph glyph-name=".notdef" horiz-adv-x="0" 
 />
    <glyph glyph-name=".null" horiz-adv-x="0" 
 />
    <glyph glyph-name=".null" horiz-adv-x="0" 
 />
    <glyph glyph-name="nonmarkingreturn" horiz-adv-x="681" 
 />
    <glyph glyph-name="CR" unicode="&#xd;" horiz-adv-x="0" 
 />
    <glyph glyph-name="space" unicode=" " horiz-adv-x="440" 
 />
    <glyph glyph-name="exclam" unicode="!" horiz-adv-x="532" 
d="M164 92q0 47 29 75t73 28t74 -28q29 -28 29 -75t-29 -75q-29 -27 -74 -27q-46 0 -74 28t-28 74zM369 1290l-41 -983h-123l-41 983h205z" />
    <glyph glyph-name="quotedbl" unicode="&#x22;" horiz-adv-x="624" 
d="M379 911v379h143v-379h-143zM102 911v379h144v-379h-144z" />
    <glyph glyph-name="numbersign" unicode="#" horiz-adv-x="1228" 
d="M492 799l-62 -307h307l62 307h-307zM41 369l31 123h235l62 307h-246l31 123h235l72 368h123l-72 -368h307l72 368h123l-72 -368h246l-31 -123h-235l-62 -307h246l-31 -123h-235l-72 -369h-123l72 369h-307l-72 -369h-123l72 369h-246z" />
    <glyph glyph-name="dollar" unicode="$" horiz-adv-x="1013" 
d="M440 -184v178q-166 20 -262 124t-96 261h164q0 -117 68 -181t196 -65q127 0 198 58q70 57 70 145t-70 141q-71 53 -171 83q-99 30 -201 67t-173 117t-71 205t98 225t250 120v181h144v-181q141 -26 234 -134t93 -249h-163q0 106 -68 176t-174 70t-178 -62
q-72 -61 -72 -145t71 -137t171 -83t201 -66t172 -118q71 -81 71 -209t-97 -225t-261 -118v-178h-144z" />
    <glyph glyph-name="percent" unicode="%" horiz-adv-x="1228" 
d="M1167 256q1 -108 -73 -182t-183 -74t-183 74t-73 182q0 108 74 182q75 74 183 74t182 -74t73 -182zM758 256q0 -68 46 -116t107 -48t108 48q46 48 46 116t-46 116q-45 48 -107 48t-108 -48t-46 -116zM573 1034q1 -108 -73 -182t-183 -74t-183 74t-73 182q0 108 74 183
q75 73 183 73t182 -73q73 -74 73 -183zM164 1034q0 -68 46 -116t107 -48t107 48t47 116q0 68 -46 116q-45 48 -107 48t-108 -48t-46 -116zM276 0h-112l788 1290h113z" />
    <glyph glyph-name="ampersand" unicode="&#x26;" horiz-adv-x="1085" 
d="M246 297q0 -72 51 -123t125 -51t140 36t102 70l32 37l-276 287q-174 -116 -174 -256zM584 993q0 63 -43 109t-111 45q-68 0 -116 -46q-48 -45 -48 -97t20 -96t42 -66l20 -23l72 -71l82 71q82 72 82 174zM238 590q33 33 57 49l22 16l-92 103q-35 29 -69 100
q-33 71 -33 135q0 117 92 207t215 90t210 -87t87 -210q0 -63 -34 -128t-66 -95l-33 -33l-90 -82l264 -266l123 205h174l-195 -307l277 -287h-195l-174 174q-8 -17 -49 -56q-41 -40 -79 -65q-96 -63 -234 -63t-231 87t-93 227t146 286z" />
    <glyph glyph-name="quotesingle" unicode="'" horiz-adv-x="348" 
d="M102 911v379h144v-379h-144z" />
    <glyph glyph-name="parenleft" unicode="(" horiz-adv-x="542" 
d="M256 461q0 -229 79 -437t140 -311l27 -41l-103 -71q-30 35 -89 140q-60 105 -98 201t-69 236q-61 276 -1 564q44 206 156 419q42 80 71 121l30 39l103 -72q-27 -38 -77 -140q-50 -101 -83 -189q-34 -88 -60 -215t-26 -244z" />
    <glyph glyph-name="parenright" unicode=")" horiz-adv-x="542" 
d="M287 461q0 226 -82 443t-139 304l-25 41l102 72q33 -39 92 -142q58 -104 96 -199q39 -94 69 -236t30 -283q0 -344 -185 -701q-42 -80 -73 -120l-29 -39l-102 71q28 39 77 141q50 101 83 189t59 215q27 127 27 244z" />
    <glyph glyph-name="asterisk" unicode="*" horiz-adv-x="675" 
d="M338 913l-102 -186l-113 72l143 174l-215 51l41 113l195 -72l-11 225h123l-10 -225l195 72l41 -113l-215 -51l143 -174l-113 -72z" />
    <glyph glyph-name="plus" unicode="+" horiz-adv-x="901" 
d="M522 123h-143v338h-318v133h318v338h143v-338h318v-133h-318v-338z" />
    <glyph glyph-name="comma" unicode="," horiz-adv-x="348" 
d="M174 195q102 -1 102 -123q0 -66 -40 -138t-82 -100l-41 -29l-21 31q72 62 82 154q-47 0 -75 28t-27 74q0 47 27 75q28 28 75 28z" />
    <glyph glyph-name="hyphen" unicode="-" horiz-adv-x="706" 
d="M635 594v-133h-563v133h563z" />
    <glyph glyph-name="period" unicode="." horiz-adv-x="348" 
d="M72 92q0 47 27 75q28 28 75 28t75 -28q27 -28 27 -75t-28 -75q-28 -27 -74 -27q-47 0 -75 27q-27 28 -27 75z" />
    <glyph glyph-name="slash" unicode="/" horiz-adv-x="675" 
d="M676 1290l-533 -1659h-143l532 1659h144z" />
    <glyph glyph-name="zero" unicode="0" horiz-adv-x="1146" 
d="M1075 645q0 -303 -146 -479q-145 -176 -355 -176t-356 176t-146 479t146 479t355 176t355 -176t147 -479zM236 645q0 -248 98 -380t239 -132t240 132q98 132 98 380t-98 380q-97 132 -239 132t-240 -132t-98 -380z" />
    <glyph glyph-name="one" unicode="1" horiz-adv-x="634" 
d="M471 1290v-1290h-164v1065l-184 -123l-72 123l318 225h102z" />
    <glyph glyph-name="two" unicode="2" horiz-adv-x="983" 
d="M891 143v-143h-799v123l512 563q14 14 35 38q20 24 54 92t34 126q0 94 -64 155q-65 60 -171 60t-177 -68q-70 -69 -69 -178h-164q0 162 118 276q118 113 292 113t286 -104t113 -254q0 -82 -44 -169t-87 -134l-453 -496h584z" />
    <glyph glyph-name="three" unicode="3" horiz-adv-x="993" 
d="M476 1300q168 0 282 -104q113 -104 112 -254q0 -104 -62 -171t-103 -87l-19 -8q8 -4 24 -10t54 -34q85 -61 123 -151q25 -57 24 -123q1 -150 -121 -260t-300 -108q-178 0 -292 96q-112 96 -137 242h164q16 -82 85 -138q70 -56 180 -57q110 0 184 66q74 67 74 161t-73 159
t-194 65h-71v143h61q106 0 171 60q65 61 65 155t-65 154t-166 61q-100 0 -166 -57t-74 -137h-164q16 143 126 240t278 97z" />
    <glyph glyph-name="four" unicode="4" horiz-adv-x="983" 
d="M625 420v635l-389 -635h389zM932 420v-144h-144v-276h-163v276h-574v134l543 880h194v-870h144z" />
    <glyph glyph-name="five" unicode="5" horiz-adv-x="1024" 
d="M532 850q170 0 290 -124t120 -307t-123 -306t-300 -123t-290 96t-137 242h164q16 -82 85 -138t177 -57q108 0 184 79t76 208t-75 208t-198 79t-205 -100q-19 -24 -34 -54h-143l82 737h655v-153h-512l-41 -369q32 32 97 57t128 25z" />
    <glyph glyph-name="six" unicode="6" horiz-adv-x="1013" 
d="M512 717q-116 0 -196 -82t-80 -207t80 -210t196 -85q117 0 197 84q79 84 79 210t-79 208q-80 82 -197 82zM512 -10q-184 0 -312 128t-128 312q0 74 27 151q28 77 57 115l397 594h174l-287 -430q31 10 72 10q184 0 312 -128t128 -312t-128 -312t-312 -128z" />
    <glyph glyph-name="seven" unicode="7" horiz-adv-x="901" 
d="M72 1290h778v-112l-543 -1178h-174l533 1147h-594v143z" />
    <glyph glyph-name="eight" unicode="8" 
d="M502 758q90 0 152 58t62 140t-60 142q-62 60 -154 59q-92 0 -154 -59q-62 -60 -61 -142t63 -140t152 -58zM502 614q-121 0 -194 -66q-72 -66 -72 -172t72 -174t194 -69q122 0 194 69t72 174q0 106 -72 172t-194 66zM502 -10q-188 0 -309 110t-121 277q0 166 145 274
q33 25 57 35l23 10q-53 18 -114 84q-60 68 -60 192t110 226q111 102 269 102t268 -102t111 -235q0 -90 -44 -157t-87 -89l-43 -21q8 -4 23 -10t54 -34t69 -62q31 -34 55 -92q24 -59 24 -129q0 -159 -121 -269t-309 -110z" />
    <glyph glyph-name="nine" unicode="9" horiz-adv-x="1013" 
d="M502 573q116 0 196 82t80 207t-80 210t-196 85t-197 -84q-80 -84 -80 -210t80 -208t197 -82zM502 1300q184 0 312 -128t128 -312q0 -74 -29 -150t-57 -116l-395 -594h-174l286 430q-31 -10 -71 -10q-184 0 -313 128q-128 128 -128 312t128 312q129 128 313 128z" />
    <glyph glyph-name="colon" unicode=":" horiz-adv-x="348" 
d="M72 819q0 45 27 74q28 29 75 29t75 -29q27 -29 27 -74t-28 -74t-74 -29q-47 0 -75 29q-27 29 -27 74zM72 92q0 47 27 75q28 28 75 28t75 -28q27 -28 27 -75t-28 -75q-28 -27 -74 -27q-47 0 -75 27q-27 28 -27 75z" />
    <glyph glyph-name="semicolon" unicode=";" horiz-adv-x="348" 
d="M174 195q102 -1 102 -123q0 -66 -40 -138t-82 -100l-41 -29l-21 31q72 62 82 154q-47 0 -75 28t-27 74q0 47 27 75q28 28 75 28zM72 819q0 45 27 74q28 29 75 29t75 -29q27 -29 27 -74t-28 -74t-74 -29q-47 0 -75 29q-27 29 -27 74z" />
    <glyph glyph-name="less" unicode="&#x3c;" horiz-adv-x="901" 
d="M266 451l543 -287v-154l-717 389v103l717 389v-154z" />
    <glyph glyph-name="equal" unicode="=" horiz-adv-x="890" 
d="M61 266v144h768v-144h-768zM61 788h768v-143h-768v143z" />
    <glyph glyph-name="greater" unicode="&#x3e;" horiz-adv-x="901" 
d="M92 164l543 287l-543 286v154l717 -389v-103l-717 -389v154z" />
    <glyph glyph-name="question" unicode="?" horiz-adv-x="880" 
d="M328 92q0 47 28 75q29 28 74 28t74 -28q28 -28 28 -75t-28 -75q-28 -27 -74 -27q-45 0 -74 27q-28 28 -28 75zM512 348v-10h-164v10q0 202 105 310q43 44 87 83q105 93 105 220q0 86 -55 141t-148 55t-150 -64q-56 -65 -56 -192v-20h-164v20q0 187 103 293t267 106
t265 -96q102 -96 102 -251t-106 -256q-44 -42 -87 -84q-104 -102 -104 -265z" />
    <glyph glyph-name="at" unicode="@" horiz-adv-x="1515" 
d="M543 461q0 -97 59 -161q60 -64 148 -64t145 60t57 164t-57 166q-57 60 -145 60t-148 -63q-59 -64 -59 -162zM1376 209q-78 -96 -207 -96t-206 125q-25 -43 -96 -85q-72 -41 -140 -40q-125 0 -216 99t-91 249t91 249t216 99q85 0 138 -37t77 -76l31 103h92v-404
q0 -84 32 -127t81 -43q143 0 143 256q0 223 -165 388t-389 165t-388 -169t-164 -405t164 -404q164 -169 389 -169q74 0 146 23t106 45l35 25l61 -103q-52 -35 -159 -69t-189 -33q-286 1 -486 201t-200 485t201 485t485 201q284 0 484 -198q202 -198 202 -468
q0 -176 -78 -272z" />
    <glyph glyph-name="A" unicode="A" horiz-adv-x="1126" 
d="M563 1024l-215 -563h430zM952 0l-123 317h-532l-123 -317h-174l492 1290h143l491 -1290h-174z" />
    <glyph glyph-name="B" unicode="B" horiz-adv-x="1146" 
d="M328 143h327q106 0 176 68t70 165t-70 163t-176 65h-327v-461zM328 1147v-399h317q90 0 153 58q62 58 62 140t-61 141t-154 60h-317zM655 0h-491v1290h481q160 0 264 -100t105 -248q0 -82 -36 -145t-73 -88l-35 -23q8 -4 22 -10t46 -34q127 -108 127 -264t-119 -267
t-291 -111z" />
    <glyph glyph-name="C" unicode="C" horiz-adv-x="1290" 
d="M676 1157q-174 0 -307 -147q-133 -146 -133 -364t133 -365t293 -147t261 83q99 84 132 213h174q-57 -196 -201 -318t-352 -122q-242 0 -423 191t-181 463t181 464t423 192q199 0 342 -124t201 -316h-175q-33 129 -130 213t-238 84z" />
    <glyph glyph-name="D" unicode="D" horiz-adv-x="1218" 
d="M1137 645q1 -273 -179 -459t-436 -186h-358v1290h358q256 0 436 -186t179 -459zM328 143h194q180 -1 316 145t135 357q0 211 -135 356t-316 146h-194v-1004z" />
    <glyph glyph-name="E" unicode="E" horiz-adv-x="1105" 
d="M328 143h676v-143h-840v1290h819v-143h-655v-410h604v-143h-604v-451z" />
    <glyph glyph-name="F" unicode="F" horiz-adv-x="1024" 
d="M952 1147h-624v-430h512v-144h-512v-573h-164v1290h788v-143z" />
    <glyph glyph-name="G" unicode="G" horiz-adv-x="1382" 
d="M678 -10q-234 0 -415 191t-181 463t181 464t423 192q207 0 342 -112t201 -307h-174q-86 276 -369 276q-174 0 -307 -147q-133 -146 -133 -364t133 -365t296 -147t281 114q118 115 119 254h-379v143h543v-645h-123l-41 154q-163 -164 -397 -164z" />
    <glyph glyph-name="H" unicode="H" horiz-adv-x="1280" 
d="M952 1290h164v-1290h-164v584h-624v-584h-164v1290h164v-563h624v563z" />
    <glyph glyph-name="I" unicode="I" horiz-adv-x="491" 
d="M328 1290v-1290h-164v1290h164z" />
    <glyph glyph-name="J" unicode="J" horiz-adv-x="942" 
d="M635 1292h164v-944q0 -146 -112 -252q-111 -106 -277 -106t-278 105t-112 253h164q8 -92 70 -153t158 -61t159 60q63 62 64 154v944z" />
    <glyph glyph-name="K" unicode="K" horiz-adv-x="1054" 
d="M328 655l501 635h195l-512 -635l553 -655h-195zM328 1290v-1290h-164v1290h164z" />
    <glyph glyph-name="L" unicode="L" horiz-adv-x="962" 
d="M328 143h614v-143h-778v1290h164v-1147z" />
    <glyph glyph-name="M" unicode="M" horiz-adv-x="1556" 
d="M1393 1290v-1290h-164v870l-400 -870h-102l-399 870v-870h-164v1290h133l481 -1034l482 1034h133z" />
    <glyph glyph-name="N" unicode="N" horiz-adv-x="1280" 
d="M952 1290h164v-1290h-143l-645 973v-973h-164v1290h143l645 -973v973z" />
    <glyph glyph-name="O" unicode="O" horiz-adv-x="1351" 
d="M1280 645q0 -271 -181 -463t-423 -192t-423 191t-181 463t181 464t423 192t423 -192t181 -463zM236 645q0 -217 133 -364t307 -147t307 146q133 148 133 365t-133 365t-307 147q-174 1 -307 -147t-133 -365z" />
    <glyph glyph-name="P" unicode="P" horiz-adv-x="1095" 
d="M328 635h276q100 0 173 75t73 181t-73 181t-173 75h-276v-512zM164 1290h440q168 0 289 -119t121 -281t-121 -280q-121 -119 -289 -118h-276v-492h-164v1290z" />
    <glyph glyph-name="Q" unicode="Q" horiz-adv-x="1372" 
d="M236 645q0 -217 133 -364t307 -148q60 -1 116 17t82 36l27 19l-133 133l102 113l144 -144q36 42 69 142t33 196q0 217 -133 365t-307 147q-174 1 -307 -147t-133 -365zM676 -10q-242 0 -423 191t-181 463t181 464t423 192t423 -191t181 -464q0 -161 -53 -267t-94 -155
l-17 -18l144 -144l-103 -112l-153 153q-45 -39 -144 -75q-98 -37 -184 -37z" />
    <glyph glyph-name="R" unicode="R" horiz-adv-x="1136" 
d="M328 1147v-471h317q92 0 159 68t66 167q0 98 -66 167q-67 69 -159 69h-317zM328 532v-532h-164v1290h481q160 0 275 -112t114 -267q0 -85 -30 -153t-70 -106q-88 -81 -156 -99l-28 -10l315 -543h-184l-308 532h-245z" />
    <glyph glyph-name="S" unicode="S" horiz-adv-x="1013" 
d="M92 956q0 132 121 238t294 106t289 -114t115 -275h-163q0 106 -68 176t-174 70t-178 -62q-72 -61 -72 -145t71 -137t171 -83t201 -66t172 -118q71 -81 71 -216q0 -136 -119 -238t-313 -102t-312 108q-116 108 -116 281h164q0 -117 68 -181t196 -65q127 0 198 58
q70 57 70 145t-70 141q-71 53 -171 83q-99 30 -201 67t-173 117t-71 212z" />
    <glyph glyph-name="T" unicode="T" 
d="M973 1290v-143h-389v-1147h-164v1147h-389v143h942z" />
    <glyph glyph-name="U" unicode="U" horiz-adv-x="1228" 
d="M614 -10q-207 0 -339 130t-132 331v839h164v-839q0 -145 84 -231t223 -87q139 0 224 86q84 86 84 232v839h163v-839q0 -201 -132 -331t-339 -130z" />
    <glyph glyph-name="V" unicode="V" horiz-adv-x="1146" 
d="M1126 1290l-471 -1290h-163l-472 1290h175l378 -1054l379 1054h174z" />
    <glyph glyph-name="W" unicode="W" horiz-adv-x="1597" 
d="M1065 0l-266 932l-267 -932h-112l-400 1290h175l286 -932l267 932h102l266 -932l287 932h174l-399 -1290h-113z" />
    <glyph glyph-name="X" unicode="X" horiz-adv-x="1064" 
d="M20 0l420 655l-399 635h184l307 -491l308 491h184l-399 -635l419 -655h-194l-318 512l-317 -512h-195z" />
    <glyph glyph-name="Y" unicode="Y" horiz-adv-x="1024" 
d="M594 0h-164v502l-410 788h175l317 -614l317 614h175l-410 -788v-502z" />
    <glyph glyph-name="Z" unicode="Z" horiz-adv-x="993" 
d="M932 143v-143h-871v102l635 1045h-614v143h819v-102l-635 -1045h666z" />
    <glyph glyph-name="bracketleft" unicode="[" horiz-adv-x="583" 
d="M307 1157v-1393h236v-133h-379v1659h379v-133h-236z" />
    <glyph glyph-name="backslash" unicode="\" horiz-adv-x="675" 
d="M532 -369l-532 1659h143l533 -1659h-144z" />
    <glyph glyph-name="bracketright" unicode="]" horiz-adv-x="583" 
d="M276 -236v1393h-235v133h379v-1659h-379v133h235z" />
    <glyph glyph-name="asciicircum" unicode="^" horiz-adv-x="778" 
d="M696 707h-123l-184 389l-184 -389h-123l276 583h62z" />
    <glyph glyph-name="underscore" unicode="_" horiz-adv-x="532" 
d="M573 -215v-123h-614v123h614z" />
    <glyph glyph-name="grave" unicode="`" horiz-adv-x="399" 
d="M215 1290l123 -246h-102l-175 246h154z" />
    <glyph glyph-name="a" unicode="a" horiz-adv-x="952" 
d="M399 133q117 0 197 67t80 148v72q-258 0 -344 -39t-86 -125q0 -49 42 -86t111 -37zM484 932q150 0 247 -92q98 -92 98 -226v-614h-112l-41 102q-10 -12 -30 -30t-93 -50q-72 -32 -154 -32q-135 0 -221 80t-86 196q0 143 129 220t455 77v51q0 70 -56 122t-139 52
q-152 0 -184 -133h-164q17 121 109 199t242 78z" />
    <glyph glyph-name="b" unicode="b" horiz-adv-x="1075" 
d="M143 0v1290h154v-481q4 4 19 23t62 46q95 54 195 54q179 0 305 -133t126 -338t-125 -338t-306 -133q-135 0 -232 72q-26 18 -44 40l-41 -102h-113zM276 461q0 -143 84 -235t203 -93q119 0 203 92q84 91 84 235t-84 236t-203 92t-203 -92t-84 -235z" />
    <glyph glyph-name="c" unicode="c" horiz-adv-x="962" 
d="M490 788q-100 0 -182 -93q-83 -93 -83 -234t83 -235q82 -94 182 -93q100 0 166 56t92 139h153q-33 -143 -141 -241q-110 -97 -274 -97t-289 133t-125 338t125 338t290 133t273 -97t141 -241h-153q-26 82 -92 138t-166 56z" />
    <glyph glyph-name="d" unicode="d" horiz-adv-x="1075" 
d="M502 -10q-180 0 -305 133t-125 338t125 338t305 133q82 0 150 -31t98 -61l28 -31v481h154v-1290h-113l-41 102q-10 -12 -30 -30t-92 -50t-154 -32zM799 461q0 143 -84 235t-203 92t-203 -92t-84 -235t84 -235t203 -93q119 1 203 93t84 235z" />
    <glyph glyph-name="e" unicode="e" horiz-adv-x="972" 
d="M493 788q-93 0 -168 -76t-89 -190h501q-15 122 -83 194t-161 72zM72 460q0 204 124 338t296 134t290 -129t119 -332l-10 -82h-655q8 -100 88 -178t178 -78q131 0 215 113h164q-51 -111 -147 -184t-232 -72q-180 0 -305 133t-125 337z" />
    <glyph glyph-name="f" unicode="f" horiz-adv-x="563" 
d="M430 1300q59 0 92 -20v-133q-20 10 -51 10q-70 0 -112 -44t-42 -120v-71h205v-144h-205v-778h-153v778h-113v144h113v71q0 135 78 221t188 86z" />
    <glyph glyph-name="g" unicode="g" horiz-adv-x="1034" 
d="M225 481q0 -135 80 -221t197 -86q116 0 196 86t80 221t-80 221t-196 86t-197 -86q-80 -86 -80 -221zM758 31v123q-4 -4 -14 -21t-59 -46q-92 -56 -193 -56q-178 0 -299 127q-121 128 -121 324t121 323t299 127q82 0 148 -28t93 -56l25 -29l41 103h112v-891
q1 -164 -113 -272q-114 -107 -282 -107t-264 77t-129 199h153q57 -133 226 -133q112 0 184 68t72 168z" />
    <glyph glyph-name="h" unicode="h" horiz-adv-x="1044" 
d="M563 932q150 0 254 -113t105 -287v-532h-154v532q0 113 -66 185q-66 71 -167 71t-169 -70t-69 -186v-532h-154v1290h154v-481q11 15 31 35t88 54t147 34z" />
    <glyph glyph-name="i" unicode="i" horiz-adv-x="419" 
d="M113 1183q-1 41 27 69t70 28t70 -28t28 -70t-28 -69q-28 -28 -70 -28t-70 28q-27 28 -27 70zM287 922v-922h-154v922h154z" />
    <glyph glyph-name="j" unicode="j" horiz-adv-x="419" 
d="M113 1183q-1 41 27 69t70 28t70 -28t28 -70t-28 -69q-28 -28 -70 -28t-70 28q-27 28 -27 70zM20 -338q-59 0 -92 21v133q20 -10 52 -11q70 0 112 44t41 120v953h154v-953q0 -135 -78 -221t-189 -86z" />
    <glyph glyph-name="k" unicode="k" horiz-adv-x="860" 
d="M297 0h-154v1290h154v-809l348 441h174l-348 -430l399 -492h-184l-389 481v-481z" />
    <glyph glyph-name="l" unicode="l" horiz-adv-x="440" 
d="M297 1290v-1290h-154v1290h154z" />
    <glyph glyph-name="m" unicode="m" horiz-adv-x="1474" 
d="M1262 828q90 -104 90 -275v-553h-154v553q0 111 -52 173t-132 62t-137 -66t-58 -169v-553h-153v553q0 111 -52 173t-132 62q-79 0 -137 -68t-58 -167v-553h-154v922h113l41 -103q6 13 40 45t88 50q55 18 117 18t125 -41t88 -82l23 -41q4 6 10 17t31 40q92 107 227 107
q136 0 226 -104z" />
    <glyph glyph-name="n" unicode="n" horiz-adv-x="1034" 
d="M553 932q150 0 254 -113t104 -287v-532h-153v532q0 113 -66 185q-66 71 -168 71t-170 -70t-67 -186v-532h-154v922h113l41 -103q10 13 30 31t89 50t147 32z" />
    <glyph glyph-name="o" unicode="o" 
d="M932 461q0 -205 -125 -338t-305 -133t-305 133t-125 338t125 338t305 133t305 -133t125 -338zM225 461q0 -141 83 -235t194 -93q112 0 194 93q82 92 82 234t-83 235t-193 93t-194 -93q-83 -93 -83 -234z" />
    <glyph glyph-name="p" unicode="p" horiz-adv-x="1064" 
d="M563 932q180 0 305 -133t125 -338t-125 -338t-305 -133q-83 0 -151 30t-97 62l-28 31v-441h-154v1250h113l41 -103q10 13 30 31q21 18 93 50t153 32zM266 461q0 -143 84 -235t203 -93q119 0 203 92q84 91 84 235t-84 236t-203 92t-203 -92t-84 -235z" />
    <glyph glyph-name="q" unicode="q" horiz-adv-x="1064" 
d="M932 922v-1250h-154v441q-4 -4 -17 -22t-63 -46q-97 -55 -196 -55q-180 0 -305 133t-125 338t125 338t305 133q82 0 150 -28t98 -56l28 -29l41 103h113zM799 461q0 143 -84 235t-203 92t-203 -92t-84 -235t84 -235t203 -93q119 1 203 93t84 235z" />
    <glyph glyph-name="r" unicode="r" horiz-adv-x="614" 
d="M573 932v-154h-41q-110 0 -178 -70t-67 -186v-522h-154v922h113l41 -103q10 13 30 31q19 18 89 50t147 32h20z" />
    <glyph glyph-name="s" unicode="s" horiz-adv-x="808" 
d="M737 254q0 -108 -87 -186q-88 -78 -234 -78t-236 80t-98 206h154q8 -63 55 -103t125 -40t123 39t45 94t-49 85t-120 45q-71 16 -143 36t-120 78t-50 163q0 103 86 181t226 78t222 -76q83 -76 91 -201h-154q-16 133 -163 133q-66 0 -110 -36t-44 -89q0 -52 49 -82t120 -45
q71 -16 143 -36t120 -79q49 -59 49 -167z" />
    <glyph glyph-name="t" unicode="t" horiz-adv-x="655" 
d="M225 1034v133h133v-245h205v-144h-205v-481q0 -76 42 -120t112 -44l51 10v-133q-31 -20 -92 -20q-111 0 -189 86t-77 221v481h-164v144h72q112 -1 112 112z" />
    <glyph glyph-name="u" unicode="u" horiz-adv-x="1044" 
d="M492 -10q-150 0 -254 112t-105 287v533h154v-533q-1 -113 65 -185t168 -71q102 0 170 71t68 185v533h153v-922h-112l-41 102q-33 -40 -111 -76q-77 -36 -155 -36z" />
    <glyph glyph-name="v" unicode="v" horiz-adv-x="921" 
d="M737 922h164l-369 -922h-143l-369 922h164l277 -707z" />
    <glyph glyph-name="w" unicode="w" horiz-adv-x="1310" 
d="M655 655l-204 -655h-123l-308 922h164l215 -656l205 656h103l204 -656l215 656h164l-307 -922h-123z" />
    <glyph glyph-name="x" unicode="x" horiz-adv-x="839" 
d="M819 922l-307 -451l328 -471h-174l-246 358l-246 -358h-174l328 471l-308 451h175l225 -338l225 338h174z" />
    <glyph glyph-name="y" unicode="y" horiz-adv-x="921" 
d="M174 -205q66 0 102 29t62 94l41 102l-359 902h164l277 -707l276 707h164l-399 -1004q-56 -140 -116 -198t-150 -58l-62 10v123z" />
    <glyph glyph-name="z" unicode="z" horiz-adv-x="778" 
d="M61 778v144h635v-134l-450 -645h471v-143h-656v133l451 645h-451z" />
    <glyph glyph-name="braceleft" unicode="{" horiz-adv-x="614" 
d="M92 399v123q113 0 113 113v399q0 123 68 190q69 67 198 66h102v-133h-106q-51 0 -85 -35t-34 -88v-399q0 -63 -31 -107t-61 -57l-31 -10q4 -2 22 -6t46 -32q55 -56 55 -136v-400q0 -53 34 -88t85 -35h106v-133h-102q-129 0 -198 67t-68 189v400q0 112 -113 112z" />
    <glyph glyph-name="bar" unicode="|" horiz-adv-x="634" 
d="M389 1290v-1618h-143v1618h143z" />
    <glyph glyph-name="braceright" unicode="}" horiz-adv-x="614" 
d="M522 522v-123q-113 0 -112 -112v-400q0 -123 -69 -189t-198 -67h-102v133h106q51 0 85 35t34 88v400q0 63 31 107t61 57l31 10q-4 2 -23 6t-46 33q-52 55 -54 135v399q0 53 -34 88t-85 35h-106v133h102q129 0 198 -66t69 -190v-399q-1 -113 112 -113z" />
    <glyph glyph-name="asciitilde" unicode="~" horiz-adv-x="901" 
d="M236 553q-47 0 -80 -37t-33 -96h-123q0 130 63 198t157 68t246 -72t198 -72t80 37q34 36 34 97h123q-1 -129 -65 -198t-181 -68q-70 0 -221 72t-198 71z" />
    <glyph glyph-name="nbspace" unicode="&#xa0;" horiz-adv-x="440" 
 />
    <glyph glyph-name="exclamdown" unicode="&#xa1;" horiz-adv-x="532" 
d="M164 829q0 47 29 75t73 28t74 -28q29 -28 29 -75t-29 -75t-74 -27q-46 -1 -74 27t-28 75zM328 614l41 -942h-205l41 942h123z" />
    <glyph glyph-name="cent" unicode="&#xa2;" horiz-adv-x="962" 
d="M490 788q-100 0 -182 -93q-83 -93 -83 -234t83 -235q82 -94 182 -93q100 0 166 56t92 139h153q-61 -264 -317 -328v-184h-154v184q-154 24 -256 146t-102 315t102 315t256 146v184h154v-184q256 -63 317 -328h-153q-26 82 -92 138t-166 56z" />
    <glyph glyph-name="sterling" unicode="&#xa3;" horiz-adv-x="1075" 
d="M389 512v-225q0 -45 -20 -81t-41 -50l-21 -13h686v-143h-891v143q47 0 85 42t38 102v225h-112v143h112v267q0 156 116 268t276 110q161 0 275 -108t122 -250h-164q-8 92 -70 154t-159 61q-96 1 -164 -67t-68 -168v-267h348v-143h-348z" />
    <glyph glyph-name="currency" unicode="&#xa4;" horiz-adv-x="1126" 
d="M369 655h266q106 0 176 70q70 69 70 177t-69 176t-177 69h-266v-492zM51 512v143h154v635h430q174 0 292 -114q117 -114 117 -275t-118 -275t-291 -114h-266v-164h389v-143h-389v-205h-164v205h-154v143h154v164h-154z" />
    <glyph glyph-name="yen" unicode="&#xa5;" horiz-adv-x="1044" 
d="M881 492h-277v-134h275v-143h-275v-215h-164v215h-276v143h276v134h-276v143h205l-338 655h174l317 -614l318 614h174l-338 -655h205v-143z" />
    <glyph glyph-name="brokenbar" unicode="&#xa6;" horiz-adv-x="655" 
d="M246 -328v635h164v-635h-164zM246 1290h143v-635h-143v635z" />
    <glyph glyph-name="section" unicode="&#xa7;" horiz-adv-x="962" 
d="M246 543q0 -84 56 -131t210 -95l48 12t76 35q81 57 81 140q1 84 -57 136t-209 97q-9 -2 -23 -5q-107 -22 -160 -110q-22 -36 -22 -79zM655 236q154 -51 154 -216q0 -100 -91 -183t-226 -83t-224 80q-88 80 -104 207h143q7 -63 59 -109t130 -45q78 0 124 40q46 41 46 103
t-60 103t-143 68q-84 27 -168 61t-143 106q-59 71 -60 175q0 137 138 235q32 23 55 33l22 8q-15 5 -54 32t-59 81q-20 53 -20 102q0 102 88 184t216 82t211 -74t99 -192h-143q-8 57 -54 95t-117 38t-114 -39t-43 -98q-1 -59 57 -103t139 -74t162 -67q81 -36 138 -108
t57 -167t-54 -162t-107 -91z" />
    <glyph glyph-name="dieresis" unicode="&#xa8;" horiz-adv-x="614" 
d="M461 1096q-39 0 -66 26t-26 66t27 66t65 26t65 -27t27 -65q-1 -38 -27 -66q-26 -26 -65 -26zM154 1096q-39 0 -66 26t-27 66t27 66t66 26q40 0 66 -27t26 -65t-26 -66q-26 -26 -66 -26z" />
    <glyph glyph-name="copyright" unicode="&#xa9;" horiz-adv-x="1413" 
d="M1331 645q0 -275 -184 -465t-440 -190t-441 190q-184 190 -184 464t184 466q184 190 440 190t441 -190q184 -190 184 -465zM512 645q0 -102 58 -169t137 -66q139 0 174 122h123q-25 -96 -105 -166q-79 -70 -193 -69q-114 0 -210 102q-96 101 -96 245t96 246t210 103
t193 -69q80 -70 105 -166h-123q-35 123 -174 123q-79 0 -137 -67t-58 -169zM205 645q-1 -227 149 -385t353 -158t353 158t148 385q0 227 -149 385q-151 158 -353 158t-352 -158t-149 -385z" />
    <glyph glyph-name="ordfeminine" unicode="&#xaa;" horiz-adv-x="573" 
d="M399 983v31q-225 0 -225 -82q0 -72 102 -72q53 0 89 35q34 35 34 88zM92 1137q0 63 58 113t148 50t152 -58t62 -136v-328h-82l-20 62q-52 -72 -144 -72t-143 41t-51 102q0 90 72 138q73 47 255 47v10q-1 40 -29 66t-73 26q-82 0 -102 -61h-103z" />
    <glyph glyph-name="guillemotleft" unicode="&#xab;" horiz-adv-x="901" 
d="M604 461l225 -328h-153l-225 328l225 327h153zM225 461l226 -328h-154l-225 328l225 327h154z" />
    <glyph glyph-name="logicalnot" unicode="&#xac;" horiz-adv-x="901" 
d="M31 778h839v-409h-143v276h-696v133z" />
    <glyph glyph-name="uni00AD" unicode="&#xad;" horiz-adv-x="706" 
d="M635 594v-133h-563v133h563z" />
    <glyph glyph-name="registered" unicode="&#xae;" horiz-adv-x="1413" 
d="M1331 645q0 -275 -184 -465t-440 -190t-441 190q-184 190 -184 464t184 466q184 190 440 190t441 -190q184 -190 184 -465zM205 645q-1 -227 149 -385t353 -158t353 158t148 385q0 227 -149 385q-151 158 -353 158t-352 -158t-149 -385zM604 655h123q47 0 80 33t33 80
t-33 80t-80 33h-123v-226zM604 553v-246h-112v676h235q92 0 159 -64q66 -65 66 -152t-52 -133q-52 -45 -101 -61l174 -266h-123l-164 246h-82z" />
    <glyph glyph-name="macron" unicode="&#xaf;" horiz-adv-x="614" 
d="M553 1229v-123h-492v123h492z" />
    <glyph glyph-name="degree" unicode="&#xb0;" horiz-adv-x="634" 
d="M563 1055q0 -100 -73 -173t-173 -73t-173 73t-72 173q0 100 72 173q73 72 173 72t173 -72t73 -173zM195 1055q-1 -53 37 -93t85 -40t85 40t38 93t-38 93t-85 40t-85 -40t-37 -93z" />
    <glyph glyph-name="plusminus" unicode="&#xb1;" horiz-adv-x="901" 
d="M840 61h-779v134h318v348h-318v133h318v338h143v-338h318v-133h-318v-348h318v-134z" />
    <glyph glyph-name="twosuperior" unicode="&#xb2;" horiz-adv-x="522" 
d="M461 983v-102h-400v82l226 235q61 61 61 102q0 82 -92 82t-92 -92h-103q-1 84 55 140t143 55q87 0 144 -53t57 -123t-61 -131l-180 -195h242z" />
    <glyph glyph-name="threesuperior" unicode="&#xb3;" horiz-adv-x="542" 
d="M164 1065q0 -39 29 -66t73 -27t74 26q29 24 29 60t-29 62t-74 27h-53v92h53q37 1 60 21t22 51q0 31 -22 51q-23 20 -60 20q-92 0 -92 -82h-102q0 78 55 132t138 53q83 0 139 -52t57 -122q1 -37 -15 -65t-32 -38l-15 -10q9 -4 23 -12t37 -45t22 -86q0 -78 -57 -131
q-58 -54 -152 -54t-152 54t-59 141h103z" />
    <glyph glyph-name="acute" unicode="&#xb4;" horiz-adv-x="399" 
d="M61 1044l123 246h154l-174 -246h-103z" />
    <glyph glyph-name="mu" unicode="&#xb5;" horiz-adv-x="1044" 
d="M516 -10q-112 0 -168 33q-57 33 -65 47l-7 4v-402h-143v1250h154v-533q-1 -113 65 -185t168 -71q102 0 170 71t68 185v533h153v-922h-112l-41 102q-33 -40 -110 -76q-78 -36 -132 -36z" />
    <glyph glyph-name="paragraph" unicode="&#xb6;" horiz-adv-x="1024" 
d="M389 1290h481v-1474h-133v1337h-215v-1337h-133v880q-123 0 -215 90t-92 207t92 207t215 90z" />
    <glyph glyph-name="periodcentered" unicode="&#xb7;" horiz-adv-x="440" 
d="M123 645q0 47 29 75q30 28 74 28t73 -28t29 -75t-29 -75t-74 -28t-73 28t-29 75z" />
    <glyph glyph-name="cedilla" unicode="&#xb8;" horiz-adv-x="399" 
d="M338 -217q0 -55 -48 -93t-136 -38l-93 10v82q41 -10 83 -10t67 18t25 43t-25 43t-68 19l-51 -11l64 154h90l-41 -82q61 -8 97 -44t36 -91z" />
    <glyph glyph-name="onesuperior" unicode="&#xb9;" horiz-adv-x="419" 
d="M287 1475v-594h-113v450l-82 -41l-51 82l164 103h82z" />
    <glyph glyph-name="ordmasculine" unicode="&#xba;" horiz-adv-x="634" 
d="M573 1034q1 -106 -77 -186t-178 -80t-179 80q-78 80 -78 186t78 186t178 80t179 -79q77 -81 77 -187zM174 1034q0 -61 44 -107t99 -46t100 46q44 46 44 107q0 62 -44 108q-43 46 -99 46t-100 -46t-44 -108z" />
    <glyph glyph-name="guillemotright" unicode="&#xbb;" horiz-adv-x="901" 
d="M72 133l225 328l-225 327h153l226 -327l-226 -328h-153zM451 133l225 328l-225 327h153l225 -327l-225 -328h-153z" />
    <glyph glyph-name="onequarter" unicode="&#xbc;" horiz-adv-x="1136" 
d="M225 0h-133l789 1290h133zM891 215v215l-133 -215h133zM1004 594v-379h71v-102h-71v-113h-113v113h-256v82l246 399h123zM287 1290v-594h-113v451l-82 -41l-51 82l164 102h82z" />
    <glyph glyph-name="onehalf" unicode="&#xbd;" horiz-adv-x="1177" 
d="M225 0h-133l789 1290h133zM1116 102v-102h-399v82l225 235q61 61 62 103q0 82 -92 82t-93 -92h-102q0 84 55 139t142 55q86 0 144 -53t58 -123t-61 -131l-181 -195h242zM287 1290v-594h-113v451l-82 -41l-51 82l164 102h82z" />
    <glyph glyph-name="threequarters" unicode="&#xbe;" horiz-adv-x="1259" 
d="M348 0h-133l789 1290h133zM1014 215v215l-133 -215h133zM1126 594v-379h72v-102h-72v-113h-112v113h-256v82l246 399h122zM272 686q-94 0 -152 54t-59 141h103q0 -39 29 -66t73 -27t74 25q29 25 29 61t-29 62q-29 27 -74 27h-53v92h53q37 0 60 20t22 51q0 31 -22 52
q-23 20 -60 20q-92 0 -92 -82h-102q0 78 55 131t138 53t139 -52t57 -122q1 -36 -15 -64t-32 -38l-15 -10q9 -4 23 -12t37 -46q23 -37 22 -86q0 -78 -57 -131q-58 -53 -152 -53z" />
    <glyph glyph-name="questiondown" unicode="&#xbf;" horiz-adv-x="880" 
d="M563 829q1 -47 -27 -75t-75 -27q-47 0 -75 28q-28 29 -28 75t28 74t75 28t75 -28t27 -75zM379 594v10h164v-10q0 -199 -105 -302q-43 -42 -87 -78q-107 -87 -105 -212q0 -82 53 -139t148 -57t152 64q56 65 56 191v21h164v-21q0 -188 -103 -293q-102 -106 -268 -106
t-266 98t-100 250q0 151 104 248q43 39 87 78q106 94 106 258z" />
    <glyph glyph-name="Agrave" unicode="&#xc0;" horiz-adv-x="1126" 
d="M471 1690l123 -246h-102l-175 246h154zM563 1024l-215 -563h430zM952 0l-123 317h-532l-123 -317h-174l492 1290h143l491 -1290h-174z" />
    <glyph glyph-name="Aacute" unicode="&#xc1;" horiz-adv-x="1126" 
d="M522 1444l123 246h154l-174 -246h-103zM563 1024l-215 -563h430zM952 0l-123 317h-532l-123 -317h-174l492 1290h143l491 -1290h-174z" />
    <glyph glyph-name="Acircumflex" unicode="&#xc2;" horiz-adv-x="1126" 
d="M635 1679l184 -245h-153l-103 143l-102 -143h-154l185 245h143zM563 1024l-215 -563h430zM952 0l-123 317h-532l-123 -317h-174l492 1290h143l491 -1290h-174z" />
    <glyph glyph-name="Atilde" unicode="&#xc3;" horiz-adv-x="1126" 
d="M681 1526q29 0 53 33t24 90h92q0 -111 -50 -173t-124 -63q-41 1 -77 21t-55 46q-48 66 -87 66t-64 -33t-24 -90h-93q0 111 50 173t125 63q41 -1 77 -21t55 -46q48 -66 98 -66zM563 1024l-215 -563h430zM952 0l-123 317h-532l-123 -317h-174l492 1290h143l491 -1290h-174z
" />
    <glyph glyph-name="Adieresis" unicode="&#xc4;" horiz-adv-x="1126" 
d="M717 1464q-39 0 -66 27t-27 65t27 66q27 27 66 27t65 -27t27 -66q-1 -40 -27 -66t-65 -26zM410 1464q-39 0 -66 27t-27 65t27 66q27 27 66 27q40 0 66 -27t26 -66q0 -40 -26 -66t-66 -26zM563 1024l-215 -563h430zM952 0l-123 317h-532l-123 -317h-174l492 1290h143
l491 -1290h-174z" />
    <glyph glyph-name="Aring" unicode="&#xc5;" horiz-adv-x="1126" 
d="M727 1567q0 -70 -47 -117t-117 -47t-117 47t-47 117q0 71 47 117t117 46t117 -46q47 -47 47 -117zM492 1567q0 -31 20 -51t51 -20t51 20t21 51q-1 31 -21 51t-51 20t-51 -20t-20 -51zM563 1024l-215 -563h430zM952 0l-123 317h-532l-123 -317h-174l492 1290h143
l491 -1290h-174z" />
    <glyph glyph-name="AE" unicode="&#xc6;" horiz-adv-x="1648" 
d="M788 471v676h-20l-379 -676h399zM952 143h594v-143h-758v328h-481l-184 -328h-184l727 1290h860v-143h-574v-410h523v-143h-523v-451z" />
    <glyph glyph-name="Ccedilla" unicode="&#xc7;" horiz-adv-x="1300" 
d="M686 1157q-174 0 -307 -147q-133 -146 -133 -364t133 -365t293 -147t261 83q99 84 132 213h174q-55 -192 -192 -312t-330 -128l-31 -72q61 -8 97 -44t36 -91t-48 -93t-136 -38l-92 10v82q41 -10 83 -10t66 18t25 43q0 25 -25 43t-67 19l-52 -11l62 144q-223 25 -388 210
t-165 451q0 265 181 457t423 192q199 0 342 -124t201 -316h-174q-33 129 -130 213q-98 84 -239 84z" />
    <glyph glyph-name="Egrave" unicode="&#xc8;" horiz-adv-x="1105" 
d="M532 1690l123 -246h-102l-174 246h153zM328 143h676v-143h-840v1290h819v-143h-655v-410h604v-143h-604v-451z" />
    <glyph glyph-name="Eacute" unicode="&#xc9;" horiz-adv-x="1105" 
d="M512 1444l123 246h153l-174 -246h-102zM328 143h676v-143h-840v1290h819v-143h-655v-410h604v-143h-604v-451z" />
    <glyph glyph-name="Ecircumflex" unicode="&#xca;" horiz-adv-x="1105" 
d="M645 1679l184 -245h-153l-103 143l-102 -143h-154l185 245h143zM328 143h676v-143h-840v1290h819v-143h-655v-410h604v-143h-604v-451z" />
    <glyph glyph-name="Edieresis" unicode="&#xcb;" horiz-adv-x="1105" 
d="M727 1464q-39 0 -65 27t-27 65q0 38 27 66q28 27 66 27t65 -27t27 -66q0 -40 -28 -66q-26 -26 -65 -26zM420 1464q-39 0 -66 27q-26 27 -26 65t26 66q27 27 66 27q40 0 66 -27t26 -66q0 -40 -26 -66t-66 -26zM328 143h676v-143h-840v1290h819v-143h-655v-410h604v-143
h-604v-451z" />
    <glyph glyph-name="Igrave" unicode="&#xcc;" horiz-adv-x="491" 
d="M164 1690l123 -246h-103l-174 246h154zM328 1290v-1290h-164v1290h164z" />
    <glyph glyph-name="Iacute" unicode="&#xcd;" horiz-adv-x="491" 
d="M195 1444l122 246h154l-174 -246h-102zM328 1290v-1290h-164v1290h164z" />
    <glyph glyph-name="Icircumflex" unicode="&#xce;" horiz-adv-x="491" 
d="M317 1679l185 -245h-154l-102 143l-103 -143h-153l184 245h143zM328 1290v-1290h-164v1290h164z" />
    <glyph glyph-name="Idieresis" unicode="&#xcf;" horiz-adv-x="491" 
d="M410 1464q-39 0 -66 27t-27 65t27 66q27 27 66 27q40 0 66 -27t26 -66q0 -40 -26 -66t-66 -26zM102 1464q-40 0 -66 27t-26 65t27 66q27 27 65 27t66 -27q27 -27 27 -66q0 -40 -27 -66t-66 -26zM328 1290v-1290h-164v1290h164z" />
    <glyph glyph-name="Eth" unicode="&#xd0;" horiz-adv-x="1269" 
d="M379 143h194q179 -1 315 145t136 357t-135 356t-316 146h-194v-440h246v-144h-246v-420zM1188 645q0 -273 -179 -459t-436 -186h-358v563h-184v144h184v583h358q256 0 436 -185q179 -186 179 -460z" />
    <glyph glyph-name="Ntilde" unicode="&#xd1;" horiz-adv-x="1280" 
d="M763 1546q29 0 53 33t24 90h92q0 -111 -50 -173t-124 -62q-41 0 -77 20t-55 46q-47 65 -87 66q-41 1 -65 -32t-23 -90h-93q0 111 50 173t124 62q41 0 77 -20t56 -46q49 -67 98 -67zM952 1290h164v-1290h-143l-645 973v-973h-164v1290h143l645 -973v973z" />
    <glyph glyph-name="Ograve" unicode="&#xd2;" horiz-adv-x="1351" 
d="M604 1690l123 -246h-102l-174 246h153zM1280 645q0 -271 -181 -463t-423 -192t-423 191t-181 463t181 464t423 192t423 -192t181 -463zM236 645q0 -217 133 -364t307 -147t307 146q133 148 133 365t-133 365t-307 147q-174 1 -307 -147t-133 -365z" />
    <glyph glyph-name="Oacute" unicode="&#xd3;" horiz-adv-x="1351" 
d="M625 1444l123 246h153l-174 -246h-102zM1280 645q0 -271 -181 -463t-423 -192t-423 191t-181 463t181 464t423 192t423 -192t181 -463zM236 645q0 -217 133 -364t307 -147t307 146q133 148 133 365t-133 365t-307 147q-174 1 -307 -147t-133 -365z" />
    <glyph glyph-name="Ocircumflex" unicode="&#xd4;" horiz-adv-x="1351" 
d="M748 1679l184 -245h-154l-102 143l-103 -143h-153l184 245h144zM1280 645q0 -271 -181 -463t-423 -192t-423 191t-181 463t181 464t423 192t423 -192t181 -463zM236 645q0 -217 133 -364t307 -147t307 146q133 148 133 365t-133 365t-307 147q-174 1 -307 -147t-133 -365
z" />
    <glyph glyph-name="Otilde" unicode="&#xd5;" horiz-adv-x="1351" 
d="M793 1546q28 0 53 33t24 90h93q-1 -111 -51 -173t-124 -62q-40 0 -76 20t-56 46q-47 65 -87 66q-39 1 -63 -32t-25 -90h-92q0 111 50 173t124 62q41 0 77 -20t55 -46q19 -27 45 -47t53 -20zM1280 645q0 -271 -181 -463t-423 -192t-423 191t-181 463t181 464t423 192
t423 -192t181 -463zM236 645q0 -217 133 -364t307 -147t307 146q133 148 133 365t-133 365t-307 147q-174 1 -307 -147t-133 -365z" />
    <glyph glyph-name="Odieresis" unicode="&#xd6;" horiz-adv-x="1351" 
d="M829 1464q-39 0 -65 27t-27 65q0 38 27 66q28 27 66 27t65 -27t27 -66q0 -40 -27 -66t-66 -26zM522 1464q-40 0 -66 27t-26 65t27 66q27 27 65 27t66 -27q26 -27 26 -66q0 -40 -26 -66t-66 -26zM1280 645q0 -271 -181 -463t-423 -192t-423 191t-181 463t181 464t423 192
t423 -192t181 -463zM236 645q0 -217 133 -364t307 -147t307 146q133 148 133 365t-133 365t-307 147q-174 1 -307 -147t-133 -365z" />
    <glyph glyph-name="multiply" unicode="&#xd7;" horiz-adv-x="901" 
d="M543 520l235 -235l-92 -92l-235 235l-236 -235l-92 92l235 235l-235 236l92 92l236 -236l235 236l92 -92z" />
    <glyph glyph-name="Oslash" unicode="&#xd8;" horiz-adv-x="1372" 
d="M686 133q174 -1 307 147t133 365q0 75 -15 141t-30 95l-16 30l-666 -655q12 -14 34 -34q23 -20 97 -55q74 -34 156 -34zM1290 645q0 -271 -181 -463t-423 -192q-115 0 -214 41t-142 82l-43 41l-144 -134l-102 103l154 143q-12 16 -31 48q-18 32 -50 131t-32 200
q0 271 181 463t423 192q115 0 214 -40t142 -82l43 -41l144 133l102 -103l-153 -143q39 -52 75 -165q37 -114 37 -214zM686 1157q-174 0 -307 -147t-133 -365q0 -75 15 -141t30 -94l16 -31l666 655q-12 14 -34 34q-23 20 -97 55q-74 34 -156 34z" />
    <glyph glyph-name="Ugrave" unicode="&#xd9;" horiz-adv-x="1228" 
d="M563 1690l123 -246h-102l-174 246h153zM614 -10q-207 0 -339 130t-132 331v839h164v-839q0 -145 84 -231t223 -87q139 0 224 86q84 86 84 232v839h163v-839q0 -201 -132 -331t-339 -130z" />
    <glyph glyph-name="Uacute" unicode="&#xda;" horiz-adv-x="1228" 
d="M543 1444l123 246h153l-174 -246h-102zM614 -10q-207 0 -339 130t-132 331v839h164v-839q0 -145 84 -231t223 -87q139 0 224 86q84 86 84 232v839h163v-839q0 -201 -132 -331t-339 -130z" />
    <glyph glyph-name="Ucircumflex" unicode="&#xdb;" horiz-adv-x="1228" 
d="M676 1679l184 -245h-153l-103 143l-102 -143h-154l184 245h144zM614 -10q-207 0 -339 130t-132 331v839h164v-839q0 -145 84 -231t223 -87q139 0 224 86q84 86 84 232v839h163v-839q0 -201 -132 -331t-339 -130z" />
    <glyph glyph-name="Udieresis" unicode="&#xdc;" horiz-adv-x="1228" 
d="M768 1464q-39 0 -66 27q-26 27 -26 65t26 66q27 27 66 27t66 -27q26 -27 26 -66q0 -40 -26 -66t-66 -26zM461 1464q-39 0 -66 27t-27 65t27 66q27 27 66 27t65 -27t27 -66q-1 -40 -27 -66t-65 -26zM614 -10q-207 0 -339 130t-132 331v839h164v-839q0 -145 84 -231
t223 -87q139 0 224 86q84 86 84 232v839h163v-839q0 -201 -132 -331t-339 -130z" />
    <glyph glyph-name="Yacute" unicode="&#xdd;" horiz-adv-x="1024" 
d="M471 1444l123 246h154l-175 -246h-102zM594 0h-164v502l-410 788h175l317 -614l317 614h175l-410 -788v-502z" />
    <glyph glyph-name="Thorn" unicode="&#xde;" horiz-adv-x="1198" 
d="M328 430h368q100 0 173 73t73 173t-73 173t-173 73h-368v-492zM164 1290h164v-225h368q168 0 289 -117q121 -116 121 -272t-121 -273t-289 -116h-368v-287h-164v1290z" />
    <glyph glyph-name="germandbls" unicode="&#xdf;" horiz-adv-x="1044" 
d="M963 358q-1 -154 -101 -256t-248 -102h-102v133h102q84 -1 140 63t55 165q0 101 -54 161t-141 62h-102v133q86 0 145 63q59 64 59 162t-58 162q-60 64 -145 63q-85 1 -151 -65t-65 -150v-952h-154v952q0 140 109 244q110 104 262 104t254 -102t102 -256q0 -82 -30 -145
t-62 -88l-30 -23q20 -5 66 -36q46 -32 74 -66t52 -94t23 -132z" />
    <glyph glyph-name="agrave" unicode="&#xe0;" horiz-adv-x="952" 
d="M420 1319l123 -246h-103l-174 246h154zM399 133q117 0 197 67t80 148v72q-258 0 -344 -39t-86 -125q0 -49 42 -86t111 -37zM484 932q150 0 247 -92q98 -92 98 -226v-614h-112l-41 102q-10 -12 -30 -30t-93 -50q-72 -32 -154 -32q-135 0 -221 80t-86 196q0 143 129 220
t455 77v51q0 70 -56 122t-139 52q-152 0 -184 -133h-164q17 121 109 199t242 78z" />
    <glyph glyph-name="aacute" unicode="&#xe1;" horiz-adv-x="952" 
d="M440 1073l123 246h154l-174 -246h-103zM399 133q117 0 197 67t80 148v72q-258 0 -344 -39t-86 -125q0 -49 42 -86t111 -37zM484 932q150 0 247 -92q98 -92 98 -226v-614h-112l-41 102q-10 -12 -30 -30t-93 -50q-72 -32 -154 -32q-135 0 -221 80t-86 196q0 143 129 220
t455 77v51q0 70 -56 122t-139 52q-152 0 -184 -133h-164q17 121 109 199t242 78z" />
    <glyph glyph-name="acircumflex" unicode="&#xe2;" horiz-adv-x="952" 
d="M563 1311l185 -246h-154l-102 143l-103 -143h-153l184 246h143zM399 133q117 0 197 67t80 148v72q-258 0 -344 -39t-86 -125q0 -49 42 -86t111 -37zM484 932q150 0 247 -92q98 -92 98 -226v-614h-112l-41 102q-10 -12 -30 -30t-93 -50q-72 -32 -154 -32q-135 0 -221 80
t-86 196q0 143 129 220t455 77v51q0 70 -56 122t-139 52q-152 0 -184 -133h-164q17 121 109 199t242 78z" />
    <glyph glyph-name="atilde" unicode="&#xe3;" horiz-adv-x="952" 
d="M609 1157q28 0 53 33t24 90h92q0 -111 -50 -173t-124 -63q-41 0 -77 20t-55 47q-47 65 -87 66q-39 1 -63 -32t-25 -90h-92q0 111 50 173t124 62q41 0 77 -20t55 -46t45 -46t53 -21zM399 133q117 0 197 67t80 148v72q-258 0 -344 -39t-86 -125q0 -49 42 -86t111 -37z
M484 932q150 0 247 -92q98 -92 98 -226v-614h-112l-41 102q-10 -12 -30 -30t-93 -50q-72 -32 -154 -32q-135 0 -221 80t-86 196q0 143 129 220t455 77v51q0 70 -56 122t-139 52q-152 0 -184 -133h-164q17 121 109 199t242 78z" />
    <glyph glyph-name="adieresis" unicode="&#xe4;" horiz-adv-x="952" 
d="M635 1096q-39 0 -66 26t-26 66t27 66t65 26t65 -27t27 -65q-1 -38 -27 -66q-26 -26 -65 -26zM328 1096q-39 0 -66 26t-26 66q0 40 26 66t66 26t66 -27t26 -65t-26 -66q-26 -26 -66 -26zM399 133q117 0 197 67t80 148v72q-258 0 -344 -39t-86 -125q0 -49 42 -86t111 -37z
M484 932q150 0 247 -92q98 -92 98 -226v-614h-112l-41 102q-10 -12 -30 -30t-93 -50q-72 -32 -154 -32q-135 0 -221 80t-86 196q0 143 129 220t455 77v51q0 70 -56 122t-139 52q-152 0 -184 -133h-164q17 121 109 199t242 78z" />
    <glyph glyph-name="aring" unicode="&#xe5;" horiz-adv-x="952" 
d="M655 1208q0 -70 -47 -116q-46 -46 -116 -48q-70 0 -117 48t-47 116q0 70 47 117t117 47t116 -47t47 -117zM420 1208q0 -31 20 -51t52 -20t51 20q20 20 20 51q0 32 -20 52t-51 20t-52 -20q-20 -21 -20 -52zM399 133q117 0 197 67t80 148v72q-258 0 -344 -39t-86 -125
q0 -49 42 -86t111 -37zM484 932q150 0 247 -92q98 -92 98 -226v-614h-112l-41 102q-10 -12 -30 -30t-93 -50q-72 -32 -154 -32q-135 0 -221 80t-86 196q0 143 129 220t455 77v51q0 70 -56 122t-139 52q-152 0 -184 -133h-164q17 121 109 199t242 78z" />
    <glyph glyph-name="ae" unicode="&#xe6;" horiz-adv-x="1515" 
d="M399 133q113 -1 185 63t71 152v51q-245 0 -327 -38t-82 -115q0 -41 44 -77t109 -36zM1055 788q-86 0 -157 -74t-79 -182h461q-8 112 -74 184t-151 72zM92 246q0 143 126 220t437 77v71q0 70 -54 122t-130 52q-141 0 -174 -133h-164q17 121 107 199t231 78q86 0 158 -36
t100 -73l29 -35q12 18 44 46q106 95 263 97q155 1 267 -123t112 -327l-10 -82h-615q8 -113 80 -189t166 -77q127 0 195 113h163q-43 -109 -136 -183q-93 -73 -218 -73t-204 61t-105 105l-12 18q-9 -18 -48 -57q-38 -39 -76 -64q-94 -63 -226 -63t-219 76t-87 180z" />
    <glyph glyph-name="ccedilla" unicode="&#xe7;" horiz-adv-x="962" 
d="M490 788q-100 0 -182 -93q-83 -93 -83 -234t83 -235q82 -94 182 -93q100 0 166 56t92 139h153q-31 -138 -130 -234t-228 -104l-41 -72q61 -8 97 -44t36 -91t-48 -93t-136 -38l-93 10v82q41 -10 83 -10t67 18t24 43q0 25 -24 43q-25 18 -68 19l-51 -11l62 144
q-160 26 -270 152q-109 126 -109 325t125 332t290 133t273 -97t141 -241h-153q-26 82 -92 138t-166 56z" />
    <glyph glyph-name="egrave" unicode="&#xe8;" horiz-adv-x="972" 
d="M420 1319l123 -246h-103l-174 246h154zM493 788q-93 0 -168 -76t-89 -190h501q-15 122 -83 194t-161 72zM72 460q0 204 124 338t296 134t290 -129t119 -332l-10 -82h-655q8 -100 88 -178t178 -78q131 0 215 113h164q-51 -111 -147 -184t-232 -72q-180 0 -305 133
t-125 337z" />
    <glyph glyph-name="eacute" unicode="&#xe9;" horiz-adv-x="972" 
d="M440 1073l123 246h154l-174 -246h-103zM493 788q-93 0 -168 -76t-89 -190h501q-15 122 -83 194t-161 72zM72 460q0 204 124 338t296 134t290 -129t119 -332l-10 -82h-655q8 -100 88 -178t178 -78q131 0 215 113h164q-51 -111 -147 -184t-232 -72q-180 0 -305 133
t-125 337z" />
    <glyph glyph-name="ecircumflex" unicode="&#xea;" horiz-adv-x="972" 
d="M563 1311l185 -246h-154l-102 143l-103 -143h-153l184 246h143zM493 788q-93 0 -168 -76t-89 -190h501q-15 122 -83 194t-161 72zM72 460q0 204 124 338t296 134t290 -129t119 -332l-10 -82h-655q8 -100 88 -178t178 -78q131 0 215 113h164q-51 -111 -147 -184t-232 -72
q-180 0 -305 133t-125 337z" />
    <glyph glyph-name="edieresis" unicode="&#xeb;" horiz-adv-x="972" 
d="M645 1096q-39 0 -65 26t-27 66q0 40 27 66q28 26 66 26t65 -27t27 -65t-27 -66q-27 -26 -66 -26zM338 1096q-39 0 -66 26t-26 66q0 40 26 66t66 26t66 -27t26 -65t-26 -66q-26 -26 -66 -26zM493 788q-93 0 -168 -76t-89 -190h501q-15 122 -83 194t-161 72zM72 460
q0 204 124 338t296 134t290 -129t119 -332l-10 -82h-655q8 -100 88 -178t178 -78q131 0 215 113h164q-51 -111 -147 -184t-232 -72q-180 0 -305 133t-125 337z" />
    <glyph glyph-name="igrave" unicode="&#xec;" horiz-adv-x="419" 
d="M143 1311l123 -246h-102l-174 246h153zM287 922v-922h-154v922h154z" />
    <glyph glyph-name="iacute" unicode="&#xed;" horiz-adv-x="419" 
d="M154 1065l122 246h154l-174 -246h-102zM287 922v-922h-154v922h154z" />
    <glyph glyph-name="icircumflex" unicode="&#xee;" horiz-adv-x="419" 
d="M276 1311l185 -246h-154l-102 143l-103 -143h-153l184 246h143zM287 922v-922h-154v922h154z" />
    <glyph glyph-name="idieresis" unicode="&#xef;" horiz-adv-x="419" 
d="M358 1096q-40 0 -66 26t-26 66t27 66t65 26t66 -27q27 -27 27 -65t-27 -66q-27 -26 -66 -26zM51 1096q-39 0 -65 26t-27 66q0 40 27 66q28 26 66 26t65 -27t27 -65t-27 -66q-27 -26 -66 -26zM287 922v-922h-154v922h154z" />
    <glyph glyph-name="eth" unicode="&#xf0;" horiz-adv-x="1044" 
d="M512 133q117 0 202 89t85 218t-85 218q-85 90 -202 90t-202 -90t-85 -218q0 -129 85 -218t202 -89zM518 -10q-190 0 -318 130t-128 320t124 320t296 131q90 0 164 -31t104 -61l28 -31q-26 127 -83 211q-57 85 -95 123l-16 14l-184 -123l-72 103l154 102q-82 54 -181 84
l-35 8l52 123q174 -57 276 -133l164 113l72 -103l-144 -92q34 -27 83 -97q50 -69 84 -143t62 -194t27 -252q0 -242 -122 -382t-312 -140z" />
    <glyph glyph-name="ntilde" unicode="&#xf1;" horiz-adv-x="1034" 
d="M650 1178q28 0 52 32t25 90h92q0 -111 -50 -173t-124 -62q-41 0 -77 20q-36 21 -55 47q-48 66 -87 66t-64 -33t-24 -90h-92q0 111 50 173t124 63q41 -1 77 -21t55 -46q18 -26 44 -46t54 -20zM553 932q150 0 254 -113t104 -287v-532h-153v532q0 113 -66 185
q-66 71 -168 71t-170 -70t-67 -186v-532h-154v922h113l41 -103q10 13 30 31t89 50t147 32z" />
    <glyph glyph-name="ograve" unicode="&#xf2;" 
d="M440 1311l123 -246h-102l-174 246h153zM932 461q0 -205 -125 -338t-305 -133t-305 133t-125 338t125 338t305 133t305 -133t125 -338zM225 461q0 -141 83 -235t194 -93q112 0 194 93q82 92 82 234t-83 235t-193 93t-194 -93q-83 -93 -83 -234z" />
    <glyph glyph-name="oacute" unicode="&#xf3;" 
d="M461 1065l123 246h153l-174 -246h-102zM932 461q0 -205 -125 -338t-305 -133t-305 133t-125 338t125 338t305 133t305 -133t125 -338zM225 461q0 -141 83 -235t194 -93q112 0 194 93q82 92 82 234t-83 235t-193 93t-194 -93q-83 -93 -83 -234z" />
    <glyph glyph-name="ocircumflex" unicode="&#xf4;" 
d="M573 1311l185 -246h-154l-102 143l-103 -143h-153l184 246h143zM932 461q0 -205 -125 -338t-305 -133t-305 133t-125 338t125 338t305 133t305 -133t125 -338zM225 461q0 -141 83 -235t194 -93q112 0 194 93q82 92 82 234t-83 235t-193 93t-194 -93q-83 -93 -83 -234z
" />
    <glyph glyph-name="otilde" unicode="&#xf5;" 
d="M619 1157q28 0 53 33t24 90h92q0 -111 -50 -173t-124 -63q-40 0 -76 20t-56 47q-47 65 -87 66q-39 1 -63 -32t-25 -90h-92q0 111 50 173t124 62q41 0 77 -20t55 -46t45 -46t53 -21zM932 461q0 -205 -125 -338t-305 -133t-305 133t-125 338t125 338t305 133t305 -133
t125 -338zM225 461q0 -141 83 -235t194 -93q112 0 194 93q82 92 82 234t-83 235t-193 93t-194 -93q-83 -93 -83 -234z" />
    <glyph glyph-name="odieresis" unicode="&#xf6;" 
d="M655 1096q-39 0 -65 26t-27 66q0 40 27 66q28 26 66 26t65 -27t27 -65t-27 -66q-27 -26 -66 -26zM348 1096q-40 0 -66 26t-26 66t27 66t65 26t66 -27q26 -27 26 -65t-26 -66q-27 -26 -66 -26zM932 461q0 -205 -125 -338t-305 -133t-305 133t-125 338t125 338t305 133
t305 -133t125 -338zM225 461q0 -141 83 -235t194 -93q112 0 194 93q82 92 82 234t-83 235t-193 93t-194 -93q-83 -93 -83 -234z" />
    <glyph glyph-name="divide" unicode="&#xf7;" horiz-adv-x="901" 
d="M451 297q45 0 73 -28q28 -29 29 -75q0 -46 -29 -74q-30 -28 -74 -28t-73 28t-29 75t29 75t74 27zM451 758q-45 0 -74 28t-29 74q0 45 29 74t74 29t73 -29t29 -74q-1 -46 -29 -74t-73 -28zM829 594v-133h-757v133h757z" />
    <glyph glyph-name="oslash" unicode="&#xf8;" horiz-adv-x="1044" 
d="M526 133q106 0 190 93q83 93 83 235q0 67 -25 125l-6 18l-420 -399q72 -72 178 -72zM952 461q0 -205 -125 -338t-305 -133q-82 0 -154 28t-102 56l-30 28l-103 -102l-92 102l113 103q-61 102 -62 256q0 205 125 338t305 133q82 0 154 -28t102 -56l31 -29l102 103l93 -103
l-113 -102q61 -102 61 -256zM246 461q0 -65 24 -125l6 -19l420 400q-72 71 -178 71t-190 -93q-82 -93 -82 -234z" />
    <glyph glyph-name="ugrave" unicode="&#xf9;" horiz-adv-x="1034" 
d="M481 1319l123 -246h-102l-174 246h153zM492 -10q-150 0 -254 112t-105 287v533h154v-533q-1 -113 65 -185t168 -71q102 0 170 71t68 185v533h153v-922h-112l-41 102q-33 -40 -111 -76q-77 -36 -155 -36z" />
    <glyph glyph-name="uacute" unicode="&#xfa;" horiz-adv-x="1034" 
d="M461 1075l123 246h153l-174 -246h-102zM492 -10q-150 0 -254 112t-105 287v533h154v-533q-1 -113 65 -185t168 -71q102 0 170 71t68 185v533h153v-922h-112l-41 102q-33 -40 -111 -76q-77 -36 -155 -36z" />
    <glyph glyph-name="ucircumflex" unicode="&#xfb;" horiz-adv-x="1034" 
d="M584 1311l184 -246h-154l-102 143l-102 -143h-154l184 246h144zM492 -10q-150 0 -254 112t-105 287v533h154v-533q-1 -113 65 -185t168 -71q102 0 170 71t68 185v533h153v-922h-112l-41 102q-33 -40 -111 -76q-77 -36 -155 -36z" />
    <glyph glyph-name="udieresis" unicode="&#xfc;" horiz-adv-x="1034" 
d="M666 1096q-39 0 -66 26t-27 66t27 66t66 26q40 0 66 -27t26 -65t-26 -66q-26 -26 -66 -26zM358 1096q-40 0 -66 26t-26 66t27 66t65 26t66 -27q27 -27 27 -65t-27 -66q-27 -26 -66 -26zM492 -10q-150 0 -254 112t-105 287v533h154v-533q-1 -113 65 -185t168 -71
q102 0 170 71t68 185v533h153v-922h-112l-41 102q-33 -40 -111 -76q-77 -36 -155 -36z" />
    <glyph glyph-name="yacute" unicode="&#xfd;" horiz-adv-x="921" 
d="M410 1073l122 246h154l-174 -246h-102zM174 -205q66 0 102 29t62 94l41 102l-359 902h164l277 -707l276 707h164l-399 -1004q-56 -140 -116 -198t-150 -58l-62 10v123z" />
    <glyph glyph-name="thorn" unicode="&#xfe;" horiz-adv-x="1085" 
d="M297 1290v-481q4 4 19 23t62 46q95 54 195 54q179 0 305 -133t126 -338t-125 -338t-306 -133q-81 0 -151 30t-98 62l-27 31v-441h-154v1618h154zM276 461q0 -143 84 -235t203 -93q119 0 203 92q84 91 84 235t-84 236t-203 92t-203 -92t-84 -235z" />
    <glyph glyph-name="ydieresis" unicode="&#xff;" horiz-adv-x="921" 
d="M614 1096q-40 0 -66 26t-26 66t27 66t65 26t66 -27q27 -27 27 -65t-27 -66q-27 -26 -66 -26zM307 1096q-39 0 -65 26t-27 66q0 40 27 66q28 26 66 26t65 -27t27 -65t-27 -66q-27 -26 -66 -26zM174 -205q66 0 102 29t62 94l41 102l-359 902h164l277 -707l276 707h164
l-399 -1004q-56 -140 -116 -198t-150 -58l-62 10v123z" />
    <glyph glyph-name="Amacron" unicode="&#x100;" horiz-adv-x="1126" 
d="M809 1587v-123h-492v123h492zM563 1024l-215 -563h430zM952 0l-123 317h-532l-123 -317h-174l492 1290h143l491 -1290h-174z" />
    <glyph glyph-name="amacron" unicode="&#x101;" horiz-adv-x="952" 
d="M727 1239v-123h-491v123h491zM399 133q117 0 197 67t80 148v72q-258 0 -344 -39t-86 -125q0 -49 42 -86t111 -37zM484 932q150 0 247 -92q98 -92 98 -226v-614h-112l-41 102q-10 -12 -30 -30t-93 -50q-72 -32 -154 -32q-135 0 -221 80t-86 196q0 143 129 220t455 77v51
q0 70 -56 122t-139 52q-152 0 -184 -133h-164q17 121 109 199t242 78z" />
    <glyph glyph-name="Abreve" unicode="&#x102;" horiz-adv-x="1126" 
d="M563 1434q-96 0 -163 64t-83 161h123q8 -53 42 -88t81 -35t81 35t42 88h123q-16 -97 -83 -161t-163 -64zM563 1024l-215 -563h430zM952 0l-123 317h-532l-123 -317h-174l492 1290h143l491 -1290h-174z" />
    <glyph glyph-name="abreve" unicode="&#x103;" horiz-adv-x="952" 
d="M492 1065q-96 1 -163 65t-83 160h123q8 -53 43 -88t80 -35q46 0 80 35t42 88h123q-17 -96 -83 -160t-162 -65zM399 133q117 0 197 67t80 148v72q-258 0 -344 -39t-86 -125q0 -49 42 -86t111 -37zM484 932q150 0 247 -92q98 -92 98 -226v-614h-112l-41 102
q-10 -12 -30 -30t-93 -50q-72 -32 -154 -32q-135 0 -221 80t-86 196q0 143 129 220t455 77v51q0 70 -56 122t-139 52q-152 0 -184 -133h-164q17 121 109 199t242 78z" />
    <glyph glyph-name="Aogonek" unicode="&#x104;" horiz-adv-x="1126" 
d="M563 1024l-215 -563h430zM983 -174q0 -39 27 -66t65 -26l82 10v-82q-41 -10 -82 -10q-90 0 -142 48t-52 126q0 41 18 85t35 66l18 23l-123 317h-532l-123 -317h-174l492 1290h143l491 -1290h-71q-72 -82 -72 -174z" />
    <glyph glyph-name="aogonek" unicode="&#x105;" horiz-adv-x="952" 
d="M399 133q117 0 197 67t80 148v72q-258 0 -344 -39t-86 -125q0 -49 42 -86t111 -37zM399 -10q-135 0 -221 80t-86 196q0 143 129 220t455 77v51q0 70 -56 122t-139 52q-152 0 -184 -133h-164q17 121 109 199t242 78t247 -92q98 -92 98 -226v-614h-10q-72 -82 -71 -174
q0 -39 26 -66t66 -26l82 10v-82q-41 -10 -82 -10q-90 0 -143 48q-52 48 -52 126q0 41 18 85q17 44 35 66l19 23l-41 102q-10 -12 -30 -30t-93 -50q-72 -32 -154 -32z" />
    <glyph glyph-name="Cacute" unicode="&#x106;" horiz-adv-x="1300" 
d="M635 1444l123 246h153l-174 -246h-102zM686 1157q-174 0 -307 -147q-133 -146 -133 -364t133 -365t293 -147t261 83q99 84 132 213h174q-57 -196 -201 -318t-352 -122q-242 0 -423 191t-181 463t181 464t423 192q199 0 342 -124t201 -316h-174q-33 129 -130 213
q-98 84 -239 84z" />
    <glyph glyph-name="cacute" unicode="&#x107;" horiz-adv-x="962" 
d="M451 1073l122 246h154l-174 -246h-102zM490 788q-100 0 -182 -93q-83 -93 -83 -234t83 -235q82 -94 182 -93q100 0 166 56t92 139h153q-33 -143 -141 -241q-110 -97 -274 -97t-289 133t-125 338t125 338t290 133t273 -97t141 -241h-153q-26 82 -92 138t-166 56z" />
    <glyph glyph-name="Ccircumflex" unicode="&#x108;" horiz-adv-x="1300" 
d="M758 1679l184 -245h-154l-102 143l-102 -143h-154l184 245h144zM686 1157q-174 0 -307 -147q-133 -146 -133 -364t133 -365t293 -147t261 83q99 84 132 213h174q-57 -196 -201 -318t-352 -122q-242 0 -423 191t-181 463t181 464t423 192q199 0 342 -124t201 -316h-174
q-33 129 -130 213q-98 84 -239 84z" />
    <glyph glyph-name="ccircumflex" unicode="&#x109;" horiz-adv-x="962" 
d="M573 1311l185 -246h-154l-102 143l-103 -143h-153l184 246h143zM490 788q-100 0 -182 -93q-83 -93 -83 -234t83 -235q82 -94 182 -93q100 0 166 56t92 139h153q-33 -143 -141 -241q-110 -97 -274 -97t-289 133t-125 338t125 338t290 133t273 -97t141 -241h-153
q-26 82 -92 138t-166 56z" />
    <glyph glyph-name="Ccaron" unicode="&#x10c;" horiz-adv-x="1300" 
d="M932 1679l-184 -245h-144l-184 245h153l103 -143l102 143h154zM686 1157q-174 0 -307 -147q-133 -146 -133 -364t133 -365t293 -147t261 83q99 84 132 213h174q-57 -196 -201 -318t-352 -122q-242 0 -423 191t-181 463t181 464t423 192q199 0 342 -124t201 -316h-174
q-33 129 -130 213q-98 84 -239 84z" />
    <glyph glyph-name="ccaron" unicode="&#x10d;" horiz-adv-x="962" 
d="M758 1311l-185 -246h-143l-184 246h153l103 -144l102 144h154zM490 788q-100 0 -182 -93q-83 -93 -83 -234t83 -235q82 -94 182 -93q100 0 166 56t92 139h153q-33 -143 -141 -241q-110 -97 -274 -97t-289 133t-125 338t125 338t290 133t273 -97t141 -241h-153
q-26 82 -92 138t-166 56z" />
    <glyph glyph-name="Dcaron" unicode="&#x10e;" horiz-adv-x="1218" 
d="M881 1679l-185 -245h-143l-184 245h153l103 -143l102 143h154zM1137 645q1 -273 -179 -459t-436 -186h-358v1290h358q256 0 436 -186t179 -459zM328 143h194q180 -1 316 145t135 357q0 211 -135 356t-316 146h-194v-1004z" />
    <glyph glyph-name="dcaron" unicode="&#x10f;" horiz-adv-x="1179" 
d="M502 -10q-180 0 -305 133t-125 338t125 338t305 133q82 0 150 -31t98 -61l28 -31v481h154v-1290h-113l-41 102q-10 -12 -30 -30t-92 -50t-154 -32zM799 461q0 143 -84 235t-203 92t-203 -92t-84 -235t84 -235t203 -93q119 1 203 93t84 235zM1044 1044l72 246h146
l-123 -246h-95z" />
    <glyph glyph-name="Dcroat" unicode="&#x110;" horiz-adv-x="1269" 
d="M379 143h194q179 -1 315 145t136 357t-135 356t-316 146h-194v-440h246v-144h-246v-420zM1188 645q0 -273 -179 -459t-436 -186h-358v563h-184v144h184v583h358q256 0 436 -185q179 -186 179 -460z" />
    <glyph glyph-name="dcroat" unicode="&#x111;" horiz-adv-x="1034" 
d="M215 420q0 -121 79 -204q80 -83 188 -83t187 83t79 204t-79 204t-188 83t-187 -83t-79 -204zM471 993v133h256v164h154v-164h153v-133h-153v-993h-113l-41 102q-9 -12 -27 -30t-85 -50t-144 -32q-170 0 -290 124t-120 306t120 306t290 124q78 0 141 -28t88 -56l27 -29
v256h-256z" />
    <glyph glyph-name="Emacron" unicode="&#x112;" horiz-adv-x="1105" 
d="M819 1608v-123h-491v123h491zM328 143h676v-143h-840v1290h819v-143h-655v-410h604v-143h-604v-451z" />
    <glyph glyph-name="emacron" unicode="&#x113;" horiz-adv-x="972" 
d="M737 1239v-123h-491v123h491zM493 788q-93 0 -168 -76t-89 -190h501q-15 122 -83 194t-161 72zM72 460q0 204 124 338t296 134t290 -129t119 -332l-10 -82h-655q8 -100 88 -178t178 -78q131 0 215 113h164q-51 -111 -147 -184t-232 -72q-180 0 -305 133t-125 337z" />
    <glyph glyph-name="Edotaccent" unicode="&#x116;" horiz-adv-x="1105" 
d="M579 1649q41 0 69 -28t28 -70q0 -41 -28 -69t-70 -28t-69 28q-28 28 -28 69q0 42 28 70t70 28zM328 143h676v-143h-840v1290h819v-143h-655v-410h604v-143h-604v-451z" />
    <glyph glyph-name="edotaccent" unicode="&#x117;" horiz-adv-x="972" 
d="M399 1183q0 41 28 69t70 28q41 0 69 -28t28 -70t-28 -69q-28 -28 -70 -28t-69 28q-28 28 -28 70zM493 788q-93 0 -168 -76t-89 -190h501q-15 122 -83 194t-161 72zM72 460q0 204 124 338t296 134t290 -129t119 -332l-10 -82h-655q8 -100 88 -178t178 -78q131 0 215 113
h164q-51 -111 -147 -184t-232 -72q-180 0 -305 133t-125 337z" />
    <glyph glyph-name="Eogonek" unicode="&#x118;" horiz-adv-x="1105" 
d="M164 0v1290h819v-143h-655v-410h604v-143h-604v-451h676v-143q-72 -82 -72 -174q0 -39 26 -66t66 -26l82 10v-82q-41 -10 -82 -10q-90 0 -142 48t-53 126q0 41 18 85q17 44 36 66l18 23h-737z" />
    <glyph glyph-name="eogonek" unicode="&#x119;" horiz-adv-x="972" 
d="M493 788q-93 0 -168 -76t-89 -190h501q-15 122 -83 194t-161 72zM502 -174q0 -39 26 -66t66 -26l82 10v-82q-41 -10 -82 -10q-90 0 -142 48t-53 126q-1 41 15 82t32 61l15 21q-160 16 -275 147q-114 131 -114 329t124 332t296 134t290 -129t119 -332l-10 -82h-655
q8 -100 88 -178t178 -78q131 0 215 113h164q-98 -215 -318 -256q-61 -72 -61 -164z" />
    <glyph glyph-name="Ecaron" unicode="&#x11a;" horiz-adv-x="1105" 
d="M840 1679l-185 -245h-143l-184 245h153l103 -143l102 143h154zM328 143h676v-143h-840v1290h819v-143h-655v-410h604v-143h-604v-451z" />
    <glyph glyph-name="ecaron" unicode="&#x11b;" horiz-adv-x="972" 
d="M748 1311l-185 -246h-143l-184 246h153l103 -144l102 144h154zM493 788q-93 0 -168 -76t-89 -190h501q-15 122 -83 194t-161 72zM72 460q0 204 124 338t296 134t290 -129t119 -332l-10 -82h-655q8 -100 88 -178t178 -78q131 0 215 113h164q-51 -111 -147 -184t-232 -72
q-180 0 -305 133t-125 337z" />
    <glyph glyph-name="Gbreve" unicode="&#x11e;" horiz-adv-x="1382" 
d="M696 1434q-96 0 -162 64t-83 161h122q8 -53 43 -88t80 -35t80 35t43 88h123q-16 -97 -83 -161t-163 -64zM678 -10q-234 0 -415 191t-181 463t181 464t423 192q207 0 342 -112t201 -307h-174q-86 276 -369 276q-174 0 -307 -147q-133 -146 -133 -364t133 -365t296 -147
t281 114q118 115 119 254h-379v143h543v-645h-123l-41 154q-163 -164 -397 -164z" />
    <glyph glyph-name="gbreve" unicode="&#x11f;" horiz-adv-x="1034" 
d="M502 1065q-96 1 -163 65t-83 160h123q8 -53 42 -88t81 -35t81 35t42 88h123q-16 -96 -83 -160t-163 -65zM225 481q0 -135 80 -221t197 -86q116 0 196 86t80 221t-80 221t-196 86t-197 -86q-80 -86 -80 -221zM758 31v123q-4 -4 -14 -21t-59 -46q-92 -56 -193 -56
q-178 0 -299 127q-121 128 -121 324t121 323t299 127q82 0 148 -28t93 -56l25 -29l41 103h112v-891q1 -164 -113 -272q-114 -107 -282 -107t-264 77t-129 199h153q57 -133 226 -133q112 0 184 68t72 168z" />
    <glyph glyph-name="Gcommaaccent" unicode="&#x122;" horiz-adv-x="1382" 
d="M584 -236q0 43 29 73q30 30 73 30t73 -30q52 -52 14 -177q-22 -73 -84 -137q-27 -28 -54 -45l-31 41q72 61 82 143q-42 0 -72 30t-30 72zM678 -10q-234 0 -415 191t-181 463t181 464t423 192q207 0 342 -112t201 -307h-174q-86 276 -369 276q-174 0 -307 -147
q-133 -146 -133 -364t133 -365t296 -147t281 114q118 115 119 254h-379v143h543v-645h-123l-41 154q-163 -164 -397 -164z" />
    <glyph glyph-name="gcommaaccent" unicode="&#x123;" horiz-adv-x="1034" 
d="M225 481q0 -135 80 -221t197 -86q116 0 196 86t80 221t-80 221t-196 86t-197 -86q-80 -86 -80 -221zM758 31v123q-4 -4 -14 -21t-59 -46q-92 -56 -193 -56q-178 0 -299 127q-121 128 -121 324t121 323t299 127q82 0 148 -28t93 -56l25 -29l41 103h112v-891
q1 -164 -113 -272q-114 -107 -282 -107t-264 77t-129 199h153q57 -133 226 -133q112 0 184 68t72 168zM625 1167q0 -43 -30 -73t-73 -29q-42 0 -72 30q-30 31 -30 79q0 132 99 235q27 28 54 45l31 -41q-72 -61 -82 -143q43 0 73 -30t30 -73z" />
    <glyph glyph-name="Imacron" unicode="&#x12a;" horiz-adv-x="491" 
d="M492 1597v-122h-492v122h492zM328 1290v-1290h-164v1290h164z" />
    <glyph glyph-name="imacron" unicode="&#x12b;" horiz-adv-x="419" 
d="M451 1239v-123h-492v123h492zM287 922v-922h-154v922h154z" />
    <glyph glyph-name="Iogonek" unicode="&#x12e;" horiz-adv-x="491" 
d="M164 1290h164v-1290h-62q-72 -82 -71 -174q1 -39 27 -66t65 -26l82 10v-82q-41 -10 -82 -10q-90 0 -143 48q-52 48 -52 126q0 41 18 85q17 44 35 66l19 23v1290z" />
    <glyph glyph-name="iogonek" unicode="&#x12f;" horiz-adv-x="419" 
d="M113 1183q-1 41 27 69t70 28t70 -28t28 -70t-28 -69q-28 -28 -70 -28t-70 28q-27 28 -27 70zM287 922v-922h-41q-72 -82 -72 -174q0 -39 27 -66t65 -26l82 10v-82q-41 -10 -82 -10q-90 0 -142 48t-52 126q0 41 17 85t36 66l18 23h-10v922h154z" />
    <glyph glyph-name="Idotaccent" unicode="&#x130;" horiz-adv-x="491" 
d="M251 1454q-41 0 -69 28t-28 69q0 42 27 70q28 28 70 28t70 -28q27 -28 27 -70q0 -41 -28 -69t-69 -28zM328 1290v-1290h-164v1290h164z" />
    <glyph glyph-name="dotlessi" unicode="&#x131;" horiz-adv-x="419" 
d="M287 922v-922h-154v922h154z" />
    <glyph glyph-name="ij" unicode="&#x133;" horiz-adv-x="890" 
d="M113 1183q-1 41 27 69t70 28t70 -28t28 -70t-28 -69q-28 -28 -70 -28t-70 28q-27 28 -27 70zM584 1183q0 41 28 69t69 28q42 0 70 -28q27 -28 27 -70t-28 -69q-28 -28 -69 -28q-42 0 -70 28q-27 28 -27 70zM492 -338q-60 0 -93 21v133q20 -10 52 -11q69 0 111 44t42 120
v62q-61 -41 -186 -41t-205 84t-80 213v635h154v-635q0 -61 48 -107q49 -46 103 -47q101 0 148 31l18 10v748h154v-953q0 -135 -78 -221t-188 -86z" />
    <glyph glyph-name="Kcommaaccent" unicode="&#x136;" horiz-adv-x="1054" 
d="M461 -236q0 43 29 73q30 30 73 30t73 -30t30 -79q0 -131 -100 -235q-27 -28 -54 -45l-31 41q72 61 82 143q-43 0 -73 30t-29 72zM328 655l501 635h195l-512 -635l553 -655h-195zM328 1290v-1290h-164v1290h164z" />
    <glyph glyph-name="kcommaaccent" unicode="&#x137;" horiz-adv-x="860" 
d="M369 -236q0 43 29 73q30 30 73 30t73 -30q30 -31 30 -95t-40 -136q-38 -72 -75 -100l-39 -28l-31 41q72 61 82 143q-43 0 -73 30t-29 72zM297 0h-154v1290h154v-809l348 441h174l-348 -430l399 -492h-184l-389 481v-481z" />
    <glyph glyph-name="Lacute" unicode="&#x139;" horiz-adv-x="962" 
d="M184 1444l123 246h154l-174 -246h-103zM328 143h614v-143h-778v1290h164v-1147z" />
    <glyph glyph-name="lacute" unicode="&#x13a;" horiz-adv-x="440" 
d="M164 1444l123 246h153l-174 -246h-102zM297 1290v-1290h-154v1290h154z" />
    <glyph glyph-name="Lcommaaccent" unicode="&#x13b;" horiz-adv-x="962" 
d="M461 -236q0 43 29 73q30 30 73 30t73 -30t30 -79q0 -131 -100 -235q-27 -28 -54 -45l-31 41q72 61 82 143q-43 0 -73 30t-29 72zM328 143h614v-143h-778v1290h164v-1147z" />
    <glyph glyph-name="lcommaaccent" unicode="&#x13c;" horiz-adv-x="440" 
d="M113 -236q0 43 29 73q30 30 73 30t73 -30q52 -52 14 -177q-22 -73 -84 -137q-27 -28 -54 -45l-31 41q72 61 82 143q-43 0 -73 30t-29 72zM297 1290v-1290h-154v1290h154z" />
    <glyph glyph-name="Lcaron" unicode="&#x13d;" horiz-adv-x="962" 
d="M328 143h614v-143h-778v1290h164v-1147zM461 1044l71 246h144l-123 -246h-92z" />
    <glyph glyph-name="lcaron" unicode="&#x13e;" horiz-adv-x="532" 
d="M297 1290v-1290h-154v1290h154zM410 1044l71 246h144l-123 -246h-92z" />
    <glyph glyph-name="Lslash" unicode="&#x141;" horiz-adv-x="993" 
d="M358 143h615v-143h-778v399l-144 -92v164l144 92v727h163v-624l308 204v-163l-308 -205v-359z" />
    <glyph glyph-name="lslash" unicode="&#x142;" horiz-adv-x="512" 
d="M328 0h-154v530l-154 -100v154l154 100v606h154v-506l164 107v-154l-164 -106v-631z" />
    <glyph glyph-name="Nacute" unicode="&#x143;" horiz-adv-x="1280" 
d="M584 1444l123 246h153l-174 -246h-102zM952 1290h164v-1290h-143l-645 973v-973h-164v1290h143l645 -973v973z" />
    <glyph glyph-name="nacute" unicode="&#x144;" horiz-adv-x="1034" 
d="M471 1075l123 246h154l-175 -246h-102zM553 932q150 0 254 -113t104 -287v-532h-153v532q0 113 -66 185q-66 71 -168 71t-170 -70t-67 -186v-532h-154v922h113l41 -103q10 13 30 31t89 50t147 32z" />
    <glyph glyph-name="Ncommaaccent" unicode="&#x145;" horiz-adv-x="1280" 
d="M532 -236q0 43 30 73t73 30t73 -30q30 -31 30 -95t-40 -136q-39 -72 -75 -100l-39 -28l-31 41q72 61 82 143q-43 0 -73 30t-30 72zM952 1290h164v-1290h-143l-645 973v-973h-164v1290h143l645 -973v973z" />
    <glyph glyph-name="ncommaaccent" unicode="&#x146;" horiz-adv-x="1034" 
d="M420 -236q0 43 30 73t72 30t73 -30q30 -30 30 -79q0 -131 -100 -235q-27 -28 -54 -45l-31 41q72 61 82 143q-42 0 -72 30t-30 72zM553 932q150 0 254 -113t104 -287v-532h-153v532q0 113 -66 185q-66 71 -168 71t-170 -70t-67 -186v-532h-154v922h113l41 -103
q10 13 30 31t89 50t147 32z" />
    <glyph glyph-name="Ncaron" unicode="&#x147;" horiz-adv-x="1280" 
d="M891 1679l-184 -245h-144l-184 245h153l103 -143l102 143h154zM952 1290h164v-1290h-143l-645 973v-973h-164v1290h143l645 -973v973z" />
    <glyph glyph-name="ncaron" unicode="&#x148;" horiz-adv-x="1034" 
d="M778 1311l-184 -246h-143l-185 246h154l102 -144l103 144h153zM553 932q150 0 254 -113t104 -287v-532h-153v532q0 113 -66 185q-66 71 -168 71t-170 -70t-67 -186v-532h-154v922h113l41 -103q10 13 30 31t89 50t147 32z" />
    <glyph glyph-name="Omacron" unicode="&#x14c;" horiz-adv-x="1351" 
d="M922 1597v-122h-492v122h492zM1280 645q0 -271 -181 -463t-423 -192t-423 191t-181 463t181 464t423 192t423 -192t181 -463zM236 645q0 -217 133 -364t307 -147t307 146q133 148 133 365t-133 365t-307 147q-174 1 -307 -147t-133 -365z" />
    <glyph glyph-name="omacron" unicode="&#x14d;" 
d="M748 1239v-123h-492v123h492zM932 461q0 -205 -125 -338t-305 -133t-305 133t-125 338t125 338t305 133t305 -133t125 -338zM225 461q0 -141 83 -235t194 -93q112 0 194 93q82 92 82 234t-83 235t-193 93t-194 -93q-83 -93 -83 -234z" />
    <glyph glyph-name="Ohungarumlaut" unicode="&#x150;" horiz-adv-x="1351" 
d="M768 1444l133 246h154l-185 -246h-102zM481 1444l133 246h154l-184 -246h-103zM1280 645q0 -271 -181 -463t-423 -192t-423 191t-181 463t181 464t423 192t423 -192t181 -463zM236 645q0 -217 133 -364t307 -147t307 146q133 148 133 365t-133 365t-307 147
q-174 1 -307 -147t-133 -365z" />
    <glyph glyph-name="ohungarumlaut" unicode="&#x151;" 
d="M584 1065l133 246h153l-184 -246h-102zM297 1065l133 246h154l-185 -246h-102zM932 461q0 -205 -125 -338t-305 -133t-305 133t-125 338t125 338t305 133t305 -133t125 -338zM225 461q0 -141 83 -235t194 -93q112 0 194 93q82 92 82 234t-83 235t-193 93t-194 -93
q-83 -93 -83 -234z" />
    <glyph glyph-name="OE" unicode="&#x152;" horiz-adv-x="1720" 
d="M246 645q0 -211 133 -356t307 -146h154v1004h-154q-174 1 -307 -145t-133 -357zM1004 143h604v-143h-922q-244 0 -424 189t-180 455t181 456t423 190h901v-143h-583v-410h532v-143h-532v-451z" />
    <glyph glyph-name="oe" unicode="&#x153;" horiz-adv-x="1617" 
d="M1158 788q-87 0 -158 -76t-78 -190h460q-8 119 -72 193q-65 73 -152 73zM225 461q0 -141 81 -235q82 -94 186 -93q104 0 185 93q81 92 81 234t-81 235t-185 93t-186 -93t-81 -234zM1159 932q164 0 276 -126t111 -335l-10 -82h-614q8 -106 80 -181t165 -75q127 0 195 113
h164q-43 -109 -136 -183t-223 -73q-161 0 -282 125q-29 29 -41 49l-15 20q-12 -23 -49 -62q-36 -38 -72 -64t-94 -48t-122 -20q-172 0 -296 134t-124 337t124 337t288 134t290 -125q29 -29 41 -49l14 -21q13 26 47 64q119 131 283 131z" />
    <glyph glyph-name="Racute" unicode="&#x154;" horiz-adv-x="1136" 
d="M512 1444l123 246h153l-174 -246h-102zM328 1147v-471h317q92 0 159 68t66 167q0 98 -66 167q-67 69 -159 69h-317zM328 532v-532h-164v1290h481q160 0 275 -112t114 -267q0 -85 -30 -153t-70 -106q-88 -81 -156 -99l-28 -10l315 -543h-184l-308 532h-245z" />
    <glyph glyph-name="racute" unicode="&#x155;" horiz-adv-x="614" 
d="M297 1065l123 246h153l-174 -246h-102zM573 932v-154h-41q-110 0 -178 -70t-67 -186v-522h-154v922h113l41 -103q10 13 30 31q19 18 89 50t147 32h20z" />
    <glyph glyph-name="Rcommaaccent" unicode="&#x156;" horiz-adv-x="1136" 
d="M481 -217q0 43 30 73t73 30q42 0 72 -30t30 -79q0 -108 -53 -180q-53 -73 -101 -101l-30 41q72 61 82 144q-43 -1 -73 29t-30 73zM328 1147v-471h317q92 0 159 68t66 167q0 98 -66 167q-67 69 -159 69h-317zM328 532v-532h-164v1290h481q160 0 275 -112t114 -267
q0 -85 -30 -153t-70 -106q-88 -81 -156 -99l-28 -10l315 -543h-184l-308 532h-245z" />
    <glyph glyph-name="rcommaaccent" unicode="&#x157;" horiz-adv-x="614" 
d="M113 -236q0 43 29 73q30 30 73 30t73 -30q52 -52 14 -177q-22 -73 -84 -137q-27 -28 -54 -45l-31 41q72 61 82 143q-43 0 -73 30t-29 72zM573 932v-154h-41q-110 0 -178 -70t-67 -186v-522h-154v922h113l41 -103q10 13 30 31q19 18 89 50t147 32h20z" />
    <glyph glyph-name="Rcaron" unicode="&#x158;" horiz-adv-x="1136" 
d="M829 1679l-184 -245h-143l-185 245h154l102 -143l103 143h153zM328 1147v-471h317q92 0 159 68t66 167q0 98 -66 167q-67 69 -159 69h-317zM328 532v-532h-164v1290h481q160 0 275 -112t114 -267q0 -85 -30 -153t-70 -106q-88 -81 -156 -99l-28 -10l315 -543h-184
l-308 532h-245z" />
    <glyph glyph-name="rcaron" unicode="&#x159;" horiz-adv-x="614" 
d="M614 1311l-184 -246h-143l-185 246h154l102 -144l103 144h153zM573 932v-154h-41q-110 0 -178 -70t-67 -186v-522h-154v922h113l41 -103q10 13 30 31q19 18 89 50t147 32h20z" />
    <glyph glyph-name="Sacute" unicode="&#x15a;" horiz-adv-x="1013" 
d="M461 1444l123 246h153l-174 -246h-102zM92 956q0 132 121 238t294 106t289 -114t115 -275h-163q0 106 -68 176t-174 70t-178 -62q-72 -61 -72 -145t71 -137t171 -83t201 -66t172 -118q71 -81 71 -216q0 -136 -119 -238t-313 -102t-312 108q-116 108 -116 281h164
q0 -117 68 -181t196 -65q127 0 198 58q70 57 70 145t-70 141q-71 53 -171 83q-99 30 -201 67t-173 117t-71 212z" />
    <glyph glyph-name="sacute" unicode="&#x15b;" horiz-adv-x="808" 
d="M348 1065l123 246h154l-174 -246h-103zM737 254q0 -108 -87 -186q-88 -78 -234 -78t-236 80t-98 206h154q8 -63 55 -103t125 -40t123 39t45 94t-49 85t-120 45q-71 16 -143 36t-120 78t-50 163q0 103 86 181t226 78t222 -76q83 -76 91 -201h-154q-16 133 -163 133
q-66 0 -110 -36t-44 -89q0 -52 49 -82t120 -45q71 -16 143 -36t120 -79q49 -59 49 -167z" />
    <glyph glyph-name="Scedilla" unicode="&#x15e;" horiz-adv-x="1013" 
d="M92 956q0 132 121 238t294 106t289 -114t115 -275h-163q0 106 -68 176t-174 70t-178 -62q-72 -61 -72 -145t71 -137t171 -83t201 -66t172 -118q71 -81 71 -211t-107 -231q-108 -100 -282 -114l-31 -72q62 -8 98 -44t36 -91t-49 -93q-48 -38 -136 -38l-92 10v82
q41 -10 83 -10t66 18t25 43q0 25 -25 43t-67 19l-51 -11l61 144q-177 14 -283 120t-106 269h164q0 -117 68 -181t196 -65q127 0 198 58q70 57 70 145t-70 141q-71 53 -171 83q-99 30 -201 67t-173 117t-71 212z" />
    <glyph glyph-name="scedilla" unicode="&#x15f;" horiz-adv-x="808" 
d="M737 261q0 -101 -77 -179t-199 -92l-31 -72q61 -8 97 -44t36 -91t-48 -93t-136 -38l-92 10v82q41 -10 83 -10t66 18t25 43q0 25 -25 43t-67 19l-52 -11l62 144q-123 8 -206 89t-91 197h154q8 -63 55 -103t125 -40t123 39t45 94t-49 85t-120 45q-71 16 -143 36t-120 78
t-50 163q0 103 86 181t226 78t222 -76q83 -76 91 -201h-154q-16 133 -163 133q-66 0 -110 -36t-44 -89q0 -52 49 -82t120 -45q71 -16 143 -36t120 -79q49 -59 49 -160z" />
    <glyph glyph-name="Scaron" unicode="&#x160;" horiz-adv-x="1013" 
d="M768 1679l-184 -245h-144l-184 245h154l102 -143l102 143h154zM92 956q0 132 121 238t294 106t289 -114t115 -275h-163q0 106 -68 176t-174 70t-178 -62q-72 -61 -72 -145t71 -137t171 -83t201 -66t172 -118q71 -81 71 -216q0 -136 -119 -238t-313 -102t-312 108
q-116 108 -116 281h164q0 -117 68 -181t196 -65q127 0 198 58q70 57 70 145t-70 141q-71 53 -171 83q-99 30 -201 67t-173 117t-71 212z" />
    <glyph glyph-name="scaron" unicode="&#x161;" horiz-adv-x="808" 
d="M655 1311l-184 -246h-143l-185 246h154l102 -144l103 144h153zM737 254q0 -108 -87 -186q-88 -78 -234 -78t-236 80t-98 206h154q8 -63 55 -103t125 -40t123 39t45 94t-49 85t-120 45q-71 16 -143 36t-120 78t-50 163q0 103 86 181t226 78t222 -76q83 -76 91 -201h-154
q-16 133 -163 133q-66 0 -110 -36t-44 -89q0 -52 49 -82t120 -45q71 -16 143 -36t120 -79q49 -59 49 -167z" />
    <glyph glyph-name="Tcommaaccent" unicode="&#x162;" 
d="M399 -236q0 43 30 73t73 30q42 0 72 -30t30 -79q0 -132 -99 -235q-27 -28 -54 -45l-31 41q72 61 82 143q-43 0 -73 30t-30 72zM973 1290v-143h-389v-1147h-164v1147h-389v143h942z" />
    <glyph glyph-name="tcommaaccent" unicode="&#x163;" horiz-adv-x="655" 
d="M297 -236q0 43 30 73q31 30 73 30t72 -30t30 -79q0 -135 -100 -235q-29 -30 -54 -45l-31 41q72 61 82 143q-43 0 -73 30t-29 72zM225 1034v133h133v-245h205v-144h-205v-481q0 -76 42 -120t112 -44l51 10v-133q-31 -20 -92 -20q-111 0 -189 86t-77 221v481h-164v144h72
q112 -1 112 112z" />
    <glyph glyph-name="Tcaron" unicode="&#x164;" 
d="M758 1679l-185 -245h-143l-184 245h153l103 -143l102 143h154zM973 1290v-143h-389v-1147h-164v1147h-389v143h942z" />
    <glyph glyph-name="tcaron" unicode="&#x165;" horiz-adv-x="675" 
d="M225 1034v133h133v-245h205v-144h-205v-481q0 -76 42 -120t112 -44l51 10v-133q-31 -20 -92 -20q-111 0 -189 86t-77 221v481h-164v144h72q112 -1 112 112zM563 1044l72 246h143l-123 -246h-92z" />
    <glyph glyph-name="Umacron" unicode="&#x16a;" horiz-adv-x="1228" 
d="M860 1597v-122h-491v122h491zM614 -10q-207 0 -339 130t-132 331v839h164v-839q0 -145 84 -231t223 -87q139 0 224 86q84 86 84 232v839h163v-839q0 -201 -132 -331t-339 -130z" />
    <glyph glyph-name="umacron" unicode="&#x16b;" horiz-adv-x="1034" 
d="M768 1229v-123h-492v123h492zM492 -10q-150 0 -254 112t-105 287v533h154v-533q-1 -113 65 -185t168 -71q102 0 170 71t68 185v533h153v-922h-112l-41 102q-33 -40 -111 -76q-77 -36 -155 -36z" />
    <glyph glyph-name="Uring" unicode="&#x16e;" horiz-adv-x="1228" 
d="M768 1577q0 -70 -47 -117t-117 -47t-117 47t-47 117t47 117t117 47t117 -47t47 -117zM532 1577q0 -31 20 -51t52 -20q31 0 51 20t21 51q0 31 -20 51t-52 20t-52 -20t-20 -51zM614 -10q-207 0 -339 130t-132 331v839h164v-839q0 -145 84 -231t223 -87q139 0 224 86
q84 86 84 232v839h163v-839q0 -201 -132 -331t-339 -130z" />
    <glyph glyph-name="uring" unicode="&#x16f;" horiz-adv-x="1034" 
d="M686 1206q0 -70 -47 -116t-117 -48q-70 0 -116 48t-48 116q0 70 48 117t116 47q70 0 117 -47t47 -117zM451 1206q0 -31 20 -51t51 -20t51 20t21 51q0 31 -20 51q-20 21 -52 21q-31 0 -51 -20t-20 -52zM492 -10q-150 0 -254 112t-105 287v533h154v-533q-1 -113 65 -185
t168 -71q102 0 170 71t68 185v533h153v-922h-112l-41 102q-33 -40 -111 -76q-77 -36 -155 -36z" />
    <glyph glyph-name="Uhungarumlaut" unicode="&#x170;" horiz-adv-x="1228" 
d="M696 1444l133 246h154l-184 -246h-103zM410 1444l133 246h153l-184 -246h-102zM614 -10q-207 0 -339 130t-132 331v839h164v-839q0 -145 84 -231t223 -87q139 0 224 86q84 86 84 232v839h163v-839q0 -201 -132 -331t-339 -130z" />
    <glyph glyph-name="uhungarumlaut" unicode="&#x171;" horiz-adv-x="1034" 
d="M614 1075l134 246h153l-184 -246h-103zM328 1075l133 246h153l-184 -246h-102zM492 -10q-150 0 -254 112t-105 287v533h154v-533q-1 -113 65 -185t168 -71q102 0 170 71t68 185v533h153v-922h-112l-41 102q-33 -40 -111 -76q-77 -36 -155 -36z" />
    <glyph glyph-name="Uogonek" unicode="&#x172;" horiz-adv-x="1228" 
d="M1085 451q0 -188 -107 -308q-108 -119 -282 -143q-72 -92 -71 -174q1 -39 27 -66t65 -26l82 10v-82q-41 -10 -82 -10q-90 0 -143 48q-52 48 -52 126q0 37 16 78q15 41 31 63l17 23q-186 8 -315 139q-128 131 -128 322v839h164v-839q0 -145 84 -231t223 -87q139 0 224 86
q84 86 84 232v839h163v-839z" />
    <glyph glyph-name="uogonek" unicode="&#x173;" horiz-adv-x="1034" 
d="M492 -10q-150 0 -254 112t-105 287v533h154v-533q-1 -113 65 -185t168 -71q102 0 170 71t68 185v533h153v-922h-10q-72 -82 -72 -174q0 -39 27 -66t66 -26l82 10v-82q-41 -10 -82 -10q-90 0 -143 48q-52 48 -52 126q0 41 17 85t36 66l19 23l-41 102q-33 -40 -111 -76
t-155 -36z" />
    <glyph glyph-name="Ydieresis" unicode="&#x178;" horiz-adv-x="1024" 
d="M666 1464q-39 0 -66 27t-27 65t27 66q27 27 66 27q40 0 66 -27t26 -66q0 -40 -26 -66t-66 -26zM358 1464q-40 0 -66 27t-26 65t27 66q27 27 65 27t66 -27q27 -27 27 -66q0 -40 -27 -66t-66 -26zM594 0h-164v502l-410 788h175l317 -614l317 614h175l-410 -788v-502z" />
    <glyph glyph-name="Zacute" unicode="&#x179;" horiz-adv-x="1013" 
d="M451 1444l122 246h154l-174 -246h-102zM942 143v-143h-870v102l635 1045h-615v143h819v-102l-635 -1045h666z" />
    <glyph glyph-name="zacute" unicode="&#x17a;" horiz-adv-x="798" 
d="M338 1075l123 246h153l-174 -246h-102zM72 778v144h635v-134l-451 -645h471v-143h-655v133l450 645h-450z" />
    <glyph glyph-name="Zdotaccent" unicode="&#x17b;" horiz-adv-x="1013" 
d="M497 1649q41 0 69 -28t28 -70q0 -41 -28 -69t-70 -28t-69 28q-28 28 -28 69q0 42 28 70t70 28zM942 143v-143h-870v102l635 1045h-615v143h819v-102l-635 -1045h666z" />
    <glyph glyph-name="zdotaccent" unicode="&#x17c;" horiz-adv-x="798" 
d="M394 1085q-42 0 -70 28t-27 70q0 41 28 69q27 28 69 28t70 -28t28 -70t-28 -69q-28 -28 -70 -28zM72 778v144h635v-134l-451 -645h471v-143h-655v133l450 645h-450z" />
    <glyph glyph-name="Zcaron" unicode="&#x17d;" horiz-adv-x="1013" 
d="M758 1679l-185 -245h-143l-184 245h153l103 -143l102 143h154zM942 143v-143h-870v102l635 1045h-615v143h819v-102l-635 -1045h666z" />
    <glyph glyph-name="zcaron" unicode="&#x17e;" horiz-adv-x="798" 
d="M645 1311l-184 -246h-144l-184 246h154l102 -144l103 144h153zM72 778v144h635v-134l-451 -645h471v-143h-655v133l450 645h-450z" />
    <glyph glyph-name="florin" unicode="&#x192;" horiz-adv-x="655" 
d="M-51 -338q-49 0 -84 14l-8 7l30 133q20 -10 52 -11q141 0 174 164l123 666h-144l21 143h143l41 215q25 131 114 219t203 88q56 0 93 -20l-31 -133q-20 10 -51 10q-141 0 -174 -164l-41 -215h204l-20 -143h-205l-123 -666q-26 -131 -114 -219t-203 -88z" />
    <glyph glyph-name="Scommaaccent" unicode="&#x218;" horiz-adv-x="1013" 
d="M399 -217q0 43 30 73t73 30q42 0 72 -30t30 -79q0 -108 -52 -179q-52 -72 -101 -102l-31 41q72 61 82 144q-43 -1 -73 29t-30 73zM92 956q0 132 121 238t294 106t289 -114t115 -275h-163q0 106 -68 176t-174 70t-178 -62q-72 -61 -72 -145t71 -137t171 -83t201 -66
t172 -118q71 -81 71 -216q0 -136 -119 -238t-313 -102t-312 108q-116 108 -116 281h164q0 -117 68 -181t196 -65q127 0 198 58q70 57 70 145t-70 141q-71 53 -171 83q-99 30 -201 67t-173 117t-71 212z" />
    <glyph glyph-name="scommaaccent" unicode="&#x219;" horiz-adv-x="808" 
d="M307 -236q0 43 30 73t73 30q42 0 72 -30t30 -73q0 -86 -39 -158t-76 -100l-39 -28l-30 41q72 61 82 143q-43 0 -73 30t-30 72zM737 254q0 -108 -87 -186q-88 -78 -234 -78t-236 80t-98 206h154q8 -63 55 -103t125 -40t123 39t45 94t-49 85t-120 45q-71 16 -143 36
t-120 78t-50 163q0 103 86 181t226 78t222 -76q83 -76 91 -201h-154q-16 133 -163 133q-66 0 -110 -36t-44 -89q0 -52 49 -82t120 -45q71 -16 143 -36t120 -79q49 -59 49 -167z" />
    <glyph glyph-name="uni021A" unicode="&#x21a;" 
d="M410 -236q0 43 29 73q30 30 73 30t73 -30q29 -31 29 -95t-39 -136t-75 -100l-39 -28l-31 41q72 61 82 143q-42 0 -72 30t-30 72zM973 1290v-143h-389v-1147h-164v1147h-389v143h942z" />
    <glyph glyph-name="uni021B" unicode="&#x21b;" horiz-adv-x="655" 
d="M297 -236q0 43 30 73q31 30 73 30t72 -30t30 -79q0 -135 -100 -235q-29 -30 -54 -45l-31 41q72 61 82 143q-43 0 -73 30t-29 72zM225 1034v133h133v-245h205v-144h-205v-481q0 -76 42 -120t112 -44l51 10v-133q-31 -20 -92 -20q-111 0 -189 86t-77 221v481h-164v144h72
q112 -1 112 112z" />
    <glyph glyph-name="afii57929" unicode="&#x2bc;" horiz-adv-x="327" 
d="M61 1188q0 43 30 73q30 29 73 29t73 -30q52 -51 14 -177q-20 -66 -85 -137q-19 -21 -53 -45l-31 41q72 61 82 143q-43 0 -73 30t-30 73z" />
    <glyph glyph-name="circumflex" unicode="&#x2c6;" horiz-adv-x="634" 
d="M389 1280l184 -246h-153l-103 144l-102 -144h-154l185 246h143z" />
    <glyph glyph-name="caron" unicode="&#x2c7;" horiz-adv-x="634" 
d="M573 1280l-184 -246h-143l-185 246h154l102 -143l103 143h153z" />
    <glyph glyph-name="breve" unicode="&#x2d8;" horiz-adv-x="614" 
d="M307 1055q-96 1 -163 65t-83 160h123q8 -53 43 -88t80 -35t80 35t43 88h123q-16 -96 -83 -160t-163 -65z" />
    <glyph glyph-name="dotaccent" unicode="&#x2d9;" horiz-adv-x="317" 
d="M61 1183q0 41 28 69t70 28q41 0 69 -28t28 -70t-28 -69q-28 -28 -70 -28t-69 28q-28 28 -28 70z" />
    <glyph glyph-name="ring" unicode="&#x2da;" horiz-adv-x="450" 
d="M389 1188q0 -70 -47 -117t-117 -47q-71 0 -117 47t-47 117t47 117t118 47t116 -47q47 -47 47 -117zM154 1188q0 -31 20 -51q20 -21 51 -21t51 20t21 52q-1 31 -21 51q-20 21 -51 21t-51 -20t-20 -52z" />
    <glyph glyph-name="ogonek" unicode="&#x2db;" horiz-adv-x="399" 
d="M164 -174q0 -39 26 -66t66 -26l82 10v-82q-41 -10 -82 -10q-90 0 -142 48t-53 126q0 41 19 85q18 44 35 66l18 23h103q-72 -82 -72 -174z" />
    <glyph glyph-name="tilde" unicode="&#x2dc;" horiz-adv-x="696" 
d="M466 1157q28 0 52 33t25 90h92q0 -111 -50 -173t-124 -63q-41 0 -77 20t-55 47q-47 65 -87 66q-39 1 -64 -32t-24 -90h-93q1 111 51 173t124 62q40 0 76 -20t56 -46q49 -67 98 -67z" />
    <glyph glyph-name="hungarumlaut" unicode="&#x2dd;" horiz-adv-x="696" 
d="M348 1044l133 246h154l-184 -246h-103zM61 1044l134 246h153l-184 -246h-103z" />
    <glyph glyph-name="afii10023" unicode="&#x401;" horiz-adv-x="1105" 
d="M727 1464q-39 0 -65 27t-27 65q0 38 27 66q28 27 66 27t65 -27t27 -66q0 -40 -28 -66q-26 -26 -65 -26zM420 1464q-39 0 -66 27q-26 27 -26 65t26 66q27 27 66 27q40 0 66 -27t26 -66q0 -40 -26 -66t-66 -26zM328 143h676v-143h-840v1290h819v-143h-655v-410h604v-143
h-604v-451z" />
    <glyph glyph-name="afii10051" unicode="&#x402;" horiz-adv-x="1259" 
d="M739 686q-117 0 -197 -81t-81 -195v-410h-164v1147h-297v143h768v-143h-307v-471q12 16 36 42q23 26 101 68t160 43q180 0 300 -128q120 -129 120 -341t-121 -337t-330 -125v143q119 0 203 92q84 91 84 235t-79 231t-196 87z" />
    <glyph glyph-name="afii10052" unicode="&#x403;" horiz-adv-x="921" 
d="M471 1444l123 246h154l-175 -246h-102zM901 1147h-573v-1147h-164v1290h737v-143z" />
    <glyph glyph-name="afii10053" unicode="&#x404;" horiz-adv-x="1280" 
d="M758 717v-144h-522q24 -184 150 -312t276 -128t250 76q99 76 132 190h175q-57 -178 -203 -294t-350 -115q-236 0 -415 191t-179 463t179 464t415 192q199 0 342 -120t200 -299h-174q-33 115 -131 195q-99 80 -245 81q-146 0 -273 -128t-149 -312h522z" />
    <glyph glyph-name="afii10054" unicode="&#x405;" horiz-adv-x="1013" 
d="M92 956q0 132 121 238t294 106t289 -114t115 -275h-163q0 106 -68 176t-174 70t-178 -62q-72 -61 -72 -145t71 -137t171 -83t201 -66t172 -118q71 -81 71 -216q0 -136 -119 -238t-313 -102t-312 108q-116 108 -116 281h164q0 -117 68 -181t196 -65q127 0 198 58
q70 57 70 145t-70 141q-71 53 -171 83q-99 30 -201 67t-173 117t-71 212z" />
    <glyph glyph-name="afii10055" unicode="&#x406;" horiz-adv-x="491" 
d="M328 1290v-1290h-164v1290h164z" />
    <glyph glyph-name="afii10056" unicode="&#x407;" horiz-adv-x="532" 
d="M420 1464q-39 0 -66 27q-26 27 -26 65t26 66q27 27 66 27q40 0 66 -27t26 -66q0 -40 -26 -66t-66 -26zM113 1464q-39 0 -66 27t-27 65t27 66q27 27 66 27t65 -27t27 -66q-1 -40 -27 -66t-65 -26zM348 1290v-1290h-164v1290h164z" />
    <glyph glyph-name="afii10057" unicode="&#x408;" horiz-adv-x="942" 
d="M635 1292h164v-944q0 -146 -112 -252q-111 -106 -277 -106t-278 105t-112 253h164q8 -92 70 -153t158 -61t159 60q63 62 64 154v944z" />
    <glyph glyph-name="afii10058" unicode="&#x409;" horiz-adv-x="1832" 
d="M1362 655h-287v-512h287q100 0 173 75t73 181t-73 181t-173 75zM1362 0h-451v1147h-440l-61 -768q-14 -181 -110 -285t-239 -104l-71 10v133h20q100 0 164 66q63 66 72 180l71 911h758v-491h287q168 0 289 -119t121 -281q0 -163 -121 -281t-289 -118z" />
    <glyph glyph-name="afii10059" unicode="&#x40a;" horiz-adv-x="1832" 
d="M1362 655h-287v-512h287q100 0 173 75t73 181t-73 181t-173 75zM1362 0h-451v655h-583v-655h-164v1290h164v-491h583v491h164v-491h287q168 0 289 -119t121 -281q0 -163 -121 -281t-289 -118z" />
    <glyph glyph-name="afii10060" unicode="&#x40b;" horiz-adv-x="1280" 
d="M748 829q170 -1 284 -119t115 -300v-410h-164v410q0 120 -74 198q-75 78 -183 78t-186 -81t-79 -195v-410h-164v1147h-297v143h768v-143h-307v-471q12 16 36 42q25 26 99 68t152 43z" />
    <glyph glyph-name="afii10061" unicode="&#x40c;" horiz-adv-x="1075" 
d="M512 1444l123 246h153l-174 -246h-102zM328 655l501 635h195l-512 -635l553 -655h-195zM328 1290v-1290h-164v1290h164z" />
    <glyph glyph-name="afii10062" unicode="&#x40e;" horiz-adv-x="1044" 
d="M522 1444q-96 0 -163 64t-83 161h123q8 -53 42 -88t81 -35t81 35t42 88h123q-16 -97 -83 -161t-163 -64zM225 123q117 0 174 143l41 92l-420 932h185l327 -737l318 737h174l-451 -1024q-65 -150 -137 -218t-170 -68q-32 0 -112 20v133q31 -10 71 -10z" />
    <glyph glyph-name="afii10145" unicode="&#x40f;" horiz-adv-x="1259" 
d="M543 0h-379v1290h164v-1147h594v1147h163v-1290h-378v-266h-164v266z" />
    <glyph glyph-name="afii10017" unicode="&#x410;" horiz-adv-x="1126" 
d="M563 1024l-215 -563h430zM952 0l-123 317h-532l-123 -317h-174l492 1290h143l491 -1290h-174z" />
    <glyph glyph-name="afii10018" unicode="&#x411;" horiz-adv-x="1136" 
d="M666 614h-338v-471h338q100 0 162 65t63 171q-1 107 -63 171t-162 64zM164 0v1290h799v-164h-635v-368h338q168 0 278 -109t111 -271q0 -162 -111 -270t-278 -108h-502z" />
    <glyph glyph-name="afii10019" unicode="&#x412;" horiz-adv-x="1146" 
d="M328 143h327q106 0 176 68t70 165t-70 163t-176 65h-327v-461zM328 1147v-399h317q90 0 153 58q62 58 62 140t-61 141t-154 60h-317zM655 0h-491v1290h481q160 0 264 -100t105 -248q0 -82 -36 -145t-73 -88l-35 -23q8 -4 22 -10t46 -34q127 -108 127 -264t-119 -267
t-291 -111z" />
    <glyph glyph-name="afii10020" unicode="&#x413;" horiz-adv-x="921" 
d="M901 1147h-573v-1147h-164v1290h737v-143z" />
    <glyph glyph-name="afii10021" unicode="&#x414;" horiz-adv-x="1239" 
d="M891 143v1004h-424l-88 -748q-8 -78 -34 -141t-46 -90l-23 -25h615zM1055 143h143v-409h-154v266h-890v-266h-154v409h72q4 5 13 11q65 47 106 152q17 44 24 93l102 891h738v-1147z" />
    <glyph glyph-name="afii10022" unicode="&#x415;" horiz-adv-x="1105" 
d="M328 143h676v-143h-840v1290h819v-143h-655v-410h604v-143h-604v-451z" />
    <glyph glyph-name="afii10024" unicode="&#x416;" horiz-adv-x="1515" 
d="M840 655l450 635h195l-461 -635l502 -655h-195zM840 1290v-1290h-164v655l-492 -655h-194l502 655l-461 635h194l451 -635v635h164z" />
    <glyph glyph-name="afii10025" unicode="&#x417;" 
d="M482 1300q172 0 286 -104q113 -104 113 -254q0 -82 -44 -148t-87 -94l-43 -24q8 -4 22 -10t52 -34q80 -59 117 -151q24 -57 24 -123q0 -150 -122 -260t-308 -108q-186 0 -302 99q-115 99 -139 259h164q16 -96 87 -155t190 -59q118 0 192 65t74 159t-74 160t-192 66h-95
v143h84q106 0 171 60q65 61 65 155t-65 154t-170 61q-105 0 -172 -60q-66 -61 -74 -155h-164q16 158 127 258t283 100z" />
    <glyph glyph-name="afii10026" unicode="&#x418;" horiz-adv-x="1280" 
d="M1116 0h-164v993l-645 -993h-143v1290h164v-993l645 993h143v-1290z" />
    <glyph glyph-name="afii10027" unicode="&#x419;" horiz-adv-x="1280" 
d="M645 1434q-104 0 -172 61t-84 164h123q8 -55 44 -89t89 -34t89 34t44 89h123q-16 -101 -84 -163t-172 -62zM1116 0h-164v993l-645 -993h-143v1290h164v-993l645 993h143v-1290z" />
    <glyph glyph-name="afii10028" unicode="&#x41a;" horiz-adv-x="1054" 
d="M328 655l501 635h195l-512 -635l553 -655h-195zM328 1290v-1290h-164v1290h164z" />
    <glyph glyph-name="afii10029" unicode="&#x41b;" horiz-adv-x="1269" 
d="M1106 1290v-1290h-164v1147h-471l-61 -768q-14 -181 -110 -285t-239 -104l-71 10v133h20q100 0 164 66q63 66 72 180l71 911h789z" />
    <glyph glyph-name="afii10030" unicode="&#x41c;" horiz-adv-x="1556" 
d="M1393 1290v-1290h-164v870l-400 -870h-102l-399 870v-870h-164v1290h133l481 -1034l482 1034h133z" />
    <glyph glyph-name="afii10031" unicode="&#x41d;" horiz-adv-x="1280" 
d="M952 1290h164v-1290h-164v584h-624v-584h-164v1290h164v-563h624v563z" />
    <glyph glyph-name="afii10032" unicode="&#x41e;" horiz-adv-x="1351" 
d="M1280 645q0 -271 -181 -463t-423 -192t-423 191t-181 463t181 464t423 192t423 -192t181 -463zM236 645q0 -217 133 -364t307 -147t307 146q133 148 133 365t-133 365t-307 147q-174 1 -307 -147t-133 -365z" />
    <glyph glyph-name="afii10033" unicode="&#x41f;" horiz-adv-x="1290" 
d="M164 1290h962v-1290h-163v1147h-635v-1147h-164v1290z" />
    <glyph glyph-name="afii10034" unicode="&#x420;" horiz-adv-x="1095" 
d="M328 635h276q100 0 173 75t73 181t-73 181t-173 75h-276v-512zM164 1290h440q168 0 289 -119t121 -281t-121 -280q-121 -119 -289 -118h-276v-492h-164v1290z" />
    <glyph glyph-name="afii10035" unicode="&#x421;" horiz-adv-x="1300" 
d="M686 1157q-174 0 -307 -147q-133 -146 -133 -364t133 -365t293 -147t261 83q99 84 132 213h174q-57 -196 -201 -318t-352 -122q-242 0 -423 191t-181 463t181 464t423 192q199 0 342 -124t201 -316h-174q-33 129 -130 213q-98 84 -239 84z" />
    <glyph glyph-name="afii10036" unicode="&#x422;" 
d="M973 1290v-143h-389v-1147h-164v1147h-389v143h942z" />
    <glyph glyph-name="afii10037" unicode="&#x423;" horiz-adv-x="1044" 
d="M225 123q117 0 174 143l41 92l-420 932h185l327 -737l318 737h174l-451 -1024q-65 -150 -137 -218t-170 -68q-32 0 -112 20v133q31 -10 71 -10z" />
    <glyph glyph-name="afii10038" unicode="&#x424;" horiz-adv-x="1474" 
d="M1229 666q0 150 -111 250t-299 108v-717q188 9 299 109t111 250zM655 307v717q-188 -8 -299 -108q-110 -100 -110 -250t110 -250t299 -109zM82 666q0 213 151 350q152 137 422 151v123h164v-123q270 -14 422 -151t152 -350q0 -212 -152 -350t-422 -152v-174h-164v174
q-270 14 -422 151q-151 138 -151 351z" />
    <glyph glyph-name="afii10039" unicode="&#x425;" horiz-adv-x="1064" 
d="M20 0l420 655l-399 635h184l307 -491l308 491h184l-399 -635l419 -655h-194l-318 512l-317 -512h-195z" />
    <glyph glyph-name="afii10040" unicode="&#x426;" horiz-adv-x="1269" 
d="M1085 143h144v-409h-154v266h-911v1290h164v-1147h594v1147h163v-1147z" />
    <glyph glyph-name="afii10041" unicode="&#x427;" horiz-adv-x="1208" 
d="M881 1290h163v-1290h-163v481q-143 -92 -327 -92t-298 116t-113 314v471h164v-471q0 -137 71 -212t195 -75q74 0 151 23t116 47l41 23v665z" />
    <glyph glyph-name="afii10042" unicode="&#x428;" horiz-adv-x="1720" 
d="M1393 1290h163v-1290h-1392v1290h164v-1147h450v1147h164v-1147h451v1147z" />
    <glyph glyph-name="afii10043" unicode="&#x429;" horiz-adv-x="1740" 
d="M1546 0h-1382v1290h164v-1147h450v1147h164v-1147h451v1147h163v-1147h144v-409h-154v266z" />
    <glyph glyph-name="afii10044" unicode="&#x42a;" horiz-adv-x="1228" 
d="M758 655h-287v-512h287q100 0 173 75t73 181t-73 181t-173 75zM0 1147v143h471v-491h287q168 0 289 -119t121 -281q0 -163 -122 -281q-120 -118 -288 -118h-451v1147h-307z" />
    <glyph glyph-name="afii10045" unicode="&#x42b;" horiz-adv-x="1495" 
d="M594 655h-266v-512h266q100 0 173 75t73 181t-73 181t-173 75zM594 0h-430v1290h164v-491h266q168 0 289 -119t121 -281q0 -163 -121 -281t-289 -118zM1331 1290v-1290h-164v1290h164z" />
    <glyph glyph-name="afii10046" unicode="&#x42c;" horiz-adv-x="1085" 
d="M614 655h-286v-512h286q100 0 173 75t73 181t-73 181t-173 75zM614 0h-450v1290h164v-491h286q168 0 289 -119t121 -281q0 -163 -121 -281t-289 -118z" />
    <glyph glyph-name="afii10047" unicode="&#x42d;" horiz-adv-x="1269" 
d="M512 573v144h522q-23 184 -149 312q-127 128 -273 128t-245 -81q-98 -81 -131 -195h-175q57 180 201 300t342 119q236 0 415 -191t179 -463t-179 -464t-415 -192q-205 0 -350 116t-203 293h174q33 -115 132 -191t250 -75q151 0 278 128t149 312h-522z" />
    <glyph glyph-name="afii10048" unicode="&#x42e;" horiz-adv-x="1720" 
d="M1085 133q154 -1 277 145t123 367t-123 367t-277 145q-155 0 -277 -145q-122 -144 -122 -366t122 -368t277 -145zM1091 1300q215 0 387 -189t171 -465q0 -276 -171 -466q-170 -190 -386 -190t-382 168t-188 405h-194v-563h-164v1290h164v-583h194q22 249 188 421t381 172
z" />
    <glyph glyph-name="afii10049" unicode="&#x42f;" horiz-adv-x="1157" 
d="M819 676v471h-317q-92 0 -159 -69t-67 -167t67 -167t159 -68h317zM983 1290v-1290h-164v532h-244l-319 -532h-184l327 543q-31 5 -90 40t-97 71t-69 105t-30 152q0 154 114 267q115 113 275 112h481z" />
    <glyph glyph-name="afii10065" unicode="&#x430;" horiz-adv-x="952" 
d="M399 133q117 0 197 67t80 148v72q-258 0 -344 -39t-86 -125q0 -49 42 -86t111 -37zM484 932q150 0 247 -92q98 -92 98 -226v-614h-112l-41 102q-10 -12 -30 -30t-93 -50q-72 -32 -154 -32q-135 0 -221 80t-86 196q0 143 129 220t455 77v51q0 70 -56 122t-139 52
q-152 0 -184 -133h-164q17 121 109 199t242 78z" />
    <glyph glyph-name="afii10066" unicode="&#x431;" horiz-adv-x="1024" 
d="M532 133q111 0 189 86t78 221q0 136 -78 222t-189 86q-112 0 -194 -90t-82 -218q0 -129 82 -218t194 -89zM952 440q0 -190 -121 -320t-303 -130t-309 154t-127 419q0 399 163 562t585 186v-144q-415 -19 -532 -197q-56 -88 -72 -233q65 97 196 137q53 16 111 17
q165 0 287 -131q122 -130 122 -320z" />
    <glyph glyph-name="afii10067" unicode="&#x432;" horiz-adv-x="921" 
d="M553 143q53 0 93 40t40 90t-40 88t-93 38h-266v-256h266zM522 778h-235v-235h235q59 1 96 33t37 83t-35 85q-37 34 -98 34zM573 0h-440v922h410q115 0 191 -74t75 -182q0 -108 -100 -179l-13 -6q46 -15 80 -53q62 -70 63 -173t-75 -179t-191 -76z" />
    <glyph glyph-name="afii10068" unicode="&#x433;" horiz-adv-x="747" 
d="M727 922v-144h-440v-778h-154v922h594z" />
    <glyph glyph-name="afii10069" unicode="&#x434;" 
d="M686 143v635h-313l-45 -430q-6 -59 -29 -110t-43 -74l-20 -21h450zM840 143h123v-368h-144v225h-676v-225h-143v368h51q13 7 31 23t52 70t40 112l62 574h604v-779z" />
    <glyph glyph-name="afii10070" unicode="&#x435;" horiz-adv-x="972" 
d="M493 788q-93 0 -168 -76t-89 -190h501q-15 122 -83 194t-161 72zM72 460q0 204 124 338t296 134t290 -129t119 -332l-10 -82h-655q8 -100 88 -178t178 -78q131 0 215 113h164q-51 -111 -147 -184t-232 -72q-180 0 -305 133t-125 337z" />
    <glyph glyph-name="afii10072" unicode="&#x436;" horiz-adv-x="1218" 
d="M686 0h-154v481l-358 -481h-184l368 492l-327 430h174l327 -441v441h154v-441l328 441h174l-328 -430l369 -492h-185l-358 481v-481z" />
    <glyph glyph-name="afii10073" unicode="&#x437;" horiz-adv-x="788" 
d="M386 -10q-146 0 -236 80t-99 206h154q8 -63 55 -103t125 -40t123 39t45 94t-45 94t-119 39h-82v144h82q61 0 103 35q41 35 40 88q0 53 -40 88q-41 34 -112 34t-114 -36t-51 -97h-154q7 127 93 202t225 75t223 -78t84 -188q0 -60 -28 -108t-56 -66l-29 -21q14 -5 53 -35
t60 -80q20 -49 21 -90q0 -120 -87 -198t-234 -78z" />
    <glyph glyph-name="afii10074" unicode="&#x438;" horiz-adv-x="1044" 
d="M911 922v-922h-153v686l-471 -686h-154v922h154v-686l471 686h153z" />
    <glyph glyph-name="afii10075" unicode="&#x439;" horiz-adv-x="1044" 
d="M522 1065q-96 1 -163 65t-83 160h123q8 -53 42 -88t81 -35t81 35t42 88h123q-16 -96 -83 -160t-163 -65zM911 922v-922h-153v686l-471 -686h-154v922h154v-686l471 686h153z" />
    <glyph glyph-name="afii10076" unicode="&#x43a;" horiz-adv-x="849" 
d="M287 0h-154v922h154v-441l348 441h174l-348 -430l399 -492h-184l-389 481v-481z" />
    <glyph glyph-name="afii10077" unicode="&#x43b;" horiz-adv-x="983" 
d="M850 922v-922h-154v788h-338l-30 -491q-8 -143 -84 -225t-193 -82l-61 10v133h20q150 0 164 164l51 625h625z" />
    <glyph glyph-name="afii10078" unicode="&#x43c;" horiz-adv-x="1228" 
d="M287 0h-154v922h133l348 -717l349 717h133v-922h-154v573l-276 -573h-103l-276 573v-573z" />
    <glyph glyph-name="afii10079" unicode="&#x43d;" horiz-adv-x="1044" 
d="M758 922h153v-922h-153v399h-471v-399h-154v922h154v-379h471v379z" />
    <glyph glyph-name="afii10080" unicode="&#x43e;" 
d="M932 461q0 -205 -125 -338t-305 -133t-305 133t-125 338t125 338t305 133t305 -133t125 -338zM225 461q0 -141 83 -235t194 -93q112 0 194 93q82 92 82 234t-83 235t-193 93t-194 -93q-83 -93 -83 -234z" />
    <glyph glyph-name="afii10081" unicode="&#x43f;" horiz-adv-x="1044" 
d="M133 922h778v-922h-153v778h-471v-778h-154v922z" />
    <glyph glyph-name="afii10082" unicode="&#x440;" horiz-adv-x="1064" 
d="M563 932q180 0 305 -133t125 -338t-125 -338t-305 -133q-83 0 -151 30t-97 62l-28 31v-441h-154v1250h113l41 -103q10 13 30 31q21 18 93 50t153 32zM266 461q0 -143 84 -235t203 -93q119 0 203 92q84 91 84 235t-84 236t-203 92t-203 -92t-84 -235z" />
    <glyph glyph-name="afii10083" unicode="&#x441;" horiz-adv-x="962" 
d="M490 788q-100 0 -182 -93q-83 -93 -83 -234t83 -235q82 -94 182 -93q100 0 166 56t92 139h153q-33 -143 -141 -241q-110 -97 -274 -97t-289 133t-125 338t125 338t290 133t273 -97t141 -241h-153q-26 82 -92 138t-166 56z" />
    <glyph glyph-name="afii10084" unicode="&#x442;" horiz-adv-x="788" 
d="M31 778v144h727v-144h-287v-778h-154v778h-286z" />
    <glyph glyph-name="afii10085" unicode="&#x443;" horiz-adv-x="921" 
d="M174 -205q66 0 102 29t62 94l41 102l-359 902h164l277 -707l276 707h164l-399 -1004q-56 -140 -116 -198t-150 -58l-62 10v123z" />
    <glyph glyph-name="afii10086" unicode="&#x444;" horiz-adv-x="1443" 
d="M461 799q-106 0 -171 -85t-65 -253t65 -253t171 -85q49 1 95 23t67 47l22 22v492q-28 34 -81 63q-54 29 -103 29zM645 -328v389q-82 -72 -194 -71q-160 0 -270 128t-109 343q0 215 109 343q110 128 270 128q49 0 98 -18t74 -35l22 -19v430h154v-430q82 72 194 72
q160 0 270 -128q109 -128 109 -343t-110 -343t-269 -128q-49 0 -98 17t-72 36l-24 18v-389h-154zM1219 461q0 168 -65 253t-171 85q-49 0 -95 -23t-69 -47l-20 -22v-492q29 -36 82 -65q53 -28 102 -27q106 0 171 85t65 253z" />
    <glyph glyph-name="afii10087" unicode="&#x445;" horiz-adv-x="839" 
d="M819 922l-307 -451l328 -471h-174l-246 358l-246 -358h-174l328 471l-308 451h175l225 -338l225 338h174z" />
    <glyph glyph-name="afii10088" unicode="&#x446;" horiz-adv-x="1054" 
d="M891 143h123v-368h-144v225h-737v922h154v-779h450v779h154v-779z" />
    <glyph glyph-name="afii10089" unicode="&#x447;" horiz-adv-x="983" 
d="M696 922h154v-922h-154v338q-102 -62 -254 -62t-240 94q-89 94 -89 244v308h153v-308q0 -86 56 -140t130 -54q135 0 216 53l28 19v430z" />
    <glyph glyph-name="afii10090" unicode="&#x448;" horiz-adv-x="1402" 
d="M1116 922h154v-922h-1137v922h154v-779h338v779h153v-779h338v779z" />
    <glyph glyph-name="afii10091" unicode="&#x449;" horiz-adv-x="1433" 
d="M1393 -225h-144v225h-1116v922h154v-779h338v779h153v-779h338v779h154v-779h123v-368z" />
    <glyph glyph-name="afii10092" unicode="&#x44a;" horiz-adv-x="972" 
d="M379 143h225q68 0 116 46q48 45 48 107t-48 108t-116 47h-225v-308zM0 788v134h379v-328h225q146 0 232 -83t86 -214t-86 -214t-232 -83h-379v788h-225z" />
    <glyph glyph-name="afii10093" unicode="&#x44b;" horiz-adv-x="1239" 
d="M287 143h205q68 0 116 46q48 45 47 107q0 62 -48 108t-115 47h-205v-308zM287 594h205q145 0 231 -83t86 -214t-86 -214t-231 -83h-359v922h154v-328zM952 922h154v-922h-154v922z" />
    <glyph glyph-name="afii10094" unicode="&#x44c;" horiz-adv-x="880" 
d="M287 143h225q70 0 117 43q47 44 47 108t-48 110t-116 47h-225v-308zM287 594h225q145 0 231 -83t86 -214t-86 -214t-231 -83h-379v922h154v-328z" />
    <glyph glyph-name="afii10095" unicode="&#x44d;" horiz-adv-x="942" 
d="M379 389v133h338q-16 117 -88 192q-72 74 -172 74q-99 0 -163 -49t-89 -125h-154q33 138 138 228t269 90t288 -134t124 -337t-124 -337t-288 -134t-269 90t-138 227h154q25 -76 88 -125t159 -49t173 74q76 74 90 182h-336z" />
    <glyph glyph-name="afii10096" unicode="&#x44e;" horiz-adv-x="1341" 
d="M604 461q0 -139 79 -233t177 -95q98 0 177 94q79 93 79 233t-79 234t-177 94t-177 -94t-79 -233zM133 0v922h154v-400h164q23 176 139 293t276 117t282 -134t122 -337t-122 -337t-282 -134t-276 114t-139 285h-164v-389h-154z" />
    <glyph glyph-name="afii10097" unicode="&#x44f;" horiz-adv-x="942" 
d="M655 778h-235q-68 0 -116 -46t-48 -107t48 -107t116 -47h235v307zM655 328h-204l-205 -328h-174l215 348q-24 6 -60 29q-37 24 -61 52q-62 70 -63 199q-1 128 85 211t232 83h389v-922h-154v328z" />
    <glyph glyph-name="afii10071" unicode="&#x451;" horiz-adv-x="972" 
d="M645 1096q-39 0 -65 26t-27 66q0 40 27 66q28 26 66 26t65 -27t27 -65t-27 -66q-27 -26 -66 -26zM338 1096q-39 0 -66 26t-26 66q0 40 26 66t66 26t66 -27t26 -65t-26 -66q-26 -26 -66 -26zM493 788q-93 0 -168 -76t-89 -190h501q-15 122 -83 194t-161 72zM72 460
q0 204 124 338t296 134t290 -129t119 -332l-10 -82h-655q8 -100 88 -178t178 -78q131 0 215 113h164q-51 -111 -147 -184t-232 -72q-180 0 -305 133t-125 337z" />
    <glyph glyph-name="afii10099" unicode="&#x452;" horiz-adv-x="1013" 
d="M546 696q-102 0 -170 -70t-69 -186v-440h-153v993h-154v133h154v164h153v-164h256v-133h-256v-276q11 15 31 35t89 54t146 34q161 0 265 -121t104 -345t-108 -350t-291 -126v143q106 0 176 90q69 89 69 243t-69 238q-71 84 -173 84z" />
    <glyph glyph-name="afii10100" unicode="&#x453;" horiz-adv-x="747" 
d="M373 1065l123 246h153l-174 -246h-102zM727 922v-144h-440v-778h-154v922h594z" />
    <glyph glyph-name="afii10101" unicode="&#x454;" horiz-adv-x="952" 
d="M563 522v-133h-336q14 -109 90 -183q77 -74 173 -73q96 0 159 49t88 125h154q-33 -137 -138 -227t-269 -90t-288 134t-124 337t124 337t288 134t269 -90t138 -228h-154q-25 76 -88 125t-163 49t-173 -74q-72 -75 -88 -192h338z" />
    <glyph glyph-name="afii10102" unicode="&#x455;" horiz-adv-x="808" 
d="M737 254q0 -108 -87 -186q-88 -78 -234 -78t-236 80t-98 206h154q8 -63 55 -103t125 -40t123 39t45 94t-49 85t-120 45q-71 16 -143 36t-120 78t-50 163q0 103 86 181t226 78t222 -76q83 -76 91 -201h-154q-16 133 -163 133q-66 0 -110 -36t-44 -89q0 -52 49 -82t120 -45
q71 -16 143 -36t120 -79q49 -59 49 -167z" />
    <glyph glyph-name="afii10103" unicode="&#x456;" horiz-adv-x="419" 
d="M113 1183q-1 41 27 69t70 28t70 -28t28 -70t-28 -69q-28 -28 -70 -28t-70 28q-27 28 -27 70zM287 922v-922h-154v922h154z" />
    <glyph glyph-name="afii10104" unicode="&#x457;" horiz-adv-x="440" 
d="M297 922v-922h-154v922h154zM369 1096q-39 0 -66 26t-27 66t27 66t66 26t65 -27t27 -65q-1 -38 -27 -66q-26 -26 -65 -26zM61 1096q-39 0 -65 26t-27 66q0 40 27 66q28 26 66 26t65 -27t27 -65t-27 -66q-27 -26 -66 -26z" />
    <glyph glyph-name="afii10105" unicode="&#x458;" horiz-adv-x="419" 
d="M113 1183q-1 41 27 69t70 28t70 -28t28 -70t-28 -69q-28 -28 -70 -28t-70 28q-27 28 -27 70zM20 -338q-59 0 -92 21v133q20 -10 52 -11q70 0 112 44t41 120v953h154v-953q0 -135 -78 -221t-189 -86z" />
    <glyph glyph-name="afii10106" unicode="&#x459;" horiz-adv-x="1402" 
d="M809 143h215q68 0 116 46q48 45 48 107t-48 108t-116 47h-215v-308zM809 922v-328h215q145 0 231 -83t86 -214t-86 -214t-231 -83h-369v788h-297l-30 -491q-8 -143 -84 -225t-193 -82l-61 10v133h20q150 0 164 164l51 625h584z" />
    <glyph glyph-name="afii10107" unicode="&#x45a;" horiz-adv-x="1474" 
d="M870 143h215q68 0 116 46q48 45 48 107t-48 108t-116 47h-215v-308zM870 594h215q145 0 231 -83t87 -214q0 -131 -86 -214t-232 -83h-368v451h-430v-451h-154v922h154v-328h430v328h153v-328z" />
    <glyph glyph-name="afii10108" unicode="&#x45b;" horiz-adv-x="1054" 
d="M0 993v133h154v164h153v-164h256v-133h-256v-276q11 15 31 35t89 54t146 34q150 0 254 -113t105 -287v-440h-154v440q0 113 -65 185q-65 71 -167 71t-170 -70t-69 -186v-440h-153v993h-154z" />
    <glyph glyph-name="afii10109" unicode="&#x45c;" horiz-adv-x="849" 
d="M399 1065l123 246h154l-174 -246h-103zM287 0h-154v922h154v-441l348 441h174l-348 -430l399 -492h-184l-389 481v-481z" />
    <glyph glyph-name="afii10110" unicode="&#x45e;" horiz-adv-x="921" 
d="M174 -205q66 0 102 29t62 94l41 102l-359 902h164l277 -707l276 707h164l-399 -1004q-56 -140 -116 -198t-150 -58l-62 10v123zM461 1065q-96 1 -163 65t-83 160h123q8 -53 42 -88t81 -35t81 35t42 88h123q-16 -96 -83 -160t-163 -65z" />
    <glyph glyph-name="afii10193" unicode="&#x45f;" horiz-adv-x="1024" 
d="M440 0h-307v922h154v-779h450v779h154v-922h-307v-225h-144v225z" />
    <glyph glyph-name="afii10050" unicode="&#x490;" horiz-adv-x="921" 
d="M901 1147h-573v-1147h-164v1290h594v256h143v-399z" />
    <glyph glyph-name="afii10098" unicode="&#x491;" horiz-adv-x="747" 
d="M584 1137h143v-359h-440v-778h-154v922h451v215z" />
    <glyph glyph-name="uni1E9E" unicode="&#x1e9e;" horiz-adv-x="1208" 
d="M748 0h-113v143h113q94 0 154 65t61 171q-1 106 -61 171t-154 64h-113v144l239 389h-331q-86 0 -151 -67t-64 -158v-922h-164v922q0 147 112 258q113 111 267 110h512v-123l-256 -409q115 -16 213 -99q43 -37 79 -111t35 -169q0 -163 -108 -271t-270 -108z" />
    <glyph glyph-name="endash" unicode="&#x2013;" horiz-adv-x="952" 
d="M881 594v-143h-809v143h809z" />
    <glyph glyph-name="emdash" unicode="&#x2014;" horiz-adv-x="1454" 
d="M1382 594v-143h-1310v143h1310z" />
    <glyph glyph-name="quoteleft" unicode="&#x2018;" horiz-adv-x="348" 
d="M174 911q-102 1 -102 123q0 66 41 138t82 100l41 28l20 -30q-72 -62 -82 -154q47 0 75 -28q27 -28 27 -74q0 -47 -28 -75t-74 -28z" />
    <glyph glyph-name="quoteright" unicode="&#x2019;" horiz-adv-x="348" 
d="M174 1096q-47 0 -75 28t-27 74q0 47 27 75q28 27 75 27t75 -28q27 -28 27 -94t-40 -138t-82 -100l-41 -29l-21 31q72 62 82 154z" />
    <glyph glyph-name="quotesinglbase" unicode="&#x201a;" horiz-adv-x="348" 
d="M174 195q102 -1 102 -123q0 -66 -40 -138t-82 -100l-41 -29l-21 31q72 62 82 154q-47 0 -75 28t-27 74q0 47 27 75q28 28 75 28z" />
    <glyph glyph-name="quotedblleft" unicode="&#x201c;" horiz-adv-x="624" 
d="M553 1014q0 -47 -29 -75q-30 -28 -74 -28t-73 28q-29 29 -29 95t41 138t82 100l41 28l20 -30q-71 -62 -81 -154q45 0 73 -28t29 -74zM174 911q-102 1 -102 123q0 66 41 138t82 100l41 28l20 -30q-72 -62 -82 -154q47 0 75 -28q27 -28 27 -74q0 -47 -28 -75t-74 -28z" />
    <glyph glyph-name="quotedblright" unicode="&#x201d;" horiz-adv-x="624" 
d="M174 1096q-47 0 -75 28t-27 74q0 47 27 75q28 27 75 27t75 -28q27 -28 27 -94t-40 -138t-82 -100l-41 -29l-21 31q72 62 82 154zM348 1198q0 47 29 75q29 27 74 27t73 -28t29 -94q0 -66 -41 -138t-82 -100l-41 -29l-20 31q72 62 82 154q-45 0 -74 28t-29 74z" />
    <glyph glyph-name="quotedblbase" unicode="&#x201e;" horiz-adv-x="634" 
d="M461 195q103 -1 103 -123q0 -66 -42 -138q-41 -72 -82 -100l-41 -29l-20 31q72 62 82 154q-47 0 -75 28t-28 74q0 47 28 75t75 28zM174 195q102 -1 102 -123q0 -66 -40 -138t-82 -100l-41 -29l-21 31q72 62 82 154q-47 0 -75 28t-27 74q0 47 27 75q28 28 75 28z" />
    <glyph glyph-name="dagger" unicode="&#x2020;" horiz-adv-x="696" 
d="M625 1034v-123h-215v-542h-123v542h-215v123h215v256h123v-256h215z" />
    <glyph glyph-name="daggerdbl" unicode="&#x2021;" horiz-adv-x="696" 
d="M625 737v-123h-215v-245h-123v245h-215v123h215v185h-215v122h215v246h123v-246h215v-122h-215v-185h215z" />
    <glyph glyph-name="bullet" unicode="&#x2022;" horiz-adv-x="778" 
d="M205 553q0 78 53 131t131 53t131 -53t53 -131t-53 -131t-131 -53t-131 53t-53 131z" />
    <glyph glyph-name="ellipsis" unicode="&#x2026;" horiz-adv-x="1126" 
d="M850 92q0 47 28 75t74 28t75 -28q28 -28 28 -75t-28 -75q-28 -27 -75 -27q-46 0 -74 28t-28 74zM461 92q0 47 27 75q28 28 75 28t75 -28t28 -75t-28 -75q-28 -27 -75 -27t-75 27q-27 28 -27 75zM72 92q0 47 27 75q28 28 75 28t75 -28q27 -28 27 -75t-28 -75
q-28 -27 -74 -27q-47 0 -75 27q-27 28 -27 75z" />
    <glyph glyph-name="perthousand" unicode="&#x2030;" horiz-adv-x="1820" 
d="M1759 256q0 -108 -75 -182t-181 -74t-181 74t-75 182t75 182t181 74t181 -74t75 -182zM1350 256q0 -68 46 -116t107 -48t108 48q46 48 46 116t-46 116q-45 48 -107 48t-108 -48t-46 -116zM1157 256q0 -108 -75 -182t-181 -74t-181 74t-75 182t75 182t181 74t181 -74
t75 -182zM748 256q0 -68 46 -116t107 -48t108 48q46 48 46 116t-46 116q-45 48 -107 48t-108 -48t-46 -116zM573 1034q1 -108 -73 -182t-183 -74t-183 74t-73 182q0 108 74 183q75 73 183 73t182 -73q73 -74 73 -183zM164 1034q0 -68 46 -116t107 -48t107 48t47 116
q0 68 -46 116q-45 48 -107 48t-108 -48t-46 -116zM276 0h-112l788 1290h113z" />
    <glyph glyph-name="guilsinglleft" unicode="&#x2039;" horiz-adv-x="522" 
d="M225 461l226 -328h-154l-225 328l225 327h154z" />
    <glyph glyph-name="guilsinglright" unicode="&#x203a;" horiz-adv-x="522" 
d="M72 133l225 328l-225 327h153l226 -327l-226 -328h-153z" />
    <glyph glyph-name="fraction" unicode="&#x2044;" horiz-adv-x="225" 
d="M-215 0h-133l788 1290h133z" />
    <glyph glyph-name="zerosuperior" unicode="&#x2070;" horiz-adv-x="614" 
d="M553 1178q0 -140 -71 -224t-175 -84t-175 83t-71 225t71 224q71 83 175 83t175 -83t71 -224zM174 1178q0 -102 38 -154t95 -51q57 0 95 51q38 52 38 154t-38 153t-95 51t-95 -51t-38 -153z" />
    <glyph glyph-name="foursuperior" unicode="&#x2074;" horiz-adv-x="512" 
d="M266 1096v215l-133 -215h133zM379 1475v-379h72v-103h-72v-112h-113v112h-256v82l246 400h123z" />
    <glyph glyph-name="fivesuperior" unicode="&#x2075;" horiz-adv-x="552" 
d="M310 1280q74 0 127 -56q55 -56 55 -146t-62 -148q-62 -60 -152 -60q-92 0 -146 48t-71 126h113q18 -72 102 -71q47 -1 75 27t28 78t-28 80t-75 30q-82 0 -102 -62h-92l41 349h328v-103h-234l-12 -112q31 20 105 20z" />
    <glyph glyph-name="sixsuperior" unicode="&#x2076;" horiz-adv-x="532" 
d="M276 1178q-40 0 -66 -29t-26 -74t27 -74t65 -29t66 30q27 28 27 73t-27 74t-66 29zM481 1076q0 -92 -56 -149q-57 -57 -149 -57t-148 56t-56 149q0 45 20 96t41 80l154 224h123l-134 -195q92 0 148 -56t57 -148z" />
    <glyph glyph-name="sevensuperior" unicode="&#x2077;" horiz-adv-x="471" 
d="M82 1372v103h389v-72l-246 -522h-112l235 491h-266z" />
    <glyph glyph-name="eightsuperior" unicode="&#x2078;" horiz-adv-x="532" 
d="M266 1147q-40 0 -66 -27q-26 -28 -26 -62t27 -60t65 -26t66 26q27 26 26 61q0 35 -26 61t-66 27zM266 1382q-38 0 -60 -20t-22 -51t23 -51t59 -20t60 20q23 20 22 51q0 31 -22 51q-23 20 -60 20zM266 870q-90 0 -147 54t-57 114q0 62 20 98t41 48l20 14q-61 31 -61 107
t54 128t130 52t130 -52t55 -122q1 -37 -15 -65t-30 -38l-17 -10q32 -16 58 -57q25 -41 24 -86q1 -77 -57 -131t-148 -54z" />
    <glyph glyph-name="ninesuperior" unicode="&#x2079;" horiz-adv-x="532" 
d="M256 1178q39 0 66 28t26 74q0 45 -26 74q-27 28 -66 28t-66 -28q-26 -28 -26 -74q0 -45 26 -74q27 -28 66 -28zM123 881l133 194q-92 1 -148 57t-57 148q1 92 57 148t148 56t148 -56t57 -148q-1 -45 -21 -96t-41 -80l-153 -223h-123z" />
    <glyph glyph-name="zeroinferior" unicode="&#x2080;" horiz-adv-x="614" 
d="M553 113q0 -141 -71 -225t-175 -83q-104 0 -175 83q-71 82 -71 224t71 225t175 83t175 -83t71 -224zM174 113q0 -101 38 -153t95 -52t95 51t38 153t-38 154q-38 51 -95 51t-95 -51t-38 -153z" />
    <glyph glyph-name="oneinferior" unicode="&#x2081;" horiz-adv-x="419" 
d="M287 410v-594h-113v450l-82 -41l-51 82l164 103h82z" />
    <glyph glyph-name="twoinferior" unicode="&#x2082;" horiz-adv-x="522" 
d="M461 -82v-102h-400v82l226 235q61 61 61 103q0 82 -92 81q-92 0 -92 -92h-103q-1 83 55 139t143 56t144 -53t57 -123t-61 -131l-180 -195h242z" />
    <glyph glyph-name="threeinferior" unicode="&#x2083;" horiz-adv-x="542" 
d="M164 0q0 -39 29 -66q29 -26 73 -26t74 24q29 24 29 61t-29 63t-74 26h-53v92h53q37 0 60 20t22 52q0 31 -22 51q-23 20 -60 20q-92 0 -92 -81h-102q0 78 55 131t138 53t139 -52t57 -122q1 -37 -15 -65t-32 -38l-15 -10q9 -4 23 -12t37 -45t22 -86q0 -78 -57 -131
q-58 -53 -152 -53t-152 54t-59 140h103z" />
    <glyph glyph-name="fourinferior" unicode="&#x2084;" horiz-adv-x="512" 
d="M266 31v215l-133 -215h133zM379 410v-379h72v-103h-72v-112h-113v112h-256v82l246 400h123z" />
    <glyph glyph-name="fiveinferior" unicode="&#x2085;" horiz-adv-x="552" 
d="M310 215q74 0 127 -56q55 -55 55 -145t-62 -149t-152 -59q-92 0 -146 46q-54 48 -71 128h113q18 -72 102 -72q47 0 75 28t28 77q0 50 -28 80t-75 30q-82 0 -102 -62h-92l41 349h328v-103h-234l-12 -112q31 20 105 20z" />
    <glyph glyph-name="sixinferior" unicode="&#x2086;" horiz-adv-x="532" 
d="M276 113q-40 0 -66 -29t-26 -74q0 -46 27 -74t65 -28t66 29q27 29 27 73t-27 74q-27 29 -66 29zM481 10q0 -92 -56 -148q-57 -56 -149 -56t-148 56t-56 148q0 45 20 96t41 80l154 224h123l-134 -195q92 0 148 -56q56 -57 57 -149z" />
    <glyph glyph-name="seveninferior" unicode="&#x2087;" horiz-adv-x="471" 
d="M82 307v103h389v-72l-246 -522h-112l235 491h-266z" />
    <glyph glyph-name="eightinferior" unicode="&#x2088;" horiz-adv-x="532" 
d="M266 82q-40 0 -66 -27t-26 -61t27 -61q27 -25 65 -25t66 26q27 26 26 60q0 36 -26 62t-66 26zM266 317q-38 0 -60 -20t-22 -51t23 -51q23 -21 59 -21t60 20q23 20 22 52q0 31 -22 51q-23 20 -60 20zM266 -195q-90 -1 -147 53t-57 116t20 97q20 36 41 48l20 14
q-61 31 -61 107t54 128t130 52t130 -52t55 -122q1 -37 -15 -65t-30 -38l-17 -10q32 -16 58 -57q25 -41 24 -86q1 -78 -57 -132t-148 -53z" />
    <glyph glyph-name="nineinferior" unicode="&#x2089;" horiz-adv-x="532" 
d="M256 113q39 1 66 29t26 73q0 45 -26 74q-27 29 -66 29t-66 -30q-26 -28 -26 -73t26 -74q27 -28 66 -28zM256 420q92 0 148 -56t57 -149q-1 -45 -21 -96t-41 -80l-153 -223h-123l133 194q-92 0 -148 56t-57 149q1 93 57 149t148 56z" />
    <glyph glyph-name="Euro" unicode="&#x20ac;" horiz-adv-x="1351" 
d="M41 707v133h170q59 207 203 334q144 126 344 126q201 0 343 -124t189 -316h-174q-25 127 -121 212t-233 85q-138 0 -236 -87t-143 -230h385v-133h-410q-4 -31 -4 -72l4 -82h410v-133h-373q35 -123 132 -205t235 -82t233 85q96 85 121 212h174q-47 -192 -189 -316
t-342 -124t-343 122t-195 308h-180v133h154q-4 41 -5 82l5 72h-154z" />
    <glyph glyph-name="uni20B4" unicode="&#x20b4;" horiz-adv-x="1116" 
d="M92 440v133h932v-133h-553q-4 -2 -12 -4q-58 -15 -88 -86q-13 -28 -13 -74t56 -94t142 -49q85 0 139 44t63 110h164q-8 -121 -110 -209t-259 -88q-156 0 -257 89t-101 208q0 49 17 88t36 51l18 14h-174zM1024 850v-133h-932v133h553q4 2 12 4q58 15 88 86q40 98 -44 169
q-56 48 -141 48t-139 -44t-63 -109h-163q8 120 110 208t258 88t257 -89t102 -207q0 -48 -18 -88t-36 -52l-18 -14h174z" />
    <glyph glyph-name="uni20BD" unicode="&#x20bd;" horiz-adv-x="1126" 
d="M369 655h266q106 0 176 70q70 69 70 177t-69 176t-177 69h-266v-492zM51 512v143h154v635h430q174 0 292 -114q117 -114 117 -275t-118 -275t-291 -114h-266v-164h389v-143h-389v-205h-164v205h-154v143h154v164h-154z" />
    <glyph glyph-name="afii61352" unicode="&#x2116;" horiz-adv-x="1925" 
d="M952 1290h164v-1290h-143l-645 973v-973h-164v1290h143l645 -973v973zM1843 594q0 -115 -84 -201q-85 -86 -193 -86t-192 86t-84 201t84 201t193 86t193 -86t83 -201zM1434 594q0 -68 39 -111t94 -43t94 43t39 111t-39 111t-94 43t-94 -43t-39 -111zM1311 0v133h512v-133
h-512z" />
    <glyph glyph-name="trademark" unicode="&#x2122;" horiz-adv-x="1085" 
d="M614 768h-102v522h82l164 -235l164 235h82v-522h-103v328l-113 -164h-61l-113 164v-328zM430 1290v-92h-154v-430h-102v430h-154v92h410z" />
    <glyph glyph-name="arrowleft" unicode="&#x2190;" horiz-adv-x="2048" 
d="M1812 707v-144h-1310l297 -297v-194l-563 563l563 563v-194l-297 -297h1310z" />
    <glyph glyph-name="arrowup" unicode="&#x2191;" horiz-adv-x="2048" 
d="M1096 -133h-144v1311l-297 -297h-194l563 563l563 -563h-194l-297 297v-1311z" />
    <glyph glyph-name="arrowright" unicode="&#x2192;" horiz-adv-x="2048" 
d="M236 563v144h1310l-297 297v194l563 -563l-563 -563v194l297 297h-1310z" />
    <glyph glyph-name="arrowdown" unicode="&#x2193;" horiz-adv-x="2048" 
d="M952 1444h144v-1311l297 297h194l-563 -563l-563 563h194l297 -297v1311z" />
    <glyph glyph-name="arrowboth" unicode="&#x2194;" horiz-adv-x="2048" 
d="M1249 1198l563 -563l-563 -563v194l297 297h-1044l297 -297v-194l-563 563l563 563v-194l-297 -297h1044l-297 297v194z" />
    <glyph glyph-name="arrowupdn" unicode="&#x2195;" horiz-adv-x="2048" 
d="M1587 430l-563 -563l-563 563h194l297 -297v1045l-297 -297h-194l563 563l563 -563h-194l-297 297v-1045l297 297h194z" />
    <glyph glyph-name="uni2196" unicode="&#x2196;" horiz-adv-x="2048" 
d="M440 1219h799l-143 -144h-410l922 -921l-103 -103l-921 922v-410l-144 -143v799z" />
    <glyph glyph-name="uni2197" unicode="&#x2197;" horiz-adv-x="2048" 
d="M1608 1219v-799l-144 143v410l-921 -922l-103 103l922 921h-410l-143 144h799z" />
    <glyph glyph-name="uni2198" unicode="&#x2198;" horiz-adv-x="2048" 
d="M1608 51h-799l143 144h410l-922 921l103 103l921 -922v410l144 143v-799z" />
    <glyph glyph-name="uni2199" unicode="&#x2199;" horiz-adv-x="2048" 
d="M440 51v799l144 -143v-410l921 922l103 -103l-922 -921h410l143 -144h-799z" />
    <glyph glyph-name="minus" unicode="&#x2212;" horiz-adv-x="880" 
d="M819 594v-133h-758v133h758z" />
    <glyph glyph-name="approxequal" unicode="&#x2248;" horiz-adv-x="901" 
d="M236 348q-47 0 -80 -37t-33 -96h-123q0 129 63 198t157 69t246 -72t198 -72t80 36t34 97h123q-1 -129 -65 -198t-181 -68q-70 -1 -221 71t-198 72zM236 748q-47 0 -80 -37t-33 -97h-123q0 129 63 198t157 69t246 -72t198 -72t80 36t34 97h123q-1 -130 -65 -198t-181 -68
q-70 0 -221 72t-198 72z" />
    <glyph glyph-name="notequal" unicode="&#x2260;" horiz-adv-x="901" 
d="M51 788h430l103 246h153l-102 -246h215v-143h-277l-92 -235h369v-144h-430l-103 -256h-153l102 256h-215v144h277l92 235h-369v143z" />
    <glyph glyph-name="lessequal" unicode="&#x2264;" horiz-adv-x="890" 
d="M307 655l502 -235v-154l-717 338v103l717 337v-153zM82 0v143h727v-143h-727z" />
    <glyph glyph-name="greaterequal" unicode="&#x2265;" horiz-adv-x="890" 
d="M82 420l502 235l-502 236v153l717 -337v-103l-717 -338v154zM809 143v-143h-727v143h727z" />
    <glyph glyph-name="uni2460" unicode="&#x2460;" horiz-adv-x="2048" 
d="M1137 1065v-819h-144v655l-123 -82l-71 92l215 154h123zM317 655q0 -291 208 -499t499 -207q291 0 499 208q208 209 208 499t-208 498t-499 208t-499 -208t-208 -499zM174 655q0 352 249 601t601 249t601 -249t249 -601t-249 -601t-601 -249t-601 249t-249 601z" />
    <glyph glyph-name="uni2461" unicode="&#x2461;" horiz-adv-x="2048" 
d="M174 655q0 352 249 601t601 249t601 -249t249 -601t-249 -601t-601 -249t-601 249t-249 601zM317 655q0 -291 208 -499t499 -207q291 0 499 208q208 209 208 499t-208 498t-499 208t-499 -208t-208 -499zM1290 379v-133h-532v92l307 328q43 46 62 80t19 82t-34 81
q-35 33 -88 33t-89 -34t-44 -89h-143q8 109 86 183t190 73q112 0 190 -73q76 -73 76 -173q0 -106 -52 -177q-18 -24 -50 -58l-205 -215h307z" />
    <glyph glyph-name="uni2462" unicode="&#x2462;" horiz-adv-x="2048" 
d="M174 655q0 352 249 601t601 249t601 -249t249 -601t-249 -601t-601 -249t-601 249t-249 601zM317 655q0 -291 208 -499t499 -207q291 0 499 208q208 209 208 499t-208 498t-499 208t-499 -208t-208 -499zM1321 492q0 -111 -81 -184q-81 -72 -212 -72t-208 68t-93 177h143
q8 -41 52 -77t110 -36t106 34t40 88t-40 84t-114 30h-78v123h78q59 0 96 33t37 77q0 45 -37 75t-96 30q-109 0 -143 -102h-133q8 96 86 166t198 70t194 -66q75 -64 74 -160q0 -63 -30 -108q-31 -44 -62 -54l-30 -12q143 -48 143 -184z" />
    <glyph glyph-name="uni2463" unicode="&#x2463;" horiz-adv-x="2048" 
d="M174 655q0 352 249 601t601 249t601 -249t249 -601t-249 -601t-601 -249t-601 249t-249 601zM317 655q0 -291 208 -499t499 -207q291 0 499 208q208 209 208 499t-208 498t-499 208t-499 -208t-208 -499zM1034 553v307l-215 -307h215zM1270 553v-133h-92v-174h-144v174
h-368v112l358 533h154v-512h92z" />
    <glyph glyph-name="uni2464" unicode="&#x2464;" horiz-adv-x="2048" 
d="M174 655q0 352 249 601t601 249t601 -249t249 -601t-249 -601t-601 -249t-601 249t-249 601zM317 655q0 -291 208 -499t499 -207q291 0 499 208q208 209 208 499t-208 498t-499 208t-499 -208t-208 -499zM1044 788q119 0 198 -82t79 -197q0 -114 -84 -194
q-84 -79 -208 -79t-205 70t-97 175h143q37 -113 154 -112q61 0 108 41q46 41 46 102t-46 102t-98 41t-86 -15q-33 -15 -45 -30l-12 -16h-133l61 471h441v-133h-328l-21 -174q51 30 133 30z" />
    <glyph glyph-name="uni2465" unicode="&#x2465;" horiz-adv-x="2048" 
d="M174 655q0 352 249 601t601 249t601 -249t249 -601t-249 -601t-601 -249t-601 249t-249 601zM317 655q0 -291 208 -499t499 -207q291 0 499 208q208 209 208 499t-208 498t-499 208t-499 -208t-208 -499zM870 522q0 -63 43 -108t111 -45t111 45t43 108q0 62 -43 108
t-111 46t-111 -46t-43 -108zM1024 236q-123 0 -210 85t-87 201q0 48 15 98t32 72l14 25l236 348h154l-174 -256h20q123 0 210 -85t87 -202q0 -118 -87 -202t-210 -84z" />
    <glyph glyph-name="uni2466" unicode="&#x2466;" horiz-adv-x="2048" 
d="M174 655q0 352 249 601t601 249t601 -249t249 -601t-249 -601t-601 -249t-601 249t-249 601zM317 655q0 -291 208 -499t499 -207q291 0 499 208q208 209 208 499t-208 498t-499 208t-499 -208t-208 -499zM778 1065h522v-109l-337 -710h-144l328 686h-369v133z" />
    <glyph glyph-name="uni2467" unicode="&#x2467;" horiz-adv-x="2048" 
d="M174 655q0 352 249 601t601 249t601 -249t249 -601t-249 -601t-601 -249t-601 249t-249 601zM1024 236q-135 0 -216 72t-81 173q0 66 36 114t73 64l34 17q-4 2 -12 5q-56 21 -88 100q-12 32 -12 69q0 94 73 160q74 66 193 66t193 -66t73 -160q0 -59 -28 -102t-58 -58
l-26 -14q89 -30 128 -118q15 -36 15 -77q0 -101 -81 -173t-216 -72zM317 655q0 -291 208 -499t499 -207q291 0 499 208q208 209 208 499t-208 498t-499 208t-499 -208t-208 -499zM1024 737q53 0 88 32t35 76t-35 76q-35 31 -88 31t-88 -32t-35 -75q0 -44 35 -76t88 -32z
M1024 358q68 0 111 38t43 90t-43 90t-111 38t-111 -38t-43 -90t43 -90t111 -38z" />
    <glyph glyph-name="uni2468" unicode="&#x2468;" horiz-adv-x="2048" 
d="M870 788q0 -63 43 -108t111 -45t111 45t43 108q0 62 -43 108t-111 46t-111 -46t-43 -108zM1874 655q0 -352 -249 -601t-601 -249t-601 249t-249 601t249 601t601 249t601 -249t249 -601zM1731 655q0 291 -208 499t-499 208t-499 -208t-208 -499t208 -499t499 -207
q291 -1 499 207t208 499zM1024 1075q123 0 210 -85t87 -202q0 -49 -15 -98t-32 -72l-14 -24l-236 -348h-154l174 256h-20q-123 0 -210 85t-87 201t87 202q87 85 210 85z" />
    <glyph glyph-name="uni24EA" unicode="&#x24ea;" horiz-adv-x="2048" 
d="M174 655q0 352 249 601t601 249t601 -249t249 -601t-249 -601t-601 -249t-601 249t-249 601zM317 655q0 -291 208 -499t499 -207q291 0 499 208q208 209 208 499t-208 498t-499 208t-499 -208t-208 -499zM1362 655q0 -193 -97 -307t-241 -112q-144 0 -241 113
q-97 115 -97 307t97 306t241 114t241 -114t97 -307zM829 655q1 -139 57 -213t138 -74t138 74t57 213q-1 139 -57 213t-138 74t-138 -74t-57 -213z" />
    <glyph glyph-name="uni24FF" unicode="&#x24ff;" horiz-adv-x="2048" 
d="M174 655q0 352 249 601t601 249t601 -249t249 -601t-249 -601t-601 -249t-601 249t-249 601zM1362 655q0 193 -97 307t-241 114t-241 -114t-97 -307t97 -307t241 -112q144 0 241 113t97 306zM829 655q1 139 57 213t138 74t138 -74t56 -213t-56 -213t-138 -74t-138 74
t-57 213z" />
    <glyph glyph-name="uni2776" unicode="&#x2776;" horiz-adv-x="2048" 
d="M1137 1065h-123l-215 -154l71 -92l123 82v-655h144v819zM174 655q0 352 249 601t601 249t601 -249t249 -601t-249 -601t-601 -249t-601 249t-249 601z" />
    <glyph glyph-name="uni2777" unicode="&#x2777;" horiz-adv-x="2048" 
d="M174 655q0 352 249 601t601 249t601 -249t249 -601t-249 -601t-601 -249t-601 249t-249 601zM1290 379h-307l205 215q33 34 50 58q52 72 52 175q0 102 -77 175t-189 73t-190 -74t-86 -182h143q8 55 44 89t89 34t88 -33t35 -81q1 -48 -19 -83t-63 -79l-307 -328v-92h532
v133z" />
    <glyph glyph-name="uni2778" unicode="&#x2778;" horiz-adv-x="2048" 
d="M174 655q0 352 249 601t601 249t601 -249t249 -601t-249 -601t-601 -249t-601 249t-249 601zM1300 850q0 96 -74 161q-75 65 -195 65q-119 0 -197 -70t-86 -166h133q35 102 143 102q59 0 96 -31t37 -75t-37 -76q-37 -33 -96 -33h-78v-123h78q74 0 114 -31t40 -83t-40 -88
q-40 -34 -106 -34t-109 36q-44 36 -53 77h-143q16 -111 93 -179t208 -66q131 0 212 72t81 184q0 68 -36 114t-73 58l-34 12q4 2 13 4q61 14 96 96q13 33 13 74z" />
    <glyph glyph-name="uni2779" unicode="&#x2779;" horiz-adv-x="2048" 
d="M174 655q0 352 249 601t601 249t601 -249t249 -601t-249 -601t-601 -249t-601 249t-249 601zM1034 553h-215l215 307v-307zM1270 420v133h-92v512h-154l-358 -533v-112h368v-174h144v174h92z" />
    <glyph glyph-name="uni277A" unicode="&#x277a;" horiz-adv-x="2048" 
d="M174 655q0 352 249 601t601 249t601 -249t249 -601t-249 -601t-601 -249t-601 249t-249 601zM1044 788q-77 0 -133 -30l21 174h328v133h-441l-61 -471h133q37 61 133 61q62 0 108 -41t46 -102t-46 -102t-108 -41q-117 0 -154 112h-143q16 -104 97 -175q81 -70 205 -70
t208 80t84 193q0 115 -79 197t-198 82z" />
    <glyph glyph-name="uni277B" unicode="&#x277b;" horiz-adv-x="2048" 
d="M174 655q0 352 249 601t601 249t601 -249t249 -601t-249 -601t-601 -249t-601 249t-249 601zM870 522q0 62 43 108t111 46t111 -45t43 -109t-43 -108q-43 -45 -111 -45t-111 45t-43 108zM1024 236q123 0 210 85t87 201t-87 202q-87 85 -210 85h-20l174 256h-154
l-236 -348q-61 -82 -61 -197q0 -116 87 -200t210 -84z" />
    <glyph glyph-name="uni277C" unicode="&#x277c;" horiz-adv-x="2048" 
d="M174 655q0 352 249 601t601 249t601 -249t249 -601t-249 -601t-601 -249t-601 249t-249 601zM1300 1065h-522v-133h369l-328 -686h144l337 710v109z" />
    <glyph glyph-name="uni277D" unicode="&#x277d;" horiz-adv-x="2048" 
d="M174 655q0 352 249 601t601 249t601 -249t249 -601t-249 -601t-601 -249t-601 249t-249 601zM1024 236q135 0 216 72t81 173q0 66 -36 114t-73 64l-34 17q4 2 12 5q56 21 88 100q12 32 12 69q0 94 -73 160q-74 66 -193 66t-193 -66t-73 -160q0 -59 28 -102t58 -58l26 -14
q-89 -30 -128 -118q-15 -36 -15 -77q0 -101 81 -173t216 -72zM1024 737q-53 0 -88 32t-35 76t35 76q35 31 88 31t88 -32t35 -75q0 -44 -35 -76t-88 -32zM1024 358q-68 0 -111 38t-43 90t43 90t111 38t111 -38t43 -90t-43 -90t-111 -38z" />
    <glyph glyph-name="uni277E" unicode="&#x277e;" horiz-adv-x="2048" 
d="M870 788q0 62 43 108t111 46t111 -45t43 -109t-43 -108q-43 -45 -111 -45t-111 45t-43 108zM1874 655q0 -352 -249 -601t-601 -249t-601 249t-249 601t249 601t601 249t601 -249t249 -601zM1024 1075q-123 0 -210 -85t-87 -202q0 -118 87 -202t210 -84h20l-174 -256h154
l236 348q61 82 61 196t-87 200q-87 85 -210 85z" />
    <glyph glyph-name="commaaccent" unicode="&#xf6c3;" horiz-adv-x="327" 
d="M61 -236q0 43 30 73t73 30t73 -30q52 -52 14 -177q-20 -66 -85 -137q-19 -21 -53 -45l-31 41q72 61 82 143q-43 0 -73 30t-30 72z" />
    <glyph glyph-name="cyrBreve" unicode="&#xf6d1;" horiz-adv-x="634" 
d="M317 1434q-104 0 -172 61t-84 164h123q8 -55 44 -89t89 -34t90 34q36 34 44 89h122q-16 -101 -84 -163t-172 -62z" />
    <glyph glyph-name="cyrbreve" unicode="&#xf6d4;" horiz-adv-x="614" 
d="M307 1065q-96 1 -163 65t-83 160h123q8 -53 43 -88t80 -35t80 35t43 88h123q-16 -96 -83 -160t-163 -65z" />
    <glyph glyph-name="s_t" unicode="&#xfb06;" horiz-adv-x="1464" 
d="M737 254q0 -108 -87 -186q-88 -78 -234 -78t-236 80t-98 206h154q8 -63 55 -103t125 -40t123 39t45 94t-49 85t-120 45q-71 16 -143 36t-120 78t-50 163q0 103 86 181t222 78h30q-10 31 -10 92q0 154 104 256t265 102q160 0 264 -100t104 -248v-112h205v-134h-205v-491
q0 -76 42 -120t112 -44l51 10v-133q-31 -20 -92 -20q-110 0 -188 86t-78 221v491h-164v134h72q113 0 112 112q0 92 -63 154t-163 61q-100 0 -162 -62q-62 -61 -62 -151t34 -141t69 -105q36 -54 40 -135h-154q-16 133 -163 133q-66 0 -110 -36t-44 -89q0 -52 49 -82t120 -45
q71 -16 143 -36t120 -79q49 -59 49 -167z" />
    <glyph glyph-name="lslash.alt" horiz-adv-x="573" 
d="M348 297q0 -76 42 -120t112 -44l51 10v-133q-31 -20 -92 -20q-111 0 -189 86t-77 221v233l-154 -100v154l154 100v606h153v-506l164 107v-154l-164 -106v-334z" />
    <glyph glyph-name="Germandbls" horiz-adv-x="1208" 
d="M748 0h-113v143h113q94 0 154 65t61 171q-1 106 -61 171t-154 64h-113v144l239 389h-331q-86 0 -151 -67t-64 -158v-922h-164v922q0 147 112 258q113 111 267 110h512v-123l-256 -409q115 -16 213 -99q43 -37 79 -111t35 -169q0 -163 -108 -271t-270 -108z" />
    <glyph glyph-name="a.alt" horiz-adv-x="1054" 
d="M502 -10q-180 0 -305 133t-125 338t125 338t305 133q82 0 150 -28t98 -56l28 -29l41 103h113v-922h-113l-41 102q-10 -12 -30 -30t-92 -50t-154 -32zM799 461q0 143 -84 235t-203 92t-203 -92t-84 -235t84 -235t203 -93q119 1 203 93t84 235z" />
    <glyph glyph-name="afii10085.alt" horiz-adv-x="921" 
d="M379 20l-359 902h164l277 -707l276 707h164l-502 -1250h-163z" />
    <glyph glyph-name="l.alt" horiz-adv-x="522" 
d="M297 1290v-993q0 -76 42 -120t112 -44l51 10v-133q-31 -20 -92 -20q-111 0 -189 86t-78 221v993h154z" />
    <glyph glyph-name="y.alt" horiz-adv-x="1044" 
d="M492 20q-150 0 -254 113t-105 287v502h154v-502q-1 -112 65 -184t168 -72t170 70t68 186v502h153v-891q-1 -162 -111 -271q-110 -108 -271 -108t-257 77t-129 199h154q57 -133 225 -133q100 0 168 68t68 168v112q-10 -14 -30 -34q-20 -21 -90 -55q-68 -34 -146 -34z" />
    <glyph glyph-name="I.alt" horiz-adv-x="716" 
d="M72 143h204v1004h-204v143h573v-143h-205v-1004h205v-143h-573v143z" />
    <glyph glyph-name="c_t" horiz-adv-x="1607" 
d="M1065 922q113 0 113 112q0 100 -58 158t-157 57q-101 0 -163 -62t-62 -169q0 -108 73 -228q74 -120 90 -196h-153q-25 82 -92 138t-166 56t-182 -93t-83 -234t83 -235q82 -94 182 -93q100 0 166 56t92 139h153q-33 -143 -141 -241q-110 -97 -274 -97t-289 133t-125 338
t125 338t305 133l92 -10q-10 41 -10 102q0 154 104 256t264 102t259 -97t100 -251v-112h205v-134h-205v-491q0 -76 42 -120t111 -44l52 10v-133q-31 -20 -93 -20q-111 0 -189 86t-77 221v491h-164v134h72z" />
    <glyph glyph-name="r_f" horiz-adv-x="1075" 
d="M932 1300q65 0 92 -20v-133q-20 10 -51 10q-70 0 -112 -44t-42 -120v-71h205v-144h-205v-778h-153v778h-134q-110 0 -178 -70t-67 -186v-522h-154v922h113l41 -103q10 13 29 29t86 45t141 29h123v71q0 135 77 221q78 86 189 86z" />
    <glyph glyph-name="r_t" horiz-adv-x="1116" 
d="M686 1034v133h133v-245h205v-144h-205v-481q0 -76 42 -120t112 -44l51 10v-133q-31 -20 -92 -20q-111 0 -189 86t-77 221v481h-134q-110 0 -178 -70t-67 -186v-522h-154v922h113l41 -103q10 13 29 29t86 45t141 29h30q113 -1 113 112z" />
    <glyph glyph-name="afii10065.alt" horiz-adv-x="1054" 
d="M502 -10q-180 0 -305 133t-125 338t125 338t305 133q82 0 150 -28t98 -56l28 -29l41 103h113v-922h-113l-41 102q-10 -12 -30 -30t-92 -50t-154 -32zM799 461q0 143 -84 235t-203 92t-203 -92t-84 -235t84 -235t203 -93q119 1 203 93t84 235z" />
    <glyph glyph-name="afii10110.alt" horiz-adv-x="921" 
d="M379 20l-359 902h164l277 -707l276 707h164l-502 -1250h-163zM461 1065q-96 1 -163 65t-83 160h123q8 -53 42 -88t81 -35t81 35t42 88h123q-16 -96 -83 -160t-163 -65z" />
    <glyph glyph-name="agrave.alt" horiz-adv-x="1054" 
d="M502 -10q-180 0 -305 133t-125 338t125 338t305 133q82 0 150 -28t98 -56l28 -29l41 103h113v-922h-113l-41 102q-10 -12 -30 -30t-92 -50t-154 -32zM799 461q0 143 -84 235t-203 92t-203 -92t-84 -235t84 -235t203 -93q119 1 203 93t84 235zM471 1321l123 -246h-102
l-175 246h154z" />
    <glyph glyph-name="aacute.alt" horiz-adv-x="1054" 
d="M502 -10q-180 0 -305 133t-125 338t125 338t305 133q82 0 150 -28t98 -56l28 -29l41 103h113v-922h-113l-41 102q-10 -12 -30 -30t-92 -50t-154 -32zM799 461q0 143 -84 235t-203 92t-203 -92t-84 -235t84 -235t203 -93q119 1 203 93t84 235zM471 1075l123 246h154
l-175 -246h-102z" />
    <glyph glyph-name="abreve.alt" horiz-adv-x="1054" 
d="M502 -10q-180 0 -305 133t-125 338t125 338t305 133q82 0 150 -28t98 -56l28 -29l41 103h113v-922h-113l-41 102q-10 -12 -30 -30t-92 -50t-154 -32zM799 461q0 143 -84 235t-203 92t-203 -92t-84 -235t84 -235t203 -93q119 1 203 93t84 235zM512 1065q-96 1 -163 65
t-83 160h123q8 -53 43 -88t80 -35t80 35t43 88h123q-16 -96 -83 -160t-163 -65z" />
    <glyph glyph-name="acircumflex.alt" horiz-adv-x="1054" 
d="M502 -10q-180 0 -305 133t-125 338t125 338t305 133q82 0 150 -28t98 -56l28 -29l41 103h113v-922h-113l-41 102q-10 -12 -30 -30t-92 -50t-154 -32zM799 461q0 143 -84 235t-203 92t-203 -92t-84 -235t84 -235t203 -93q119 1 203 93t84 235zM594 1311l184 -246h-153
l-103 143l-102 -143h-154l185 246h143z" />
    <glyph glyph-name="adieresis.alt" horiz-adv-x="1054" 
d="M502 -10q-180 0 -305 133t-125 338t125 338t305 133q82 0 150 -28t98 -56l28 -29l41 103h113v-922h-113l-41 102q-10 -12 -30 -30t-92 -50t-154 -32zM799 461q0 143 -84 235t-203 92t-203 -92t-84 -235t84 -235t203 -93q119 1 203 93t84 235zM666 1096q-39 0 -66 26
t-27 66t27 66t66 26q40 0 66 -27t26 -65t-26 -66q-26 -26 -66 -26zM358 1096q-40 0 -66 26t-26 66t27 66t65 26t66 -27q27 -27 27 -65t-27 -66q-27 -26 -66 -26z" />
    <glyph glyph-name="amacron.alt" horiz-adv-x="1054" 
d="M502 -10q-180 0 -305 133t-125 338t125 338t305 133q82 0 150 -28t98 -56l28 -29l41 103h113v-922h-113l-41 102q-10 -12 -30 -30t-92 -50t-154 -32zM799 461q0 143 -84 235t-203 92t-203 -92t-84 -235t84 -235t203 -93q119 1 203 93t84 235zM778 1239v-123h-491v123h491
z" />
    <glyph glyph-name="aogonek.alt" horiz-adv-x="1054" 
d="M799 461q0 143 -84 235t-203 92t-203 -92t-84 -235t84 -235t203 -93q119 1 203 93t84 235zM502 -10q-180 0 -305 133t-125 338t125 338t305 133q82 0 150 -28t98 -56l28 -29l41 103h113v-922h-10q-72 -82 -72 -174q0 -39 27 -66t65 -26l82 10v-82q-41 -10 -82 -10
q-90 0 -142 48t-52 126q0 41 17 85t36 66l18 23l-41 102q-10 -12 -30 -30t-92 -50t-154 -32z" />
    <glyph glyph-name="aring.alt" horiz-adv-x="1054" 
d="M502 -10q-180 0 -305 133t-125 338t125 338t305 133q82 0 150 -28t98 -56l28 -29l41 103h113v-922h-113l-41 102q-10 -12 -30 -30t-92 -50t-154 -32zM799 461q0 143 -84 235t-203 92t-203 -92t-84 -235t84 -235t203 -93q119 1 203 93t84 235zM686 1208q0 -70 -47 -116
t-117 -48q-70 0 -116 48t-48 116q0 70 48 117t116 47q70 0 117 -47t47 -117zM451 1208q0 -31 20 -51t51 -20t51 20t21 51q0 32 -20 52t-52 20q-31 0 -51 -20t-20 -52z" />
    <glyph glyph-name="atilde.alt" horiz-adv-x="1054" 
d="M502 -10q-180 0 -305 133t-125 338t125 338t305 133q82 0 150 -28t98 -56l28 -29l41 103h113v-922h-113l-41 102q-10 -12 -30 -30t-92 -50t-154 -32zM799 461q0 143 -84 235t-203 92t-203 -92t-84 -235t84 -235t203 -93q119 1 203 93t84 235zM410 1300q64 0 104 -34
q42 -34 72 -66q30 -33 61 -33t55 33t25 90h92q0 -111 -50 -173q-49 -62 -113 -62t-105 34q-41 35 -72 67t-61 32t-56 -33q-25 -33 -24 -90h-92q0 111 50 173t114 62z" />
    <glyph glyph-name="lacute.alt" horiz-adv-x="522" 
d="M297 1290v-993q0 -76 42 -120t112 -44l51 10v-133q-31 -20 -92 -20q-111 0 -189 86t-78 221v993h154zM164 1444l123 246h153l-174 -246h-102z" />
    <glyph glyph-name="lcaron.alt" horiz-adv-x="532" 
d="M410 1044l71 246h144l-123 -246h-92zM297 1290v-993q0 -76 42 -120t112 -44l51 10v-133q-31 -20 -92 -20q-111 0 -189 86t-78 221v993h154z" />
    <glyph glyph-name="lcommaaccent.alt" horiz-adv-x="522" 
d="M297 1290v-993q0 -76 42 -120t112 -44l51 10v-133q-31 -20 -92 -20q-111 0 -189 86t-78 221v993h154zM215 -236q0 43 30 73q31 30 73 30t72 -30t30 -79q0 -132 -99 -235q-28 -29 -55 -45l-30 41q72 61 81 143q-43 0 -73 30t-29 72z" />
    <glyph glyph-name="Igrave.alt" horiz-adv-x="716" 
d="M72 143h204v1004h-204v143h573v-143h-205v-1004h205v-143h-573v143zM287 1690l123 -246h-103l-174 246h154z" />
    <glyph glyph-name="Iacute.alt" horiz-adv-x="716" 
d="M72 143h204v1004h-204v143h573v-143h-205v-1004h205v-143h-573v143zM307 1444l123 246h154l-174 -246h-103z" />
    <glyph glyph-name="Icircumflex.alt" horiz-adv-x="716" 
d="M72 143h204v1004h-204v143h573v-143h-205v-1004h205v-143h-573v143zM422 1679l184 -245h-153l-103 143l-102 -143h-154l185 245h143z" />
    <glyph glyph-name="Idieresis.alt" horiz-adv-x="716" 
d="M72 143h204v1004h-204v143h573v-143h-205v-1004h205v-143h-573v143zM512 1464q-39 0 -66 27q-26 27 -26 65t26 66q27 27 66 27t66 -27q26 -27 26 -66q0 -40 -26 -66t-66 -26zM205 1464q-39 0 -66 27t-27 65t27 66q27 27 66 27t65 -27t27 -66q-1 -40 -27 -66t-65 -26z" />
    <glyph glyph-name="Idotaccent.alt" horiz-adv-x="716" 
d="M72 143h204v1004h-204v143h573v-143h-205v-1004h205v-143h-573v143zM343 1454q-41 0 -69 28t-28 69q0 42 27 70q28 28 70 28t70 -28q27 -28 27 -70q0 -41 -28 -69t-69 -28z" />
    <glyph glyph-name="Imacron.alt" horiz-adv-x="716" 
d="M72 143h204v1004h-204v143h573v-143h-205v-1004h205v-143h-573v143zM594 1597v-122h-492v122h492z" />
    <glyph glyph-name="Iogonek.alt" horiz-adv-x="716" 
d="M72 0v143h204v1004h-204v143h573v-143h-205v-1004h205v-143q-72 -82 -72 -174q0 -39 27 -66t66 -26l82 10v-82q-41 -10 -82 -10q-90 0 -143 48q-52 48 -52 126q0 41 18 85t35 66l19 23h-471z" />
    <glyph glyph-name="yacute.alt" horiz-adv-x="1044" 
d="M492 20q-150 0 -254 113t-105 287v502h154v-502q-1 -112 65 -184t168 -72t170 70t68 186v502h153v-891q-1 -162 -111 -271q-110 -108 -271 -108t-257 77t-129 199h154q57 -133 225 -133q100 0 168 68t68 168v112q-10 -14 -30 -34q-20 -21 -90 -55q-68 -34 -146 -34z
M461 1075l123 246h153l-174 -246h-102z" />
    <glyph glyph-name="ydieresis.alt" horiz-adv-x="1044" 
d="M492 20q-150 0 -254 113t-105 287v502h154v-502q-1 -112 65 -184t168 -72t170 70t68 186v502h153v-891q-1 -162 -111 -271q-110 -108 -271 -108t-257 77t-129 199h154q57 -133 225 -133q100 0 168 68t68 168v112q-10 -14 -30 -34q-20 -21 -90 -55q-68 -34 -146 -34z
M666 1096q-39 0 -66 26t-27 66t27 66t66 26q40 0 66 -27t26 -65t-26 -66q-26 -26 -66 -26zM358 1096q-40 0 -66 26t-26 66t27 66t65 26t66 -27q27 -27 27 -65t-27 -66q-27 -26 -66 -26z" />
    <glyph glyph-name="zero.tab" 
d="M1004 645q0 -303 -146 -479t-356 -176q-209 0 -356 176q-146 176 -146 479t146 479t356 176t356 -176t146 -479zM164 645q0 -248 98 -380t240 -132t239 132q98 132 99 380q0 248 -98 380t-240 132t-240 -132t-98 -380z" />
    <glyph glyph-name="one.tab" 
d="M635 1290v-1147h266v-143h-696v143h266v922l-184 -123l-72 123l317 225h103z" />
    <glyph glyph-name="two.tab" 
d="M911 143v-143h-798v123l512 563q45 45 84 121t39 135q0 94 -65 154t-171 61q-106 -1 -176 -69t-70 -177h-164q0 162 118 276q118 113 292 113t287 -104t112 -254q0 -82 -44 -169t-87 -134l-452 -496h583z" />
    <glyph glyph-name="three.tab" 
d="M486 1300q168 0 282 -104q113 -104 113 -254q1 -103 -61 -169t-103 -89l-21 -8q8 -4 24 -10t54 -34q148 -106 148 -265t-122 -269t-300 -108q-178 0 -291 96t-137 242h164q16 -82 85 -138t179 -57q110 0 184 66q74 67 74 161t-73 159t-193 65h-72v143h61q106 0 171 60
q65 61 65 155t-65 154t-166 61q-100 0 -166 -57t-74 -137h-164q16 143 126 240t278 97z" />
    <glyph glyph-name="four.tab" 
d="M635 420v635l-389 -635h389zM942 420v-144h-143v-276h-164v276h-574v134l543 880h195v-870h143z" />
    <glyph glyph-name="five.tab" 
d="M532 850q170 0 290 -124t120 -307t-123 -306t-300 -123t-290 96t-137 242h164q16 -82 85 -138t177 -57q108 0 184 79t76 208t-75 208t-198 79t-205 -100q-19 -24 -34 -54h-143l82 737h655v-153h-512l-41 -369q32 32 97 57t128 25z" />
    <glyph glyph-name="six.tab" 
d="M225 428q0 -125 80 -210t197 -85q116 0 196 84t80 210t-80 208t-196 82t-197 -82q-80 -82 -80 -207zM502 -10q-184 0 -313 128q-128 128 -128 312q0 74 28 151t56 115l398 594h174l-287 -430q31 10 72 10q184 0 312 -128t128 -312t-128 -312t-312 -128z" />
    <glyph glyph-name="seven.tab" 
d="M143 1290h779v-112l-543 -1178h-174l532 1147h-594v143z" />
    <glyph glyph-name="eight.tab" 
d="M502 758q90 0 152 58t62 140t-60 142q-62 60 -154 59q-92 0 -154 -59q-62 -60 -61 -142t63 -140t152 -58zM502 614q-121 0 -194 -66q-72 -66 -72 -172t72 -174t194 -69q122 0 194 69t72 174q0 106 -72 172t-194 66zM502 -10q-188 0 -309 110t-121 277q0 166 145 274
q33 25 57 35l23 10q-53 18 -114 84q-60 68 -60 192t110 226q111 102 269 102t268 -102t111 -235q0 -90 -44 -157t-87 -89l-43 -21q8 -4 23 -10t54 -34t69 -62q31 -34 55 -92q24 -59 24 -129q0 -159 -121 -269t-309 -110z" />
    <glyph glyph-name="nine.tab" 
d="M502 573q116 0 196 82t80 207t-80 210t-196 85t-197 -84q-80 -84 -80 -210t80 -208t197 -82zM502 1300q184 0 312 -128t128 -312q0 -74 -29 -150t-57 -116l-395 -594h-174l286 430q-31 -10 -71 -10q-184 0 -313 128q-128 128 -128 312t128 312q129 128 313 128z" />
    <glyph glyph-name="at.case" horiz-adv-x="1515" 
d="M543 614q0 -98 59 -161q60 -63 148 -63t145 60t57 164t-57 164t-145 62q-88 0 -148 -64t-59 -162zM1454 635q0 -177 -78 -273t-211 -96t-213 125q-25 -44 -93 -84q-68 -41 -132 -41q-125 0 -216 100t-91 248q0 150 91 249t216 100q63 0 117 -29t78 -57l20 -27l31 102h92
v-403q0 -84 32 -127t81 -43q143 0 143 256q0 223 -165 388t-389 165t-388 -169t-164 -405t164 -404t389 -169q74 1 146 23t106 47l35 22l61 -102q-52 -35 -159 -69t-189 -34q-286 0 -486 201t-200 485t201 486q201 200 485 200t484 -198q202 -198 202 -467z" />
    <glyph glyph-name="parenleft.case" horiz-adv-x="542" 
d="M256 614q0 -289 159 -629q36 -77 60 -118l27 -41l-103 -72q-30 35 -90 141q-59 105 -97 200t-69 237q-60 276 -1 564q44 206 156 419q42 80 71 119l30 41l103 -72q-28 -39 -77 -141q-50 -101 -83 -189q-34 -88 -60 -215t-26 -244z" />
    <glyph glyph-name="parenright.case" horiz-adv-x="542" 
d="M287 614q0 229 -82 443t-139 305l-25 41l102 72q33 -39 92 -142q58 -104 96 -199q39 -94 69 -236t30 -284t-30 -281q-30 -140 -95 -297t-133 -241l-29 -41l-102 72q28 39 77 141q50 101 83 189t59 214t27 244z" />
    <glyph glyph-name="bracketleft.case" horiz-adv-x="583" 
d="M307 1311v-1393h236v-133h-379v1659h379v-133h-236z" />
    <glyph glyph-name="bracketright.case" horiz-adv-x="583" 
d="M276 -82v1393h-235v133h379v-1659h-379v133h235z" />
    <glyph glyph-name="braceleft.case" horiz-adv-x="614" 
d="M92 553v123q113 0 113 112v400q1 124 69 190t197 66h102v-133h-106q-51 0 -85 -35t-34 -88v-400q0 -63 -31 -107t-61 -54l-31 -13q4 -2 23 -6t46 -33q54 -57 54 -135v-399q0 -53 34 -88t85 -35h106v-133h-102q-129 0 -198 67t-68 189v399q0 113 -113 113z" />
    <glyph glyph-name="braceright.case" horiz-adv-x="614" 
d="M522 676v-123q-113 0 -112 -113v-399q0 -123 -69 -189t-198 -67h-102v133h106q51 0 85 35t34 88v399q0 64 31 108t61 54l31 12q-4 2 -23 6t-46 33q-52 55 -54 135v400q0 53 -34 88t-85 35h-106v133h102q129 0 198 -67t69 -189v-400q-1 -112 112 -112z" />
    <glyph glyph-name="exclamdown.case" horiz-adv-x="532" 
d="M164 1198q0 47 29 75q29 27 73 27t74 -28q29 -28 29 -74q0 -47 -29 -75q-29 -27 -74 -27q-46 0 -74 28t-28 74zM328 983l41 -983h-205l41 983h123z" />
    <glyph glyph-name="questiondown.case" horiz-adv-x="880" 
d="M543 1198q0 -47 -28 -75q-28 -27 -75 -27q-46 0 -74 28t-28 74q0 47 28 75q28 27 74 27t75 -28q28 -28 28 -74zM358 952h164v-10q0 -200 -104 -309q-43 -45 -87 -84q-106 -94 -106 -219q-1 -86 55 -142t149 -55q93 0 150 65q56 65 56 191v21h164v-21q1 -187 -103 -293
t-267 -106t-265 96t-103 251q0 154 105 256q43 42 87 84q107 102 105 265v10z" />
    <glyph glyph-name="guillemotleft.case" horiz-adv-x="901" 
d="M604 614l225 -327h-153l-225 327l225 328h153zM225 614l226 -327h-154l-225 327l225 328h154z" />
    <glyph glyph-name="guillemotright.case" horiz-adv-x="901" 
d="M72 287l225 327l-225 328h153l226 -328l-226 -327h-153zM451 287l225 327l-225 328h153l225 -328l-225 -327h-153z" />
    <glyph glyph-name="guilsinglleft.case" horiz-adv-x="522" 
d="M225 614l226 -327h-154l-225 327l225 328h154z" />
    <glyph glyph-name="guilsinglright.case" horiz-adv-x="522" 
d="M72 287l225 327l-225 328h153l226 -328l-226 -327h-153z" />
    <glyph glyph-name="hyphen.case" horiz-adv-x="706" 
d="M635 737v-133h-563v133h563z" />
    <glyph glyph-name="endash.case" horiz-adv-x="952" 
d="M881 748v-144h-809v144h809z" />
    <glyph glyph-name="emdash.case" horiz-adv-x="1454" 
d="M1382 748v-144h-1310v144h1310z" />
    <glyph glyph-name="foundryicon" horiz-adv-x="3149" 
d="M2789 748q-33 0 -59 -22t-31 -60h180q-1 34 -29 58t-61 24zM2789 811q66 0 111 -50t45 -120l-2 -31h-244q4 -36 30 -60q27 -24 71 -24t65 35h72q-39 -99 -157 -97q-58 0 -104 51q-46 50 -46 123t46 123t113 50zM1944 346q-14 0 -21 2v58q47 0 64 40l12 33l-129 326h76
l90 -238l90 238h76l-158 -389q-33 -70 -100 -70zM2314 638q0 -44 28 -77t67 -33q40 0 69 33t29 77t-29 76t-68 32q-40 0 -68 -32t-28 -76zM2420 811q62 0 108 -51t46 -123t-46 -122t-108 -50t-100 43v-162h-69v459h49l18 -39q40 45 102 45zM1923 942v-63h-147v-408h-72v408
h-145v63h364zM1436 748q-32 0 -60 -22q-26 -22 -30 -60h180q-2 34 -30 58t-60 24zM1436 811q66 0 110 -50t45 -120l-2 -31h-243q4 -36 30 -60t70 -24q45 0 65 35h72q-39 -99 -155 -97q-58 0 -105 51q-47 50 -47 123t47 123t113 50zM590 346q-14 0 -21 2v58q47 0 64 40l12 33
l-129 326h76l90 -238l90 238h76l-158 -389q-33 -70 -100 -70zM1056 528q40 0 68 33t29 77q0 44 -29 76q-30 32 -68 32t-67 -32t-29 -76t28 -77t68 -33zM1066 811q62 0 109 -51q46 -51 46 -123t-46 -122q-47 -50 -109 -50t-99 43v-162h-70v459h49l19 -39q39 45 101 45z
M569 942v-63h-147v-408h-72v408h-145v63h364z" />
    <glyph glyph-name="bullet.case" horiz-adv-x="778" 
d="M205 686q0 76 53 130t131 54t131 -54t53 -130t-53 -130t-131 -54t-131 54t-53 130z" />
    <glyph glyph-name="periodcentered.case" horiz-adv-x="440" 
d="M123 686q0 47 29 75q30 27 74 27t73 -28t29 -74q0 -47 -29 -75q-29 -27 -74 -27t-73 28t-29 74z" />
    <glyph glyph-name="zero.dnom" horiz-adv-x="614" 
d="M553 297q0 -141 -71 -224t-175 -83t-175 83t-71 224t71 224t175 83t175 -83t71 -224zM174 297q0 -101 38 -153t95 -52t95 51t38 153t-38 154t-95 52t-95 -52t-38 -153z" />
    <glyph glyph-name="one.dnom" horiz-adv-x="419" 
d="M287 594v-594h-113v451l-82 -41l-51 82l164 102h82z" />
    <glyph glyph-name="two.dnom" horiz-adv-x="522" 
d="M461 102v-102h-400v82l226 235q61 61 61 103q0 82 -92 82t-92 -92h-103q-1 84 55 139t143 55t144 -53t57 -123t-61 -131l-180 -195h242z" />
    <glyph glyph-name="three.dnom" horiz-adv-x="542" 
d="M272 -10q-94 0 -152 54t-59 140h103q0 -40 29 -66t73 -26t74 25q29 25 29 61t-29 62q-29 27 -74 26h-53v92h53q37 0 60 20t22 52q0 31 -22 51q-23 20 -60 21q-92 0 -92 -82h-102q0 78 55 131t138 53t139 -52t57 -122q1 -36 -15 -64t-32 -38l-15 -11q9 -4 23 -12t37 -45
t22 -86q0 -78 -57 -131q-58 -53 -152 -53z" />
    <glyph glyph-name="four.dnom" horiz-adv-x="512" 
d="M266 215v215l-133 -215h133zM379 594v-379h72v-102h-72v-113h-113v113h-256v82l246 399h123z" />
    <glyph glyph-name="five.dnom" horiz-adv-x="552" 
d="M310 399q74 0 127 -56q55 -56 55 -145q0 -88 -62 -148t-152 -60q-92 0 -146 47t-71 127h113q18 -72 102 -72q47 0 75 28t28 78t-28 80t-75 29q-82 0 -102 -61h-92l41 348h328v-102h-234l-12 -113q31 20 105 20z" />
    <glyph glyph-name="six.dnom" horiz-adv-x="532" 
d="M276 297q-40 0 -66 -29q-26 -30 -26 -74t27 -73t65 -29t66 29q27 29 27 74t-27 73t-66 29zM481 195q0 -93 -56 -149q-57 -56 -149 -56t-148 56t-56 149q0 45 20 96t41 80l154 223h123l-134 -195q92 0 148 -56t57 -148z" />
    <glyph glyph-name="seven.dnom" horiz-adv-x="471" 
d="M82 492v102h389v-72l-246 -522h-112l235 492h-266z" />
    <glyph glyph-name="eight.dnom" horiz-adv-x="532" 
d="M266 266q-40 0 -66 -26t-26 -62q0 -34 27 -60t65 -26t66 26q26 26 26 60t-26 62q-27 26 -66 26zM266 502q-38 0 -60 -20t-22 -52q0 -31 23 -51q23 -21 59 -21t60 20q23 20 22 52q0 32 -22 52t-60 20zM266 -10q-90 0 -147 53t-57 115t20 97q20 36 41 48l20 14
q-61 31 -61 107t54 128t130 52t130 -52t55 -122q1 -36 -15 -64t-30 -38l-17 -11q32 -16 58 -57q25 -41 24 -86q1 -78 -57 -131t-148 -53z" />
    <glyph glyph-name="nine.dnom" horiz-adv-x="532" 
d="M256 297q39 0 66 29q26 30 26 74t-26 73q-27 29 -66 29t-66 -29q-26 -29 -26 -74t26 -73t66 -29zM256 604q92 0 148 -56t57 -149q-1 -45 -21 -96t-41 -80l-153 -223h-123l133 195q-92 0 -148 56t-57 148q1 93 57 149t148 56z" />
    <glyph glyph-name="zero.numr" horiz-adv-x="614" 
d="M553 993q0 -141 -71 -224t-175 -83t-175 83t-71 224t71 225t175 82q104 0 175 -83t71 -224zM174 993q0 -102 38 -153q38 -52 95 -52t95 52t38 153t-38 153t-95 52t-95 -52t-38 -153z" />
    <glyph glyph-name="one.numr" horiz-adv-x="419" 
d="M287 1290v-594h-113v451l-82 -41l-51 82l164 102h82z" />
    <glyph glyph-name="two.numr" horiz-adv-x="522" 
d="M461 799v-103h-400v82l226 236q61 61 61 102q0 82 -92 82t-92 -92h-103q-1 84 55 139t143 55t144 -53t57 -123t-61 -131l-180 -194h242z" />
    <glyph glyph-name="three.numr" horiz-adv-x="542" 
d="M272 686q-94 0 -152 54t-59 141h103q0 -39 29 -66t73 -27t74 25q29 25 29 61t-29 62q-29 27 -74 27h-53v92h53q37 0 60 20t22 51q0 31 -22 52q-23 20 -60 20q-92 0 -92 -82h-102q0 78 55 131t138 53t139 -52t57 -122q1 -36 -15 -64t-32 -38l-15 -10q9 -4 23 -12t37 -46
q23 -37 22 -86q0 -78 -57 -131q-58 -53 -152 -53z" />
    <glyph glyph-name="four.numr" horiz-adv-x="512" 
d="M266 911v215l-133 -215h133zM379 1290v-379h72v-102h-72v-113h-113v113h-256v82l246 399h123z" />
    <glyph glyph-name="five.numr" horiz-adv-x="552" 
d="M310 1096q74 0 127 -56q55 -56 55 -146q0 -88 -62 -148t-152 -60q-92 0 -146 47t-71 127h113q18 -72 102 -72q47 0 75 28t28 78t-28 80t-75 30q-82 0 -102 -62h-92l41 348h328v-102h-234l-12 -113q31 21 105 21z" />
    <glyph glyph-name="six.numr" horiz-adv-x="532" 
d="M276 993q-40 -1 -66 -29t-26 -73t27 -74t65 -29t66 29q27 29 27 74t-27 73t-66 29zM481 891q0 -93 -56 -149q-57 -56 -149 -56t-148 56t-56 149q0 45 20 96t41 80l154 223h123l-134 -194q92 0 148 -56t57 -149z" />
    <glyph glyph-name="seven.numr" horiz-adv-x="471" 
d="M82 1188v102h389v-71l-246 -523h-112l235 492h-266z" />
    <glyph glyph-name="eight.numr" horiz-adv-x="532" 
d="M266 963q-40 0 -66 -27t-26 -62q0 -34 27 -60t65 -26t66 26q26 26 26 60t-26 62q-27 27 -66 27zM266 1198q-38 0 -60 -20t-22 -52t23 -51q23 -20 59 -20t60 20q23 20 22 51q0 31 -22 52q-23 20 -60 20zM266 686q-90 0 -147 53t-57 115t20 97q20 36 41 48l20 15
q-61 30 -61 106t54 128t130 52t130 -52t55 -122q1 -36 -15 -64t-30 -38l-17 -10q31 -16 57 -57q26 -42 25 -87q1 -78 -57 -131t-148 -53z" />
    <glyph glyph-name="nine.numr" horiz-adv-x="532" 
d="M256 993q39 0 66 29t26 74q0 46 -26 74t-66 28q-39 0 -66 -29q-26 -29 -26 -73t26 -74q26 -29 66 -29zM256 1300q92 0 148 -56t57 -148q-1 -44 -21 -96t-41 -80l-153 -224h-123l133 195q-92 0 -148 56q-56 57 -56 149t56 148t148 56z" />
    <glyph glyph-name="zero.osf" horiz-adv-x="1146" 
d="M1034 461q0 -199 -134 -335t-327 -136t-327 136t-133 335q0 199 134 335q135 136 327 136t326 -136t134 -335zM276 461q0 -143 86 -235t211 -93q125 0 211 92q86 91 86 235t-86 236t-211 92t-211 -92t-86 -235z" />
    <glyph glyph-name="one.osf" horiz-adv-x="634" 
d="M471 922v-922h-164v696l-184 -123l-72 123l318 226h102z" />
    <glyph glyph-name="two.osf" horiz-adv-x="942" 
d="M840 143v-143h-738v102l420 297q76 53 110 103t34 122t-52 118t-133 46q-193 0 -225 -184h-164q25 150 125 239q99 89 253 89t256 -94t103 -206q0 -112 -50 -186q-50 -72 -154 -149l-205 -154h420z" />
    <glyph glyph-name="three.osf" horiz-adv-x="993" 
d="M133 778v144h727v-103l-317 -399q166 -25 267 -129q101 -103 101 -273q1 -170 -119 -284t-308 -113q-188 0 -303 98q-114 98 -130 250h164q16 -90 86 -147q71 -58 187 -58t188 70t72 186t-73 186q-73 71 -194 70q-72 0 -112 -20l-82 82l348 440h-502z" />
    <glyph glyph-name="four.osf" horiz-adv-x="993" 
d="M635 143v574l-399 -574h399zM942 143v-143h-143v-369h-164v369h-584v123l563 799h185v-779h143z" />
    <glyph glyph-name="five.osf" horiz-adv-x="1024" 
d="M532 481q170 0 290 -124t120 -307t-123 -306t-300 -123t-290 96t-137 242h164q16 -82 85 -138q69 -57 177 -57t184 79t76 208t-75 208t-185 79t-168 -50t-84 -104h-143l82 738h655v-154h-512l-41 -369q32 32 97 57t128 25z" />
    <glyph glyph-name="six.osf" 
d="M225 428q0 -125 80 -210t197 -85q116 0 196 84t80 210t-80 208t-196 82t-197 -82q-80 -82 -80 -207zM502 -10q-184 0 -313 128q-128 128 -128 312q0 74 28 151t56 115l398 594h174l-287 -430q31 10 72 10q184 0 312 -128t128 -312t-128 -312t-312 -128z" />
    <glyph glyph-name="seven.osf" horiz-adv-x="901" 
d="M61 911h779v-112l-543 -1178h-174l532 1147h-594v143z" />
    <glyph glyph-name="eight.osf" 
d="M502 758q90 0 152 58t62 140t-60 142q-62 60 -154 59q-92 0 -154 -59q-62 -60 -61 -142t63 -140t152 -58zM502 614q-121 0 -194 -66q-72 -66 -72 -172t72 -174t194 -69q122 0 194 69t72 174q0 106 -72 172t-194 66zM502 -10q-188 0 -309 110t-121 277q0 166 145 274
q33 25 57 35l23 10q-53 18 -114 84q-60 68 -60 192t110 226q111 102 269 102t268 -102t111 -235q0 -90 -44 -157t-87 -89l-43 -21q8 -4 23 -10t54 -34t69 -62q31 -34 55 -92q24 -59 24 -129q0 -159 -121 -269t-309 -110z" />
    <glyph glyph-name="nine.osf" 
d="M502 199q116 -1 196 81t80 207t-80 210t-196 85t-197 -84q-80 -84 -80 -210t80 -208t197 -81zM502 926q184 0 312 -128t128 -313q0 -75 -29 -151t-57 -117l-395 -592h-174l286 430q-31 -10 -71 -10q-184 0 -313 128q-128 128 -128 312t128 313q129 128 313 128z" />
    <glyph glyph-name="zero.osftab" 
d="M963 461q-1 -199 -135 -335t-326 -136t-327 136q-134 136 -134 335t134 335t327 136t327 -136t134 -335zM205 461q0 -143 86 -235t211 -93q125 0 211 92q86 91 86 235t-86 236t-211 92t-211 -92t-86 -235z" />
    <glyph glyph-name="one.osftab" 
d="M635 922v-779h266v-143h-696v143h266v553l-184 -123l-72 123l317 226h103z" />
    <glyph glyph-name="two.osftab" 
d="M881 143v-143h-738v102l420 297q76 53 110 103t34 122q1 72 -51 118t-134 46q-193 0 -225 -184h-164q25 150 125 239t254 89t256 -94t102 -206t-50 -186q-50 -72 -154 -149l-205 -154h420z" />
    <glyph glyph-name="three.osftab" 
d="M143 778v144h727v-103l-317 -399q166 -25 267 -129q102 -103 102 -273t-120 -284t-308 -113q-188 0 -303 98q-114 98 -130 250h164q16 -90 86 -147q70 -58 187 -58q116 0 188 70t72 186t-73 186q-73 71 -193 70q-73 0 -113 -20l-82 82l348 440h-502z" />
    <glyph glyph-name="four.osftab" 
d="M645 143v574l-399 -574h399zM952 143v-143h-143v-369h-164v369h-584v123l564 799h184v-779h143z" />
    <glyph glyph-name="five.osftab" 
d="M522 471q170 0 290 -124t120 -307t-123 -306t-300 -123t-290 96t-137 242h164q16 -82 85 -138q69 -57 177 -57t184 79t76 208t-75 208t-174 79t-161 -39t-82 -76l-20 -39h-143l82 737h655v-153h-512l-41 -369q32 32 97 57t128 25z" />
    <glyph glyph-name="six.osftab" 
d="M225 428q0 -125 80 -210t197 -85q116 0 196 84t80 210t-80 208t-196 82t-197 -82q-80 -82 -80 -207zM502 -10q-184 0 -313 128q-128 128 -128 312q0 74 28 151t56 115l398 594h174l-287 -430q31 10 72 10q184 0 312 -128t128 -312t-128 -312t-312 -128z" />
    <glyph glyph-name="seven.osftab" 
d="M113 909h778v-112l-543 -1178h-174l533 1147h-594v143z" />
    <glyph glyph-name="eight.osftab" 
d="M502 758q90 0 152 58t62 140t-60 142q-62 60 -154 59q-92 0 -154 -59q-62 -60 -61 -142t63 -140t152 -58zM502 614q-121 0 -194 -66q-72 -66 -72 -172t72 -174t194 -69q122 0 194 69t72 174q0 106 -72 172t-194 66zM502 -10q-188 0 -309 110t-121 277q0 166 145 274
q33 25 57 35l23 10q-53 18 -114 84q-60 68 -60 192t110 226q111 102 269 102t268 -102t111 -235q0 -90 -44 -157t-87 -89l-43 -21q8 -4 23 -10t54 -34t69 -62q31 -34 55 -92q24 -59 24 -129q0 -159 -121 -269t-309 -110z" />
    <glyph glyph-name="nine.osftab" 
d="M502 199q116 -1 196 81t80 207t-80 210t-196 85t-197 -84q-80 -84 -80 -210t80 -208t197 -81zM502 926q184 0 312 -128t128 -313q0 -75 -29 -151t-57 -117l-395 -592h-174l286 430q-31 -10 -71 -10q-184 0 -313 128q-128 128 -128 312t128 313q129 128 313 128z" />
    <glyph glyph-name="plus.lf" horiz-adv-x="901" 
d="M522 225h-143v338h-318v133h318v338h143v-338h318v-133h-318v-338z" />
    <glyph glyph-name="less.lf" horiz-adv-x="901" 
d="M266 553l543 -287v-153l-717 389v102l717 389v-153z" />
    <glyph glyph-name="equal.lf" horiz-adv-x="890" 
d="M61 369v143h768v-143h-768zM61 891h768v-143h-768v143z" />
    <glyph glyph-name="greater.lf" horiz-adv-x="901" 
d="M92 266l543 287l-543 287v153l717 -389v-102l-717 -389v153z" />
    <glyph glyph-name="asciitilde.lf" horiz-adv-x="901" 
d="M236 655q-47 0 -80 -37t-33 -96h-123q0 129 63 198q63 68 157 68t246 -72t198 -71q46 0 80 36t34 97h123q-1 -130 -65 -198t-181 -68q-70 0 -221 72t-198 71z" />
    <glyph glyph-name="logicalnot.lf" horiz-adv-x="901" 
d="M31 881h839v-410h-143v277h-696v133z" />
    <glyph glyph-name="plusminus.lf" horiz-adv-x="901" 
d="M840 164h-779v133h318v348h-318v133h318v338h143v-338h318v-133h-318v-348h318v-133z" />
    <glyph glyph-name="minus.lf" horiz-adv-x="880" 
d="M819 696v-133h-758v133h758z" />
    <glyph glyph-name="multiply.lf" horiz-adv-x="901" 
d="M543 623l235 -236l-92 -92l-235 235l-236 -235l-92 92l235 236l-235 235l92 92l236 -235l235 235l92 -92z" />
    <glyph glyph-name="divide.lf" horiz-adv-x="901" 
d="M451 399q45 1 73 -27t29 -75q0 -47 -29 -75q-30 -28 -74 -28t-73 28t-29 75t29 75t74 27zM451 860q-45 0 -74 29t-29 74t29 73t74 29q45 0 73 -29q28 -30 29 -74q-1 -44 -29 -73t-73 -29zM829 696v-133h-757v133h757z" />
    <glyph glyph-name="notequal.lf" horiz-adv-x="901" 
d="M51 891h430l103 246h153l-102 -246h215v-143h-277l-92 -236h369v-143h-430l-103 -256h-153l102 256h-215v143h277l92 236h-369v143z" />
    <glyph glyph-name="approxequal.lf" horiz-adv-x="901" 
d="M236 451q-47 0 -80 -37t-33 -97h-123q0 129 63 198t157 69t246 -72t198 -72t80 36t34 97h123q-1 -129 -65 -197t-181 -69q-70 0 -221 72t-198 72zM236 850q-47 0 -80 -37t-33 -96h-123q0 129 63 197t157 69q94 0 246 -72q152 -71 198 -71t80 36t34 97h123
q-1 -129 -65 -198t-181 -68q-70 -1 -221 71t-198 72z" />
    <glyph glyph-name="lessequal.lf" horiz-adv-x="890" 
d="M307 758l502 -236v-153l-717 338v102l717 338v-154zM82 102v144h727v-144h-727z" />
    <glyph glyph-name="greaterequal.lf" horiz-adv-x="890" 
d="M82 522l502 236l-502 235v154l717 -338v-102l-717 -338v153zM809 246v-144h-727v144h727z" />
    <glyph glyph-name="colon.lf" horiz-adv-x="348" 
d="M72 891q0 47 27 75q28 28 75 28t75 -28q27 -28 27 -75t-28 -75t-74 -28q-47 0 -75 28q-27 28 -27 75zM72 358q0 47 27 75q28 28 75 28t75 -28q27 -28 27 -75q0 -46 -28 -74t-74 -28t-74 28t-28 74z" />
    <glyph glyph-name="a.smcp" horiz-adv-x="1044" 
d="M727 399l-205 564l-205 -564h410zM778 266h-512l-92 -266h-174l430 1126h184l430 -1126h-174z" />
    <glyph glyph-name="agrave.smcp" horiz-adv-x="1044" 
d="M451 1516l122 -246h-102l-174 246h154zM727 399l-205 564l-205 -564h410zM778 266h-512l-92 -266h-174l430 1126h184l430 -1126h-174z" />
    <glyph glyph-name="aacute.smcp" horiz-adv-x="1044" 
d="M471 1270l123 246h154l-175 -246h-102zM727 399l-205 564l-205 -564h410zM778 266h-512l-92 -266h-174l430 1126h184l430 -1126h-174z" />
    <glyph glyph-name="abreve.smcp" horiz-adv-x="1044" 
d="M522 1280q-96 0 -163 65t-83 160h123q8 -53 42 -88t81 -35t81 35t42 88h123q-16 -97 -83 -161t-163 -64zM727 399l-205 564l-205 -564h410zM778 266h-512l-92 -266h-174l430 1126h184l430 -1126h-174z" />
    <glyph glyph-name="acircumflex.smcp" horiz-adv-x="1044" 
d="M594 1505l184 -245h-153l-103 143l-102 -143h-154l185 245h143zM727 399l-205 564l-205 -564h410zM778 266h-512l-92 -266h-174l430 1126h184l430 -1126h-174z" />
    <glyph glyph-name="adieresis.smcp" horiz-adv-x="1044" 
d="M676 1321q-39 0 -66 27q-26 28 -26 66t26 65q27 27 66 27q40 0 66 -28q26 -26 26 -65t-26 -65t-66 -27zM369 1321q-39 0 -66 27q-27 28 -27 66t27 65t66 27t65 -28q26 -26 27 -65q-1 -39 -27 -65t-65 -27zM727 399l-205 564l-205 -564h410zM778 266h-512l-92 -266h-174
l430 1126h184l430 -1126h-174z" />
    <glyph glyph-name="amacron.smcp" horiz-adv-x="1044" 
d="M768 1444v-123h-492v123h492zM727 399l-205 564l-205 -564h410zM778 266h-512l-92 -266h-174l430 1126h184l430 -1126h-174z" />
    <glyph glyph-name="aogonek.smcp" horiz-adv-x="1044" 
d="M727 399l-205 564l-205 -564h410zM901 -174q0 -39 27 -66t65 -26l82 10v-82q-41 -10 -82 -10q-90 0 -142 48t-52 126q0 41 18 85t35 66l18 23l-92 266h-512l-92 -266h-174l430 1126h184l430 -1126h-71q-72 -82 -72 -174z" />
    <glyph glyph-name="aring.smcp" horiz-adv-x="1044" 
d="M686 1413q0 -70 -47 -117t-117 -47t-116 47t-48 117q0 70 48 117t116 47q70 0 117 -47t47 -117zM451 1413q0 -31 20 -51t51 -20t51 20t21 51q0 31 -20 51t-52 20q-31 0 -51 -20t-20 -51zM727 399l-205 564l-205 -564h410zM778 266h-512l-92 -266h-174l430 1126h184
l430 -1126h-174z" />
    <glyph glyph-name="atilde.smcp" horiz-adv-x="1044" 
d="M640 1382q28 0 52 33t25 90h92q0 -111 -50 -173t-124 -62q-41 0 -77 20t-55 46q-47 65 -87 66q-39 1 -64 -32t-24 -90h-92q0 111 50 173t124 63q40 0 76 -20t56 -47q49 -67 98 -67zM727 399l-205 564l-205 -564h410zM778 266h-512l-92 -266h-174l430 1126h184l430 -1126
h-174z" />
    <glyph glyph-name="ae.smcp" horiz-adv-x="1515" 
d="M717 410v573h-21l-307 -573h328zM1413 1126v-143h-532v-328h491v-143h-491v-371h553v-141h-717v266h-410l-143 -266h-184l624 1126h809z" />
    <glyph glyph-name="b.smcp" horiz-adv-x="1054" 
d="M307 983v-328h297q70 0 117 47t47 117t-47 117t-117 47h-297zM625 512h-318v-369h318q84 -1 139 53t55 132t-55 131t-139 53zM625 0h-482v1126h461q150 0 239 -80t89 -209q0 -128 -99 -209q-25 -20 -55 -34q29 -7 68 -30q40 -23 66 -51t49 -80t22 -116q0 -133 -100 -225
t-258 -92z" />
    <glyph glyph-name="c.smcp" horiz-adv-x="1198" 
d="M625 993q-158 0 -274 -125q-115 -125 -115 -305t116 -305t273 -125q246 0 348 256h164q-41 -168 -181 -284t-331 -115q-225 0 -389 169t-164 405t164 404q164 169 376 169t342 -112t172 -288h-163q-41 115 -127 185t-211 71z" />
    <glyph glyph-name="cacute.smcp" horiz-adv-x="1198" 
d="M584 1270l123 246h153l-174 -246h-102zM625 993q-158 0 -274 -125q-115 -125 -115 -305t116 -305t273 -125q246 0 348 256h164q-41 -168 -181 -284t-331 -115q-225 0 -389 169t-164 405t164 404q164 169 376 169t342 -112t172 -288h-163q-41 115 -127 185t-211 71z" />
    <glyph glyph-name="ccaron.smcp" horiz-adv-x="1198" 
d="M870 1505l-184 -245h-143l-185 245h154l102 -143l103 143h153zM625 993q-158 0 -274 -125q-115 -125 -115 -305t116 -305t273 -125q246 0 348 256h164q-41 -168 -181 -284t-331 -115q-225 0 -389 169t-164 405t164 404q164 169 376 169t342 -112t172 -288h-163
q-41 115 -127 185t-211 71z" />
    <glyph glyph-name="ccedilla.smcp" horiz-adv-x="1198" 
d="M625 993q-158 0 -274 -125q-115 -125 -115 -305t116 -305t273 -125q246 0 348 256h164q-37 -155 -160 -267t-295 -128l-37 -76q61 -8 97 -44t36 -91t-48 -93t-136 -38l-92 10v82q41 -10 83 -10q43 0 67 18t24 43t-25 43t-67 19l-52 -11l60 146q-215 12 -368 178
q-152 166 -152 398t164 400q164 169 376 169t342 -112t172 -288h-163q-41 115 -127 185t-211 71z" />
    <glyph glyph-name="ccircumflex.smcp" horiz-adv-x="1198" 
d="M686 1505l184 -245h-153l-103 143l-102 -143h-154l185 245h143zM625 993q-158 0 -274 -125q-115 -125 -115 -305t116 -305t273 -125q246 0 348 256h164q-41 -168 -181 -284t-331 -115q-225 0 -389 169t-164 405t164 404q164 169 376 169t342 -112t172 -288h-163
q-41 115 -127 185t-211 71z" />
    <glyph glyph-name="d.smcp" horiz-adv-x="1116" 
d="M1044 563q0 -231 -170 -397t-413 -166h-318v1126h318q243 0 413 -166t170 -397zM307 143h154q176 0 298 122t122 298t-122 298t-298 122h-154v-840z" />
    <glyph glyph-name="dcaron.smcp" horiz-adv-x="1116" 
d="M788 1505l-184 -245h-143l-185 245h154l102 -143l103 143h153zM1044 563q0 -231 -170 -397t-413 -166h-318v1126h318q243 0 413 -166t170 -397zM307 143h154q176 0 298 122t122 298t-122 298t-298 122h-154v-840z" />
    <glyph glyph-name="dcroat.smcp" horiz-adv-x="1146" 
d="M338 143h154q176 0 298 122t121 298q0 176 -121 298q-122 122 -298 122h-154v-358h235v-144h-235v-338zM1075 563q0 -231 -170 -397t-413 -166h-318v481h-143v144h143v501h318q244 0 414 -166t169 -397z" />
    <glyph glyph-name="eth.smcp" horiz-adv-x="1146" 
d="M338 143h154q176 0 298 122t121 298q0 176 -121 298q-122 122 -298 122h-154v-358h235v-144h-235v-338zM1075 563q0 -231 -170 -397t-413 -166h-318v481h-143v144h143v501h318q244 0 414 -166t169 -397z" />
    <glyph glyph-name="e.smcp" horiz-adv-x="993" 
d="M307 143h604v-143h-768v1126h748v-143h-584v-328h543v-143h-543v-369z" />
    <glyph glyph-name="eacute.smcp" horiz-adv-x="993" 
d="M461 1270l123 246h153l-174 -246h-102zM307 143h604v-143h-768v1126h748v-143h-584v-328h543v-143h-543v-369z" />
    <glyph glyph-name="ecaron.smcp" horiz-adv-x="993" 
d="M768 1505l-184 -245h-144l-184 245h154l102 -143l102 143h154zM307 143h604v-143h-768v1126h748v-143h-584v-328h543v-143h-543v-369z" />
    <glyph glyph-name="ecircumflex.smcp" horiz-adv-x="993" 
d="M584 1505l184 -245h-154l-102 143l-102 -143h-154l184 245h144zM307 143h604v-143h-768v1126h748v-143h-584v-328h543v-143h-543v-369z" />
    <glyph glyph-name="edieresis.smcp" horiz-adv-x="993" 
d="M666 1321q-39 0 -66 27q-27 28 -27 66t27 65t66 27q40 0 66 -28q26 -26 26 -65t-26 -65t-66 -27zM358 1321q-40 0 -66 27q-26 28 -26 66t27 65t65 27t66 -28q27 -26 27 -65t-27 -65t-66 -27zM307 143h604v-143h-768v1126h748v-143h-584v-328h543v-143h-543v-369z" />
    <glyph glyph-name="edotaccent.smcp" horiz-adv-x="993" 
d="M410 1408q0 42 27 70q28 28 70 28t70 -28q27 -28 27 -70t-28 -70t-69 -28q-42 0 -70 28q-27 28 -27 70zM307 143h604v-143h-768v1126h748v-143h-584v-328h543v-143h-543v-369z" />
    <glyph glyph-name="egrave.smcp" horiz-adv-x="993" 
d="M471 1516l123 -246h-102l-175 246h154zM307 143h604v-143h-768v1126h748v-143h-584v-328h543v-143h-543v-369z" />
    <glyph glyph-name="emacron.smcp" horiz-adv-x="993" 
d="M768 1444v-123h-492v123h492zM307 143h604v-143h-768v1126h748v-143h-584v-328h543v-143h-543v-369z" />
    <glyph glyph-name="eogonek.smcp" horiz-adv-x="993" 
d="M143 0v1126h748v-143h-584v-328h543v-143h-543v-369h604v-143q-72 -82 -71 -174q0 -39 26 -66t66 -26l82 10v-82q-41 -10 -82 -10q-90 0 -142 48t-53 126q0 41 19 85q18 44 35 66l18 23h-666z" />
    <glyph glyph-name="f.smcp" horiz-adv-x="921" 
d="M307 0h-164v1126h738v-143h-574v-358h471v-144h-471v-481z" />
    <glyph glyph-name="g.smcp" horiz-adv-x="1259" 
d="M645 430v143h492v-573h-103l-30 164q-41 -62 -139 -118t-251 -56q-217 0 -380 169q-162 169 -162 405t164 404q164 169 375 169q211 1 337 -101t168 -258h-164q-33 96 -117 156q-85 59 -210 59q-158 0 -274 -125q-115 -125 -115 -305t116 -305t264 -125q150 0 249 89
t108 208h-328z" />
    <glyph glyph-name="gbreve.smcp" horiz-adv-x="1259" 
d="M604 1280q-96 0 -163 65t-83 160h123q8 -53 42 -88t81 -35t81 35t42 88h123q-16 -97 -83 -161t-163 -64zM645 430v143h492v-573h-103l-30 164q-41 -62 -139 -118t-251 -56q-217 0 -380 169q-162 169 -162 405t164 404q164 169 375 169q211 1 337 -101t168 -258h-164
q-33 96 -117 156q-85 59 -210 59q-158 0 -274 -125q-115 -125 -115 -305t116 -305t264 -125q150 0 249 89t108 208h-328z" />
    <glyph glyph-name="gcommaaccent.smcp" horiz-adv-x="1259" 
d="M539 -236q0 43 29 73q30 30 73 30t73 -30q52 -52 14 -177q-22 -73 -84 -137q-27 -28 -54 -45l-31 41q72 61 82 143q-43 0 -73 30t-29 72zM645 430v143h492v-573h-103l-30 164q-41 -62 -139 -118t-251 -56q-217 0 -380 169q-162 169 -162 405t164 404q164 169 375 169
q211 1 337 -101t168 -258h-164q-33 96 -117 156q-85 59 -210 59q-158 0 -274 -125q-115 -125 -115 -305t116 -305t264 -125q150 0 249 89t108 208h-328z" />
    <glyph glyph-name="h.smcp" horiz-adv-x="1157" 
d="M143 1126h164v-471h543v471h164v-1126h-164v512h-543v-512h-164v1126z" />
    <glyph glyph-name="i.smcp" horiz-adv-x="450" 
d="M307 1126v-1126h-164v1126h164z" />
    <glyph glyph-name="iacute.smcp" horiz-adv-x="450" 
d="M174 1270l123 246h154l-175 -246h-102zM307 1126v-1126h-164v1126h164z" />
    <glyph glyph-name="icircumflex.smcp" horiz-adv-x="450" 
d="M297 1505l184 -245h-153l-103 143l-102 -143h-154l185 245h143zM307 1126v-1126h-164v1126h164z" />
    <glyph glyph-name="idieresis.smcp" horiz-adv-x="450" 
d="M379 1321q-39 0 -66 27q-27 28 -27 66t27 65t66 27t65 -28q26 -26 27 -65q-1 -39 -27 -65t-65 -27zM72 1321q-39 0 -66 27q-26 28 -26 66t26 65q27 27 66 27q40 0 66 -28q26 -26 26 -65t-26 -65t-66 -27zM307 1126v-1126h-164v1126h164z" />
    <glyph glyph-name="igrave.smcp" horiz-adv-x="450" 
d="M154 1516l122 -246h-102l-174 246h154zM307 1126v-1126h-164v1126h164z" />
    <glyph glyph-name="dotlessi.smcp" horiz-adv-x="450" 
d="M129 1408q0 42 28 70q27 28 69 28t70 -28t28 -70t-28 -70t-70 -28t-70 28t-27 70zM307 1126v-1126h-164v1126h164z" />
    <glyph glyph-name="imacron.smcp" horiz-adv-x="450" 
d="M471 1444v-123h-491v123h491zM307 1126v-1126h-164v1126h164z" />
    <glyph glyph-name="iogonek.smcp" horiz-adv-x="450" 
d="M143 1126h164v-1126h-61q-72 -82 -72 -174q0 -39 27 -66t65 -26l82 10v-82q-41 -10 -82 -10q-90 0 -142 48t-52 126q0 41 17 85t36 66l18 23v1126z" />
    <glyph glyph-name="j.smcp" horiz-adv-x="911" 
d="M614 1126h164v-747q0 -177 -104 -283t-272 -106t-275 98q-106 98 -107 240h164q0 -86 58 -140t159 -55q101 1 157 63t56 183v747z" />
    <glyph glyph-name="k.smcp" horiz-adv-x="962" 
d="M307 573l451 553h194l-460 -553l491 -573h-205zM307 1126v-1126h-164v1126h164z" />
    <glyph glyph-name="kcommaaccent.smcp" horiz-adv-x="962" 
d="M399 -236q0 43 30 73t73 30q42 0 72 -30t30 -79q0 -132 -99 -235q-27 -28 -54 -45l-31 41q72 61 82 143q-43 0 -73 30t-30 72zM307 573l451 553h194l-460 -553l491 -573h-205zM307 1126v-1126h-164v1126h164z" />
    <glyph glyph-name="l.smcp" horiz-adv-x="901" 
d="M307 143h563v-143h-727v1126h164v-983z" />
    <glyph glyph-name="lacute.smcp" horiz-adv-x="901" 
d="M174 1270l123 246h154l-175 -246h-102zM307 143h563v-143h-727v1126h164v-983z" />
    <glyph glyph-name="lcaron.smcp" horiz-adv-x="901" 
d="M307 143h563v-143h-727v1126h164v-983zM410 860l102 266h164l-164 -266h-102z" />
    <glyph glyph-name="lcommaaccent.smcp" horiz-adv-x="901" 
d="M410 -236q0 43 29 73q30 30 73 30t73 -30q29 -31 29 -95t-39 -136t-75 -100l-39 -28l-31 41q72 61 82 143q-42 0 -72 30t-30 72zM307 143h563v-143h-727v1126h164v-983z" />
    <glyph glyph-name="lslash.smcp" horiz-adv-x="921" 
d="M164 1126h164v-532l276 164v-154l-276 -164v-297h563v-143h-727v348l-133 -82v154l133 82v624z" />
    <glyph glyph-name="m.smcp" horiz-adv-x="1433" 
d="M307 0h-164v1126h185l389 -870l389 870h184v-1126h-164v799l-358 -799h-102l-359 799v-799z" />
    <glyph glyph-name="n.smcp" horiz-adv-x="1177" 
d="M870 1126h164v-1126h-153l-574 840v-840h-164v1126h154l573 -839v839z" />
    <glyph glyph-name="nacute.smcp" horiz-adv-x="1177" 
d="M512 1270l123 246h153l-174 -246h-102zM870 1126h164v-1126h-153l-574 840v-840h-164v1126h154l573 -839v839z" />
    <glyph glyph-name="ncaron.smcp" horiz-adv-x="1177" 
d="M840 1505l-185 -245h-143l-184 245h153l103 -143l102 143h154zM870 1126h164v-1126h-153l-574 840v-840h-164v1126h154l573 -839v839z" />
    <glyph glyph-name="ncommaaccent.smcp" horiz-adv-x="1177" 
d="M492 -236q0 43 29 73q30 30 73 30t73 -30q29 -31 29 -95t-39 -136t-75 -100l-39 -28l-31 41q72 61 82 143q-42 0 -72 30t-30 72zM870 1126h164v-1126h-153l-574 840v-840h-164v1126h154l573 -839v839z" />
    <glyph glyph-name="ntilde.smcp" horiz-adv-x="1177" 
d="M701 1382q28 0 53 33t24 90h92q0 -111 -50 -173t-124 -62q-40 0 -76 20t-56 46q-47 65 -87 66q-39 1 -63 -32t-25 -90h-92q0 111 50 173t124 63q41 0 77 -20t55 -47t45 -47t53 -20zM870 1126h164v-1126h-153l-574 840v-840h-164v1126h154l573 -839v839z" />
    <glyph glyph-name="o.smcp" horiz-adv-x="1249" 
d="M1178 563q0 -237 -164 -405t-389 -168t-389 169t-164 405t164 404q164 169 389 169t389 -169t164 -405zM236 563q0 -182 116 -306t273 -124t273 124t116 306t-116 306t-274 124t-272 -124q-116 -124 -116 -306z" />
    <glyph glyph-name="oacute.smcp" horiz-adv-x="1249" 
d="M563 1270l123 246h154l-174 -246h-103zM1178 563q0 -237 -164 -405t-389 -168t-389 169t-164 405t164 404q164 169 389 169t389 -169t164 -405zM236 563q0 -182 116 -306t273 -124t273 124t116 306t-116 306t-274 124t-272 -124q-116 -124 -116 -306z" />
    <glyph glyph-name="ocircumflex.smcp" horiz-adv-x="1249" 
d="M696 1505l185 -245h-154l-102 143l-103 -143h-153l184 245h143zM1178 563q0 -237 -164 -405t-389 -168t-389 169t-164 405t164 404q164 169 389 169t389 -169t164 -405zM236 563q0 -182 116 -306t273 -124t273 124t116 306t-116 306t-274 124t-272 -124
q-116 -124 -116 -306z" />
    <glyph glyph-name="odieresis.smcp" horiz-adv-x="1249" 
d="M778 1321q-40 0 -66 27q-26 28 -26 66t27 65t65 27t66 -28q26 -26 26 -65t-26 -65t-66 -27zM471 1321q-39 0 -65 27q-26 28 -27 66q0 38 27 65q28 27 66 27t65 -28q27 -26 27 -65t-28 -65q-26 -26 -65 -27zM1178 563q0 -237 -164 -405t-389 -168t-389 169t-164 405
t164 404q164 169 389 169t389 -169t164 -405zM236 563q0 -182 116 -306t273 -124t273 124t116 306t-116 306t-274 124t-272 -124q-116 -124 -116 -306z" />
    <glyph glyph-name="ograve.smcp" horiz-adv-x="1249" 
d="M563 1516l123 -246h-102l-174 246h153zM1178 563q0 -237 -164 -405t-389 -168t-389 169t-164 405t164 404q164 169 389 169t389 -169t164 -405zM236 563q0 -182 116 -306t273 -124t273 124t116 306t-116 306t-274 124t-272 -124q-116 -124 -116 -306z" />
    <glyph glyph-name="ohungarumlaut.smcp" horiz-adv-x="1249" 
d="M727 1270l133 246h154l-185 -246h-102zM440 1270l133 246h154l-184 -246h-103zM1178 563q0 -237 -164 -405t-389 -168t-389 169t-164 405t164 404q164 169 389 169t389 -169t164 -405zM236 563q0 -182 116 -306t273 -124t273 124t116 306t-116 306t-274 124t-272 -124
q-116 -124 -116 -306z" />
    <glyph glyph-name="omacron.smcp" horiz-adv-x="1249" 
d="M870 1444v-123h-491v123h491zM1178 563q0 -237 -164 -405t-389 -168t-389 169t-164 405t164 404q164 169 389 169t389 -169t164 -405zM236 563q0 -182 116 -306t273 -124t273 124t116 306t-116 306t-274 124t-272 -124q-116 -124 -116 -306z" />
    <glyph glyph-name="oslash.smcp" horiz-adv-x="1249" 
d="M236 563q0 -117 47 -207l585 541q-109 96 -255 96q-145 0 -261 -124t-116 -306zM1014 563q0 113 -47 207l-588 -541q109 -96 257 -96t262 124q116 124 116 306zM1178 563q0 -237 -164 -405t-376 -168t-370 137l-104 -96l-113 112l113 105q-92 145 -92 315q0 236 164 405
t375 169t368 -138l106 97l113 -113l-115 -104q95 -144 95 -316z" />
    <glyph glyph-name="otilde.smcp" horiz-adv-x="1249" 
d="M742 1382q28 0 53 33t24 90h92q0 -111 -50 -173t-124 -62q-41 0 -77 20t-55 46q-47 65 -87 66t-64 -32t-24 -90h-92q0 111 50 173t124 63q41 0 77 -20t55 -47q18 -27 44 -47t54 -20zM1178 563q0 -237 -164 -405t-389 -168t-389 169t-164 405t164 404q164 169 389 169
t389 -169t164 -405zM236 563q0 -182 116 -306t273 -124t273 124t116 306t-116 306t-274 124t-272 -124q-116 -124 -116 -306z" />
    <glyph glyph-name="oe.smcp" horiz-adv-x="1576" 
d="M666 143h102v840h-102q-190 0 -310 -118t-120 -302t120 -302t310 -118zM932 143h563v-143h-829q-258 0 -426 162t-168 402t168 401q168 162 426 161h809v-143h-543v-328h502v-143h-502v-369z" />
    <glyph glyph-name="p.smcp" 
d="M307 553h246q98 0 162 61q63 62 63 154t-63 154t-162 61h-246v-430zM143 1126h410q165 0 277 -105t112 -253t-112 -252q-112 -106 -277 -106h-246v-410h-164v1126z" />
    <glyph glyph-name="q.smcp" horiz-adv-x="1249" 
d="M236 563q0 -182 116 -306t273 -124q113 0 209 68l-138 137l103 102l135 -137q80 117 80 260q0 182 -116 306t-274 124t-272 -124q-116 -124 -116 -306zM1178 578q0 -222 -134 -385l154 -152l-102 -102l-156 155q-139 -104 -315 -104q-225 0 -389 169t-164 405t164 404
q164 169 389 169t389 -169q164 -168 164 -390z" />
    <glyph glyph-name="r.smcp" horiz-adv-x="1054" 
d="M307 430v-430h-164v1126h441q166 0 272 -100t107 -248q0 -179 -153 -278q-34 -23 -58 -31l-25 -8l287 -461h-185l-266 430h-256zM307 983v-410h277q98 1 156 57t59 148q-1 92 -59 148t-156 57h-277z" />
    <glyph glyph-name="racute.smcp" horiz-adv-x="1054" 
d="M461 1270l123 246h153l-174 -246h-102zM307 430v-430h-164v1126h441q166 0 272 -100t107 -248q0 -179 -153 -278q-34 -23 -58 -31l-25 -8l287 -461h-185l-266 430h-256zM307 983v-410h277q98 1 156 57t59 148q-1 92 -59 148t-156 57h-277z" />
    <glyph glyph-name="rcaron.smcp" horiz-adv-x="1054" 
d="M768 1505l-184 -245h-144l-184 245h154l102 -143l102 143h154zM307 430v-430h-164v1126h441q166 0 272 -100t107 -248q0 -179 -153 -278q-34 -23 -58 -31l-25 -8l287 -461h-185l-266 430h-256zM307 983v-410h277q98 1 156 57t59 148q-1 92 -59 148t-156 57h-277z" />
    <glyph glyph-name="rcommaaccent.smcp" horiz-adv-x="1054" 
d="M436 -236q0 43 30 73t73 30t73 -30t29 -79q0 -132 -99 -235q-28 -29 -55 -45l-30 41q72 61 82 143q-43 0 -73 30t-30 72zM307 430v-430h-164v1126h441q166 0 272 -100t107 -248q0 -179 -153 -278q-34 -23 -58 -31l-25 -8l287 -461h-185l-266 430h-256zM307 983v-410h277
q98 1 156 57t59 148q-1 92 -59 148t-156 57h-277z" />
    <glyph glyph-name="s.smcp" horiz-adv-x="942" 
d="M102 837q0 119 102 209t271 91q169 -1 273 -93t112 -235h-164q-8 80 -68 132t-152 52t-151 -50t-59 -116q0 -67 64 -105t153 -60q91 -22 181 -52q90 -32 153 -104t63 -202t-104 -222t-287 -92t-292 95t-125 253h164q35 -205 256 -205q104 0 164 52t60 130t-62 122
q-64 44 -154 67q-90 24 -180 52t-154 95t-64 186z" />
    <glyph glyph-name="sacute.smcp" horiz-adv-x="942" 
d="M422 1270l123 246h153l-174 -246h-102zM102 837q0 119 102 209t271 91q169 -1 273 -93t112 -235h-164q-8 80 -68 132t-152 52t-151 -50t-59 -116q0 -67 64 -105t153 -60q91 -22 181 -52q90 -32 153 -104t63 -202t-104 -222t-287 -92t-292 95t-125 253h164
q35 -205 256 -205q104 0 164 52t60 130t-62 122q-64 44 -154 67q-90 24 -180 52t-154 95t-64 186z" />
    <glyph glyph-name="scaron.smcp" horiz-adv-x="942" 
d="M739 1505l-184 -245h-143l-185 245h154l102 -143l103 143h153zM102 837q0 119 102 209t271 91q169 -1 273 -93t112 -235h-164q-8 80 -68 132t-152 52t-151 -50t-59 -116q0 -67 64 -105t153 -60q91 -22 181 -52q90 -32 153 -104t63 -202t-104 -222t-287 -92t-292 95
t-125 253h164q35 -205 256 -205q104 0 164 52t60 130t-62 122q-64 44 -154 67q-90 24 -180 52t-154 95t-64 186z" />
    <glyph glyph-name="scedilla.smcp" horiz-adv-x="942" 
d="M102 837q0 119 102 209t271 91q169 -1 273 -93t112 -235h-164q-8 80 -68 132t-152 52t-151 -50t-59 -116q0 -67 64 -105t153 -60q91 -22 181 -52q90 -32 153 -104t63 -198t-94 -217t-258 -99l-36 -74q61 -8 97 -44t36 -91t-48 -93t-137 -38l-92 10v82q41 -10 83 -10
t67 18t24 43q0 25 -24 43q-25 18 -68 19l-51 -11l59 146q-164 14 -258 106t-108 240h164q35 -205 256 -205q104 0 164 52t60 130t-62 122q-64 44 -154 67q-90 24 -180 52t-154 95t-64 186z" />
    <glyph glyph-name="scommaaccent.smcp" horiz-adv-x="942" 
d="M383 -236q0 43 30 73q31 30 73 30t72 -30t30 -79q0 -135 -100 -235q-29 -30 -54 -45l-31 41q72 61 82 143q-43 0 -73 30t-29 72zM102 837q0 119 102 209t271 91q169 -1 273 -93t112 -235h-164q-8 80 -68 132t-152 52t-151 -50t-59 -116q0 -67 64 -105t153 -60
q91 -22 181 -52q90 -32 153 -104t63 -202t-104 -222t-287 -92t-292 95t-125 253h164q35 -205 256 -205q104 0 164 52t60 130t-62 122q-64 44 -154 67q-90 24 -180 52t-154 95t-64 186z" />
    <glyph glyph-name="t.smcp" horiz-adv-x="942" 
d="M31 983v143h880v-143h-358v-983h-164v983h-358z" />
    <glyph glyph-name="tcaron.smcp" horiz-adv-x="942" 
d="M727 1505l-184 -245h-144l-184 245h154l102 -143l102 143h154zM31 983v143h880v-143h-358v-983h-164v983h-358z" />
    <glyph glyph-name="tcommaaccent.smcp" horiz-adv-x="942" 
d="M369 -236q0 43 29 73q30 30 73 30t73 -30q30 -31 30 -95t-40 -136q-38 -72 -75 -100l-39 -28l-31 41q72 61 82 143q-43 0 -73 30t-29 72zM31 983v143h880v-143h-358v-983h-164v983h-358z" />
    <glyph glyph-name="uni021B.smcp" horiz-adv-x="942" 
d="M369 -236q0 43 29 73q30 30 73 30t73 -30q30 -31 30 -95t-40 -136q-38 -72 -75 -100l-39 -28l-31 41q72 61 82 143q-43 0 -73 30t-29 72zM31 983v143h880v-143h-358v-983h-164v983h-358z" />
    <glyph glyph-name="u.smcp" horiz-adv-x="1167" 
d="M584 -10q-201 0 -326 126t-125 330v680h164v-680q0 -150 77 -232t210 -81q133 0 210 82t76 231v680h164v-680q0 -204 -124 -330t-326 -126z" />
    <glyph glyph-name="uacute.smcp" horiz-adv-x="1167" 
d="M502 1270l123 246h153l-174 -246h-102zM584 -10q-201 0 -326 126t-125 330v680h164v-680q0 -150 77 -232t210 -81q133 0 210 82t76 231v680h164v-680q0 -204 -124 -330t-326 -126z" />
    <glyph glyph-name="ucircumflex.smcp" horiz-adv-x="1167" 
d="M655 1505l185 -245h-154l-102 143l-103 -143h-153l184 245h143zM584 -10q-201 0 -326 126t-125 330v680h164v-680q0 -150 77 -232t210 -81q133 0 210 82t76 231v680h164v-680q0 -204 -124 -330t-326 -126z" />
    <glyph glyph-name="udieresis.smcp" horiz-adv-x="1167" 
d="M737 1321q-39 0 -65 27q-26 28 -27 66q0 38 27 65q28 27 66 27t65 -28q27 -26 27 -65t-28 -65q-26 -26 -65 -27zM430 1321q-40 0 -66 27q-26 28 -26 66t27 65t65 27t66 -28q26 -26 26 -65t-26 -65t-66 -27zM584 -10q-201 0 -326 126t-125 330v680h164v-680
q0 -150 77 -232t210 -81q133 0 210 82t76 231v680h164v-680q0 -204 -124 -330t-326 -126z" />
    <glyph glyph-name="ugrave.smcp" horiz-adv-x="1167" 
d="M543 1516l123 -246h-103l-174 246h154zM584 -10q-201 0 -326 126t-125 330v680h164v-680q0 -150 77 -232t210 -81q133 0 210 82t76 231v680h164v-680q0 -204 -124 -330t-326 -126z" />
    <glyph glyph-name="uhungarumlaut.smcp" horiz-adv-x="1167" 
d="M666 1270l133 246h153l-184 -246h-102zM379 1270l133 246h154l-185 -246h-102zM584 -10q-201 0 -326 126t-125 330v680h164v-680q0 -150 77 -232t210 -81q133 0 210 82t76 231v680h164v-680q0 -204 -124 -330t-326 -126z" />
    <glyph glyph-name="umacron.smcp" horiz-adv-x="1167" 
d="M829 1454v-123h-491v123h491zM584 -10q-201 0 -326 126t-125 330v680h164v-680q0 -150 77 -232t210 -81q133 0 210 82t76 231v680h164v-680q0 -204 -124 -330t-326 -126z" />
    <glyph glyph-name="uogonek.smcp" horiz-adv-x="1167" 
d="M1034 446q0 -186 -105 -308t-280 -144q-66 -84 -65 -168q0 -39 26 -66t66 -26l82 10v-82q-41 -10 -82 -10q-90 0 -142 48t-52 128t63 164q-184 12 -298 136t-114 318v680h164v-680q0 -150 77 -232t210 -81q133 0 210 82t76 231v680h164v-680z" />
    <glyph glyph-name="uring.smcp" horiz-adv-x="1167" 
d="M748 1413q0 -70 -48 -117t-116 -47q-70 0 -117 47t-47 117t47 117t117 47t117 -47t47 -117zM512 1413q0 -31 20 -51t52 -20t51 20q20 20 20 51t-20 51t-51 20q-32 0 -52 -20t-20 -51zM584 -10q-201 0 -326 126t-125 330v680h164v-680q0 -150 77 -232t210 -81
q133 0 210 82t76 231v680h164v-680q0 -204 -124 -330t-326 -126z" />
    <glyph glyph-name="v.smcp" horiz-adv-x="1044" 
d="M614 0h-184l-410 1126h175l327 -931l328 931h174z" />
    <glyph glyph-name="w.smcp" horiz-adv-x="1515" 
d="M686 1126h143l256 -880l236 880h174l-328 -1126h-153l-256 881l-256 -881h-154l-328 1126h175l235 -880z" />
    <glyph glyph-name="x.smcp" horiz-adv-x="983" 
d="M778 0l-286 461l-287 -461h-195l379 573l-358 553h194l267 -440l266 440h194l-358 -553l379 -573h-195z" />
    <glyph glyph-name="y.smcp" horiz-adv-x="1024" 
d="M594 0h-164v440l-399 686h194l287 -532l287 532h194l-399 -686v-440z" />
    <glyph glyph-name="yacute.smcp" horiz-adv-x="1024" 
d="M461 1270l123 246h153l-174 -246h-102zM594 0h-164v440l-399 686h194l287 -532l287 532h194l-399 -686v-440z" />
    <glyph glyph-name="ydieresis.smcp" horiz-adv-x="1024" 
d="M666 1321q-39 0 -66 27q-27 28 -27 66t27 65t66 27q40 0 66 -28q26 -26 26 -65t-26 -65t-66 -27zM358 1321q-40 0 -66 27q-26 28 -26 66t27 65t65 27t66 -28q27 -26 27 -65t-27 -65t-66 -27zM594 0h-164v440l-399 686h194l287 -532l287 532h194l-399 -686v-440z" />
    <glyph glyph-name="z.smcp" horiz-adv-x="942" 
d="M92 983v143h768v-122l-594 -861h615v-143h-820v113l594 870h-563z" />
    <glyph glyph-name="zacute.smcp" horiz-adv-x="942" 
d="M420 1270l123 246h153l-174 -246h-102zM92 983v143h768v-122l-594 -861h615v-143h-820v113l594 870h-563z" />
    <glyph glyph-name="zcaron.smcp" horiz-adv-x="942" 
d="M737 1505l-184 -245h-143l-185 245h154l102 -143l103 143h153zM92 983v143h768v-122l-594 -861h615v-143h-820v113l594 870h-563z" />
    <glyph glyph-name="zdotaccent.smcp" horiz-adv-x="942" 
d="M389 1408q0 42 28 70q27 28 69 28t70 -28t28 -70t-28 -70t-70 -28t-70 28t-27 70zM92 983v143h768v-122l-594 -861h615v-143h-820v113l594 870h-563z" />
    <glyph glyph-name="thorn.smcp" horiz-adv-x="1126" 
d="M307 369h359q98 0 161 61q63 62 63 154t-62 153q-64 61 -162 62h-359v-430zM143 1126h164v-184h359q166 0 278 -105t111 -253q0 -148 -112 -252q-112 -106 -277 -107h-359v-225h-164v1126z" />
    <glyph glyph-name="germandbls.smcp" horiz-adv-x="1116" 
d="M686 0h-154v143h154q92 -1 143 51t51 141t-50 138q-52 49 -144 49h-123v133l225 328h-286q-92 0 -144 -53t-51 -152v-778h-164v778q1 148 103 248t256 100h481v-122l-246 -338q139 -23 223 -111t84 -222q0 -133 -103 -233t-255 -100z" />
    <glyph glyph-name="uni1E9E.smcp" horiz-adv-x="1116" 
d="M686 0h-154v143h154q92 -1 143 51t51 141t-50 138q-52 49 -144 49h-123v133l225 328h-286q-92 0 -144 -53t-51 -152v-778h-164v778q1 148 103 248t256 100h481v-122l-246 -338q139 -23 223 -111t84 -222q0 -133 -103 -233t-255 -100z" />
    <glyph glyph-name="afii10065.smcp" horiz-adv-x="1044" 
d="M727 399l-205 564l-205 -564h410zM778 266h-512l-92 -266h-174l430 1126h184l430 -1126h-174z" />
    <glyph glyph-name="afii10066.smcp" horiz-adv-x="1034" 
d="M604 553h-297v-410h297q84 1 144 61t61 144q0 84 -60 145q-61 60 -145 60zM143 0v1126h748v-143h-584v-287h297q152 0 260 -104t109 -244q0 -140 -109 -244t-260 -104h-461z" />
    <glyph glyph-name="afii10067.smcp" horiz-adv-x="1054" 
d="M307 983v-328h297q70 0 117 47t47 117t-47 117t-117 47h-297zM625 512h-318v-369h318q84 -1 139 53t55 132t-55 131t-139 53zM625 0h-482v1126h461q150 0 239 -80t89 -209q0 -128 -99 -209q-25 -20 -55 -34q29 -7 68 -30q40 -23 66 -51t49 -80t22 -116q0 -133 -100 -225
t-258 -92z" />
    <glyph glyph-name="afii10068.smcp" horiz-adv-x="860" 
d="M840 983h-533v-983h-164v1126h697v-143z" />
    <glyph glyph-name="afii10069.smcp" horiz-adv-x="1136" 
d="M799 143v840h-379l-72 -635q-8 -62 -31 -114t-43 -70l-18 -21h543zM-20 -246v389h81q11 6 44 36q33 31 54 80q21 48 25 89l92 778h687v-983h133v-389h-164v246h-789v-246h-163z" />
    <glyph glyph-name="afii10070.smcp" horiz-adv-x="993" 
d="M307 143h604v-143h-768v1126h748v-143h-584v-328h543v-143h-543v-369z" />
    <glyph glyph-name="afii10071.smcp" horiz-adv-x="993" 
d="M666 1321q-39 0 -66 27q-27 28 -27 66t27 65t66 27q40 0 66 -28q26 -26 26 -65t-26 -65t-66 -27zM358 1321q-40 0 -66 27q-26 28 -26 66t27 65t65 27t66 -28q27 -26 27 -65t-27 -65t-66 -27zM307 143h604v-143h-768v1126h748v-143h-584v-328h543v-143h-543v-369z" />
    <glyph glyph-name="afii10072.smcp" horiz-adv-x="1392" 
d="M778 0h-164v573l-430 -573h-204l450 573l-420 553h195l409 -553v553h164v-553l410 553h194l-419 -553l450 -573h-205l-430 573v-573z" />
    <glyph glyph-name="afii10073.smcp" horiz-adv-x="962" 
d="M484 1137q168 0 272 -90t104 -225t-119 -209q-27 -17 -45 -23l-20 -6q26 -6 69 -30q43 -23 71 -51t52 -80t23 -116q0 -129 -113 -223t-294 -94t-294 97t-129 241h164q16 -82 85 -138q70 -56 176 -57q106 0 174 55t67 129q0 74 -68 129t-178 56h-112v143h112q96 0 156 51
q59 51 59 123t-59 123t-155 51t-158 -50t-78 -124h-164q25 137 130 227t272 91z" />
    <glyph glyph-name="afii10074.smcp" horiz-adv-x="1177" 
d="M1034 0h-164v860l-583 -860h-144v1126h164v-860l584 860h143v-1126z" />
    <glyph glyph-name="afii10075.smcp" horiz-adv-x="1177" 
d="M584 1270q-104 0 -172 61t-84 164h123q8 -55 44 -89t89 -34t89 34t44 89h123q-16 -101 -84 -163t-172 -62zM1034 0h-164v860l-583 -860h-144v1126h164v-860l584 860h143v-1126z" />
    <glyph glyph-name="afii10076.smcp" horiz-adv-x="962" 
d="M307 573l451 553h194l-460 -553l491 -573h-205zM307 1126v-1126h-164v1126h164z" />
    <glyph glyph-name="afii10077.smcp" horiz-adv-x="1136" 
d="M993 1126v-1126h-164v983h-399l-51 -625q-14 -178 -96 -273t-201 -95l-92 10v133h51q72 0 119 57t55 168l61 768h717z" />
    <glyph glyph-name="afii10078.smcp" horiz-adv-x="1433" 
d="M307 0h-164v1126h185l389 -870l389 870h184v-1126h-164v799l-358 -799h-102l-359 799v-799z" />
    <glyph glyph-name="afii10079.smcp" horiz-adv-x="1157" 
d="M143 1126h164v-471h543v471h164v-1126h-164v512h-543v-512h-164v1126z" />
    <glyph glyph-name="afii10080.smcp" horiz-adv-x="1249" 
d="M1178 563q0 -237 -164 -405t-389 -168t-389 169t-164 405t164 404q164 169 389 169t389 -169t164 -405zM236 563q0 -182 116 -306t273 -124t273 124t116 306t-116 306t-274 124t-272 -124q-116 -124 -116 -306z" />
    <glyph glyph-name="afii10081.smcp" horiz-adv-x="1157" 
d="M143 1126h871v-1126h-164v983h-543v-983h-164v1126z" />
    <glyph glyph-name="afii10082.smcp" 
d="M307 553h246q98 0 162 61q63 62 63 154t-63 154t-162 61h-246v-430zM143 1126h410q165 0 277 -105t112 -253t-112 -252q-112 -106 -277 -106h-246v-410h-164v1126z" />
    <glyph glyph-name="afii10083.smcp" horiz-adv-x="1198" 
d="M625 993q-158 0 -274 -125q-115 -125 -115 -305t116 -305t273 -125q246 0 348 256h164q-41 -168 -181 -284t-331 -115q-225 0 -389 169t-164 405t164 404q164 169 376 169t342 -112t172 -288h-163q-41 115 -127 185t-211 71z" />
    <glyph glyph-name="afii10084.smcp" horiz-adv-x="942" 
d="M31 983v143h880v-143h-358v-983h-164v983h-358z" />
    <glyph glyph-name="afii10085.smcp" horiz-adv-x="972" 
d="M236 -20q-43 0 -103 20v143q31 -20 95 -20t98 27q33 27 63 86l51 102l-420 788h185l317 -604h10l256 604h185l-400 -890q-59 -132 -136 -194t-201 -62z" />
    <glyph glyph-name="afii10086.smcp" horiz-adv-x="1372" 
d="M768 -10h-164v133q-248 8 -390 134t-142 316q0 191 142 317t390 134v123h164v-123q248 -8 390 -134t142 -316t-142 -317q-142 -126 -390 -134v-133zM768 881v-615q180 8 274 90t95 217q-1 135 -95 217t-274 91zM236 574q0 -136 94 -218t274 -90v615q-180 -8 -274 -90
q-94 -81 -94 -217z" />
    <glyph glyph-name="afii10087.smcp" horiz-adv-x="983" 
d="M778 0l-286 461l-287 -461h-195l379 573l-358 553h194l267 -440l266 440h194l-358 -553l379 -573h-195z" />
    <glyph glyph-name="afii10088.smcp" horiz-adv-x="1157" 
d="M819 1126h164v-983h133v-389h-164v246h-809v1126h164v-983h512v983z" />
    <glyph glyph-name="afii10089.smcp" horiz-adv-x="1095" 
d="M788 1126h164v-1126h-164v430q-12 -10 -34 -26t-92 -40q-72 -26 -150 -26q-176 0 -283 106q-106 106 -106 283v399h164v-399q0 -246 225 -246q82 0 152 26t98 50l26 27v542z" />
    <glyph glyph-name="afii10090.smcp" horiz-adv-x="1576" 
d="M143 1126h164v-983h400v983h163v-983h400v983h164v-1126h-1291v1126z" />
    <glyph glyph-name="afii10091.smcp" horiz-adv-x="1607" 
d="M143 1126h164v-983h400v983h163v-983h400v983h164v-983h133v-389h-164v246h-1260v1126z" />
    <glyph glyph-name="afii10092.smcp" horiz-adv-x="1095" 
d="M655 573h-225v-430h225q97 -1 161 61t65 154q0 92 -64 154t-162 61zM655 0h-389v983h-266v143h430v-409h225q166 1 278 -105q111 -106 111 -254t-111 -253q-112 -105 -278 -105z" />
    <glyph glyph-name="afii10093.smcp" horiz-adv-x="1392" 
d="M532 573h-225v-430h225q98 -1 162 61t64 154t-64 154t-162 61zM532 0h-389v1126h164v-409h225q166 1 278 -105t112 -254t-112 -252q-112 -106 -278 -106zM1085 0v1126h164v-1126h-164z" />
    <glyph glyph-name="afii10094.smcp" horiz-adv-x="993" 
d="M553 573h-246v-430h246q97 -1 161 61t64 154t-63 154q-64 61 -162 61zM553 0h-410v1126h164v-409h246q165 1 277 -105t112 -254t-112 -252q-112 -106 -277 -106z" />
    <glyph glyph-name="afii10095.smcp" horiz-adv-x="1187" 
d="M492 492v143h460q-16 141 -131 250t-249 109t-220 -72q-86 -70 -127 -185h-164q41 176 172 288t343 112t376 -169t164 -405q0 -237 -164 -405t-373 -168t-348 116t-180 283h164q102 -256 348 -256q143 0 258 109t131 250h-460z" />
    <glyph glyph-name="afii10096.smcp" horiz-adv-x="1597" 
d="M1362 563q0 195 -106 313t-263 118q-158 0 -263 -118t-105 -313t105 -313t263 -117q157 -1 263 117t106 313zM1526 563q0 -249 -154 -411t-373 -162t-367 142t-171 360h-154v-492h-164v1126h164v-491h154q31 225 175 363t363 138t373 -161q154 -162 154 -412z" />
    <glyph glyph-name="afii10097.smcp" horiz-adv-x="1054" 
d="M92 778q0 148 106 248t273 100h440v-1126h-163v430h-256l-267 -430h-184l287 461q-27 5 -75 35q-48 28 -79 60t-56 91q-26 59 -26 131zM748 573v410h-277q-99 0 -157 -56q-58 -57 -58 -149t58 -148t157 -57h277z" />
    <glyph glyph-name="afii10098.smcp" horiz-adv-x="860" 
d="M840 983h-533v-983h-164v1126h533v195h164v-338z" />
    <glyph glyph-name="afii10099.smcp" horiz-adv-x="1187" 
d="M0 983v143h748v-143h-297v-389h10q5 15 31 42q87 91 238 91q152 0 264 -115q112 -116 112 -284t-125 -290t-315 -130v143q132 8 204 83q72 74 72 192t-68 188t-175 70t-178 -69t-70 -177v-338h-164v983h-287z" />
    <glyph glyph-name="afii10100.smcp" horiz-adv-x="860" 
d="M420 1270l123 246h153l-174 -246h-102zM840 983h-533v-983h-164v1126h697v-143z" />
    <glyph glyph-name="afii10101.smcp" horiz-adv-x="1198" 
d="M696 635v-143h-460q16 -141 131 -250t258 -109q246 0 348 256h164q-41 -168 -181 -284t-331 -115q-225 0 -389 169t-164 405t164 404q164 169 376 169t342 -112t172 -288h-163q-41 115 -127 186t-220 71t-249 -110q-115 -108 -131 -249h460z" />
    <glyph glyph-name="afii10102.smcp" horiz-adv-x="942" 
d="M102 837q0 119 102 209t271 91q169 -1 273 -93t112 -235h-164q-8 80 -68 132t-152 52t-151 -50t-59 -116q0 -67 64 -105t153 -60q91 -22 181 -52q90 -32 153 -104t63 -202t-104 -222t-287 -92t-292 95t-125 253h164q35 -205 256 -205q104 0 164 52t60 130t-62 122
q-64 44 -154 67q-90 24 -180 52t-154 95t-64 186z" />
    <glyph glyph-name="afii10103.smcp" horiz-adv-x="450" 
d="M307 1126v-1126h-164v1126h164z" />
    <glyph glyph-name="afii10104.smcp" horiz-adv-x="450" 
d="M379 1321q-39 0 -66 27q-27 28 -27 66t27 65t66 27t65 -28q26 -26 27 -65q-1 -39 -27 -65t-65 -27zM72 1321q-39 0 -66 27q-26 28 -26 66t26 65q27 27 66 27q40 0 66 -28q26 -26 26 -65t-26 -65t-66 -27zM307 1126v-1126h-164v1126h164z" />
    <glyph glyph-name="afii10105.smcp" horiz-adv-x="911" 
d="M614 1126h164v-747q0 -177 -104 -283t-272 -106t-275 98q-106 98 -107 240h164q0 -86 58 -140t159 -55q101 1 157 63t56 183v747z" />
    <glyph glyph-name="afii10106.smcp" horiz-adv-x="1638" 
d="M1198 573h-225v-430h225q98 -1 162 61t63 154q0 92 -63 154q-64 61 -162 61zM1198 0h-389v983h-379l-51 -625q-14 -178 -96 -273t-201 -95l-92 10v133h51q72 0 119 57t55 168l61 768h697v-409h225q166 1 278 -105t112 -254t-112 -253t-278 -105z" />
    <glyph glyph-name="afii10107.smcp" horiz-adv-x="1658" 
d="M1219 573h-226v-430h226q98 -1 161 61t64 154q0 92 -64 154t-161 61zM1219 0h-390v573h-522v-573h-164v1126h164v-409h522v409h164v-409h226q165 1 277 -105t112 -254t-112 -252q-112 -106 -277 -106z" />
    <glyph glyph-name="afii10108.smcp" horiz-adv-x="1208" 
d="M0 983v143h748v-143h-297v-389h10q5 15 31 42q87 91 238 91q152 0 264 -113t112 -266v-348h-164v348q0 100 -68 168t-175 68t-178 -69t-70 -177v-338h-164v983h-287z" />
    <glyph glyph-name="afii10109.smcp" horiz-adv-x="962" 
d="M461 1270l123 246h153l-174 -246h-102zM307 573l451 553h194l-460 -553l491 -573h-205zM307 1126v-1126h-164v1126h164z" />
    <glyph glyph-name="afii10110.smcp" horiz-adv-x="972" 
d="M236 -20q-43 0 -103 20v143q31 -20 95 -20t98 27q33 27 63 86l51 102l-420 788h185l317 -604h10l256 604h185l-400 -890q-59 -132 -136 -194t-201 -62zM512 1270q-96 0 -163 64t-83 161h123q8 -53 43 -88t80 -35t80 35t43 88h123q-16 -97 -83 -161t-163 -64z" />
    <glyph glyph-name="afii10193.smcp" horiz-adv-x="1157" 
d="M850 1126h164v-1126h-348v-246h-174v246h-349v1126h164v-983h543v983z" />
    <glyph glyph-name="dollar.smcp" horiz-adv-x="942" 
d="M102 829q0 111 78 195t209 106v170h164v-170q137 -24 218 -110t89 -211h-164q-8 80 -68 132t-152 52t-151 -50t-59 -116q0 -67 64 -105t153 -60q91 -22 181 -52q90 -32 153 -104t63 -195t-87 -213q-88 -90 -240 -104v-178h-164v182q-141 25 -223 115t-94 225h164
q35 -205 256 -205q104 0 164 52t60 130t-62 122q-64 44 -154 67q-90 24 -180 52t-154 95t-64 178z" />
    <glyph glyph-name="Euro.smcp" horiz-adv-x="1290" 
d="M717 623h-385q-4 -16 -4 -60l4 -61h385v-115h-357q46 -115 144 -185t213 -69q246 0 348 256h164q-41 -168 -180 -284q-139 -115 -325 -115t-332 111q-146 112 -202 286h-139v115h115q-2 20 -2 61l2 60h-115v114h139q52 174 200 287t337 113t320 -112t172 -288h-164
q-41 115 -127 186t-206 71t-217 -72q-97 -70 -145 -185h357v-114z" />
    <glyph glyph-name="currency.smcp" horiz-adv-x="1024" 
d="M963 778q-1 -148 -107 -248t-272 -100h-226v-92h359v-143h-359v-195h-163v195h-154v143h154v92h-154v143h154v553h389q166 0 272 -100t107 -248zM358 573h226q92 -1 153 59t62 146t-61 146t-154 59h-226v-410z" />
    <glyph glyph-name="uni20BD.smcp" horiz-adv-x="1024" 
d="M963 778q-1 -148 -107 -248t-272 -100h-226v-92h359v-143h-359v-195h-163v195h-154v143h154v92h-154v143h154v553h389q166 0 272 -100t107 -248zM358 573h226q92 -1 153 59t62 146t-61 146t-154 59h-226v-410z" />
    <glyph glyph-name="sterling.smcp" horiz-adv-x="931" 
d="M358 451v-185q0 -38 -15 -68t-32 -42l-14 -13h584v-143h-799v143q113 16 113 123v185h-113v143h113v194q0 154 97 251q98 97 246 97t242 -87q94 -88 111 -230h-164q-31 174 -184 174q-78 0 -131 -57t-54 -148v-194h287v-143h-287z" />
    <glyph glyph-name="uni20B4.smcp" horiz-adv-x="962" 
d="M133 256q0 82 51 133h-123v123h840v-123h-522q-9 -6 -23 -16t-37 -45t-23 -82t49 -85q48 -38 136 -38t143 44q54 44 62 109h154q-8 -122 -106 -204t-256 -82q-159 0 -252 77t-93 189zM829 870q0 -82 -51 -133h123v-123h-840v123h523q82 62 82 126q0 65 -48 103t-137 38
q-88 0 -142 -44t-63 -110h-153q8 121 105 204t256 83t252 -77t93 -190z" />
    <glyph glyph-name="yen.smcp" horiz-adv-x="1024" 
d="M164 317h266v113h-266v143h188l-321 553h194l287 -532l287 532h194l-321 -553h188v-143h-266v-113h266v-143h-266v-174h-164v174h-266v143z" />
    <glyph glyph-name="ampersand.smcp" horiz-adv-x="1044" 
d="M236 266q0 -55 45 -94t113 -39t130 31t90 61l31 31l-235 236l-72 -52q-102 -72 -102 -174zM317 867q0 -56 62 -130l61 -71l72 71q61 61 61 125t-35 97q-36 34 -94 34t-92 -35q-35 -35 -35 -91zM399 -10q-151 0 -239 76t-88 190q0 162 153 276l82 62l-51 51
q-102 102 -102 218t82 195t208 79t209 -78q84 -78 84 -200t-123 -224l-71 -62l205 -204l102 153h194l-194 -266l276 -256h-235l-143 143q-153 -153 -349 -153z" />
    <glyph glyph-name="afii61352.smcp" horiz-adv-x="1710" 
d="M1516 522q0 53 -35 88t-88 35t-88 -35t-35 -88t35 -88t88 -35t88 35t35 88zM1157 51v123h471v-123h-471zM1147 522q0 110 70 178t176 68t176 -69q69 -69 69 -177t-70 -178q-70 -68 -175 -68q-106 0 -176 68t-70 178zM860 1126h164v-1126h-154l-563 850v-850h-164v1126
h154l563 -850v850z" />
    <glyph glyph-name="I.sc_alt" horiz-adv-x="655" 
d="M594 983h-184v-840h184v-143h-533v143h185v840h-185v143h533v-143z" />
    <glyph glyph-name="Iacute.sc_alt" horiz-adv-x="655" 
d="M287 1270l123 246h153l-174 -246h-102zM594 983h-184v-840h184v-143h-533v143h185v840h-185v143h533v-143z" />
    <glyph glyph-name="Icircumflex.sc_alt" horiz-adv-x="655" 
d="M399 1505l185 -245h-154l-102 143l-103 -143h-153l184 245h143zM594 983h-184v-840h184v-143h-533v143h185v840h-185v143h533v-143z" />
    <glyph glyph-name="Idieresis.sc_alt" horiz-adv-x="655" 
d="M481 1321q-39 0 -65 27q-26 28 -27 66q0 38 27 65q28 27 66 27t65 -28q27 -26 27 -65t-28 -65q-26 -26 -65 -27zM174 1321q-40 0 -66 27q-26 28 -26 66t27 65t65 27t66 -28q26 -26 26 -65t-26 -65t-66 -27zM594 983h-184v-840h184v-143h-533v143h185v840h-185v143h533
v-143z" />
    <glyph glyph-name="Idotaccent.sc_alt" horiz-adv-x="655" 
d="M231 1408q0 42 28 70t70 28q41 0 69 -28t28 -70t-28 -70t-70 -28t-69 28q-28 28 -28 70zM594 983h-184v-840h184v-143h-533v143h185v840h-185v143h533v-143z" />
    <glyph glyph-name="Igrave.sc_alt" horiz-adv-x="655" 
d="M266 1516l123 -246h-102l-174 246h153zM594 983h-184v-840h184v-143h-533v143h185v840h-185v143h533v-143z" />
    <glyph glyph-name="Imacron.sc_alt" horiz-adv-x="655" 
d="M573 1444v-123h-491v123h491zM594 983h-184v-840h184v-143h-533v143h185v840h-185v143h533v-143z" />
    <glyph glyph-name="Iogonek.sc_alt" horiz-adv-x="655" 
d="M61 0v143h185v840h-185v143h533v-143h-184v-840h184v-143q-72 -82 -72 -174q0 -39 27 -66t65 -26l82 10v-82q-41 -10 -82 -10q-90 0 -142 48t-52 126q0 41 17 85t36 66l19 23h-431z" />
    <glyph glyph-name="afii10055.alt" horiz-adv-x="716" 
d="M72 143h204v1004h-204v143h573v-143h-205v-1004h205v-143h-573v143z" />
    <glyph glyph-name="afii10056.alt" horiz-adv-x="716" 
d="M72 143h204v1004h-204v143h573v-143h-205v-1004h205v-143h-573v143zM512 1464q-39 0 -66 27q-26 27 -26 65t26 66q27 27 66 27t66 -27q26 -27 26 -66q0 -40 -26 -66t-66 -26zM205 1464q-39 0 -66 27t-27 65t27 66q27 27 66 27t65 -27t27 -66q-1 -40 -27 -66t-65 -26z" />
    <glyph glyph-name="afii10103.sc_alt" horiz-adv-x="655" 
d="M594 983h-184v-840h184v-143h-533v143h185v840h-185v143h533v-143z" />
    <glyph glyph-name="afii10104.sc_alt" horiz-adv-x="655" 
d="M594 983h-184v-840h184v-143h-533v143h185v840h-185v143h533v-143zM481 1321q-39 0 -65 27q-26 28 -27 66q0 38 27 65q28 27 66 27t65 -28q27 -26 27 -65t-28 -65q-26 -26 -65 -27zM174 1321q-40 0 -66 27q-26 28 -26 66t27 65t65 27t66 -28q26 -26 26 -65t-26 -65
t-66 -27z" />
    </font>
</defs>
</svg>
