<svg width="106" height="20" viewBox="0 0 106 20" fill="none" xmlns="http://www.w3.org/2000/svg">
<path fill-rule="evenodd" clip-rule="evenodd" d="M65.7691 4.84053L66.1513 4.26005L69.4893 4.25993L68.5972 5.65156L67.9042 6.70367C68.5688 7.65948 68.9639 8.83087 68.9639 10.0978C68.9639 13.3274 66.397 15.9359 63.3411 15.9359C62.7287 15.9359 62.136 15.8312 61.5796 15.6377L60.938 16.6812H66.8292C68.0165 16.6812 68.9639 17.7398 68.9639 18.8208V20.0002H66.6106C66.6106 19.542 66.3196 19.1655 65.7528 19.1655H58.4167L57.6255 16.6812L59.2405 14.0748C58.3005 13.0332 57.7182 11.6359 57.7182 10.0978C57.7182 6.86827 60.2852 4.25977 63.3411 4.25977C64.2052 4.25977 65.0302 4.46833 65.7691 4.84053ZM60.5296 10.0975C60.5296 11.9608 61.7519 13.2029 63.341 13.2029C64.9301 13.2029 66.1524 11.9608 66.1524 10.0975C66.1524 8.23433 64.9301 6.99219 63.341 6.99219C61.7519 6.99219 60.5296 8.23433 60.5296 10.0975Z" />
<path fill-rule="evenodd" clip-rule="evenodd" d="M1.34459 15.7752V7.20443H0V4.59593H1.34459V4.09907C1.34459 1.61479 2.93365 0 5.13389 0C5.8673 0 6.47848 0.248429 6.47848 0.248429V2.73272C6.47848 2.73272 6.23401 2.6085 5.74506 2.6085C4.76718 2.6085 4.156 3.22957 4.156 4.22329V4.59593H6.47848V7.20443H4.156V15.7752H1.34459Z" />
<path fill-rule="evenodd" clip-rule="evenodd" d="M10.1453 10.0975C10.1453 11.9608 11.3676 13.2029 12.9567 13.2029C14.5457 13.2029 15.7681 11.9608 15.7681 10.0975C15.7681 8.23433 14.5457 6.99219 12.9567 6.99219C11.3676 6.99219 10.1453 8.23433 10.1453 10.0975ZM18.5799 10.0978C18.5799 13.3274 16.0129 15.9359 12.9571 15.9359C9.90117 15.9359 7.33423 13.3274 7.33423 10.0978C7.33423 6.86827 9.90117 4.25977 12.9571 4.25977C16.0129 4.25977 18.5799 6.86827 18.5799 10.0978Z" />
<path fill-rule="evenodd" clip-rule="evenodd" d="M24.7791 15.8117C22.0899 15.8117 20.2563 13.9485 20.2563 10.9673V4.25977H23.0678V10.5947C23.0678 12.0853 24.0456 13.079 25.3902 13.079C26.7348 13.079 27.7127 12.0853 27.7127 10.5947V4.25977H30.5241V15.6875H27.9572V14.5695C27.9572 14.5695 26.6126 15.8117 24.7791 15.8117Z" />
<path fill-rule="evenodd" clip-rule="evenodd" d="M38.5738 4.25977C41.263 4.25977 43.0965 6.12298 43.0965 9.10412V15.8117H40.2851V9.47676C40.2851 7.98619 39.3072 6.99248 37.9626 6.99248C36.618 6.99248 35.6402 7.98619 35.6402 9.47676V15.8117H32.8287V4.38398H35.3957V5.50191C35.3957 5.50191 36.7403 4.25977 38.5738 4.25977Z" />
<path fill-rule="evenodd" clip-rule="evenodd" d="M49.9591 15.7752C47.1477 15.7752 44.703 13.2909 44.703 9.93715C44.703 6.58336 47.1477 4.09907 49.9591 4.09907C51.7927 4.09907 52.8928 5.217 52.8928 5.217V0H55.7042V15.651H53.1372V14.5331C53.1372 14.5331 51.9149 15.7752 49.9591 15.7752ZM53.1374 9.93641C53.1374 8.0732 51.915 6.83105 50.326 6.83105C48.7369 6.83105 47.5146 8.0732 47.5146 9.93641C47.5146 11.7996 48.7369 13.0418 50.326 13.0418C51.915 13.0418 53.1374 11.7996 53.1374 9.93641Z" />
<path fill-rule="evenodd" clip-rule="evenodd" d="M73.0091 10.0975C73.0091 11.9608 74.2315 13.2029 75.8205 13.2029C77.4096 13.2029 78.6319 11.9608 78.6319 10.0975C78.6319 8.23433 77.4096 6.99219 75.8205 6.99219C74.2315 6.99219 73.0091 8.23433 73.0091 10.0975ZM81.4438 10.0978C81.4438 13.3274 78.8768 15.9359 75.8209 15.9359C72.7651 15.9359 70.1981 13.3274 70.1981 10.0978C70.1981 6.86827 72.7651 4.25977 75.8209 4.25977C78.8768 4.25977 81.4438 6.86827 81.4438 10.0978Z" />
<path fill-rule="evenodd" clip-rule="evenodd" d="M85.5823 10.0975C85.5823 11.9608 86.8046 13.2029 88.3937 13.2029C89.9828 13.2029 91.2051 11.9608 91.2051 10.0975C91.2051 8.23433 89.9828 6.99219 88.3937 6.99219C86.8046 6.99219 85.5823 8.23433 85.5823 10.0975ZM94.0166 10.0978C94.0166 13.3274 91.4497 15.9359 88.3938 15.9359C85.3379 15.9359 82.771 13.3274 82.771 10.0978C82.771 6.86827 85.3379 4.25977 88.3938 4.25977C91.4497 4.25977 94.0166 6.86827 94.0166 10.0978Z" />
<path fill-rule="evenodd" clip-rule="evenodd" d="M100.251 15.7752C97.4392 15.7752 94.9945 13.2909 94.9945 9.93715C94.9945 6.58336 97.4392 4.09907 100.251 4.09907C102.084 4.09907 103.184 5.217 103.184 5.217V0H105.996V15.651H103.429V14.5331C103.429 14.5331 102.206 15.7752 100.251 15.7752ZM103.428 9.93641C103.428 8.0732 102.206 6.83105 100.617 6.83105C99.0278 6.83105 97.8055 8.0732 97.8055 9.93641C97.8055 11.7996 99.0278 13.0418 100.617 13.0418C102.206 13.0418 103.428 11.7996 103.428 9.93641Z" />
</svg>
