<svg width="31" height="33" fill="none" xmlns="http://www.w3.org/2000/svg"><path fill-rule="evenodd" clip-rule="evenodd" d="M24.812 8.04l.611-.928h5.341l-1.427 2.226-1.11 1.684a9.488 9.488 0 011.696 5.43c0 5.168-4.107 9.342-8.996 9.342-.98 0-1.929-.168-2.819-.477l-1.027 1.67h9.427c1.9 0 3.415 1.693 3.415 3.423v1.887h-3.765c0-.733-.466-1.335-1.373-1.335H13.047l-1.266-3.976 2.584-4.17a9.477 9.477 0 01-2.435-6.363c0-5.168 4.107-9.342 8.997-9.342 1.382 0 2.702.334 3.885.93zm-8.384 8.411c0 2.982 1.956 4.969 4.498 4.969 2.543 0 4.499-1.988 4.499-4.969 0-2.981-1.956-4.969-4.499-4.969-2.542 0-4.498 1.988-4.498 4.97zM2.388 25.54V11.826H.236V7.653h2.152v-.795c0-3.975 2.542-6.56 6.063-6.56 1.173 0 2.151.398 2.151.398v3.975s-.39-.198-1.173-.198c-1.565 0-2.543.993-2.543 2.583v.597h3.716v4.173H6.886V25.54H2.388z" fill="#4054BF"/></svg>